<?xml version="1.0" encoding="utf-8" standalone="no"?>
<!DOCTYPE svg PUBLIC "-//W3C//DTD SVG 1.1//EN"
  "http://www.w3.org/Graphics/SVG/1.1/DTD/svg11.dtd">
<svg xmlns:xlink="http://www.w3.org/1999/xlink" width="288pt" height="216pt" viewBox="0 0 288 216" xmlns="http://www.w3.org/2000/svg" version="1.1">
 <metadata>
  <rdf:RDF xmlns:dc="http://purl.org/dc/elements/1.1/" xmlns:cc="http://creativecommons.org/ns#" xmlns:rdf="http://www.w3.org/1999/02/22-rdf-syntax-ns#">
   <cc:Work>
    <dc:type rdf:resource="http://purl.org/dc/dcmitype/StillImage"/>
    <dc:date>2024-12-23T18:31:06.322987</dc:date>
    <dc:format>image/svg+xml</dc:format>
    <dc:creator>
     <cc:Agent>
      <dc:title>Matplotlib v3.6.0, https://matplotlib.org/</dc:title>
     </cc:Agent>
    </dc:creator>
   </cc:Work>
  </rdf:RDF>
 </metadata>
 <defs>
  <style type="text/css">*{stroke-linejoin: round; stroke-linecap: butt}</style>
 </defs>
 <g id="figure_1">
  <g id="patch_1">
   <path d="M 0 216 
L 288 216 
L 288 0 
L 0 0 
z
" style="fill: #ffffff"/>
  </g>
  <g id="axes_1">
   <g id="patch_2">
    <path d="M 34.15899 183.28351 
L 278.326635 183.28351 
L 278.326635 3.00024 
L 34.15899 3.00024 
z
" style="fill: #ffffff"/>
   </g>
   <g id="patch_3">
    <path d="M -35.607679 183.28351 
L -31.686988 183.28351 
L -31.686988 162.471588 
L -35.607679 162.471588 
z
" clip-path="url(#p595a1ab55b)" style="fill: #0000ff; fill-opacity: 0.5; stroke: #000000; stroke-linejoin: miter"/>
   </g>
   <g id="patch_4">
    <path d="M -31.686988 183.28351 
L -27.766298 183.28351 
L -27.766298 183.28351 
L -31.686988 183.28351 
z
" clip-path="url(#p595a1ab55b)" style="fill: #0000ff; fill-opacity: 0.5; stroke: #000000; stroke-linejoin: miter"/>
   </g>
   <g id="patch_5">
    <path d="M -27.766298 183.28351 
L -23.845607 183.28351 
L -23.845607 183.28351 
L -27.766298 183.28351 
z
" clip-path="url(#p595a1ab55b)" style="fill: #0000ff; fill-opacity: 0.5; stroke: #000000; stroke-linejoin: miter"/>
   </g>
   <g id="patch_6">
    <path d="M -23.845607 183.28351 
L -19.924916 183.28351 
L -19.924916 183.28351 
L -23.845607 183.28351 
z
" clip-path="url(#p595a1ab55b)" style="fill: #0000ff; fill-opacity: 0.5; stroke: #000000; stroke-linejoin: miter"/>
   </g>
   <g id="patch_7">
    <path d="M -19.924916 183.28351 
L -16.004225 183.28351 
L -16.004225 183.28351 
L -19.924916 183.28351 
z
" clip-path="url(#p595a1ab55b)" style="fill: #0000ff; fill-opacity: 0.5; stroke: #000000; stroke-linejoin: miter"/>
   </g>
   <g id="patch_8">
    <path d="M -16.004225 183.28351 
L -12.083534 183.28351 
L -12.083534 183.28351 
L -16.004225 183.28351 
z
" clip-path="url(#p595a1ab55b)" style="fill: #0000ff; fill-opacity: 0.5; stroke: #000000; stroke-linejoin: miter"/>
   </g>
   <g id="patch_9">
    <path d="M -12.083534 183.28351 
L -8.162844 183.28351 
L -8.162844 183.28351 
L -12.083534 183.28351 
z
" clip-path="url(#p595a1ab55b)" style="fill: #0000ff; fill-opacity: 0.5; stroke: #000000; stroke-linejoin: miter"/>
   </g>
   <g id="patch_10">
    <path d="M -8.162844 183.28351 
L -4.242153 183.28351 
L -4.242153 183.28351 
L -8.162844 183.28351 
z
" clip-path="url(#p595a1ab55b)" style="fill: #0000ff; fill-opacity: 0.5; stroke: #000000; stroke-linejoin: miter"/>
   </g>
   <g id="patch_11">
    <path d="M -4.242153 183.28351 
L -0.321462 183.28351 
L -0.321462 183.28351 
L -4.242153 183.28351 
z
" clip-path="url(#p595a1ab55b)" style="fill: #0000ff; fill-opacity: 0.5; stroke: #000000; stroke-linejoin: miter"/>
   </g>
   <g id="patch_12">
    <path d="M -0.321462 183.28351 
L 3.599229 183.28351 
L 3.599229 183.28351 
L -0.321462 183.28351 
z
" clip-path="url(#p595a1ab55b)" style="fill: #0000ff; fill-opacity: 0.5; stroke: #000000; stroke-linejoin: miter"/>
   </g>
   <g id="patch_13">
    <path d="M 3.599229 183.28351 
L 7.519919 183.28351 
L 7.519919 183.28351 
L 3.599229 183.28351 
z
" clip-path="url(#p595a1ab55b)" style="fill: #0000ff; fill-opacity: 0.5; stroke: #000000; stroke-linejoin: miter"/>
   </g>
   <g id="patch_14">
    <path d="M 7.519919 183.28351 
L 11.44061 183.28351 
L 11.44061 183.28351 
L 7.519919 183.28351 
z
" clip-path="url(#p595a1ab55b)" style="fill: #0000ff; fill-opacity: 0.5; stroke: #000000; stroke-linejoin: miter"/>
   </g>
   <g id="patch_15">
    <path d="M 11.44061 183.28351 
L 15.361301 183.28351 
L 15.361301 183.28351 
L 11.44061 183.28351 
z
" clip-path="url(#p595a1ab55b)" style="fill: #0000ff; fill-opacity: 0.5; stroke: #000000; stroke-linejoin: miter"/>
   </g>
   <g id="patch_16">
    <path d="M 15.361301 183.28351 
L 19.281992 183.28351 
L 19.281992 183.28351 
L 15.361301 183.28351 
z
" clip-path="url(#p595a1ab55b)" style="fill: #0000ff; fill-opacity: 0.5; stroke: #000000; stroke-linejoin: miter"/>
   </g>
   <g id="patch_17">
    <path d="M 19.281992 183.28351 
L 23.202682 183.28351 
L 23.202682 183.28351 
L 19.281992 183.28351 
z
" clip-path="url(#p595a1ab55b)" style="fill: #0000ff; fill-opacity: 0.5; stroke: #000000; stroke-linejoin: miter"/>
   </g>
   <g id="patch_18">
    <path d="M 23.202682 183.28351 
L 27.123373 183.28351 
L 27.123373 183.28351 
L 23.202682 183.28351 
z
" clip-path="url(#p595a1ab55b)" style="fill: #0000ff; fill-opacity: 0.5; stroke: #000000; stroke-linejoin: miter"/>
   </g>
   <g id="patch_19">
    <path d="M 27.123373 183.28351 
L 31.044064 183.28351 
L 31.044064 183.28351 
L 27.123373 183.28351 
z
" clip-path="url(#p595a1ab55b)" style="fill: #0000ff; fill-opacity: 0.5; stroke: #000000; stroke-linejoin: miter"/>
   </g>
   <g id="patch_20">
    <path d="M 31.044064 183.28351 
L 34.964755 183.28351 
L 34.964755 183.28351 
L 31.044064 183.28351 
z
" clip-path="url(#p595a1ab55b)" style="fill: #0000ff; fill-opacity: 0.5; stroke: #000000; stroke-linejoin: miter"/>
   </g>
   <g id="patch_21">
    <path d="M 34.964755 183.28351 
L 38.885446 183.28351 
L 38.885446 183.28351 
L 34.964755 183.28351 
z
" clip-path="url(#p595a1ab55b)" style="fill: #0000ff; fill-opacity: 0.5; stroke: #000000; stroke-linejoin: miter"/>
   </g>
   <g id="patch_22">
    <path d="M 38.885446 183.28351 
L 42.806136 183.28351 
L 42.806136 183.28351 
L 38.885446 183.28351 
z
" clip-path="url(#p595a1ab55b)" style="fill: #0000ff; fill-opacity: 0.5; stroke: #000000; stroke-linejoin: miter"/>
   </g>
   <g id="patch_23">
    <path d="M 42.806136 183.28351 
L 46.726827 183.28351 
L 46.726827 183.28351 
L 42.806136 183.28351 
z
" clip-path="url(#p595a1ab55b)" style="fill: #0000ff; fill-opacity: 0.5; stroke: #000000; stroke-linejoin: miter"/>
   </g>
   <g id="patch_24">
    <path d="M 46.726827 183.28351 
L 50.647518 183.28351 
L 50.647518 183.28351 
L 46.726827 183.28351 
z
" clip-path="url(#p595a1ab55b)" style="fill: #0000ff; fill-opacity: 0.5; stroke: #000000; stroke-linejoin: miter"/>
   </g>
   <g id="patch_25">
    <path d="M 50.647518 183.28351 
L 54.568209 183.28351 
L 54.568209 183.28351 
L 50.647518 183.28351 
z
" clip-path="url(#p595a1ab55b)" style="fill: #0000ff; fill-opacity: 0.5; stroke: #000000; stroke-linejoin: miter"/>
   </g>
   <g id="patch_26">
    <path d="M 54.568209 183.28351 
L 58.488899 183.28351 
L 58.488899 183.28351 
L 54.568209 183.28351 
z
" clip-path="url(#p595a1ab55b)" style="fill: #0000ff; fill-opacity: 0.5; stroke: #000000; stroke-linejoin: miter"/>
   </g>
   <g id="patch_27">
    <path d="M 58.488899 183.28351 
L 62.40959 183.28351 
L 62.40959 183.28351 
L 58.488899 183.28351 
z
" clip-path="url(#p595a1ab55b)" style="fill: #0000ff; fill-opacity: 0.5; stroke: #000000; stroke-linejoin: miter"/>
   </g>
   <g id="patch_28">
    <path d="M 62.40959 183.28351 
L 66.330281 183.28351 
L 66.330281 183.28351 
L 62.40959 183.28351 
z
" clip-path="url(#p595a1ab55b)" style="fill: #0000ff; fill-opacity: 0.5; stroke: #000000; stroke-linejoin: miter"/>
   </g>
   <g id="patch_29">
    <path d="M 66.330281 183.28351 
L 70.250972 183.28351 
L 70.250972 183.28351 
L 66.330281 183.28351 
z
" clip-path="url(#p595a1ab55b)" style="fill: #0000ff; fill-opacity: 0.5; stroke: #000000; stroke-linejoin: miter"/>
   </g>
   <g id="patch_30">
    <path d="M 70.250972 183.28351 
L 74.171662 183.28351 
L 74.171662 183.28351 
L 70.250972 183.28351 
z
" clip-path="url(#p595a1ab55b)" style="fill: #0000ff; fill-opacity: 0.5; stroke: #000000; stroke-linejoin: miter"/>
   </g>
   <g id="patch_31">
    <path d="M 74.171662 183.28351 
L 78.092353 183.28351 
L 78.092353 183.28351 
L 74.171662 183.28351 
z
" clip-path="url(#p595a1ab55b)" style="fill: #0000ff; fill-opacity: 0.5; stroke: #000000; stroke-linejoin: miter"/>
   </g>
   <g id="patch_32">
    <path d="M 78.092353 183.28351 
L 82.013044 183.28351 
L 82.013044 183.28351 
L 78.092353 183.28351 
z
" clip-path="url(#p595a1ab55b)" style="fill: #0000ff; fill-opacity: 0.5; stroke: #000000; stroke-linejoin: miter"/>
   </g>
   <g id="patch_33">
    <path d="M 82.013044 183.28351 
L 85.933735 183.28351 
L 85.933735 183.28351 
L 82.013044 183.28351 
z
" clip-path="url(#p595a1ab55b)" style="fill: #0000ff; fill-opacity: 0.5; stroke: #000000; stroke-linejoin: miter"/>
   </g>
   <g id="patch_34">
    <path d="M 85.933735 183.28351 
L 89.854425 183.28351 
L 89.854425 165.073079 
L 85.933735 165.073079 
z
" clip-path="url(#p595a1ab55b)" style="fill: #0000ff; fill-opacity: 0.5; stroke: #000000; stroke-linejoin: miter"/>
   </g>
   <g id="patch_35">
    <path d="M 89.854425 183.28351 
L 93.775116 183.28351 
L 93.775116 167.674569 
L 89.854425 167.674569 
z
" clip-path="url(#p595a1ab55b)" style="fill: #0000ff; fill-opacity: 0.5; stroke: #000000; stroke-linejoin: miter"/>
   </g>
   <g id="patch_36">
    <path d="M 93.775116 183.28351 
L 97.695807 183.28351 
L 97.695807 165.073079 
L 93.775116 165.073079 
z
" clip-path="url(#p595a1ab55b)" style="fill: #0000ff; fill-opacity: 0.5; stroke: #000000; stroke-linejoin: miter"/>
   </g>
   <g id="patch_37">
    <path d="M 97.695807 183.28351 
L 101.616498 183.28351 
L 101.616498 154.667118 
L 97.695807 154.667118 
z
" clip-path="url(#p595a1ab55b)" style="fill: #0000ff; fill-opacity: 0.5; stroke: #000000; stroke-linejoin: miter"/>
   </g>
   <g id="patch_38">
    <path d="M 101.616498 183.28351 
L 105.537189 183.28351 
L 105.537189 144.261157 
L 101.616498 144.261157 
z
" clip-path="url(#p595a1ab55b)" style="fill: #0000ff; fill-opacity: 0.5; stroke: #000000; stroke-linejoin: miter"/>
   </g>
   <g id="patch_39">
    <path d="M 105.537189 183.28351 
L 109.457879 183.28351 
L 109.457879 141.659667 
L 105.537189 141.659667 
z
" clip-path="url(#p595a1ab55b)" style="fill: #0000ff; fill-opacity: 0.5; stroke: #000000; stroke-linejoin: miter"/>
   </g>
   <g id="patch_40">
    <path d="M 109.457879 183.28351 
L 113.37857 183.28351 
L 113.37857 133.855196 
L 109.457879 133.855196 
z
" clip-path="url(#p595a1ab55b)" style="fill: #0000ff; fill-opacity: 0.5; stroke: #000000; stroke-linejoin: miter"/>
   </g>
   <g id="patch_41">
    <path d="M 113.37857 183.28351 
L 117.299261 183.28351 
L 117.299261 131.253706 
L 113.37857 131.253706 
z
" clip-path="url(#p595a1ab55b)" style="fill: #0000ff; fill-opacity: 0.5; stroke: #000000; stroke-linejoin: miter"/>
   </g>
   <g id="patch_42">
    <path d="M 117.299261 183.28351 
L 121.219952 183.28351 
L 121.219952 123.449236 
L 117.299261 123.449236 
z
" clip-path="url(#p595a1ab55b)" style="fill: #0000ff; fill-opacity: 0.5; stroke: #000000; stroke-linejoin: miter"/>
   </g>
   <g id="patch_43">
    <path d="M -35.607679 183.28351 
L -30.812332 183.28351 
L -30.812332 159.870098 
L -35.607679 159.870098 
z
" clip-path="url(#p595a1ab55b)" style="fill: #b2b2b2; fill-opacity: 0.5; stroke: #000000; stroke-linejoin: miter"/>
   </g>
   <g id="patch_44">
    <path d="M -30.812332 183.28351 
L -26.016986 183.28351 
L -26.016986 183.28351 
L -30.812332 183.28351 
z
" clip-path="url(#p595a1ab55b)" style="fill: #b2b2b2; fill-opacity: 0.5; stroke: #000000; stroke-linejoin: miter"/>
   </g>
   <g id="patch_45">
    <path d="M -26.016986 183.28351 
L -21.221639 183.28351 
L -21.221639 183.28351 
L -26.016986 183.28351 
z
" clip-path="url(#p595a1ab55b)" style="fill: #b2b2b2; fill-opacity: 0.5; stroke: #000000; stroke-linejoin: miter"/>
   </g>
   <g id="patch_46">
    <path d="M -21.221639 183.28351 
L -16.426292 183.28351 
L -16.426292 183.28351 
L -21.221639 183.28351 
z
" clip-path="url(#p595a1ab55b)" style="fill: #b2b2b2; fill-opacity: 0.5; stroke: #000000; stroke-linejoin: miter"/>
   </g>
   <g id="patch_47">
    <path d="M -16.426292 183.28351 
L -11.630946 183.28351 
L -11.630946 183.28351 
L -16.426292 183.28351 
z
" clip-path="url(#p595a1ab55b)" style="fill: #b2b2b2; fill-opacity: 0.5; stroke: #000000; stroke-linejoin: miter"/>
   </g>
   <g id="patch_48">
    <path d="M -11.630946 183.28351 
L -6.835599 183.28351 
L -6.835599 183.28351 
L -11.630946 183.28351 
z
" clip-path="url(#p595a1ab55b)" style="fill: #b2b2b2; fill-opacity: 0.5; stroke: #000000; stroke-linejoin: miter"/>
   </g>
   <g id="patch_49">
    <path d="M -6.835599 183.28351 
L -2.040253 183.28351 
L -2.040253 183.28351 
L -6.835599 183.28351 
z
" clip-path="url(#p595a1ab55b)" style="fill: #b2b2b2; fill-opacity: 0.5; stroke: #000000; stroke-linejoin: miter"/>
   </g>
   <g id="patch_50">
    <path d="M -2.040253 183.28351 
L 2.755094 183.28351 
L 2.755094 183.28351 
L -2.040253 183.28351 
z
" clip-path="url(#p595a1ab55b)" style="fill: #b2b2b2; fill-opacity: 0.5; stroke: #000000; stroke-linejoin: miter"/>
   </g>
   <g id="patch_51">
    <path d="M 2.755094 183.28351 
L 7.550441 183.28351 
L 7.550441 183.28351 
L 2.755094 183.28351 
z
" clip-path="url(#p595a1ab55b)" style="fill: #b2b2b2; fill-opacity: 0.5; stroke: #000000; stroke-linejoin: miter"/>
   </g>
   <g id="patch_52">
    <path d="M 7.550441 183.28351 
L 12.345787 183.28351 
L 12.345787 183.28351 
L 7.550441 183.28351 
z
" clip-path="url(#p595a1ab55b)" style="fill: #b2b2b2; fill-opacity: 0.5; stroke: #000000; stroke-linejoin: miter"/>
   </g>
   <g id="patch_53">
    <path d="M 12.345787 183.28351 
L 17.141134 183.28351 
L 17.141134 183.28351 
L 12.345787 183.28351 
z
" clip-path="url(#p595a1ab55b)" style="fill: #b2b2b2; fill-opacity: 0.5; stroke: #000000; stroke-linejoin: miter"/>
   </g>
   <g id="patch_54">
    <path d="M 17.141134 183.28351 
L 21.936481 183.28351 
L 21.936481 183.28351 
L 17.141134 183.28351 
z
" clip-path="url(#p595a1ab55b)" style="fill: #b2b2b2; fill-opacity: 0.5; stroke: #000000; stroke-linejoin: miter"/>
   </g>
   <g id="patch_55">
    <path d="M 21.936481 183.28351 
L 26.731827 183.28351 
L 26.731827 183.28351 
L 21.936481 183.28351 
z
" clip-path="url(#p595a1ab55b)" style="fill: #b2b2b2; fill-opacity: 0.5; stroke: #000000; stroke-linejoin: miter"/>
   </g>
   <g id="patch_56">
    <path d="M 26.731827 183.28351 
L 31.527174 183.28351 
L 31.527174 183.28351 
L 26.731827 183.28351 
z
" clip-path="url(#p595a1ab55b)" style="fill: #b2b2b2; fill-opacity: 0.5; stroke: #000000; stroke-linejoin: miter"/>
   </g>
   <g id="patch_57">
    <path d="M 31.527174 183.28351 
L 36.322521 183.28351 
L 36.322521 183.28351 
L 31.527174 183.28351 
z
" clip-path="url(#p595a1ab55b)" style="fill: #b2b2b2; fill-opacity: 0.5; stroke: #000000; stroke-linejoin: miter"/>
   </g>
   <g id="patch_58">
    <path d="M 36.322521 183.28351 
L 41.117867 183.28351 
L 41.117867 183.28351 
L 36.322521 183.28351 
z
" clip-path="url(#p595a1ab55b)" style="fill: #b2b2b2; fill-opacity: 0.5; stroke: #000000; stroke-linejoin: miter"/>
   </g>
   <g id="patch_59">
    <path d="M 41.117867 183.28351 
L 45.913214 183.28351 
L 45.913214 183.28351 
L 41.117867 183.28351 
z
" clip-path="url(#p595a1ab55b)" style="fill: #b2b2b2; fill-opacity: 0.5; stroke: #000000; stroke-linejoin: miter"/>
   </g>
   <g id="patch_60">
    <path d="M 45.913214 183.28351 
L 50.708561 183.28351 
L 50.708561 183.28351 
L 45.913214 183.28351 
z
" clip-path="url(#p595a1ab55b)" style="fill: #b2b2b2; fill-opacity: 0.5; stroke: #000000; stroke-linejoin: miter"/>
   </g>
   <g id="patch_61">
    <path d="M 50.708561 183.28351 
L 55.503907 183.28351 
L 55.503907 183.28351 
L 50.708561 183.28351 
z
" clip-path="url(#p595a1ab55b)" style="fill: #b2b2b2; fill-opacity: 0.5; stroke: #000000; stroke-linejoin: miter"/>
   </g>
   <g id="patch_62">
    <path d="M 55.503907 183.28351 
L 60.299254 183.28351 
L 60.299254 183.28351 
L 55.503907 183.28351 
z
" clip-path="url(#p595a1ab55b)" style="fill: #b2b2b2; fill-opacity: 0.5; stroke: #000000; stroke-linejoin: miter"/>
   </g>
   <g id="patch_63">
    <path d="M 60.299254 183.28351 
L 65.094601 183.28351 
L 65.094601 183.28351 
L 60.299254 183.28351 
z
" clip-path="url(#p595a1ab55b)" style="fill: #b2b2b2; fill-opacity: 0.5; stroke: #000000; stroke-linejoin: miter"/>
   </g>
   <g id="patch_64">
    <path d="M 65.094601 183.28351 
L 69.889947 183.28351 
L 69.889947 183.28351 
L 65.094601 183.28351 
z
" clip-path="url(#p595a1ab55b)" style="fill: #b2b2b2; fill-opacity: 0.5; stroke: #000000; stroke-linejoin: miter"/>
   </g>
   <g id="patch_65">
    <path d="M 69.889947 183.28351 
L 74.685294 183.28351 
L 74.685294 183.28351 
L 69.889947 183.28351 
z
" clip-path="url(#p595a1ab55b)" style="fill: #b2b2b2; fill-opacity: 0.5; stroke: #000000; stroke-linejoin: miter"/>
   </g>
   <g id="patch_66">
    <path d="M 74.685294 183.28351 
L 79.48064 183.28351 
L 79.48064 183.28351 
L 74.685294 183.28351 
z
" clip-path="url(#p595a1ab55b)" style="fill: #b2b2b2; fill-opacity: 0.5; stroke: #000000; stroke-linejoin: miter"/>
   </g>
   <g id="patch_67">
    <path d="M 79.48064 183.28351 
L 84.275987 183.28351 
L 84.275987 183.28351 
L 79.48064 183.28351 
z
" clip-path="url(#p595a1ab55b)" style="fill: #b2b2b2; fill-opacity: 0.5; stroke: #000000; stroke-linejoin: miter"/>
   </g>
   <g id="patch_68">
    <path d="M 84.275987 183.28351 
L 89.071334 183.28351 
L 89.071334 183.28351 
L 84.275987 183.28351 
z
" clip-path="url(#p595a1ab55b)" style="fill: #b2b2b2; fill-opacity: 0.5; stroke: #000000; stroke-linejoin: miter"/>
   </g>
   <g id="patch_69">
    <path d="M 89.071334 183.28351 
L 93.86668 183.28351 
L 93.86668 183.28351 
L 89.071334 183.28351 
z
" clip-path="url(#p595a1ab55b)" style="fill: #b2b2b2; fill-opacity: 0.5; stroke: #000000; stroke-linejoin: miter"/>
   </g>
   <g id="patch_70">
    <path d="M 93.86668 183.28351 
L 98.662027 183.28351 
L 98.662027 183.28351 
L 93.86668 183.28351 
z
" clip-path="url(#p595a1ab55b)" style="fill: #b2b2b2; fill-opacity: 0.5; stroke: #000000; stroke-linejoin: miter"/>
   </g>
   <g id="patch_71">
    <path d="M 98.662027 183.28351 
L 103.457374 183.28351 
L 103.457374 183.28351 
L 98.662027 183.28351 
z
" clip-path="url(#p595a1ab55b)" style="fill: #b2b2b2; fill-opacity: 0.5; stroke: #000000; stroke-linejoin: miter"/>
   </g>
   <g id="patch_72">
    <path d="M 103.457374 183.28351 
L 108.25272 183.28351 
L 108.25272 183.28351 
L 103.457374 183.28351 
z
" clip-path="url(#p595a1ab55b)" style="fill: #b2b2b2; fill-opacity: 0.5; stroke: #000000; stroke-linejoin: miter"/>
   </g>
   <g id="patch_73">
    <path d="M 108.25272 183.28351 
L 113.048067 183.28351 
L 113.048067 183.28351 
L 108.25272 183.28351 
z
" clip-path="url(#p595a1ab55b)" style="fill: #b2b2b2; fill-opacity: 0.5; stroke: #000000; stroke-linejoin: miter"/>
   </g>
   <g id="patch_74">
    <path d="M 113.048067 183.28351 
L 117.843414 183.28351 
L 117.843414 183.28351 
L 113.048067 183.28351 
z
" clip-path="url(#p595a1ab55b)" style="fill: #b2b2b2; fill-opacity: 0.5; stroke: #000000; stroke-linejoin: miter"/>
   </g>
   <g id="patch_75">
    <path d="M 117.843414 183.28351 
L 122.63876 183.28351 
L 122.63876 178.08053 
L 117.843414 178.08053 
z
" clip-path="url(#p595a1ab55b)" style="fill: #b2b2b2; fill-opacity: 0.5; stroke: #000000; stroke-linejoin: miter"/>
   </g>
   <g id="patch_76">
    <path d="M 122.63876 183.28351 
L 127.434107 183.28351 
L 127.434107 175.479039 
L 122.63876 175.479039 
z
" clip-path="url(#p595a1ab55b)" style="fill: #b2b2b2; fill-opacity: 0.5; stroke: #000000; stroke-linejoin: miter"/>
   </g>
   <g id="patch_77">
    <path d="M 127.434107 183.28351 
L 132.229454 183.28351 
L 132.229454 149.464138 
L 127.434107 149.464138 
z
" clip-path="url(#p595a1ab55b)" style="fill: #b2b2b2; fill-opacity: 0.5; stroke: #000000; stroke-linejoin: miter"/>
   </g>
   <g id="patch_78">
    <path d="M 132.229454 183.28351 
L 137.0248 183.28351 
L 137.0248 162.471588 
L 132.229454 162.471588 
z
" clip-path="url(#p595a1ab55b)" style="fill: #b2b2b2; fill-opacity: 0.5; stroke: #000000; stroke-linejoin: miter"/>
   </g>
   <g id="patch_79">
    <path d="M 137.0248 183.28351 
L 141.820147 183.28351 
L 141.820147 144.261157 
L 137.0248 144.261157 
z
" clip-path="url(#p595a1ab55b)" style="fill: #b2b2b2; fill-opacity: 0.5; stroke: #000000; stroke-linejoin: miter"/>
   </g>
   <g id="patch_80">
    <path d="M 141.820147 183.28351 
L 146.615494 183.28351 
L 146.615494 113.043275 
L 141.820147 113.043275 
z
" clip-path="url(#p595a1ab55b)" style="fill: #b2b2b2; fill-opacity: 0.5; stroke: #000000; stroke-linejoin: miter"/>
   </g>
   <g id="patch_81">
    <path d="M 146.615494 183.28351 
L 151.41084 183.28351 
L 151.41084 84.426883 
L 146.615494 84.426883 
z
" clip-path="url(#p595a1ab55b)" style="fill: #b2b2b2; fill-opacity: 0.5; stroke: #000000; stroke-linejoin: miter"/>
   </g>
   <g id="patch_82">
    <path d="M 151.41084 183.28351 
L 156.206187 183.28351 
L 156.206187 48.00602 
L 151.41084 48.00602 
z
" clip-path="url(#p595a1ab55b)" style="fill: #b2b2b2; fill-opacity: 0.5; stroke: #000000; stroke-linejoin: miter"/>
   </g>
   <g id="patch_83">
    <path d="M -35.607679 183.28351 
L -29.945525 183.28351 
L -29.945525 165.073079 
L -35.607679 165.073079 
z
" clip-path="url(#p595a1ab55b)" style="fill: #b2b2b2; fill-opacity: 0.5; stroke: #000000; stroke-linejoin: miter"/>
   </g>
   <g id="patch_84">
    <path d="M -29.945525 183.28351 
L -24.283371 183.28351 
L -24.283371 183.28351 
L -29.945525 183.28351 
z
" clip-path="url(#p595a1ab55b)" style="fill: #b2b2b2; fill-opacity: 0.5; stroke: #000000; stroke-linejoin: miter"/>
   </g>
   <g id="patch_85">
    <path d="M -24.283371 183.28351 
L -18.621217 183.28351 
L -18.621217 183.28351 
L -24.283371 183.28351 
z
" clip-path="url(#p595a1ab55b)" style="fill: #b2b2b2; fill-opacity: 0.5; stroke: #000000; stroke-linejoin: miter"/>
   </g>
   <g id="patch_86">
    <path d="M -18.621217 183.28351 
L -12.959062 183.28351 
L -12.959062 183.28351 
L -18.621217 183.28351 
z
" clip-path="url(#p595a1ab55b)" style="fill: #b2b2b2; fill-opacity: 0.5; stroke: #000000; stroke-linejoin: miter"/>
   </g>
   <g id="patch_87">
    <path d="M -12.959062 183.28351 
L -7.296908 183.28351 
L -7.296908 183.28351 
L -12.959062 183.28351 
z
" clip-path="url(#p595a1ab55b)" style="fill: #b2b2b2; fill-opacity: 0.5; stroke: #000000; stroke-linejoin: miter"/>
   </g>
   <g id="patch_88">
    <path d="M -7.296908 183.28351 
L -1.634754 183.28351 
L -1.634754 183.28351 
L -7.296908 183.28351 
z
" clip-path="url(#p595a1ab55b)" style="fill: #b2b2b2; fill-opacity: 0.5; stroke: #000000; stroke-linejoin: miter"/>
   </g>
   <g id="patch_89">
    <path d="M -1.634754 183.28351 
L 4.0274 183.28351 
L 4.0274 183.28351 
L -1.634754 183.28351 
z
" clip-path="url(#p595a1ab55b)" style="fill: #b2b2b2; fill-opacity: 0.5; stroke: #000000; stroke-linejoin: miter"/>
   </g>
   <g id="patch_90">
    <path d="M 4.0274 183.28351 
L 9.689554 183.28351 
L 9.689554 183.28351 
L 4.0274 183.28351 
z
" clip-path="url(#p595a1ab55b)" style="fill: #b2b2b2; fill-opacity: 0.5; stroke: #000000; stroke-linejoin: miter"/>
   </g>
   <g id="patch_91">
    <path d="M 9.689554 183.28351 
L 15.351708 183.28351 
L 15.351708 183.28351 
L 9.689554 183.28351 
z
" clip-path="url(#p595a1ab55b)" style="fill: #b2b2b2; fill-opacity: 0.5; stroke: #000000; stroke-linejoin: miter"/>
   </g>
   <g id="patch_92">
    <path d="M 15.351708 183.28351 
L 21.013863 183.28351 
L 21.013863 183.28351 
L 15.351708 183.28351 
z
" clip-path="url(#p595a1ab55b)" style="fill: #b2b2b2; fill-opacity: 0.5; stroke: #000000; stroke-linejoin: miter"/>
   </g>
   <g id="patch_93">
    <path d="M 21.013863 183.28351 
L 26.676017 183.28351 
L 26.676017 183.28351 
L 21.013863 183.28351 
z
" clip-path="url(#p595a1ab55b)" style="fill: #b2b2b2; fill-opacity: 0.5; stroke: #000000; stroke-linejoin: miter"/>
   </g>
   <g id="patch_94">
    <path d="M 26.676017 183.28351 
L 32.338171 183.28351 
L 32.338171 183.28351 
L 26.676017 183.28351 
z
" clip-path="url(#p595a1ab55b)" style="fill: #b2b2b2; fill-opacity: 0.5; stroke: #000000; stroke-linejoin: miter"/>
   </g>
   <g id="patch_95">
    <path d="M 32.338171 183.28351 
L 38.000325 183.28351 
L 38.000325 183.28351 
L 32.338171 183.28351 
z
" clip-path="url(#p595a1ab55b)" style="fill: #b2b2b2; fill-opacity: 0.5; stroke: #000000; stroke-linejoin: miter"/>
   </g>
   <g id="patch_96">
    <path d="M 38.000325 183.28351 
L 43.662479 183.28351 
L 43.662479 183.28351 
L 38.000325 183.28351 
z
" clip-path="url(#p595a1ab55b)" style="fill: #b2b2b2; fill-opacity: 0.5; stroke: #000000; stroke-linejoin: miter"/>
   </g>
   <g id="patch_97">
    <path d="M 43.662479 183.28351 
L 49.324633 183.28351 
L 49.324633 183.28351 
L 43.662479 183.28351 
z
" clip-path="url(#p595a1ab55b)" style="fill: #b2b2b2; fill-opacity: 0.5; stroke: #000000; stroke-linejoin: miter"/>
   </g>
   <g id="patch_98">
    <path d="M 49.324633 183.28351 
L 54.986788 183.28351 
L 54.986788 183.28351 
L 49.324633 183.28351 
z
" clip-path="url(#p595a1ab55b)" style="fill: #b2b2b2; fill-opacity: 0.5; stroke: #000000; stroke-linejoin: miter"/>
   </g>
   <g id="patch_99">
    <path d="M 54.986788 183.28351 
L 60.648942 183.28351 
L 60.648942 183.28351 
L 54.986788 183.28351 
z
" clip-path="url(#p595a1ab55b)" style="fill: #b2b2b2; fill-opacity: 0.5; stroke: #000000; stroke-linejoin: miter"/>
   </g>
   <g id="patch_100">
    <path d="M 60.648942 183.28351 
L 66.311096 183.28351 
L 66.311096 183.28351 
L 60.648942 183.28351 
z
" clip-path="url(#p595a1ab55b)" style="fill: #b2b2b2; fill-opacity: 0.5; stroke: #000000; stroke-linejoin: miter"/>
   </g>
   <g id="patch_101">
    <path d="M 66.311096 183.28351 
L 71.97325 183.28351 
L 71.97325 183.28351 
L 66.311096 183.28351 
z
" clip-path="url(#p595a1ab55b)" style="fill: #b2b2b2; fill-opacity: 0.5; stroke: #000000; stroke-linejoin: miter"/>
   </g>
   <g id="patch_102">
    <path d="M 71.97325 183.28351 
L 77.635404 183.28351 
L 77.635404 183.28351 
L 71.97325 183.28351 
z
" clip-path="url(#p595a1ab55b)" style="fill: #b2b2b2; fill-opacity: 0.5; stroke: #000000; stroke-linejoin: miter"/>
   </g>
   <g id="patch_103">
    <path d="M 77.635404 183.28351 
L 83.297559 183.28351 
L 83.297559 183.28351 
L 77.635404 183.28351 
z
" clip-path="url(#p595a1ab55b)" style="fill: #b2b2b2; fill-opacity: 0.5; stroke: #000000; stroke-linejoin: miter"/>
   </g>
   <g id="patch_104">
    <path d="M 83.297559 183.28351 
L 88.959713 183.28351 
L 88.959713 183.28351 
L 83.297559 183.28351 
z
" clip-path="url(#p595a1ab55b)" style="fill: #b2b2b2; fill-opacity: 0.5; stroke: #000000; stroke-linejoin: miter"/>
   </g>
   <g id="patch_105">
    <path d="M 88.959713 183.28351 
L 94.621867 183.28351 
L 94.621867 183.28351 
L 88.959713 183.28351 
z
" clip-path="url(#p595a1ab55b)" style="fill: #b2b2b2; fill-opacity: 0.5; stroke: #000000; stroke-linejoin: miter"/>
   </g>
   <g id="patch_106">
    <path d="M 94.621867 183.28351 
L 100.284021 183.28351 
L 100.284021 183.28351 
L 94.621867 183.28351 
z
" clip-path="url(#p595a1ab55b)" style="fill: #b2b2b2; fill-opacity: 0.5; stroke: #000000; stroke-linejoin: miter"/>
   </g>
   <g id="patch_107">
    <path d="M 100.284021 183.28351 
L 105.946175 183.28351 
L 105.946175 183.28351 
L 100.284021 183.28351 
z
" clip-path="url(#p595a1ab55b)" style="fill: #b2b2b2; fill-opacity: 0.5; stroke: #000000; stroke-linejoin: miter"/>
   </g>
   <g id="patch_108">
    <path d="M 105.946175 183.28351 
L 111.608329 183.28351 
L 111.608329 183.28351 
L 105.946175 183.28351 
z
" clip-path="url(#p595a1ab55b)" style="fill: #b2b2b2; fill-opacity: 0.5; stroke: #000000; stroke-linejoin: miter"/>
   </g>
   <g id="patch_109">
    <path d="M 111.608329 183.28351 
L 117.270484 183.28351 
L 117.270484 183.28351 
L 111.608329 183.28351 
z
" clip-path="url(#p595a1ab55b)" style="fill: #b2b2b2; fill-opacity: 0.5; stroke: #000000; stroke-linejoin: miter"/>
   </g>
   <g id="patch_110">
    <path d="M 117.270484 183.28351 
L 122.932638 183.28351 
L 122.932638 183.28351 
L 117.270484 183.28351 
z
" clip-path="url(#p595a1ab55b)" style="fill: #b2b2b2; fill-opacity: 0.5; stroke: #000000; stroke-linejoin: miter"/>
   </g>
   <g id="patch_111">
    <path d="M 122.932638 183.28351 
L 128.594792 183.28351 
L 128.594792 183.28351 
L 122.932638 183.28351 
z
" clip-path="url(#p595a1ab55b)" style="fill: #b2b2b2; fill-opacity: 0.5; stroke: #000000; stroke-linejoin: miter"/>
   </g>
   <g id="patch_112">
    <path d="M 128.594792 183.28351 
L 134.256946 183.28351 
L 134.256946 183.28351 
L 128.594792 183.28351 
z
" clip-path="url(#p595a1ab55b)" style="fill: #b2b2b2; fill-opacity: 0.5; stroke: #000000; stroke-linejoin: miter"/>
   </g>
   <g id="patch_113">
    <path d="M 134.256946 183.28351 
L 139.9191 183.28351 
L 139.9191 183.28351 
L 134.256946 183.28351 
z
" clip-path="url(#p595a1ab55b)" style="fill: #b2b2b2; fill-opacity: 0.5; stroke: #000000; stroke-linejoin: miter"/>
   </g>
   <g id="patch_114">
    <path d="M 139.9191 183.28351 
L 145.581254 183.28351 
L 145.581254 183.28351 
L 139.9191 183.28351 
z
" clip-path="url(#p595a1ab55b)" style="fill: #b2b2b2; fill-opacity: 0.5; stroke: #000000; stroke-linejoin: miter"/>
   </g>
   <g id="patch_115">
    <path d="M 145.581254 183.28351 
L 151.243409 183.28351 
L 151.243409 183.28351 
L 145.581254 183.28351 
z
" clip-path="url(#p595a1ab55b)" style="fill: #b2b2b2; fill-opacity: 0.5; stroke: #000000; stroke-linejoin: miter"/>
   </g>
   <g id="patch_116">
    <path d="M 151.243409 183.28351 
L 156.905563 183.28351 
L 156.905563 180.68202 
L 151.243409 180.68202 
z
" clip-path="url(#p595a1ab55b)" style="fill: #b2b2b2; fill-opacity: 0.5; stroke: #000000; stroke-linejoin: miter"/>
   </g>
   <g id="patch_117">
    <path d="M 156.905563 183.28351 
L 162.567717 183.28351 
L 162.567717 165.073079 
L 156.905563 165.073079 
z
" clip-path="url(#p595a1ab55b)" style="fill: #b2b2b2; fill-opacity: 0.5; stroke: #000000; stroke-linejoin: miter"/>
   </g>
   <g id="patch_118">
    <path d="M 162.567717 183.28351 
L 168.229871 183.28351 
L 168.229871 162.471588 
L 162.567717 162.471588 
z
" clip-path="url(#p595a1ab55b)" style="fill: #b2b2b2; fill-opacity: 0.5; stroke: #000000; stroke-linejoin: miter"/>
   </g>
   <g id="patch_119">
    <path d="M 168.229871 183.28351 
L 173.892025 183.28351 
L 173.892025 152.065628 
L 168.229871 152.065628 
z
" clip-path="url(#p595a1ab55b)" style="fill: #b2b2b2; fill-opacity: 0.5; stroke: #000000; stroke-linejoin: miter"/>
   </g>
   <g id="patch_120">
    <path d="M 173.892025 183.28351 
L 179.554179 183.28351 
L 179.554179 115.644765 
L 173.892025 115.644765 
z
" clip-path="url(#p595a1ab55b)" style="fill: #b2b2b2; fill-opacity: 0.5; stroke: #000000; stroke-linejoin: miter"/>
   </g>
   <g id="patch_121">
    <path d="M 179.554179 183.28351 
L 185.216334 183.28351 
L 185.216334 63.614961 
L 179.554179 63.614961 
z
" clip-path="url(#p595a1ab55b)" style="fill: #b2b2b2; fill-opacity: 0.5; stroke: #000000; stroke-linejoin: miter"/>
   </g>
   <g id="patch_122">
    <path d="M 185.216334 183.28351 
L 190.878488 183.28351 
L 190.878488 14.186648 
L 185.216334 14.186648 
z
" clip-path="url(#p595a1ab55b)" style="fill: #b2b2b2; fill-opacity: 0.5; stroke: #000000; stroke-linejoin: miter"/>
   </g>
   <g id="patch_123">
    <path d="M -35.607679 183.28351 
L -29.073485 183.28351 
L -29.073485 162.471588 
L -35.607679 162.471588 
z
" clip-path="url(#p595a1ab55b)" style="fill: #ff0000; fill-opacity: 0.5; stroke: #000000; stroke-linejoin: miter"/>
   </g>
   <g id="patch_124">
    <path d="M -29.073485 183.28351 
L -22.539291 183.28351 
L -22.539291 183.28351 
L -29.073485 183.28351 
z
" clip-path="url(#p595a1ab55b)" style="fill: #ff0000; fill-opacity: 0.5; stroke: #000000; stroke-linejoin: miter"/>
   </g>
   <g id="patch_125">
    <path d="M -22.539291 183.28351 
L -16.005097 183.28351 
L -16.005097 183.28351 
L -22.539291 183.28351 
z
" clip-path="url(#p595a1ab55b)" style="fill: #ff0000; fill-opacity: 0.5; stroke: #000000; stroke-linejoin: miter"/>
   </g>
   <g id="patch_126">
    <path d="M -16.005097 183.28351 
L -9.470903 183.28351 
L -9.470903 183.28351 
L -16.005097 183.28351 
z
" clip-path="url(#p595a1ab55b)" style="fill: #ff0000; fill-opacity: 0.5; stroke: #000000; stroke-linejoin: miter"/>
   </g>
   <g id="patch_127">
    <path d="M -9.470903 183.28351 
L -2.936709 183.28351 
L -2.936709 183.28351 
L -9.470903 183.28351 
z
" clip-path="url(#p595a1ab55b)" style="fill: #ff0000; fill-opacity: 0.5; stroke: #000000; stroke-linejoin: miter"/>
   </g>
   <g id="patch_128">
    <path d="M -2.936709 183.28351 
L 3.597485 183.28351 
L 3.597485 183.28351 
L -2.936709 183.28351 
z
" clip-path="url(#p595a1ab55b)" style="fill: #ff0000; fill-opacity: 0.5; stroke: #000000; stroke-linejoin: miter"/>
   </g>
   <g id="patch_129">
    <path d="M 3.597485 183.28351 
L 10.131678 183.28351 
L 10.131678 183.28351 
L 3.597485 183.28351 
z
" clip-path="url(#p595a1ab55b)" style="fill: #ff0000; fill-opacity: 0.5; stroke: #000000; stroke-linejoin: miter"/>
   </g>
   <g id="patch_130">
    <path d="M 10.131678 183.28351 
L 16.665872 183.28351 
L 16.665872 183.28351 
L 10.131678 183.28351 
z
" clip-path="url(#p595a1ab55b)" style="fill: #ff0000; fill-opacity: 0.5; stroke: #000000; stroke-linejoin: miter"/>
   </g>
   <g id="patch_131">
    <path d="M 16.665872 183.28351 
L 23.200066 183.28351 
L 23.200066 183.28351 
L 16.665872 183.28351 
z
" clip-path="url(#p595a1ab55b)" style="fill: #ff0000; fill-opacity: 0.5; stroke: #000000; stroke-linejoin: miter"/>
   </g>
   <g id="patch_132">
    <path d="M 23.200066 183.28351 
L 29.73426 183.28351 
L 29.73426 183.28351 
L 23.200066 183.28351 
z
" clip-path="url(#p595a1ab55b)" style="fill: #ff0000; fill-opacity: 0.5; stroke: #000000; stroke-linejoin: miter"/>
   </g>
   <g id="patch_133">
    <path d="M 29.73426 183.28351 
L 36.268454 183.28351 
L 36.268454 183.28351 
L 29.73426 183.28351 
z
" clip-path="url(#p595a1ab55b)" style="fill: #ff0000; fill-opacity: 0.5; stroke: #000000; stroke-linejoin: miter"/>
   </g>
   <g id="patch_134">
    <path d="M 36.268454 183.28351 
L 42.802648 183.28351 
L 42.802648 183.28351 
L 36.268454 183.28351 
z
" clip-path="url(#p595a1ab55b)" style="fill: #ff0000; fill-opacity: 0.5; stroke: #000000; stroke-linejoin: miter"/>
   </g>
   <g id="patch_135">
    <path d="M 42.802648 183.28351 
L 49.336842 183.28351 
L 49.336842 183.28351 
L 42.802648 183.28351 
z
" clip-path="url(#p595a1ab55b)" style="fill: #ff0000; fill-opacity: 0.5; stroke: #000000; stroke-linejoin: miter"/>
   </g>
   <g id="patch_136">
    <path d="M 49.336842 183.28351 
L 55.871036 183.28351 
L 55.871036 183.28351 
L 49.336842 183.28351 
z
" clip-path="url(#p595a1ab55b)" style="fill: #ff0000; fill-opacity: 0.5; stroke: #000000; stroke-linejoin: miter"/>
   </g>
   <g id="patch_137">
    <path d="M 55.871036 183.28351 
L 62.40523 183.28351 
L 62.40523 183.28351 
L 55.871036 183.28351 
z
" clip-path="url(#p595a1ab55b)" style="fill: #ff0000; fill-opacity: 0.5; stroke: #000000; stroke-linejoin: miter"/>
   </g>
   <g id="patch_138">
    <path d="M 62.40523 183.28351 
L 68.939424 183.28351 
L 68.939424 183.28351 
L 62.40523 183.28351 
z
" clip-path="url(#p595a1ab55b)" style="fill: #ff0000; fill-opacity: 0.5; stroke: #000000; stroke-linejoin: miter"/>
   </g>
   <g id="patch_139">
    <path d="M 68.939424 183.28351 
L 75.473618 183.28351 
L 75.473618 183.28351 
L 68.939424 183.28351 
z
" clip-path="url(#p595a1ab55b)" style="fill: #ff0000; fill-opacity: 0.5; stroke: #000000; stroke-linejoin: miter"/>
   </g>
   <g id="patch_140">
    <path d="M 75.473618 183.28351 
L 82.007812 183.28351 
L 82.007812 183.28351 
L 75.473618 183.28351 
z
" clip-path="url(#p595a1ab55b)" style="fill: #ff0000; fill-opacity: 0.5; stroke: #000000; stroke-linejoin: miter"/>
   </g>
   <g id="patch_141">
    <path d="M 82.007812 183.28351 
L 88.542006 183.28351 
L 88.542006 183.28351 
L 82.007812 183.28351 
z
" clip-path="url(#p595a1ab55b)" style="fill: #ff0000; fill-opacity: 0.5; stroke: #000000; stroke-linejoin: miter"/>
   </g>
   <g id="patch_142">
    <path d="M 88.542006 183.28351 
L 95.0762 183.28351 
L 95.0762 183.28351 
L 88.542006 183.28351 
z
" clip-path="url(#p595a1ab55b)" style="fill: #ff0000; fill-opacity: 0.5; stroke: #000000; stroke-linejoin: miter"/>
   </g>
   <g id="patch_143">
    <path d="M 95.0762 183.28351 
L 101.610393 183.28351 
L 101.610393 183.28351 
L 95.0762 183.28351 
z
" clip-path="url(#p595a1ab55b)" style="fill: #ff0000; fill-opacity: 0.5; stroke: #000000; stroke-linejoin: miter"/>
   </g>
   <g id="patch_144">
    <path d="M 101.610393 183.28351 
L 108.144587 183.28351 
L 108.144587 183.28351 
L 101.610393 183.28351 
z
" clip-path="url(#p595a1ab55b)" style="fill: #ff0000; fill-opacity: 0.5; stroke: #000000; stroke-linejoin: miter"/>
   </g>
   <g id="patch_145">
    <path d="M 108.144587 183.28351 
L 114.678781 183.28351 
L 114.678781 183.28351 
L 108.144587 183.28351 
z
" clip-path="url(#p595a1ab55b)" style="fill: #ff0000; fill-opacity: 0.5; stroke: #000000; stroke-linejoin: miter"/>
   </g>
   <g id="patch_146">
    <path d="M 114.678781 183.28351 
L 121.212975 183.28351 
L 121.212975 183.28351 
L 114.678781 183.28351 
z
" clip-path="url(#p595a1ab55b)" style="fill: #ff0000; fill-opacity: 0.5; stroke: #000000; stroke-linejoin: miter"/>
   </g>
   <g id="patch_147">
    <path d="M 121.212975 183.28351 
L 127.747169 183.28351 
L 127.747169 183.28351 
L 121.212975 183.28351 
z
" clip-path="url(#p595a1ab55b)" style="fill: #ff0000; fill-opacity: 0.5; stroke: #000000; stroke-linejoin: miter"/>
   </g>
   <g id="patch_148">
    <path d="M 127.747169 183.28351 
L 134.281363 183.28351 
L 134.281363 183.28351 
L 127.747169 183.28351 
z
" clip-path="url(#p595a1ab55b)" style="fill: #ff0000; fill-opacity: 0.5; stroke: #000000; stroke-linejoin: miter"/>
   </g>
   <g id="patch_149">
    <path d="M 134.281363 183.28351 
L 140.815557 183.28351 
L 140.815557 183.28351 
L 134.281363 183.28351 
z
" clip-path="url(#p595a1ab55b)" style="fill: #ff0000; fill-opacity: 0.5; stroke: #000000; stroke-linejoin: miter"/>
   </g>
   <g id="patch_150">
    <path d="M 140.815557 183.28351 
L 147.349751 183.28351 
L 147.349751 183.28351 
L 140.815557 183.28351 
z
" clip-path="url(#p595a1ab55b)" style="fill: #ff0000; fill-opacity: 0.5; stroke: #000000; stroke-linejoin: miter"/>
   </g>
   <g id="patch_151">
    <path d="M 147.349751 183.28351 
L 153.883945 183.28351 
L 153.883945 183.28351 
L 147.349751 183.28351 
z
" clip-path="url(#p595a1ab55b)" style="fill: #ff0000; fill-opacity: 0.5; stroke: #000000; stroke-linejoin: miter"/>
   </g>
   <g id="patch_152">
    <path d="M 153.883945 183.28351 
L 160.418139 183.28351 
L 160.418139 183.28351 
L 153.883945 183.28351 
z
" clip-path="url(#p595a1ab55b)" style="fill: #ff0000; fill-opacity: 0.5; stroke: #000000; stroke-linejoin: miter"/>
   </g>
   <g id="patch_153">
    <path d="M 160.418139 183.28351 
L 166.952333 183.28351 
L 166.952333 183.28351 
L 160.418139 183.28351 
z
" clip-path="url(#p595a1ab55b)" style="fill: #ff0000; fill-opacity: 0.5; stroke: #000000; stroke-linejoin: miter"/>
   </g>
   <g id="patch_154">
    <path d="M 166.952333 183.28351 
L 173.486527 183.28351 
L 173.486527 183.28351 
L 166.952333 183.28351 
z
" clip-path="url(#p595a1ab55b)" style="fill: #ff0000; fill-opacity: 0.5; stroke: #000000; stroke-linejoin: miter"/>
   </g>
   <g id="patch_155">
    <path d="M 173.486527 183.28351 
L 180.020721 183.28351 
L 180.020721 183.28351 
L 173.486527 183.28351 
z
" clip-path="url(#p595a1ab55b)" style="fill: #ff0000; fill-opacity: 0.5; stroke: #000000; stroke-linejoin: miter"/>
   </g>
   <g id="patch_156">
    <path d="M 180.020721 183.28351 
L 186.554915 183.28351 
L 186.554915 183.28351 
L 180.020721 183.28351 
z
" clip-path="url(#p595a1ab55b)" style="fill: #ff0000; fill-opacity: 0.5; stroke: #000000; stroke-linejoin: miter"/>
   </g>
   <g id="patch_157">
    <path d="M 186.554915 183.28351 
L 193.089109 183.28351 
L 193.089109 152.065628 
L 186.554915 152.065628 
z
" clip-path="url(#p595a1ab55b)" style="fill: #ff0000; fill-opacity: 0.5; stroke: #000000; stroke-linejoin: miter"/>
   </g>
   <g id="patch_158">
    <path d="M 193.089109 183.28351 
L 199.623302 183.28351 
L 199.623302 154.667118 
L 193.089109 154.667118 
z
" clip-path="url(#p595a1ab55b)" style="fill: #ff0000; fill-opacity: 0.5; stroke: #000000; stroke-linejoin: miter"/>
   </g>
   <g id="patch_159">
    <path d="M 199.623302 183.28351 
L 206.157496 183.28351 
L 206.157496 159.870098 
L 199.623302 159.870098 
z
" clip-path="url(#p595a1ab55b)" style="fill: #ff0000; fill-opacity: 0.5; stroke: #000000; stroke-linejoin: miter"/>
   </g>
   <g id="patch_160">
    <path d="M 206.157496 183.28351 
L 212.69169 183.28351 
L 212.69169 133.855196 
L 206.157496 133.855196 
z
" clip-path="url(#p595a1ab55b)" style="fill: #ff0000; fill-opacity: 0.5; stroke: #000000; stroke-linejoin: miter"/>
   </g>
   <g id="patch_161">
    <path d="M 212.69169 183.28351 
L 219.225884 183.28351 
L 219.225884 107.840295 
L 212.69169 107.840295 
z
" clip-path="url(#p595a1ab55b)" style="fill: #ff0000; fill-opacity: 0.5; stroke: #000000; stroke-linejoin: miter"/>
   </g>
   <g id="patch_162">
    <path d="M 219.225884 183.28351 
L 225.760078 183.28351 
L 225.760078 11.585158 
L 219.225884 11.585158 
z
" clip-path="url(#p595a1ab55b)" style="fill: #ff0000; fill-opacity: 0.5; stroke: #000000; stroke-linejoin: miter"/>
   </g>
   <g id="matplotlib.axis_1">
    <g id="xtick_1">
     <g id="line2d_1">
      <defs>
       <path id="m3b92bec9fe" d="M 0 0 
L 0 3.5 
" style="stroke: #000000; stroke-width: 0.8"/>
      </defs>
      <g>
       <use xlink:href="#m3b92bec9fe" x="69.037092" y="183.28351" style="stroke: #000000; stroke-width: 0.8"/>
      </g>
     </g>
     <g id="text_1">
      <!-- 100 -->
      <g transform="translate(62.363967 196.00976) scale(0.08 -0.08)">
       <defs>
        <path id="ArialMT-31" d="M 2384 0 
L 1822 0 
L 1822 3584 
Q 1619 3391 1289 3197 
Q 959 3003 697 2906 
L 697 3450 
Q 1169 3672 1522 3987 
Q 1875 4303 2022 4600 
L 2384 4600 
L 2384 0 
z
" transform="scale(0.015625)"/>
        <path id="ArialMT-30" d="M 266 2259 
Q 266 3072 433 3567 
Q 600 4063 929 4331 
Q 1259 4600 1759 4600 
Q 2128 4600 2406 4451 
Q 2684 4303 2865 4023 
Q 3047 3744 3150 3342 
Q 3253 2941 3253 2259 
Q 3253 1453 3087 958 
Q 2922 463 2592 192 
Q 2263 -78 1759 -78 
Q 1097 -78 719 397 
Q 266 969 266 2259 
z
M 844 2259 
Q 844 1131 1108 757 
Q 1372 384 1759 384 
Q 2147 384 2411 759 
Q 2675 1134 2675 2259 
Q 2675 3391 2411 3762 
Q 2147 4134 1753 4134 
Q 1366 4134 1134 3806 
Q 844 3388 844 2259 
z
" transform="scale(0.015625)"/>
       </defs>
       <use xlink:href="#ArialMT-31"/>
       <use xlink:href="#ArialMT-30" x="55.615234"/>
       <use xlink:href="#ArialMT-30" x="111.230469"/>
      </g>
     </g>
    </g>
    <g id="xtick_2">
     <g id="line2d_2">
      <g>
       <use xlink:href="#m3b92bec9fe" x="121.359478" y="183.28351" style="stroke: #000000; stroke-width: 0.8"/>
      </g>
     </g>
     <g id="text_2">
      <!-- 150 -->
      <g transform="translate(114.686353 196.00976) scale(0.08 -0.08)">
       <defs>
        <path id="ArialMT-35" d="M 266 1200 
L 856 1250 
Q 922 819 1161 601 
Q 1400 384 1738 384 
Q 2144 384 2425 690 
Q 2706 997 2706 1503 
Q 2706 1984 2436 2262 
Q 2166 2541 1728 2541 
Q 1456 2541 1237 2417 
Q 1019 2294 894 2097 
L 366 2166 
L 809 4519 
L 3088 4519 
L 3088 3981 
L 1259 3981 
L 1013 2750 
Q 1425 3038 1878 3038 
Q 2478 3038 2890 2622 
Q 3303 2206 3303 1553 
Q 3303 931 2941 478 
Q 2500 -78 1738 -78 
Q 1113 -78 717 272 
Q 322 622 266 1200 
z
" transform="scale(0.015625)"/>
       </defs>
       <use xlink:href="#ArialMT-31"/>
       <use xlink:href="#ArialMT-35" x="55.615234"/>
       <use xlink:href="#ArialMT-30" x="111.230469"/>
      </g>
     </g>
    </g>
    <g id="xtick_3">
     <g id="line2d_3">
      <g>
       <use xlink:href="#m3b92bec9fe" x="173.681864" y="183.28351" style="stroke: #000000; stroke-width: 0.8"/>
      </g>
     </g>
     <g id="text_3">
      <!-- 200 -->
      <g transform="translate(167.008739 196.00976) scale(0.08 -0.08)">
       <defs>
        <path id="ArialMT-32" d="M 3222 541 
L 3222 0 
L 194 0 
Q 188 203 259 391 
Q 375 700 629 1000 
Q 884 1300 1366 1694 
Q 2113 2306 2375 2664 
Q 2638 3022 2638 3341 
Q 2638 3675 2398 3904 
Q 2159 4134 1775 4134 
Q 1369 4134 1125 3890 
Q 881 3647 878 3216 
L 300 3275 
Q 359 3922 746 4261 
Q 1134 4600 1788 4600 
Q 2447 4600 2831 4234 
Q 3216 3869 3216 3328 
Q 3216 3053 3103 2787 
Q 2991 2522 2730 2228 
Q 2469 1934 1863 1422 
Q 1356 997 1212 845 
Q 1069 694 975 541 
L 3222 541 
z
" transform="scale(0.015625)"/>
       </defs>
       <use xlink:href="#ArialMT-32"/>
       <use xlink:href="#ArialMT-30" x="55.615234"/>
       <use xlink:href="#ArialMT-30" x="111.230469"/>
      </g>
     </g>
    </g>
    <g id="xtick_4">
     <g id="line2d_4">
      <g>
       <use xlink:href="#m3b92bec9fe" x="226.004249" y="183.28351" style="stroke: #000000; stroke-width: 0.8"/>
      </g>
     </g>
     <g id="text_4">
      <!-- 250 -->
      <g transform="translate(219.331124 196.00976) scale(0.08 -0.08)">
       <use xlink:href="#ArialMT-32"/>
       <use xlink:href="#ArialMT-35" x="55.615234"/>
       <use xlink:href="#ArialMT-30" x="111.230469"/>
      </g>
     </g>
    </g>
    <g id="xtick_5">
     <g id="line2d_5">
      <g>
       <use xlink:href="#m3b92bec9fe" x="278.326635" y="183.28351" style="stroke: #000000; stroke-width: 0.8"/>
      </g>
     </g>
     <g id="text_5">
      <!-- 300 -->
      <g transform="translate(271.65351 196.00976) scale(0.08 -0.08)">
       <defs>
        <path id="ArialMT-33" d="M 269 1209 
L 831 1284 
Q 928 806 1161 595 
Q 1394 384 1728 384 
Q 2125 384 2398 659 
Q 2672 934 2672 1341 
Q 2672 1728 2419 1979 
Q 2166 2231 1775 2231 
Q 1616 2231 1378 2169 
L 1441 2663 
Q 1497 2656 1531 2656 
Q 1891 2656 2178 2843 
Q 2466 3031 2466 3422 
Q 2466 3731 2256 3934 
Q 2047 4138 1716 4138 
Q 1388 4138 1169 3931 
Q 950 3725 888 3313 
L 325 3413 
Q 428 3978 793 4289 
Q 1159 4600 1703 4600 
Q 2078 4600 2393 4439 
Q 2709 4278 2876 4000 
Q 3044 3722 3044 3409 
Q 3044 3113 2884 2869 
Q 2725 2625 2413 2481 
Q 2819 2388 3044 2092 
Q 3269 1797 3269 1353 
Q 3269 753 2831 336 
Q 2394 -81 1725 -81 
Q 1122 -81 723 278 
Q 325 638 269 1209 
z
" transform="scale(0.015625)"/>
       </defs>
       <use xlink:href="#ArialMT-33"/>
       <use xlink:href="#ArialMT-30" x="55.615234"/>
       <use xlink:href="#ArialMT-30" x="111.230469"/>
      </g>
     </g>
    </g>
    <g id="text_6">
     <!-- Conductance, $\mathit{G}$ (μS) -->
     <g transform="translate(99.722813 210.35976) scale(0.12 -0.12)">
      <defs>
       <path id="ArialMT-43" d="M 3763 1606 
L 4369 1453 
Q 4178 706 3683 314 
Q 3188 -78 2472 -78 
Q 1731 -78 1267 223 
Q 803 525 561 1097 
Q 319 1669 319 2325 
Q 319 3041 592 3573 
Q 866 4106 1370 4382 
Q 1875 4659 2481 4659 
Q 3169 4659 3637 4309 
Q 4106 3959 4291 3325 
L 3694 3184 
Q 3534 3684 3231 3912 
Q 2928 4141 2469 4141 
Q 1941 4141 1586 3887 
Q 1231 3634 1087 3207 
Q 944 2781 944 2328 
Q 944 1744 1114 1308 
Q 1284 872 1643 656 
Q 2003 441 2422 441 
Q 2931 441 3284 734 
Q 3638 1028 3763 1606 
z
" transform="scale(0.015625)"/>
       <path id="ArialMT-6f" d="M 213 1659 
Q 213 2581 725 3025 
Q 1153 3394 1769 3394 
Q 2453 3394 2887 2945 
Q 3322 2497 3322 1706 
Q 3322 1066 3130 698 
Q 2938 331 2570 128 
Q 2203 -75 1769 -75 
Q 1072 -75 642 372 
Q 213 819 213 1659 
z
M 791 1659 
Q 791 1022 1069 705 
Q 1347 388 1769 388 
Q 2188 388 2466 706 
Q 2744 1025 2744 1678 
Q 2744 2294 2464 2611 
Q 2184 2928 1769 2928 
Q 1347 2928 1069 2612 
Q 791 2297 791 1659 
z
" transform="scale(0.015625)"/>
       <path id="ArialMT-6e" d="M 422 0 
L 422 3319 
L 928 3319 
L 928 2847 
Q 1294 3394 1984 3394 
Q 2284 3394 2536 3286 
Q 2788 3178 2913 3003 
Q 3038 2828 3088 2588 
Q 3119 2431 3119 2041 
L 3119 0 
L 2556 0 
L 2556 2019 
Q 2556 2363 2490 2533 
Q 2425 2703 2258 2804 
Q 2091 2906 1866 2906 
Q 1506 2906 1245 2678 
Q 984 2450 984 1813 
L 984 0 
L 422 0 
z
" transform="scale(0.015625)"/>
       <path id="ArialMT-64" d="M 2575 0 
L 2575 419 
Q 2259 -75 1647 -75 
Q 1250 -75 917 144 
Q 584 363 401 755 
Q 219 1147 219 1656 
Q 219 2153 384 2558 
Q 550 2963 881 3178 
Q 1213 3394 1622 3394 
Q 1922 3394 2156 3267 
Q 2391 3141 2538 2938 
L 2538 4581 
L 3097 4581 
L 3097 0 
L 2575 0 
z
M 797 1656 
Q 797 1019 1065 703 
Q 1334 388 1700 388 
Q 2069 388 2326 689 
Q 2584 991 2584 1609 
Q 2584 2291 2321 2609 
Q 2059 2928 1675 2928 
Q 1300 2928 1048 2622 
Q 797 2316 797 1656 
z
" transform="scale(0.015625)"/>
       <path id="ArialMT-75" d="M 2597 0 
L 2597 488 
Q 2209 -75 1544 -75 
Q 1250 -75 995 37 
Q 741 150 617 320 
Q 494 491 444 738 
Q 409 903 409 1263 
L 409 3319 
L 972 3319 
L 972 1478 
Q 972 1038 1006 884 
Q 1059 663 1231 536 
Q 1403 409 1656 409 
Q 1909 409 2131 539 
Q 2353 669 2445 892 
Q 2538 1116 2538 1541 
L 2538 3319 
L 3100 3319 
L 3100 0 
L 2597 0 
z
" transform="scale(0.015625)"/>
       <path id="ArialMT-63" d="M 2588 1216 
L 3141 1144 
Q 3050 572 2676 248 
Q 2303 -75 1759 -75 
Q 1078 -75 664 370 
Q 250 816 250 1647 
Q 250 2184 428 2587 
Q 606 2991 970 3192 
Q 1334 3394 1763 3394 
Q 2303 3394 2647 3120 
Q 2991 2847 3088 2344 
L 2541 2259 
Q 2463 2594 2264 2762 
Q 2066 2931 1784 2931 
Q 1359 2931 1093 2626 
Q 828 2322 828 1663 
Q 828 994 1084 691 
Q 1341 388 1753 388 
Q 2084 388 2306 591 
Q 2528 794 2588 1216 
z
" transform="scale(0.015625)"/>
       <path id="ArialMT-74" d="M 1650 503 
L 1731 6 
Q 1494 -44 1306 -44 
Q 1000 -44 831 53 
Q 663 150 594 308 
Q 525 466 525 972 
L 525 2881 
L 113 2881 
L 113 3319 
L 525 3319 
L 525 4141 
L 1084 4478 
L 1084 3319 
L 1650 3319 
L 1650 2881 
L 1084 2881 
L 1084 941 
Q 1084 700 1114 631 
Q 1144 563 1211 522 
Q 1278 481 1403 481 
Q 1497 481 1650 503 
z
" transform="scale(0.015625)"/>
       <path id="ArialMT-61" d="M 2588 409 
Q 2275 144 1986 34 
Q 1697 -75 1366 -75 
Q 819 -75 525 192 
Q 231 459 231 875 
Q 231 1119 342 1320 
Q 453 1522 633 1644 
Q 813 1766 1038 1828 
Q 1203 1872 1538 1913 
Q 2219 1994 2541 2106 
Q 2544 2222 2544 2253 
Q 2544 2597 2384 2738 
Q 2169 2928 1744 2928 
Q 1347 2928 1158 2789 
Q 969 2650 878 2297 
L 328 2372 
Q 403 2725 575 2942 
Q 747 3159 1072 3276 
Q 1397 3394 1825 3394 
Q 2250 3394 2515 3294 
Q 2781 3194 2906 3042 
Q 3031 2891 3081 2659 
Q 3109 2516 3109 2141 
L 3109 1391 
Q 3109 606 3145 398 
Q 3181 191 3288 0 
L 2700 0 
Q 2613 175 2588 409 
z
M 2541 1666 
Q 2234 1541 1622 1453 
Q 1275 1403 1131 1340 
Q 988 1278 909 1158 
Q 831 1038 831 891 
Q 831 666 1001 516 
Q 1172 366 1500 366 
Q 1825 366 2078 508 
Q 2331 650 2450 897 
Q 2541 1088 2541 1459 
L 2541 1666 
z
" transform="scale(0.015625)"/>
       <path id="ArialMT-65" d="M 2694 1069 
L 3275 997 
Q 3138 488 2766 206 
Q 2394 -75 1816 -75 
Q 1088 -75 661 373 
Q 234 822 234 1631 
Q 234 2469 665 2931 
Q 1097 3394 1784 3394 
Q 2450 3394 2872 2941 
Q 3294 2488 3294 1666 
Q 3294 1616 3291 1516 
L 816 1516 
Q 847 969 1125 678 
Q 1403 388 1819 388 
Q 2128 388 2347 550 
Q 2566 713 2694 1069 
z
M 847 1978 
L 2700 1978 
Q 2663 2397 2488 2606 
Q 2219 2931 1791 2931 
Q 1403 2931 1139 2672 
Q 875 2413 847 1978 
z
" transform="scale(0.015625)"/>
       <path id="ArialMT-2c" d="M 569 0 
L 569 641 
L 1209 641 
L 1209 0 
Q 1209 -353 1084 -570 
Q 959 -788 688 -906 
L 531 -666 
Q 709 -588 793 -436 
Q 878 -284 888 0 
L 569 0 
z
" transform="scale(0.015625)"/>
       <path id="ArialMT-20" transform="scale(0.015625)"/>
       <path id="Arial-ItalicMT-47" d="M 2622 1806 
L 2731 2325 
L 4738 2325 
L 4347 459 
Q 3969 222 3484 72 
Q 3000 -78 2531 -78 
Q 1531 -78 1038 525 
Q 622 1034 622 1834 
Q 622 2659 986 3336 
Q 1350 4013 1904 4336 
Q 2459 4659 3138 4659 
Q 3625 4659 4012 4482 
Q 4400 4306 4606 4011 
Q 4813 3716 4903 3241 
L 4303 3175 
Q 4206 3647 3901 3898 
Q 3597 4150 3119 4150 
Q 2622 4150 2190 3879 
Q 1759 3609 1501 3064 
Q 1244 2519 1244 1825 
Q 1244 1134 1584 781 
Q 1925 428 2525 428 
Q 3122 428 3809 822 
L 4016 1806 
L 2622 1806 
z
" transform="scale(0.015625)"/>
       <path id="ArialMT-28" d="M 1497 -1347 
Q 1031 -759 709 28 
Q 388 816 388 1659 
Q 388 2403 628 3084 
Q 909 3875 1497 4659 
L 1900 4659 
Q 1522 4009 1400 3731 
Q 1209 3300 1100 2831 
Q 966 2247 966 1656 
Q 966 153 1900 -1347 
L 1497 -1347 
z
" transform="scale(0.015625)"/>
       <path id="ArialMT-3bc" d="M 3181 3319 
L 3181 0 
L 2678 0 
L 2678 394 
Q 2516 144 2356 50 
Q 2138 -78 1847 -78 
Q 1588 -78 1388 25 
Q 1238 103 1056 334 
L 1056 -1272 
L 500 -1272 
L 500 3319 
L 1056 3319 
L 1056 1913 
Q 1056 1147 1137 920 
Q 1219 694 1401 562 
Q 1584 431 1822 431 
Q 2072 431 2269 568 
Q 2466 706 2547 923 
Q 2628 1141 2628 1903 
L 2628 3319 
L 3181 3319 
z
" transform="scale(0.015625)"/>
       <path id="ArialMT-53" d="M 288 1472 
L 859 1522 
Q 900 1178 1048 958 
Q 1197 738 1509 602 
Q 1822 466 2213 466 
Q 2559 466 2825 569 
Q 3091 672 3220 851 
Q 3350 1031 3350 1244 
Q 3350 1459 3225 1620 
Q 3100 1781 2813 1891 
Q 2628 1963 1997 2114 
Q 1366 2266 1113 2400 
Q 784 2572 623 2826 
Q 463 3081 463 3397 
Q 463 3744 659 4045 
Q 856 4347 1234 4503 
Q 1613 4659 2075 4659 
Q 2584 4659 2973 4495 
Q 3363 4331 3572 4012 
Q 3781 3694 3797 3291 
L 3216 3247 
Q 3169 3681 2898 3903 
Q 2628 4125 2100 4125 
Q 1550 4125 1298 3923 
Q 1047 3722 1047 3438 
Q 1047 3191 1225 3031 
Q 1400 2872 2139 2705 
Q 2878 2538 3153 2413 
Q 3553 2228 3743 1945 
Q 3934 1663 3934 1294 
Q 3934 928 3725 604 
Q 3516 281 3123 101 
Q 2731 -78 2241 -78 
Q 1619 -78 1198 103 
Q 778 284 539 648 
Q 300 1013 288 1472 
z
" transform="scale(0.015625)"/>
       <path id="ArialMT-29" d="M 791 -1347 
L 388 -1347 
Q 1322 153 1322 1656 
Q 1322 2244 1188 2822 
Q 1081 3291 891 3722 
Q 769 4003 388 4659 
L 791 4659 
Q 1378 3875 1659 3084 
Q 1900 2403 1900 1659 
Q 1900 816 1576 28 
Q 1253 -759 791 -1347 
z
" transform="scale(0.015625)"/>
      </defs>
      <use xlink:href="#ArialMT-43" transform="translate(0 0.203125)"/>
      <use xlink:href="#ArialMT-6f" transform="translate(72.216797 0.203125)"/>
      <use xlink:href="#ArialMT-6e" transform="translate(127.832031 0.203125)"/>
      <use xlink:href="#ArialMT-64" transform="translate(183.447266 0.203125)"/>
      <use xlink:href="#ArialMT-75" transform="translate(239.0625 0.203125)"/>
      <use xlink:href="#ArialMT-63" transform="translate(294.677734 0.203125)"/>
      <use xlink:href="#ArialMT-74" transform="translate(344.677734 0.203125)"/>
      <use xlink:href="#ArialMT-61" transform="translate(372.460938 0.203125)"/>
      <use xlink:href="#ArialMT-6e" transform="translate(428.076172 0.203125)"/>
      <use xlink:href="#ArialMT-63" transform="translate(483.691406 0.203125)"/>
      <use xlink:href="#ArialMT-65" transform="translate(533.691406 0.203125)"/>
      <use xlink:href="#ArialMT-2c" transform="translate(589.306641 0.203125)"/>
      <use xlink:href="#ArialMT-20" transform="translate(617.089844 0.203125)"/>
      <use xlink:href="#Arial-ItalicMT-47" transform="translate(644.873047 0.203125)"/>
      <use xlink:href="#ArialMT-20" transform="translate(722.65625 0.203125)"/>
      <use xlink:href="#ArialMT-28" transform="translate(750.439453 0.203125)"/>
      <use xlink:href="#ArialMT-3bc" transform="translate(783.740234 0.203125)"/>
      <use xlink:href="#ArialMT-53" transform="translate(841.357422 0.203125)"/>
      <use xlink:href="#ArialMT-29" transform="translate(908.056641 0.203125)"/>
     </g>
    </g>
   </g>
   <g id="matplotlib.axis_2">
    <g id="ytick_1">
     <g id="line2d_6">
      <defs>
       <path id="medfd335b42" d="M 0 0 
L -3.5 0 
" style="stroke: #000000; stroke-width: 0.8"/>
      </defs>
      <g>
       <use xlink:href="#medfd335b42" x="34.15899" y="183.28351" style="stroke: #000000; stroke-width: 0.8"/>
      </g>
     </g>
     <g id="text_7">
      <!-- 0 -->
      <g transform="translate(22.71024 186.146635) scale(0.08 -0.08)">
       <use xlink:href="#ArialMT-30"/>
      </g>
     </g>
    </g>
    <g id="ytick_2">
     <g id="line2d_7">
      <g>
       <use xlink:href="#medfd335b42" x="34.15899" y="157.268608" style="stroke: #000000; stroke-width: 0.8"/>
      </g>
     </g>
     <g id="text_8">
      <!-- 10 -->
      <g transform="translate(18.26149 160.131733) scale(0.08 -0.08)">
       <use xlink:href="#ArialMT-31"/>
       <use xlink:href="#ArialMT-30" x="55.615234"/>
      </g>
     </g>
    </g>
    <g id="ytick_3">
     <g id="line2d_8">
      <g>
       <use xlink:href="#medfd335b42" x="34.15899" y="131.253706" style="stroke: #000000; stroke-width: 0.8"/>
      </g>
     </g>
     <g id="text_9">
      <!-- 20 -->
      <g transform="translate(18.26149 134.116831) scale(0.08 -0.08)">
       <use xlink:href="#ArialMT-32"/>
       <use xlink:href="#ArialMT-30" x="55.615234"/>
      </g>
     </g>
    </g>
    <g id="ytick_4">
     <g id="line2d_9">
      <g>
       <use xlink:href="#medfd335b42" x="34.15899" y="105.238804" style="stroke: #000000; stroke-width: 0.8"/>
      </g>
     </g>
     <g id="text_10">
      <!-- 30 -->
      <g transform="translate(18.26149 108.101929) scale(0.08 -0.08)">
       <use xlink:href="#ArialMT-33"/>
       <use xlink:href="#ArialMT-30" x="55.615234"/>
      </g>
     </g>
    </g>
    <g id="ytick_5">
     <g id="line2d_10">
      <g>
       <use xlink:href="#medfd335b42" x="34.15899" y="79.223902" style="stroke: #000000; stroke-width: 0.8"/>
      </g>
     </g>
     <g id="text_11">
      <!-- 40 -->
      <g transform="translate(18.26149 82.087027) scale(0.08 -0.08)">
       <defs>
        <path id="ArialMT-34" d="M 2069 0 
L 2069 1097 
L 81 1097 
L 81 1613 
L 2172 4581 
L 2631 4581 
L 2631 1613 
L 3250 1613 
L 3250 1097 
L 2631 1097 
L 2631 0 
L 2069 0 
z
M 2069 1613 
L 2069 3678 
L 634 1613 
L 2069 1613 
z
" transform="scale(0.015625)"/>
       </defs>
       <use xlink:href="#ArialMT-34"/>
       <use xlink:href="#ArialMT-30" x="55.615234"/>
      </g>
     </g>
    </g>
    <g id="ytick_6">
     <g id="line2d_11">
      <g>
       <use xlink:href="#medfd335b42" x="34.15899" y="53.209001" style="stroke: #000000; stroke-width: 0.8"/>
      </g>
     </g>
     <g id="text_12">
      <!-- 50 -->
      <g transform="translate(18.26149 56.072126) scale(0.08 -0.08)">
       <use xlink:href="#ArialMT-35"/>
       <use xlink:href="#ArialMT-30" x="55.615234"/>
      </g>
     </g>
    </g>
    <g id="ytick_7">
     <g id="line2d_12">
      <g>
       <use xlink:href="#medfd335b42" x="34.15899" y="27.194099" style="stroke: #000000; stroke-width: 0.8"/>
      </g>
     </g>
     <g id="text_13">
      <!-- 60 -->
      <g transform="translate(18.26149 30.057224) scale(0.08 -0.08)">
       <defs>
        <path id="ArialMT-36" d="M 3184 3459 
L 2625 3416 
Q 2550 3747 2413 3897 
Q 2184 4138 1850 4138 
Q 1581 4138 1378 3988 
Q 1113 3794 959 3422 
Q 806 3050 800 2363 
Q 1003 2672 1297 2822 
Q 1591 2972 1913 2972 
Q 2475 2972 2870 2558 
Q 3266 2144 3266 1488 
Q 3266 1056 3080 686 
Q 2894 316 2569 119 
Q 2244 -78 1831 -78 
Q 1128 -78 684 439 
Q 241 956 241 2144 
Q 241 3472 731 4075 
Q 1159 4600 1884 4600 
Q 2425 4600 2770 4297 
Q 3116 3994 3184 3459 
z
M 888 1484 
Q 888 1194 1011 928 
Q 1134 663 1356 523 
Q 1578 384 1822 384 
Q 2178 384 2434 671 
Q 2691 959 2691 1453 
Q 2691 1928 2437 2201 
Q 2184 2475 1800 2475 
Q 1419 2475 1153 2201 
Q 888 1928 888 1484 
z
" transform="scale(0.015625)"/>
       </defs>
       <use xlink:href="#ArialMT-36"/>
       <use xlink:href="#ArialMT-30" x="55.615234"/>
      </g>
     </g>
    </g>
    <g id="text_14">
     <!-- Frequency (#) -->
     <g transform="translate(11.735865 130.48625) rotate(-90) scale(0.12 -0.12)">
      <defs>
       <path id="ArialMT-46" d="M 525 0 
L 525 4581 
L 3616 4581 
L 3616 4041 
L 1131 4041 
L 1131 2622 
L 3281 2622 
L 3281 2081 
L 1131 2081 
L 1131 0 
L 525 0 
z
" transform="scale(0.015625)"/>
       <path id="ArialMT-72" d="M 416 0 
L 416 3319 
L 922 3319 
L 922 2816 
Q 1116 3169 1280 3281 
Q 1444 3394 1641 3394 
Q 1925 3394 2219 3213 
L 2025 2691 
Q 1819 2813 1613 2813 
Q 1428 2813 1281 2702 
Q 1134 2591 1072 2394 
Q 978 2094 978 1738 
L 978 0 
L 416 0 
z
" transform="scale(0.015625)"/>
       <path id="ArialMT-71" d="M 2538 -1272 
L 2538 353 
Q 2406 169 2170 47 
Q 1934 -75 1669 -75 
Q 1078 -75 651 397 
Q 225 869 225 1691 
Q 225 2191 398 2587 
Q 572 2984 901 3189 
Q 1231 3394 1625 3394 
Q 2241 3394 2594 2875 
L 2594 3319 
L 3100 3319 
L 3100 -1272 
L 2538 -1272 
z
M 803 1669 
Q 803 1028 1072 708 
Q 1341 388 1716 388 
Q 2075 388 2334 692 
Q 2594 997 2594 1619 
Q 2594 2281 2320 2615 
Q 2047 2950 1678 2950 
Q 1313 2950 1058 2639 
Q 803 2328 803 1669 
z
" transform="scale(0.015625)"/>
       <path id="ArialMT-79" d="M 397 -1278 
L 334 -750 
Q 519 -800 656 -800 
Q 844 -800 956 -737 
Q 1069 -675 1141 -563 
Q 1194 -478 1313 -144 
Q 1328 -97 1363 -6 
L 103 3319 
L 709 3319 
L 1400 1397 
Q 1534 1031 1641 628 
Q 1738 1016 1872 1384 
L 2581 3319 
L 3144 3319 
L 1881 -56 
Q 1678 -603 1566 -809 
Q 1416 -1088 1222 -1217 
Q 1028 -1347 759 -1347 
Q 597 -1347 397 -1278 
z
" transform="scale(0.015625)"/>
       <path id="ArialMT-23" d="M 322 -78 
L 594 1253 
L 66 1253 
L 66 1719 
L 688 1719 
L 919 2853 
L 66 2853 
L 66 3319 
L 1013 3319 
L 1284 4659 
L 1753 4659 
L 1481 3319 
L 2466 3319 
L 2738 4659 
L 3209 4659 
L 2938 3319 
L 3478 3319 
L 3478 2853 
L 2844 2853 
L 2609 1719 
L 3478 1719 
L 3478 1253 
L 2516 1253 
L 2244 -78 
L 1775 -78 
L 2044 1253 
L 1063 1253 
L 791 -78 
L 322 -78 
z
M 1156 1719 
L 2138 1719 
L 2372 2853 
L 1388 2853 
L 1156 1719 
z
" transform="scale(0.015625)"/>
      </defs>
      <use xlink:href="#ArialMT-46"/>
      <use xlink:href="#ArialMT-72" x="61.083984"/>
      <use xlink:href="#ArialMT-65" x="94.384766"/>
      <use xlink:href="#ArialMT-71" x="150"/>
      <use xlink:href="#ArialMT-75" x="205.615234"/>
      <use xlink:href="#ArialMT-65" x="261.230469"/>
      <use xlink:href="#ArialMT-6e" x="316.845703"/>
      <use xlink:href="#ArialMT-63" x="372.460938"/>
      <use xlink:href="#ArialMT-79" x="422.460938"/>
      <use xlink:href="#ArialMT-20" x="472.460938"/>
      <use xlink:href="#ArialMT-28" x="500.244141"/>
      <use xlink:href="#ArialMT-23" x="533.544922"/>
      <use xlink:href="#ArialMT-29" x="589.160156"/>
     </g>
    </g>
   </g>
   <g id="patch_163">
    <path d="M 34.15899 183.28351 
L 34.15899 3.00024 
" style="fill: none; stroke: #000000; stroke-width: 0.8; stroke-linejoin: miter; stroke-linecap: square"/>
   </g>
   <g id="patch_164">
    <path d="M 278.326635 183.28351 
L 278.326635 3.00024 
" style="fill: none; stroke: #000000; stroke-width: 0.8; stroke-linejoin: miter; stroke-linecap: square"/>
   </g>
   <g id="patch_165">
    <path d="M 34.15899 183.28351 
L 278.326635 183.28351 
" style="fill: none; stroke: #000000; stroke-width: 0.8; stroke-linejoin: miter; stroke-linecap: square"/>
   </g>
   <g id="patch_166">
    <path d="M 34.15899 3.00024 
L 278.326635 3.00024 
" style="fill: none; stroke: #000000; stroke-width: 0.8; stroke-linejoin: miter; stroke-linecap: square"/>
   </g>
   <g id="legend_1">
    <g id="patch_167">
     <path d="M 39.75899 70.22774 
L 116.31899 70.22774 
Q 117.91899 70.22774 117.91899 68.62774 
L 117.91899 8.60024 
Q 117.91899 7.00024 116.31899 7.00024 
L 39.75899 7.00024 
Q 38.15899 7.00024 38.15899 8.60024 
L 38.15899 68.62774 
Q 38.15899 70.22774 39.75899 70.22774 
z
" style="fill: #ffffff; opacity: 0.8; stroke: #cccccc; stroke-linejoin: miter"/>
    </g>
    <g id="text_15">
     <!--  $\mathit{G_{req}}$ -->
     <g transform="translate(69.55899 16.04024) scale(0.08 -0.08)">
      <defs>
       <path id="Arial-ItalicMT-72" d="M 213 0 
L 906 3319 
L 1406 3319 
L 1266 2641 
Q 1522 3025 1767 3209 
Q 2013 3394 2269 3394 
Q 2438 3394 2684 3272 
L 2453 2747 
Q 2306 2853 2131 2853 
Q 1834 2853 1521 2522 
Q 1209 2191 1031 1331 
L 750 0 
L 213 0 
z
" transform="scale(0.015625)"/>
       <path id="Arial-ItalicMT-65" d="M 2650 1128 
L 3200 1072 
Q 3081 663 2654 294 
Q 2228 -75 1638 -75 
Q 1269 -75 961 95 
Q 653 266 492 591 
Q 331 916 331 1331 
Q 331 1875 582 2386 
Q 834 2897 1234 3145 
Q 1634 3394 2100 3394 
Q 2694 3394 3048 3025 
Q 3403 2656 3403 2019 
Q 3403 1775 3359 1519 
L 916 1519 
Q 903 1422 903 1344 
Q 903 878 1117 633 
Q 1331 388 1641 388 
Q 1931 388 2212 578 
Q 2494 769 2650 1128 
z
M 1006 1950 
L 2869 1950 
Q 2872 2038 2872 2075 
Q 2872 2500 2659 2726 
Q 2447 2953 2113 2953 
Q 1750 2953 1451 2703 
Q 1153 2453 1006 1950 
z
" transform="scale(0.015625)"/>
       <path id="Arial-ItalicMT-71" d="M 2356 375 
Q 1872 -75 1428 -75 
Q 966 -75 647 276 
Q 328 628 328 1275 
Q 328 1894 570 2394 
Q 813 2894 1189 3144 
Q 1566 3394 1966 3394 
Q 2269 3394 2517 3223 
Q 2766 3053 2919 2709 
L 3047 3319 
L 3534 3319 
L 2578 -1272 
L 2013 -1272 
L 2356 375 
z
M 888 1350 
Q 888 859 1091 623 
Q 1294 388 1597 388 
Q 1853 388 2114 600 
Q 2375 813 2542 1238 
Q 2709 1663 2709 2059 
Q 2709 2466 2500 2697 
Q 2291 2928 1988 2928 
Q 1691 2928 1469 2734 
Q 1178 2484 1013 2013 
Q 888 1650 888 1350 
z
" transform="scale(0.015625)"/>
      </defs>
      <use xlink:href="#ArialMT-20" transform="translate(0 0.203125)"/>
      <use xlink:href="#Arial-ItalicMT-47" transform="translate(27.783203 0.203125)"/>
      <use xlink:href="#Arial-ItalicMT-72" transform="translate(105.566406 -29.665625) scale(0.7)"/>
      <use xlink:href="#Arial-ItalicMT-65" transform="translate(128.876953 -29.665625) scale(0.7)"/>
      <use xlink:href="#Arial-ItalicMT-71" transform="translate(167.807617 -29.665625) scale(0.7)"/>
     </g>
    </g>
    <g id="patch_168">
     <path d="M 41.35899 29.40024 
L 57.35899 29.40024 
L 57.35899 23.80024 
L 41.35899 23.80024 
z
" style="fill: #0000ff; fill-opacity: 0.5; stroke: #000000; stroke-linejoin: miter"/>
    </g>
    <g id="text_16">
     <!-- 133 μS ($\mathit{G_{OFF}}$) -->
     <g transform="translate(63.75899 29.40024) scale(0.08 -0.08)">
      <defs>
       <path id="Arial-ItalicMT-4f" d="M 584 1919 
Q 584 3144 1292 3901 
Q 2000 4659 3009 4659 
Q 3866 4659 4405 4101 
Q 4944 3544 4944 2606 
Q 4944 1938 4672 1366 
Q 4469 938 4159 627 
Q 3850 316 3497 147 
Q 3028 -78 2503 -78 
Q 1953 -78 1501 184 
Q 1050 447 817 917 
Q 584 1388 584 1919 
z
M 1188 1888 
Q 1188 1484 1355 1146 
Q 1522 809 1853 618 
Q 2184 428 2550 428 
Q 2903 428 3222 595 
Q 3541 763 3792 1061 
Q 4044 1359 4189 1795 
Q 4334 2231 4334 2653 
Q 4334 3338 3951 3744 
Q 3569 4150 3006 4150 
Q 2288 4150 1738 3536 
Q 1188 2922 1188 1888 
z
" transform="scale(0.015625)"/>
       <path id="Arial-ItalicMT-46" d="M 291 0 
L 1247 4581 
L 4225 4581 
L 4116 4059 
L 1750 4059 
L 1447 2600 
L 3856 2600 
L 3747 2078 
L 1338 2078 
L 903 0 
L 291 0 
z
" transform="scale(0.015625)"/>
      </defs>
      <use xlink:href="#ArialMT-31" transform="translate(0 0.203125)"/>
      <use xlink:href="#ArialMT-33" transform="translate(55.615234 0.203125)"/>
      <use xlink:href="#ArialMT-33" transform="translate(111.230469 0.203125)"/>
      <use xlink:href="#ArialMT-20" transform="translate(166.845703 0.203125)"/>
      <use xlink:href="#ArialMT-3bc" transform="translate(194.628906 0.203125)"/>
      <use xlink:href="#ArialMT-53" transform="translate(252.246094 0.203125)"/>
      <use xlink:href="#ArialMT-20" transform="translate(318.945312 0.203125)"/>
      <use xlink:href="#ArialMT-28" transform="translate(346.728516 0.203125)"/>
      <use xlink:href="#Arial-ItalicMT-47" transform="translate(380.029297 0.203125)"/>
      <use xlink:href="#Arial-ItalicMT-4f" transform="translate(457.8125 -29.665625) scale(0.7)"/>
      <use xlink:href="#Arial-ItalicMT-46" transform="translate(512.260742 -29.665625) scale(0.7)"/>
      <use xlink:href="#Arial-ItalicMT-46" transform="translate(555.019531 -29.665625) scale(0.7)"/>
      <use xlink:href="#ArialMT-29" transform="translate(602.756445 0.203125)"/>
     </g>
    </g>
    <g id="patch_169">
     <path d="M 41.35899 41.70399 
L 57.35899 41.70399 
L 57.35899 36.10399 
L 41.35899 36.10399 
z
" style="fill: #b2b2b2; fill-opacity: 0.5; stroke: #000000; stroke-linejoin: miter"/>
    </g>
    <g id="text_17">
     <!-- 167 μS -->
     <g transform="translate(63.75899 41.70399) scale(0.08 -0.08)">
      <defs>
       <path id="ArialMT-37" d="M 303 3981 
L 303 4522 
L 3269 4522 
L 3269 4084 
Q 2831 3619 2401 2847 
Q 1972 2075 1738 1259 
Q 1569 684 1522 0 
L 944 0 
Q 953 541 1156 1306 
Q 1359 2072 1739 2783 
Q 2119 3494 2547 3981 
L 303 3981 
z
" transform="scale(0.015625)"/>
      </defs>
      <use xlink:href="#ArialMT-31"/>
      <use xlink:href="#ArialMT-36" x="55.615234"/>
      <use xlink:href="#ArialMT-37" x="111.230469"/>
      <use xlink:href="#ArialMT-20" x="166.845703"/>
      <use xlink:href="#ArialMT-3bc" x="194.628906"/>
      <use xlink:href="#ArialMT-53" x="252.246094"/>
     </g>
    </g>
    <g id="patch_170">
     <path d="M 41.35899 53.11774 
L 57.35899 53.11774 
L 57.35899 47.51774 
L 41.35899 47.51774 
z
" style="fill: #b2b2b2; fill-opacity: 0.5; stroke: #000000; stroke-linejoin: miter"/>
    </g>
    <g id="text_18">
     <!-- 200 μS -->
     <g transform="translate(63.75899 53.11774) scale(0.08 -0.08)">
      <use xlink:href="#ArialMT-32"/>
      <use xlink:href="#ArialMT-30" x="55.615234"/>
      <use xlink:href="#ArialMT-30" x="111.230469"/>
      <use xlink:href="#ArialMT-20" x="166.845703"/>
      <use xlink:href="#ArialMT-3bc" x="194.628906"/>
      <use xlink:href="#ArialMT-53" x="252.246094"/>
     </g>
    </g>
    <g id="patch_171">
     <path d="M 41.35899 64.54774 
L 57.35899 64.54774 
L 57.35899 58.94774 
L 41.35899 58.94774 
z
" style="fill: #ff0000; fill-opacity: 0.5; stroke: #000000; stroke-linejoin: miter"/>
    </g>
    <g id="text_19">
     <!-- 233 μS ($\mathit{G_{ON}}$) -->
     <g transform="translate(63.75899 64.54774) scale(0.08 -0.08)">
      <defs>
       <path id="Arial-ItalicMT-4e" d="M 313 0 
L 1272 4581 
L 1866 4581 
L 2638 2863 
Q 2991 2075 3197 1538 
Q 3316 1225 3472 694 
Q 3556 1272 3684 1888 
L 4247 4581 
L 4844 4581 
L 3888 0 
L 3281 0 
L 2144 2647 
Q 1841 3347 1672 3881 
Q 1625 3434 1491 2784 
L 909 0 
L 313 0 
z
" transform="scale(0.015625)"/>
      </defs>
      <use xlink:href="#ArialMT-32" transform="translate(0 0.203125)"/>
      <use xlink:href="#ArialMT-33" transform="translate(55.615234 0.203125)"/>
      <use xlink:href="#ArialMT-33" transform="translate(111.230469 0.203125)"/>
      <use xlink:href="#ArialMT-20" transform="translate(166.845703 0.203125)"/>
      <use xlink:href="#ArialMT-3bc" transform="translate(194.628906 0.203125)"/>
      <use xlink:href="#ArialMT-53" transform="translate(252.246094 0.203125)"/>
      <use xlink:href="#ArialMT-20" transform="translate(318.945312 0.203125)"/>
      <use xlink:href="#ArialMT-28" transform="translate(346.728516 0.203125)"/>
      <use xlink:href="#Arial-ItalicMT-47" transform="translate(380.029297 0.203125)"/>
      <use xlink:href="#Arial-ItalicMT-4f" transform="translate(457.8125 -29.665625) scale(0.7)"/>
      <use xlink:href="#Arial-ItalicMT-4e" transform="translate(512.260742 -29.665625) scale(0.7)"/>
      <use xlink:href="#ArialMT-29" transform="translate(567.790625 0.203125)"/>
     </g>
    </g>
   </g>
  </g>
 </g>
 <defs>
  <clipPath id="p595a1ab55b">
   <rect x="34.15899" y="3.00024" width="244.167645" height="180.28327"/>
  </clipPath>
 </defs>
</svg>
