<?xml version="1.0" encoding="utf-8" standalone="no"?>
<!DOCTYPE svg PUBLIC "-//W3C//DTD SVG 1.1//EN"
  "http://www.w3.org/Graphics/SVG/1.1/DTD/svg11.dtd">
<svg xmlns:xlink="http://www.w3.org/1999/xlink" width="288pt" height="216pt" viewBox="0 0 288 216" xmlns="http://www.w3.org/2000/svg" version="1.1">
 <metadata>
  <rdf:RDF xmlns:dc="http://purl.org/dc/elements/1.1/" xmlns:cc="http://creativecommons.org/ns#" xmlns:rdf="http://www.w3.org/1999/02/22-rdf-syntax-ns#">
   <cc:Work>
    <dc:type rdf:resource="http://purl.org/dc/dcmitype/StillImage"/>
    <dc:date>2024-12-22T21:00:45.062201</dc:date>
    <dc:format>image/svg+xml</dc:format>
    <dc:creator>
     <cc:Agent>
      <dc:title>Matplotlib v3.6.0, https://matplotlib.org/</dc:title>
     </cc:Agent>
    </dc:creator>
   </cc:Work>
  </rdf:RDF>
 </metadata>
 <defs>
  <style type="text/css">*{stroke-linejoin: round; stroke-linecap: butt}</style>
 </defs>
 <g id="figure_1">
  <g id="patch_1">
   <path d="M 0 216 
L 288 216 
L 288 0 
L 0 0 
z
" style="fill: #ffffff"/>
  </g>
  <g id="axes_1">
   <g id="patch_2">
    <path d="M 104.663512 185.121635 
L 226.077775 185.121635 
L 226.077775 3.00024 
L 104.663512 3.00024 
z
" style="fill: #ffffff"/>
   </g>
   <g id="matplotlib.axis_1">
    <g id="xtick_1">
     <g id="line2d_1">
      <defs>
       <path id="m2eb037cb0c" d="M 0 0 
L 0 -3.5 
" style="stroke: #000000; stroke-width: 0.8"/>
      </defs>
      <g>
       <use xlink:href="#m2eb037cb0c" x="104.719826" y="185.121635" style="stroke: #000000; stroke-width: 0.8"/>
      </g>
     </g>
     <g id="line2d_2">
      <defs>
       <path id="m8f4a1a1a42" d="M 0 0 
L 0 3.5 
" style="stroke: #000000; stroke-width: 0.8"/>
      </defs>
      <g>
       <use xlink:href="#m8f4a1a1a42" x="104.719826" y="3.00024" style="stroke: #000000; stroke-width: 0.8"/>
      </g>
     </g>
     <g id="text_1">
      <!-- −2.5 -->
      <g transform="translate(92.57842 196.220072) scale(0.1 -0.1)">
       <defs>
        <path id="DejaVuSans-2212" d="M 678 2272 
L 4684 2272 
L 4684 1741 
L 678 1741 
L 678 2272 
z
" transform="scale(0.015625)"/>
        <path id="DejaVuSans-32" d="M 1228 531 
L 3431 531 
L 3431 0 
L 469 0 
L 469 531 
Q 828 903 1448 1529 
Q 2069 2156 2228 2338 
Q 2531 2678 2651 2914 
Q 2772 3150 2772 3378 
Q 2772 3750 2511 3984 
Q 2250 4219 1831 4219 
Q 1534 4219 1204 4116 
Q 875 4013 500 3803 
L 500 4441 
Q 881 4594 1212 4672 
Q 1544 4750 1819 4750 
Q 2544 4750 2975 4387 
Q 3406 4025 3406 3419 
Q 3406 3131 3298 2873 
Q 3191 2616 2906 2266 
Q 2828 2175 2409 1742 
Q 1991 1309 1228 531 
z
" transform="scale(0.015625)"/>
        <path id="DejaVuSans-2e" d="M 684 794 
L 1344 794 
L 1344 0 
L 684 0 
L 684 794 
z
" transform="scale(0.015625)"/>
        <path id="DejaVuSans-35" d="M 691 4666 
L 3169 4666 
L 3169 4134 
L 1269 4134 
L 1269 2991 
Q 1406 3038 1543 3061 
Q 1681 3084 1819 3084 
Q 2600 3084 3056 2656 
Q 3513 2228 3513 1497 
Q 3513 744 3044 326 
Q 2575 -91 1722 -91 
Q 1428 -91 1123 -41 
Q 819 9 494 109 
L 494 744 
Q 775 591 1075 516 
Q 1375 441 1709 441 
Q 2250 441 2565 725 
Q 2881 1009 2881 1497 
Q 2881 1984 2565 2268 
Q 2250 2553 1709 2553 
Q 1456 2553 1204 2497 
Q 953 2441 691 2322 
L 691 4666 
z
" transform="scale(0.015625)"/>
       </defs>
       <use xlink:href="#DejaVuSans-2212"/>
       <use xlink:href="#DejaVuSans-32" x="83.789062"/>
       <use xlink:href="#DejaVuSans-2e" x="147.412109"/>
       <use xlink:href="#DejaVuSans-35" x="179.199219"/>
      </g>
     </g>
    </g>
    <g id="xtick_2">
     <g id="line2d_3">
      <g>
       <use xlink:href="#m2eb037cb0c" x="127.786284" y="185.121635" style="stroke: #000000; stroke-width: 0.8"/>
      </g>
     </g>
     <g id="line2d_4">
      <g>
       <use xlink:href="#m8f4a1a1a42" x="127.786284" y="3.00024" style="stroke: #000000; stroke-width: 0.8"/>
      </g>
     </g>
     <g id="text_2">
      <!-- −2.0 -->
      <g transform="translate(115.644877 196.220072) scale(0.1 -0.1)">
       <defs>
        <path id="DejaVuSans-30" d="M 2034 4250 
Q 1547 4250 1301 3770 
Q 1056 3291 1056 2328 
Q 1056 1369 1301 889 
Q 1547 409 2034 409 
Q 2525 409 2770 889 
Q 3016 1369 3016 2328 
Q 3016 3291 2770 3770 
Q 2525 4250 2034 4250 
z
M 2034 4750 
Q 2819 4750 3233 4129 
Q 3647 3509 3647 2328 
Q 3647 1150 3233 529 
Q 2819 -91 2034 -91 
Q 1250 -91 836 529 
Q 422 1150 422 2328 
Q 422 3509 836 4129 
Q 1250 4750 2034 4750 
z
" transform="scale(0.015625)"/>
       </defs>
       <use xlink:href="#DejaVuSans-2212"/>
       <use xlink:href="#DejaVuSans-32" x="83.789062"/>
       <use xlink:href="#DejaVuSans-2e" x="147.412109"/>
       <use xlink:href="#DejaVuSans-30" x="179.199219"/>
      </g>
     </g>
    </g>
    <g id="xtick_3">
     <g id="line2d_5">
      <g>
       <use xlink:href="#m2eb037cb0c" x="150.852741" y="185.121635" style="stroke: #000000; stroke-width: 0.8"/>
      </g>
     </g>
     <g id="line2d_6">
      <g>
       <use xlink:href="#m8f4a1a1a42" x="150.852741" y="3.00024" style="stroke: #000000; stroke-width: 0.8"/>
      </g>
     </g>
     <g id="text_3">
      <!-- −1.5 -->
      <g transform="translate(138.711335 196.220072) scale(0.1 -0.1)">
       <defs>
        <path id="DejaVuSans-31" d="M 794 531 
L 1825 531 
L 1825 4091 
L 703 3866 
L 703 4441 
L 1819 4666 
L 2450 4666 
L 2450 531 
L 3481 531 
L 3481 0 
L 794 0 
L 794 531 
z
" transform="scale(0.015625)"/>
       </defs>
       <use xlink:href="#DejaVuSans-2212"/>
       <use xlink:href="#DejaVuSans-31" x="83.789062"/>
       <use xlink:href="#DejaVuSans-2e" x="147.412109"/>
       <use xlink:href="#DejaVuSans-35" x="179.199219"/>
      </g>
     </g>
    </g>
    <g id="xtick_4">
     <g id="line2d_7">
      <g>
       <use xlink:href="#m2eb037cb0c" x="173.919199" y="185.121635" style="stroke: #000000; stroke-width: 0.8"/>
      </g>
     </g>
     <g id="line2d_8">
      <g>
       <use xlink:href="#m8f4a1a1a42" x="173.919199" y="3.00024" style="stroke: #000000; stroke-width: 0.8"/>
      </g>
     </g>
     <g id="text_4">
      <!-- −1.0 -->
      <g transform="translate(161.777792 196.220072) scale(0.1 -0.1)">
       <use xlink:href="#DejaVuSans-2212"/>
       <use xlink:href="#DejaVuSans-31" x="83.789062"/>
       <use xlink:href="#DejaVuSans-2e" x="147.412109"/>
       <use xlink:href="#DejaVuSans-30" x="179.199219"/>
      </g>
     </g>
    </g>
    <g id="xtick_5">
     <g id="line2d_9">
      <g>
       <use xlink:href="#m2eb037cb0c" x="196.985656" y="185.121635" style="stroke: #000000; stroke-width: 0.8"/>
      </g>
     </g>
     <g id="line2d_10">
      <g>
       <use xlink:href="#m8f4a1a1a42" x="196.985656" y="3.00024" style="stroke: #000000; stroke-width: 0.8"/>
      </g>
     </g>
     <g id="text_5">
      <!-- −0.5 -->
      <g transform="translate(184.84425 196.220072) scale(0.1 -0.1)">
       <use xlink:href="#DejaVuSans-2212"/>
       <use xlink:href="#DejaVuSans-30" x="83.789062"/>
       <use xlink:href="#DejaVuSans-2e" x="147.412109"/>
       <use xlink:href="#DejaVuSans-35" x="179.199219"/>
      </g>
     </g>
    </g>
    <g id="xtick_6">
     <g id="line2d_11">
      <g>
       <use xlink:href="#m2eb037cb0c" x="220.052113" y="185.121635" style="stroke: #000000; stroke-width: 0.8"/>
      </g>
     </g>
     <g id="line2d_12">
      <g>
       <use xlink:href="#m8f4a1a1a42" x="220.052113" y="3.00024" style="stroke: #000000; stroke-width: 0.8"/>
      </g>
     </g>
     <g id="text_6">
      <!-- 0.0 -->
      <g transform="translate(212.100551 196.220072) scale(0.1 -0.1)">
       <use xlink:href="#DejaVuSans-30"/>
       <use xlink:href="#DejaVuSans-2e" x="63.623047"/>
       <use xlink:href="#DejaVuSans-30" x="95.410156"/>
      </g>
     </g>
    </g>
    <g id="xtick_7">
     <g id="line2d_13">
      <defs>
       <path id="mef273af1e3" d="M 0 0 
L 0 -2 
" style="stroke: #000000; stroke-width: 0.6"/>
      </defs>
      <g>
       <use xlink:href="#mef273af1e3" x="116.253055" y="185.121635" style="stroke: #000000; stroke-width: 0.6"/>
      </g>
     </g>
     <g id="line2d_14">
      <defs>
       <path id="m6317db813a" d="M 0 0 
L 0 2 
" style="stroke: #000000; stroke-width: 0.6"/>
      </defs>
      <g>
       <use xlink:href="#m6317db813a" x="116.253055" y="3.00024" style="stroke: #000000; stroke-width: 0.6"/>
      </g>
     </g>
    </g>
    <g id="xtick_8">
     <g id="line2d_15">
      <g>
       <use xlink:href="#mef273af1e3" x="139.319512" y="185.121635" style="stroke: #000000; stroke-width: 0.6"/>
      </g>
     </g>
     <g id="line2d_16">
      <g>
       <use xlink:href="#m6317db813a" x="139.319512" y="3.00024" style="stroke: #000000; stroke-width: 0.6"/>
      </g>
     </g>
    </g>
    <g id="xtick_9">
     <g id="line2d_17">
      <g>
       <use xlink:href="#mef273af1e3" x="162.38597" y="185.121635" style="stroke: #000000; stroke-width: 0.6"/>
      </g>
     </g>
     <g id="line2d_18">
      <g>
       <use xlink:href="#m6317db813a" x="162.38597" y="3.00024" style="stroke: #000000; stroke-width: 0.6"/>
      </g>
     </g>
    </g>
    <g id="xtick_10">
     <g id="line2d_19">
      <g>
       <use xlink:href="#mef273af1e3" x="185.452427" y="185.121635" style="stroke: #000000; stroke-width: 0.6"/>
      </g>
     </g>
     <g id="line2d_20">
      <g>
       <use xlink:href="#m6317db813a" x="185.452427" y="3.00024" style="stroke: #000000; stroke-width: 0.6"/>
      </g>
     </g>
    </g>
    <g id="xtick_11">
     <g id="line2d_21">
      <g>
       <use xlink:href="#mef273af1e3" x="208.518885" y="185.121635" style="stroke: #000000; stroke-width: 0.6"/>
      </g>
     </g>
     <g id="line2d_22">
      <g>
       <use xlink:href="#m6317db813a" x="208.518885" y="3.00024" style="stroke: #000000; stroke-width: 0.6"/>
      </g>
     </g>
    </g>
    <g id="text_7">
     <!-- Gate Voltage, $\mathit{V_{gate}}$ (V) -->
     <g transform="translate(109.120643 209.89976) scale(0.1 -0.1)">
      <defs>
       <path id="DejaVuSans-47" d="M 3809 666 
L 3809 1919 
L 2778 1919 
L 2778 2438 
L 4434 2438 
L 4434 434 
Q 4069 175 3628 42 
Q 3188 -91 2688 -91 
Q 1594 -91 976 548 
Q 359 1188 359 2328 
Q 359 3472 976 4111 
Q 1594 4750 2688 4750 
Q 3144 4750 3555 4637 
Q 3966 4525 4313 4306 
L 4313 3634 
Q 3963 3931 3569 4081 
Q 3175 4231 2741 4231 
Q 1884 4231 1454 3753 
Q 1025 3275 1025 2328 
Q 1025 1384 1454 906 
Q 1884 428 2741 428 
Q 3075 428 3337 486 
Q 3600 544 3809 666 
z
" transform="scale(0.015625)"/>
       <path id="DejaVuSans-61" d="M 2194 1759 
Q 1497 1759 1228 1600 
Q 959 1441 959 1056 
Q 959 750 1161 570 
Q 1363 391 1709 391 
Q 2188 391 2477 730 
Q 2766 1069 2766 1631 
L 2766 1759 
L 2194 1759 
z
M 3341 1997 
L 3341 0 
L 2766 0 
L 2766 531 
Q 2569 213 2275 61 
Q 1981 -91 1556 -91 
Q 1019 -91 701 211 
Q 384 513 384 1019 
Q 384 1609 779 1909 
Q 1175 2209 1959 2209 
L 2766 2209 
L 2766 2266 
Q 2766 2663 2505 2880 
Q 2244 3097 1772 3097 
Q 1472 3097 1187 3025 
Q 903 2953 641 2809 
L 641 3341 
Q 956 3463 1253 3523 
Q 1550 3584 1831 3584 
Q 2591 3584 2966 3190 
Q 3341 2797 3341 1997 
z
" transform="scale(0.015625)"/>
       <path id="DejaVuSans-74" d="M 1172 4494 
L 1172 3500 
L 2356 3500 
L 2356 3053 
L 1172 3053 
L 1172 1153 
Q 1172 725 1289 603 
Q 1406 481 1766 481 
L 2356 481 
L 2356 0 
L 1766 0 
Q 1100 0 847 248 
Q 594 497 594 1153 
L 594 3053 
L 172 3053 
L 172 3500 
L 594 3500 
L 594 4494 
L 1172 4494 
z
" transform="scale(0.015625)"/>
       <path id="DejaVuSans-65" d="M 3597 1894 
L 3597 1613 
L 953 1613 
Q 991 1019 1311 708 
Q 1631 397 2203 397 
Q 2534 397 2845 478 
Q 3156 559 3463 722 
L 3463 178 
Q 3153 47 2828 -22 
Q 2503 -91 2169 -91 
Q 1331 -91 842 396 
Q 353 884 353 1716 
Q 353 2575 817 3079 
Q 1281 3584 2069 3584 
Q 2775 3584 3186 3129 
Q 3597 2675 3597 1894 
z
M 3022 2063 
Q 3016 2534 2758 2815 
Q 2500 3097 2075 3097 
Q 1594 3097 1305 2825 
Q 1016 2553 972 2059 
L 3022 2063 
z
" transform="scale(0.015625)"/>
       <path id="DejaVuSans-20" transform="scale(0.015625)"/>
       <path id="DejaVuSans-56" d="M 1831 0 
L 50 4666 
L 709 4666 
L 2188 738 
L 3669 4666 
L 4325 4666 
L 2547 0 
L 1831 0 
z
" transform="scale(0.015625)"/>
       <path id="DejaVuSans-6f" d="M 1959 3097 
Q 1497 3097 1228 2736 
Q 959 2375 959 1747 
Q 959 1119 1226 758 
Q 1494 397 1959 397 
Q 2419 397 2687 759 
Q 2956 1122 2956 1747 
Q 2956 2369 2687 2733 
Q 2419 3097 1959 3097 
z
M 1959 3584 
Q 2709 3584 3137 3096 
Q 3566 2609 3566 1747 
Q 3566 888 3137 398 
Q 2709 -91 1959 -91 
Q 1206 -91 779 398 
Q 353 888 353 1747 
Q 353 2609 779 3096 
Q 1206 3584 1959 3584 
z
" transform="scale(0.015625)"/>
       <path id="DejaVuSans-6c" d="M 603 4863 
L 1178 4863 
L 1178 0 
L 603 0 
L 603 4863 
z
" transform="scale(0.015625)"/>
       <path id="DejaVuSans-67" d="M 2906 1791 
Q 2906 2416 2648 2759 
Q 2391 3103 1925 3103 
Q 1463 3103 1205 2759 
Q 947 2416 947 1791 
Q 947 1169 1205 825 
Q 1463 481 1925 481 
Q 2391 481 2648 825 
Q 2906 1169 2906 1791 
z
M 3481 434 
Q 3481 -459 3084 -895 
Q 2688 -1331 1869 -1331 
Q 1566 -1331 1297 -1286 
Q 1028 -1241 775 -1147 
L 775 -588 
Q 1028 -725 1275 -790 
Q 1522 -856 1778 -856 
Q 2344 -856 2625 -561 
Q 2906 -266 2906 331 
L 2906 616 
Q 2728 306 2450 153 
Q 2172 0 1784 0 
Q 1141 0 747 490 
Q 353 981 353 1791 
Q 353 2603 747 3093 
Q 1141 3584 1784 3584 
Q 2172 3584 2450 3431 
Q 2728 3278 2906 2969 
L 2906 3500 
L 3481 3500 
L 3481 434 
z
" transform="scale(0.015625)"/>
       <path id="DejaVuSans-2c" d="M 750 794 
L 1409 794 
L 1409 256 
L 897 -744 
L 494 -744 
L 750 256 
L 750 794 
z
" transform="scale(0.015625)"/>
       <path id="DejaVuSans-Oblique-56" d="M 1319 0 
L 500 4666 
L 1119 4666 
L 1797 653 
L 4063 4666 
L 4750 4666 
L 2053 0 
L 1319 0 
z
" transform="scale(0.015625)"/>
       <path id="DejaVuSans-Oblique-67" d="M 3816 3500 
L 3219 434 
Q 3047 -456 2561 -893 
Q 2075 -1331 1253 -1331 
Q 950 -1331 690 -1286 
Q 431 -1241 206 -1147 
L 313 -588 
Q 525 -725 762 -790 
Q 1000 -856 1269 -856 
Q 1816 -856 2167 -557 
Q 2519 -259 2631 300 
L 2681 563 
Q 2441 288 2122 144 
Q 1803 0 1434 0 
Q 903 0 598 351 
Q 294 703 294 1319 
Q 294 1803 478 2267 
Q 663 2731 997 3091 
Q 1219 3328 1514 3456 
Q 1809 3584 2131 3584 
Q 2484 3584 2746 3420 
Q 3009 3256 3138 2956 
L 3238 3500 
L 3816 3500 
z
M 2950 2216 
Q 2950 2641 2750 2872 
Q 2550 3103 2181 3103 
Q 1953 3103 1747 3012 
Q 1541 2922 1394 2759 
Q 1156 2491 1023 2127 
Q 891 1763 891 1375 
Q 891 944 1092 712 
Q 1294 481 1672 481 
Q 2219 481 2584 976 
Q 2950 1472 2950 2216 
z
" transform="scale(0.015625)"/>
       <path id="DejaVuSans-Oblique-61" d="M 3438 1997 
L 3047 0 
L 2472 0 
L 2578 531 
Q 2325 219 2001 64 
Q 1678 -91 1281 -91 
Q 834 -91 548 182 
Q 263 456 263 884 
Q 263 1497 752 1853 
Q 1241 2209 2100 2209 
L 2900 2209 
L 2931 2363 
Q 2938 2388 2941 2417 
Q 2944 2447 2944 2509 
Q 2944 2788 2717 2942 
Q 2491 3097 2081 3097 
Q 1800 3097 1504 3025 
Q 1209 2953 897 2809 
L 997 3341 
Q 1322 3463 1633 3523 
Q 1944 3584 2234 3584 
Q 2853 3584 3176 3315 
Q 3500 3047 3500 2534 
Q 3500 2431 3484 2292 
Q 3469 2153 3438 1997 
z
M 2816 1759 
L 2241 1759 
Q 1534 1759 1195 1570 
Q 856 1381 856 984 
Q 856 709 1029 553 
Q 1203 397 1509 397 
Q 1978 397 2328 733 
Q 2678 1069 2791 1631 
L 2816 1759 
z
" transform="scale(0.015625)"/>
       <path id="DejaVuSans-Oblique-74" d="M 2706 3500 
L 2619 3053 
L 1472 3053 
L 1100 1153 
Q 1081 1047 1072 975 
Q 1063 903 1063 863 
Q 1063 663 1183 572 
Q 1303 481 1569 481 
L 2150 481 
L 2053 0 
L 1503 0 
Q 991 0 739 200 
Q 488 400 488 806 
Q 488 878 497 964 
Q 506 1050 525 1153 
L 897 3053 
L 409 3053 
L 500 3500 
L 978 3500 
L 1172 4494 
L 1747 4494 
L 1556 3500 
L 2706 3500 
z
" transform="scale(0.015625)"/>
       <path id="DejaVuSans-Oblique-65" d="M 3078 2063 
Q 3088 2113 3092 2166 
Q 3097 2219 3097 2272 
Q 3097 2653 2873 2875 
Q 2650 3097 2266 3097 
Q 1838 3097 1509 2826 
Q 1181 2556 1013 2059 
L 3078 2063 
z
M 3578 1613 
L 903 1613 
Q 884 1494 878 1425 
Q 872 1356 872 1306 
Q 872 872 1139 634 
Q 1406 397 1894 397 
Q 2269 397 2603 481 
Q 2938 566 3225 728 
L 3116 159 
Q 2806 34 2476 -28 
Q 2147 -91 1806 -91 
Q 1078 -91 686 257 
Q 294 606 294 1247 
Q 294 1794 489 2264 
Q 684 2734 1063 3103 
Q 1306 3334 1642 3459 
Q 1978 3584 2356 3584 
Q 2950 3584 3301 3228 
Q 3653 2872 3653 2272 
Q 3653 2128 3634 1964 
Q 3616 1800 3578 1613 
z
" transform="scale(0.015625)"/>
       <path id="DejaVuSans-28" d="M 1984 4856 
Q 1566 4138 1362 3434 
Q 1159 2731 1159 2009 
Q 1159 1288 1364 580 
Q 1569 -128 1984 -844 
L 1484 -844 
Q 1016 -109 783 600 
Q 550 1309 550 2009 
Q 550 2706 781 3412 
Q 1013 4119 1484 4856 
L 1984 4856 
z
" transform="scale(0.015625)"/>
       <path id="DejaVuSans-29" d="M 513 4856 
L 1013 4856 
Q 1481 4119 1714 3412 
Q 1947 2706 1947 2009 
Q 1947 1309 1714 600 
Q 1481 -109 1013 -844 
L 513 -844 
Q 928 -128 1133 580 
Q 1338 1288 1338 2009 
Q 1338 2731 1133 3434 
Q 928 4138 513 4856 
z
" transform="scale(0.015625)"/>
      </defs>
      <use xlink:href="#DejaVuSans-47" transform="translate(0 0.015625)"/>
      <use xlink:href="#DejaVuSans-61" transform="translate(77.490234 0.015625)"/>
      <use xlink:href="#DejaVuSans-74" transform="translate(138.769531 0.015625)"/>
      <use xlink:href="#DejaVuSans-65" transform="translate(177.978516 0.015625)"/>
      <use xlink:href="#DejaVuSans-20" transform="translate(239.501953 0.015625)"/>
      <use xlink:href="#DejaVuSans-56" transform="translate(271.289062 0.015625)"/>
      <use xlink:href="#DejaVuSans-6f" transform="translate(339.697266 0.015625)"/>
      <use xlink:href="#DejaVuSans-6c" transform="translate(400.878906 0.015625)"/>
      <use xlink:href="#DejaVuSans-74" transform="translate(428.662109 0.015625)"/>
      <use xlink:href="#DejaVuSans-61" transform="translate(467.871094 0.015625)"/>
      <use xlink:href="#DejaVuSans-67" transform="translate(529.150391 0.015625)"/>
      <use xlink:href="#DejaVuSans-65" transform="translate(592.626953 0.015625)"/>
      <use xlink:href="#DejaVuSans-2c" transform="translate(654.150391 0.015625)"/>
      <use xlink:href="#DejaVuSans-20" transform="translate(685.9375 0.015625)"/>
      <use xlink:href="#DejaVuSans-Oblique-56" transform="translate(717.724609 0.015625)"/>
      <use xlink:href="#DejaVuSans-Oblique-67" transform="translate(786.132812 -16.390625) scale(0.7)"/>
      <use xlink:href="#DejaVuSans-Oblique-61" transform="translate(830.566406 -16.390625) scale(0.7)"/>
      <use xlink:href="#DejaVuSans-Oblique-74" transform="translate(873.461914 -16.390625) scale(0.7)"/>
      <use xlink:href="#DejaVuSans-Oblique-65" transform="translate(900.908203 -16.390625) scale(0.7)"/>
      <use xlink:href="#DejaVuSans-20" transform="translate(946.708984 0.015625)"/>
      <use xlink:href="#DejaVuSans-28" transform="translate(978.496094 0.015625)"/>
      <use xlink:href="#DejaVuSans-56" transform="translate(1017.509766 0.015625)"/>
      <use xlink:href="#DejaVuSans-29" transform="translate(1085.917969 0.015625)"/>
     </g>
    </g>
   </g>
   <g id="matplotlib.axis_2">
    <g id="ytick_1">
     <g id="line2d_23">
      <defs>
       <path id="m1fd58d0a5c" d="M 0 0 
L 3.5 0 
" style="stroke: #000000; stroke-width: 0.8"/>
      </defs>
      <g>
       <use xlink:href="#m1fd58d0a5c" x="104.663512" y="176.015565" style="stroke: #000000; stroke-width: 0.8"/>
      </g>
     </g>
     <g id="line2d_24">
      <defs>
       <path id="m855fa6a664" d="M 0 0 
L -3.5 0 
" style="stroke: #000000; stroke-width: 0.8"/>
      </defs>
      <g>
       <use xlink:href="#m855fa6a664" x="226.077775" y="176.015565" style="stroke: #000000; stroke-width: 0.8"/>
      </g>
     </g>
     <g id="text_8">
      <!-- −500 -->
      <g transform="translate(73.696324 179.814784) scale(0.1 -0.1)">
       <use xlink:href="#DejaVuSans-2212"/>
       <use xlink:href="#DejaVuSans-35" x="83.789062"/>
       <use xlink:href="#DejaVuSans-30" x="147.412109"/>
       <use xlink:href="#DejaVuSans-30" x="211.035156"/>
      </g>
     </g>
    </g>
    <g id="ytick_2">
     <g id="line2d_25">
      <g>
       <use xlink:href="#m1fd58d0a5c" x="104.663512" y="157.803426" style="stroke: #000000; stroke-width: 0.8"/>
      </g>
     </g>
     <g id="line2d_26">
      <g>
       <use xlink:href="#m855fa6a664" x="226.077775" y="157.803426" style="stroke: #000000; stroke-width: 0.8"/>
      </g>
     </g>
     <g id="text_9">
      <!-- −400 -->
      <g transform="translate(73.696324 161.602644) scale(0.1 -0.1)">
       <defs>
        <path id="DejaVuSans-34" d="M 2419 4116 
L 825 1625 
L 2419 1625 
L 2419 4116 
z
M 2253 4666 
L 3047 4666 
L 3047 1625 
L 3713 1625 
L 3713 1100 
L 3047 1100 
L 3047 0 
L 2419 0 
L 2419 1100 
L 313 1100 
L 313 1709 
L 2253 4666 
z
" transform="scale(0.015625)"/>
       </defs>
       <use xlink:href="#DejaVuSans-2212"/>
       <use xlink:href="#DejaVuSans-34" x="83.789062"/>
       <use xlink:href="#DejaVuSans-30" x="147.412109"/>
       <use xlink:href="#DejaVuSans-30" x="211.035156"/>
      </g>
     </g>
    </g>
    <g id="ytick_3">
     <g id="line2d_27">
      <g>
       <use xlink:href="#m1fd58d0a5c" x="104.663512" y="139.591286" style="stroke: #000000; stroke-width: 0.8"/>
      </g>
     </g>
     <g id="line2d_28">
      <g>
       <use xlink:href="#m855fa6a664" x="226.077775" y="139.591286" style="stroke: #000000; stroke-width: 0.8"/>
      </g>
     </g>
     <g id="text_10">
      <!-- −300 -->
      <g transform="translate(73.696324 143.390505) scale(0.1 -0.1)">
       <defs>
        <path id="DejaVuSans-33" d="M 2597 2516 
Q 3050 2419 3304 2112 
Q 3559 1806 3559 1356 
Q 3559 666 3084 287 
Q 2609 -91 1734 -91 
Q 1441 -91 1130 -33 
Q 819 25 488 141 
L 488 750 
Q 750 597 1062 519 
Q 1375 441 1716 441 
Q 2309 441 2620 675 
Q 2931 909 2931 1356 
Q 2931 1769 2642 2001 
Q 2353 2234 1838 2234 
L 1294 2234 
L 1294 2753 
L 1863 2753 
Q 2328 2753 2575 2939 
Q 2822 3125 2822 3475 
Q 2822 3834 2567 4026 
Q 2313 4219 1838 4219 
Q 1578 4219 1281 4162 
Q 984 4106 628 3988 
L 628 4550 
Q 988 4650 1302 4700 
Q 1616 4750 1894 4750 
Q 2613 4750 3031 4423 
Q 3450 4097 3450 3541 
Q 3450 3153 3228 2886 
Q 3006 2619 2597 2516 
z
" transform="scale(0.015625)"/>
       </defs>
       <use xlink:href="#DejaVuSans-2212"/>
       <use xlink:href="#DejaVuSans-33" x="83.789062"/>
       <use xlink:href="#DejaVuSans-30" x="147.412109"/>
       <use xlink:href="#DejaVuSans-30" x="211.035156"/>
      </g>
     </g>
    </g>
    <g id="ytick_4">
     <g id="line2d_29">
      <g>
       <use xlink:href="#m1fd58d0a5c" x="104.663512" y="121.379147" style="stroke: #000000; stroke-width: 0.8"/>
      </g>
     </g>
     <g id="line2d_30">
      <g>
       <use xlink:href="#m855fa6a664" x="226.077775" y="121.379147" style="stroke: #000000; stroke-width: 0.8"/>
      </g>
     </g>
     <g id="text_11">
      <!-- −200 -->
      <g transform="translate(73.696324 125.178365) scale(0.1 -0.1)">
       <use xlink:href="#DejaVuSans-2212"/>
       <use xlink:href="#DejaVuSans-32" x="83.789062"/>
       <use xlink:href="#DejaVuSans-30" x="147.412109"/>
       <use xlink:href="#DejaVuSans-30" x="211.035156"/>
      </g>
     </g>
    </g>
    <g id="ytick_5">
     <g id="line2d_31">
      <g>
       <use xlink:href="#m1fd58d0a5c" x="104.663512" y="103.167007" style="stroke: #000000; stroke-width: 0.8"/>
      </g>
     </g>
     <g id="line2d_32">
      <g>
       <use xlink:href="#m855fa6a664" x="226.077775" y="103.167007" style="stroke: #000000; stroke-width: 0.8"/>
      </g>
     </g>
     <g id="text_12">
      <!-- −100 -->
      <g transform="translate(73.696324 106.966226) scale(0.1 -0.1)">
       <use xlink:href="#DejaVuSans-2212"/>
       <use xlink:href="#DejaVuSans-31" x="83.789062"/>
       <use xlink:href="#DejaVuSans-30" x="147.412109"/>
       <use xlink:href="#DejaVuSans-30" x="211.035156"/>
      </g>
     </g>
    </g>
    <g id="ytick_6">
     <g id="line2d_33">
      <g>
       <use xlink:href="#m1fd58d0a5c" x="104.663512" y="84.954868" style="stroke: #000000; stroke-width: 0.8"/>
      </g>
     </g>
     <g id="line2d_34">
      <g>
       <use xlink:href="#m855fa6a664" x="226.077775" y="84.954868" style="stroke: #000000; stroke-width: 0.8"/>
      </g>
     </g>
     <g id="text_13">
      <!-- 0 -->
      <g transform="translate(94.801012 88.754086) scale(0.1 -0.1)">
       <use xlink:href="#DejaVuSans-30"/>
      </g>
     </g>
    </g>
    <g id="ytick_7">
     <g id="line2d_35">
      <g>
       <use xlink:href="#m1fd58d0a5c" x="104.663512" y="66.742728" style="stroke: #000000; stroke-width: 0.8"/>
      </g>
     </g>
     <g id="line2d_36">
      <g>
       <use xlink:href="#m855fa6a664" x="226.077775" y="66.742728" style="stroke: #000000; stroke-width: 0.8"/>
      </g>
     </g>
     <g id="text_14">
      <!-- 100 -->
      <g transform="translate(82.076012 70.541947) scale(0.1 -0.1)">
       <use xlink:href="#DejaVuSans-31"/>
       <use xlink:href="#DejaVuSans-30" x="63.623047"/>
       <use xlink:href="#DejaVuSans-30" x="127.246094"/>
      </g>
     </g>
    </g>
    <g id="ytick_8">
     <g id="line2d_37">
      <g>
       <use xlink:href="#m1fd58d0a5c" x="104.663512" y="48.530589" style="stroke: #000000; stroke-width: 0.8"/>
      </g>
     </g>
     <g id="line2d_38">
      <g>
       <use xlink:href="#m855fa6a664" x="226.077775" y="48.530589" style="stroke: #000000; stroke-width: 0.8"/>
      </g>
     </g>
     <g id="text_15">
      <!-- 200 -->
      <g transform="translate(82.076012 52.329808) scale(0.1 -0.1)">
       <use xlink:href="#DejaVuSans-32"/>
       <use xlink:href="#DejaVuSans-30" x="63.623047"/>
       <use xlink:href="#DejaVuSans-30" x="127.246094"/>
      </g>
     </g>
    </g>
    <g id="ytick_9">
     <g id="line2d_39">
      <g>
       <use xlink:href="#m1fd58d0a5c" x="104.663512" y="30.318449" style="stroke: #000000; stroke-width: 0.8"/>
      </g>
     </g>
     <g id="line2d_40">
      <g>
       <use xlink:href="#m855fa6a664" x="226.077775" y="30.318449" style="stroke: #000000; stroke-width: 0.8"/>
      </g>
     </g>
     <g id="text_16">
      <!-- 300 -->
      <g transform="translate(82.076012 34.117668) scale(0.1 -0.1)">
       <use xlink:href="#DejaVuSans-33"/>
       <use xlink:href="#DejaVuSans-30" x="63.623047"/>
       <use xlink:href="#DejaVuSans-30" x="127.246094"/>
      </g>
     </g>
    </g>
    <g id="ytick_10">
     <g id="line2d_41">
      <g>
       <use xlink:href="#m1fd58d0a5c" x="104.663512" y="12.10631" style="stroke: #000000; stroke-width: 0.8"/>
      </g>
     </g>
     <g id="line2d_42">
      <g>
       <use xlink:href="#m855fa6a664" x="226.077775" y="12.10631" style="stroke: #000000; stroke-width: 0.8"/>
      </g>
     </g>
     <g id="text_17">
      <!-- 400 -->
      <g transform="translate(82.076012 15.905529) scale(0.1 -0.1)">
       <use xlink:href="#DejaVuSans-34"/>
       <use xlink:href="#DejaVuSans-30" x="63.623047"/>
       <use xlink:href="#DejaVuSans-30" x="127.246094"/>
      </g>
     </g>
    </g>
    <g id="ytick_11">
     <g id="line2d_43">
      <defs>
       <path id="m7a9f2627a6" d="M 0 0 
L 2 0 
" style="stroke: #000000; stroke-width: 0.6"/>
      </defs>
      <g>
       <use xlink:href="#m7a9f2627a6" x="104.663512" y="185.121635" style="stroke: #000000; stroke-width: 0.6"/>
      </g>
     </g>
     <g id="line2d_44">
      <defs>
       <path id="mb3733b76bd" d="M 0 0 
L -2 0 
" style="stroke: #000000; stroke-width: 0.6"/>
      </defs>
      <g>
       <use xlink:href="#mb3733b76bd" x="226.077775" y="185.121635" style="stroke: #000000; stroke-width: 0.6"/>
      </g>
     </g>
    </g>
    <g id="ytick_12">
     <g id="line2d_45">
      <g>
       <use xlink:href="#m7a9f2627a6" x="104.663512" y="166.909495" style="stroke: #000000; stroke-width: 0.6"/>
      </g>
     </g>
     <g id="line2d_46">
      <g>
       <use xlink:href="#mb3733b76bd" x="226.077775" y="166.909495" style="stroke: #000000; stroke-width: 0.6"/>
      </g>
     </g>
    </g>
    <g id="ytick_13">
     <g id="line2d_47">
      <g>
       <use xlink:href="#m7a9f2627a6" x="104.663512" y="148.697356" style="stroke: #000000; stroke-width: 0.6"/>
      </g>
     </g>
     <g id="line2d_48">
      <g>
       <use xlink:href="#mb3733b76bd" x="226.077775" y="148.697356" style="stroke: #000000; stroke-width: 0.6"/>
      </g>
     </g>
    </g>
    <g id="ytick_14">
     <g id="line2d_49">
      <g>
       <use xlink:href="#m7a9f2627a6" x="104.663512" y="130.485216" style="stroke: #000000; stroke-width: 0.6"/>
      </g>
     </g>
     <g id="line2d_50">
      <g>
       <use xlink:href="#mb3733b76bd" x="226.077775" y="130.485216" style="stroke: #000000; stroke-width: 0.6"/>
      </g>
     </g>
    </g>
    <g id="ytick_15">
     <g id="line2d_51">
      <g>
       <use xlink:href="#m7a9f2627a6" x="104.663512" y="112.273077" style="stroke: #000000; stroke-width: 0.6"/>
      </g>
     </g>
     <g id="line2d_52">
      <g>
       <use xlink:href="#mb3733b76bd" x="226.077775" y="112.273077" style="stroke: #000000; stroke-width: 0.6"/>
      </g>
     </g>
    </g>
    <g id="ytick_16">
     <g id="line2d_53">
      <g>
       <use xlink:href="#m7a9f2627a6" x="104.663512" y="94.060938" style="stroke: #000000; stroke-width: 0.6"/>
      </g>
     </g>
     <g id="line2d_54">
      <g>
       <use xlink:href="#mb3733b76bd" x="226.077775" y="94.060938" style="stroke: #000000; stroke-width: 0.6"/>
      </g>
     </g>
    </g>
    <g id="ytick_17">
     <g id="line2d_55">
      <g>
       <use xlink:href="#m7a9f2627a6" x="104.663512" y="75.848798" style="stroke: #000000; stroke-width: 0.6"/>
      </g>
     </g>
     <g id="line2d_56">
      <g>
       <use xlink:href="#mb3733b76bd" x="226.077775" y="75.848798" style="stroke: #000000; stroke-width: 0.6"/>
      </g>
     </g>
    </g>
    <g id="ytick_18">
     <g id="line2d_57">
      <g>
       <use xlink:href="#m7a9f2627a6" x="104.663512" y="57.636659" style="stroke: #000000; stroke-width: 0.6"/>
      </g>
     </g>
     <g id="line2d_58">
      <g>
       <use xlink:href="#mb3733b76bd" x="226.077775" y="57.636659" style="stroke: #000000; stroke-width: 0.6"/>
      </g>
     </g>
    </g>
    <g id="ytick_19">
     <g id="line2d_59">
      <g>
       <use xlink:href="#m7a9f2627a6" x="104.663512" y="39.424519" style="stroke: #000000; stroke-width: 0.6"/>
      </g>
     </g>
     <g id="line2d_60">
      <g>
       <use xlink:href="#mb3733b76bd" x="226.077775" y="39.424519" style="stroke: #000000; stroke-width: 0.6"/>
      </g>
     </g>
    </g>
    <g id="ytick_20">
     <g id="line2d_61">
      <g>
       <use xlink:href="#m7a9f2627a6" x="104.663512" y="21.21238" style="stroke: #000000; stroke-width: 0.6"/>
      </g>
     </g>
     <g id="line2d_62">
      <g>
       <use xlink:href="#mb3733b76bd" x="226.077775" y="21.21238" style="stroke: #000000; stroke-width: 0.6"/>
      </g>
     </g>
    </g>
    <g id="ytick_21">
     <g id="line2d_63">
      <g>
       <use xlink:href="#m7a9f2627a6" x="104.663512" y="3.00024" style="stroke: #000000; stroke-width: 0.6"/>
      </g>
     </g>
     <g id="line2d_64">
      <g>
       <use xlink:href="#mb3733b76bd" x="226.077775" y="3.00024" style="stroke: #000000; stroke-width: 0.6"/>
      </g>
     </g>
    </g>
    <g id="text_18">
     <!-- Current, $\mathit{I}$ (μA) -->
     <g transform="translate(67.596324 129.810938) rotate(-90) scale(0.1 -0.1)">
      <defs>
       <path id="DejaVuSans-43" d="M 4122 4306 
L 4122 3641 
Q 3803 3938 3442 4084 
Q 3081 4231 2675 4231 
Q 1875 4231 1450 3742 
Q 1025 3253 1025 2328 
Q 1025 1406 1450 917 
Q 1875 428 2675 428 
Q 3081 428 3442 575 
Q 3803 722 4122 1019 
L 4122 359 
Q 3791 134 3420 21 
Q 3050 -91 2638 -91 
Q 1578 -91 968 557 
Q 359 1206 359 2328 
Q 359 3453 968 4101 
Q 1578 4750 2638 4750 
Q 3056 4750 3426 4639 
Q 3797 4528 4122 4306 
z
" transform="scale(0.015625)"/>
       <path id="DejaVuSans-75" d="M 544 1381 
L 544 3500 
L 1119 3500 
L 1119 1403 
Q 1119 906 1312 657 
Q 1506 409 1894 409 
Q 2359 409 2629 706 
Q 2900 1003 2900 1516 
L 2900 3500 
L 3475 3500 
L 3475 0 
L 2900 0 
L 2900 538 
Q 2691 219 2414 64 
Q 2138 -91 1772 -91 
Q 1169 -91 856 284 
Q 544 659 544 1381 
z
M 1991 3584 
L 1991 3584 
z
" transform="scale(0.015625)"/>
       <path id="DejaVuSans-72" d="M 2631 2963 
Q 2534 3019 2420 3045 
Q 2306 3072 2169 3072 
Q 1681 3072 1420 2755 
Q 1159 2438 1159 1844 
L 1159 0 
L 581 0 
L 581 3500 
L 1159 3500 
L 1159 2956 
Q 1341 3275 1631 3429 
Q 1922 3584 2338 3584 
Q 2397 3584 2469 3576 
Q 2541 3569 2628 3553 
L 2631 2963 
z
" transform="scale(0.015625)"/>
       <path id="DejaVuSans-6e" d="M 3513 2113 
L 3513 0 
L 2938 0 
L 2938 2094 
Q 2938 2591 2744 2837 
Q 2550 3084 2163 3084 
Q 1697 3084 1428 2787 
Q 1159 2491 1159 1978 
L 1159 0 
L 581 0 
L 581 3500 
L 1159 3500 
L 1159 2956 
Q 1366 3272 1645 3428 
Q 1925 3584 2291 3584 
Q 2894 3584 3203 3211 
Q 3513 2838 3513 2113 
z
" transform="scale(0.015625)"/>
       <path id="DejaVuSans-Oblique-49" d="M 1081 4666 
L 1716 4666 
L 806 0 
L 172 0 
L 1081 4666 
z
" transform="scale(0.015625)"/>
       <path id="DejaVuSans-3bc" d="M 544 -1331 
L 544 3500 
L 1119 3500 
L 1119 1325 
Q 1119 872 1334 640 
Q 1550 409 1972 409 
Q 2434 409 2667 671 
Q 2900 934 2900 1459 
L 2900 3500 
L 3475 3500 
L 3475 806 
Q 3475 619 3529 530 
Q 3584 441 3700 441 
Q 3728 441 3778 458 
Q 3828 475 3916 513 
L 3916 50 
Q 3788 -22 3673 -56 
Q 3559 -91 3450 -91 
Q 3234 -91 3106 31 
Q 2978 153 2931 403 
Q 2775 156 2548 32 
Q 2322 -91 2016 -91 
Q 1697 -91 1473 31 
Q 1250 153 1119 397 
L 1119 -1331 
L 544 -1331 
z
" transform="scale(0.015625)"/>
       <path id="DejaVuSans-41" d="M 2188 4044 
L 1331 1722 
L 3047 1722 
L 2188 4044 
z
M 1831 4666 
L 2547 4666 
L 4325 0 
L 3669 0 
L 3244 1197 
L 1141 1197 
L 716 0 
L 50 0 
L 1831 4666 
z
" transform="scale(0.015625)"/>
      </defs>
      <use xlink:href="#DejaVuSans-43" transform="translate(0 0.125)"/>
      <use xlink:href="#DejaVuSans-75" transform="translate(69.824219 0.125)"/>
      <use xlink:href="#DejaVuSans-72" transform="translate(133.203125 0.125)"/>
      <use xlink:href="#DejaVuSans-72" transform="translate(174.316406 0.125)"/>
      <use xlink:href="#DejaVuSans-65" transform="translate(215.429688 0.125)"/>
      <use xlink:href="#DejaVuSans-6e" transform="translate(276.953125 0.125)"/>
      <use xlink:href="#DejaVuSans-74" transform="translate(340.332031 0.125)"/>
      <use xlink:href="#DejaVuSans-2c" transform="translate(379.541016 0.125)"/>
      <use xlink:href="#DejaVuSans-20" transform="translate(411.328125 0.125)"/>
      <use xlink:href="#DejaVuSans-Oblique-49" transform="translate(443.115234 0.125)"/>
      <use xlink:href="#DejaVuSans-20" transform="translate(472.607422 0.125)"/>
      <use xlink:href="#DejaVuSans-28" transform="translate(504.394531 0.125)"/>
      <use xlink:href="#DejaVuSans-3bc" transform="translate(543.408203 0.125)"/>
      <use xlink:href="#DejaVuSans-41" transform="translate(607.03125 0.125)"/>
      <use xlink:href="#DejaVuSans-29" transform="translate(675.439453 0.125)"/>
     </g>
    </g>
   </g>
   <g id="line2d_65">
    <path d="M 220.558945 84.803538 
L 218.306361 84.929646 
L 217.180069 85.181863 
L 216.053777 85.207084 
L 214.927485 85.055754 
L 204.790859 84.879203 
L 202.538275 84.879203 
L 200.285691 84.82876 
L 199.159399 84.954868 
L 198.033107 85.232306 
L 196.906816 85.131419 
L 194.654232 85.156641 
L 193.52794 85.408857 
L 192.401648 85.383636 
L 189.022772 84.929646 
L 187.896481 85.106198 
L 185.643897 85.055754 
L 184.517605 84.853981 
L 181.138729 85.181863 
L 180.012438 85.282749 
L 176.633562 84.929646 
L 173.254686 85.232306 
L 171.002103 85.534965 
L 169.875811 85.560187 
L 168.749519 85.711517 
L 164.244351 85.61063 
L 159.739184 86.291615 
L 158.612892 86.291615 
L 157.4866 86.493388 
L 156.360308 86.543831 
L 155.234016 86.821269 
L 152.981433 86.947377 
L 150.728849 86.947377 
L 149.602557 87.174372 
L 148.476265 87.250037 
L 147.349973 87.678805 
L 146.223681 87.704027 
L 145.09739 88.208459 
L 143.971098 88.435454 
L 142.844806 89.192103 
L 141.718514 90.175747 
L 139.46593 94.892194 
L 138.339638 96.380271 
L 137.213347 97.187364 
L 136.087055 97.490023 
L 133.834471 109.26853 
L 132.708179 117.490785 
L 130.455595 125.158164 
L 125.950428 137.491546 
L 124.824136 140.392035 
L 122.571552 144.881487 
L 120.318969 151.489557 
L 119.192677 154.995365 
L 116.940093 160.771121 
L 114.687509 167.959289 
L 113.561217 171.944308 
L 112.434925 174.315142 
L 112.434925 174.769132 
L 113.561217 173.608937 
L 116.940093 168.514165 
L 119.192677 164.529146 
L 120.318969 162.940182 
L 124.824136 155.625906 
L 125.950428 154.011721 
L 127.07672 151.867882 
L 131.581887 144.755379 
L 132.708179 142.914199 
L 133.834471 141.350457 
L 137.213347 136.028691 
L 139.46593 132.901208 
L 140.592222 131.135693 
L 143.971098 126.545354 
L 146.223681 123.089989 
L 148.476265 120.012949 
L 149.602557 118.348321 
L 150.728849 116.885466 
L 152.981433 114.413745 
L 154.107725 112.824781 
L 156.360308 110.075622 
L 157.4866 108.915427 
L 158.612892 107.528237 
L 168.749519 97.212585 
L 174.380978 92.723133 
L 175.50727 92.193479 
L 176.633562 91.184613 
L 180.012438 89.469542 
L 181.138729 88.712892 
L 183.391313 87.552697 
L 187.896481 85.661074 
L 189.022772 85.459301 
L 191.275356 85.408857 
L 193.52794 85.106198 
L 202.538275 85.005311 
L 203.664567 85.055754 
L 204.790859 84.904424 
L 205.91715 85.131419 
L 209.296026 84.652208 
L 216.053777 85.282749 
L 218.306361 84.954868 
L 219.432653 84.853981 
L 219.432653 84.853981 
" clip-path="url(#p9fceb237b9)" style="fill: none; stroke: #ff0000; stroke-opacity: 0.1; stroke-width: 0.5; stroke-linecap: square"/>
   </g>
   <g id="line2d_66">
    <path d="M 220.558945 84.954868 
L 217.180069 85.131419 
L 213.801194 84.803538 
L 211.54861 84.853981 
L 210.422318 84.727873 
L 207.043442 85.080976 
L 205.91715 84.980089 
L 203.664567 85.055754 
L 201.411983 85.005311 
L 198.033107 85.030533 
L 193.52794 84.929646 
L 191.275356 85.257527 
L 190.149064 85.207084 
L 189.022772 84.904424 
L 184.517605 85.156641 
L 182.265021 85.106198 
L 177.759854 85.408857 
L 175.50727 85.383636 
L 171.002103 85.585409 
L 168.749519 85.534965 
L 166.496935 85.91329 
L 164.244351 86.36728 
L 160.865476 85.963733 
L 158.612892 86.21595 
L 155.234016 86.821269 
L 154.107725 86.846491 
L 151.855141 87.250037 
L 150.728849 87.678805 
L 149.602557 87.830135 
L 148.476265 88.183238 
L 147.349973 88.385011 
L 146.223681 88.738114 
L 145.09739 88.561562 
L 143.971098 88.637227 
L 142.844806 88.586784 
L 140.592222 88.763336 
L 139.46593 89.393877 
L 137.213347 90.83151 
L 136.087055 91.386386 
L 134.960763 92.344809 
L 133.834471 93.858107 
L 132.708179 101.449821 
L 131.581887 111.412369 
L 130.455595 122.711665 
L 129.329303 127.957766 
L 128.203012 131.337466 
L 127.07672 133.834408 
L 121.44526 148.235966 
L 120.318969 150.632021 
L 118.066385 156.306891 
L 116.940093 159.863142 
L 111.308634 174.113369 
L 111.308634 175.525781 
L 112.434925 175.248343 
L 118.066385 166.143331 
L 120.318969 162.536636 
L 121.44526 160.922451 
L 123.697844 157.290535 
L 130.455595 147.353208 
L 131.581887 145.38592 
L 132.708179 143.645627 
L 134.960763 140.669473 
L 137.213347 137.415881 
L 138.339638 135.953026 
L 141.718514 130.757368 
L 143.971098 127.957766 
L 146.223681 124.678953 
L 149.602557 120.315609 
L 151.855141 117.667336 
L 155.234016 112.900446 
L 159.739184 107.629123 
L 163.11806 103.971985 
L 164.244351 102.96312 
L 165.370643 101.676816 
L 166.496935 100.743615 
L 167.623227 99.381647 
L 168.749519 98.423224 
L 172.128394 95.245297 
L 174.380978 93.505004 
L 175.50727 92.849241 
L 178.886146 90.226191 
L 181.138729 88.864222 
L 182.265021 88.082351 
L 184.517605 87.098707 
L 185.643897 86.695161 
L 186.770189 86.115063 
L 189.022772 85.484522 
L 194.654232 85.030533 
L 196.906816 85.181863 
L 199.159399 84.980089 
L 200.285691 84.929646 
L 202.538275 85.106198 
L 204.790859 85.005311 
L 205.91715 84.954868 
L 207.043442 84.778316 
L 212.674902 85.080976 
L 213.801194 85.207084 
L 216.053777 84.954868 
L 217.180069 84.778316 
L 219.432653 84.879203 
L 219.432653 84.879203 
" clip-path="url(#p9fceb237b9)" style="fill: none; stroke: #ff0000; stroke-opacity: 0.134211; stroke-width: 0.5; stroke-linecap: square"/>
   </g>
   <g id="line2d_67">
    <path d="M 220.558945 85.055754 
L 214.927485 84.954868 
L 213.801194 85.080976 
L 209.296026 85.080976 
L 207.043442 84.803538 
L 202.538275 84.929646 
L 201.411983 85.106198 
L 200.285691 85.030533 
L 199.159399 85.106198 
L 196.906816 85.030533 
L 193.52794 85.106198 
L 191.275356 85.156641 
L 190.149064 85.282749 
L 187.896481 84.980089 
L 186.770189 85.055754 
L 185.643897 85.307971 
L 184.517605 85.434079 
L 183.391313 85.333192 
L 181.138729 85.534965 
L 180.012438 85.787182 
L 178.886146 85.862847 
L 177.759854 85.711517 
L 174.380978 86.039398 
L 168.749519 86.543831 
L 167.623227 86.821269 
L 165.370643 87.199594 
L 163.11806 87.75447 
L 159.739184 88.132795 
L 157.4866 88.738114 
L 156.360308 89.318212 
L 155.234016 89.494763 
L 154.107725 90.150526 
L 152.981433 90.074861 
L 151.855141 90.352299 
L 150.728849 90.226191 
L 148.476265 91.184613 
L 147.349973 91.411608 
L 145.09739 91.335943 
L 143.971098 91.663824 
L 142.844806 93.177123 
L 141.718514 95.093968 
L 139.46593 101.777702 
L 138.339638 107.528237 
L 136.087055 117.616893 
L 133.834471 123.064768 
L 131.581887 127.352447 
L 129.329303 132.119337 
L 125.950428 141.047798 
L 122.571552 147.983749 
L 121.44526 150.051924 
L 119.192677 154.944922 
L 116.940093 160.922451 
L 112.434925 172.196525 
L 111.308634 174.138591 
L 111.308634 174.870019 
L 112.434925 174.214256 
L 113.561217 173.079282 
L 115.813801 169.750025 
L 119.192677 164.226486 
L 121.44526 160.821564 
L 123.697844 157.240091 
L 124.824136 155.67635 
L 128.203012 150.354583 
L 130.455595 147.302765 
L 132.708179 143.569962 
L 136.087055 138.298639 
L 139.46593 133.683079 
L 140.592222 131.942785 
L 142.844806 128.890967 
L 146.223681 124.32585 
L 148.476265 121.450583 
L 149.602557 119.584181 
L 151.855141 116.734136 
L 154.107725 114.18675 
L 158.612892 108.713654 
L 159.739184 107.603902 
L 163.11806 103.694547 
L 166.496935 100.466177 
L 167.623227 99.078987 
L 169.875811 97.061256 
L 171.002103 96.380271 
L 174.380978 93.303231 
L 175.50727 92.395252 
L 176.633562 91.260278 
L 178.886146 89.797423 
L 180.012438 89.318212 
L 182.265021 88.082351 
L 184.517605 86.972599 
L 189.022772 85.585409 
L 194.654232 85.232306 
L 195.780524 85.080976 
L 196.906816 85.207084 
L 201.411983 85.005311 
L 202.538275 84.803538 
L 204.790859 84.778316 
L 207.043442 85.131419 
L 209.296026 84.954868 
L 210.422318 84.702651 
L 212.674902 84.601765 
L 217.180069 84.803538 
L 219.432653 85.106198 
L 219.432653 85.106198 
" clip-path="url(#p9fceb237b9)" style="fill: none; stroke: #ff0000; stroke-opacity: 0.168421; stroke-width: 0.5; stroke-linecap: square"/>
   </g>
   <g id="line2d_68">
    <path d="M 220.558945 84.879203 
L 219.432653 84.803538 
L 214.927485 85.005311 
L 213.801194 84.929646 
L 212.674902 85.030533 
L 211.54861 84.954868 
L 210.422318 85.080976 
L 207.043442 84.904424 
L 205.91715 84.853981 
L 203.664567 84.954868 
L 200.285691 85.055754 
L 199.159399 85.181863 
L 195.780524 85.005311 
L 194.654232 85.207084 
L 192.401648 85.080976 
L 191.275356 84.82876 
L 189.022772 84.954868 
L 187.896481 85.055754 
L 186.770189 85.333192 
L 185.643897 85.408857 
L 184.517605 85.61063 
L 183.391313 85.257527 
L 178.886146 85.459301 
L 175.50727 85.534965 
L 172.128394 85.484522 
L 168.749519 86.089842 
L 166.496935 86.291615 
L 163.11806 86.695161 
L 161.991768 86.669939 
L 159.739184 86.947377 
L 157.4866 87.704027 
L 155.234016 87.880578 
L 152.981433 88.385011 
L 151.855141 88.738114 
L 148.476265 88.965109 
L 147.349973 89.368655 
L 146.223681 89.620871 
L 145.09739 90.100083 
L 143.971098 90.98284 
L 141.718514 93.076236 
L 140.592222 93.404118 
L 139.46593 94.36254 
L 136.087055 100.340069 
L 134.960763 105.132181 
L 132.708179 118.625759 
L 131.581887 121.87935 
L 130.455595 124.02319 
L 125.950428 135.54948 
L 124.824136 139.307505 
L 122.571552 147.580203 
L 121.44526 150.934681 
L 118.066385 158.879498 
L 113.561217 171.263324 
L 112.434925 173.608937 
L 112.434925 174.239478 
L 113.561217 173.230612 
L 114.687509 171.490319 
L 115.813801 170.103128 
L 116.940093 168.388057 
L 120.318969 162.435749 
L 121.44526 160.796343 
L 123.697844 157.189648 
L 124.824136 155.52502 
L 128.203012 149.597934 
L 130.455595 146.193013 
L 132.708179 142.46021 
L 134.960763 139.332726 
L 137.213347 135.726031 
L 140.592222 130.606038 
L 143.971098 125.965256 
L 146.223681 122.585556 
L 155.234016 111.134931 
L 156.360308 109.899071 
L 158.612892 106.872474 
L 164.244351 100.945388 
L 174.380978 92.622247 
L 177.759854 90.251412 
L 178.886146 89.59565 
L 183.391313 87.628362 
L 185.643897 86.392501 
L 187.896481 85.635852 
L 190.149064 85.232306 
L 193.52794 85.181863 
L 195.780524 85.181863 
L 199.159399 84.727873 
L 203.664567 84.980089 
L 207.043442 84.879203 
L 208.169734 85.055754 
L 210.422318 84.954868 
L 211.54861 84.929646 
L 212.674902 84.778316 
L 213.801194 84.904424 
L 214.927485 84.853981 
L 216.053777 85.005311 
L 217.180069 84.853981 
L 219.432653 84.904424 
L 219.432653 84.904424 
" clip-path="url(#p9fceb237b9)" style="fill: none; stroke: #ff0000; stroke-opacity: 0.202632; stroke-width: 0.5; stroke-linecap: square"/>
   </g>
   <g id="line2d_69">
    <path d="M 220.558945 84.67743 
L 219.432653 84.82876 
L 218.306361 85.156641 
L 217.180069 85.333192 
L 213.801194 85.207084 
L 204.790859 84.778316 
L 201.411983 85.131419 
L 200.285691 85.106198 
L 199.159399 85.207084 
L 194.654232 85.106198 
L 189.022772 84.980089 
L 185.643897 85.257527 
L 184.517605 85.736739 
L 182.265021 85.787182 
L 181.138729 85.434079 
L 178.886146 85.862847 
L 175.50727 86.266393 
L 174.380978 86.594274 
L 173.254686 86.745604 
L 171.002103 87.224815 
L 168.749519 87.502254 
L 165.370643 88.612006 
L 164.244351 88.662449 
L 160.865476 89.59565 
L 159.739184 89.721758 
L 158.612892 90.024418 
L 156.360308 90.907175 
L 155.234016 90.957618 
L 154.107725 91.512494 
L 152.981433 92.193479 
L 146.223681 97.086477 
L 145.09739 97.666575 
L 143.971098 98.650219 
L 142.844806 99.785193 
L 141.718514 100.642729 
L 140.592222 101.197605 
L 139.46593 102.408243 
L 138.339638 104.19898 
L 136.087055 110.428725 
L 132.708179 124.199741 
L 131.581887 127.276782 
L 128.203012 134.31362 
L 125.950428 139.584943 
L 124.824136 142.61154 
L 120.318969 152.649753 
L 116.940093 160.392797 
L 111.308634 173.735045 
L 110.182342 175.475338 
L 110.182342 176.156322 
L 111.308634 175.324008 
L 112.434925 173.735045 
L 119.192677 162.687966 
L 122.571552 157.492308 
L 124.824136 154.112608 
L 132.708179 142.510653 
L 136.087055 137.289773 
L 139.46593 132.674213 
L 140.592222 130.858255 
L 142.844806 127.982988 
L 143.971098 126.747127 
L 145.09739 124.905947 
L 146.223681 123.518757 
L 147.349973 121.87935 
L 148.476265 120.593047 
L 150.728849 117.516007 
L 151.855141 116.229703 
L 152.981433 114.565075 
L 156.360308 110.302617 
L 159.739184 106.494149 
L 160.865476 105.510505 
L 161.991768 104.299867 
L 163.11806 103.341444 
L 165.370643 101.222826 
L 167.623227 99.053765 
L 169.875811 96.733374 
L 172.128394 94.6652 
L 174.380978 92.899685 
L 175.50727 92.269144 
L 176.633562 91.361165 
L 177.759854 90.68018 
L 178.886146 89.822645 
L 184.517605 87.098707 
L 185.643897 86.644718 
L 190.149064 85.509744 
L 191.275356 85.434079 
L 192.401648 85.055754 
L 194.654232 85.005311 
L 196.906816 84.954868 
L 198.033107 85.131419 
L 200.285691 85.257527 
L 201.411983 85.131419 
L 202.538275 85.181863 
L 204.790859 84.702651 
L 205.91715 84.652208 
L 209.296026 85.080976 
L 212.674902 84.778316 
L 216.053777 84.980089 
L 218.306361 84.954868 
L 219.432653 84.904424 
L 219.432653 84.904424 
" clip-path="url(#p9fceb237b9)" style="fill: none; stroke: #ff0000; stroke-opacity: 0.236842; stroke-width: 0.5; stroke-linecap: square"/>
   </g>
   <g id="line2d_70">
    <path d="M 220.558945 84.727873 
L 219.432653 84.67743 
L 217.180069 84.929646 
L 214.927485 85.106198 
L 213.801194 85.080976 
L 212.674902 84.929646 
L 209.296026 85.207084 
L 205.91715 84.904424 
L 202.538275 85.055754 
L 201.411983 84.980089 
L 200.285691 85.181863 
L 199.159399 85.257527 
L 196.906816 84.82876 
L 193.52794 85.005311 
L 192.401648 84.778316 
L 191.275356 84.853981 
L 189.022772 85.383636 
L 187.896481 85.282749 
L 184.517605 85.509744 
L 183.391313 85.61063 
L 180.012438 85.534965 
L 174.380978 86.21595 
L 169.875811 86.695161 
L 167.623227 87.30048 
L 163.11806 88.712892 
L 160.865476 89.14166 
L 159.739184 89.519985 
L 157.4866 89.873088 
L 156.360308 89.923531 
L 154.107725 90.881953 
L 150.728849 92.319587 
L 147.349973 94.564313 
L 146.223681 95.522735 
L 145.09739 96.733374 
L 142.844806 98.398003 
L 141.718514 99.12943 
L 140.592222 100.491399 
L 139.46593 103.265779 
L 138.339638 106.645479 
L 136.087055 114.817291 
L 134.960763 117.642115 
L 133.834471 121.021815 
L 132.708179 123.543979 
L 131.581887 126.9489 
L 129.329303 132.094115 
L 128.203012 135.347707 
L 127.07672 138.248196 
L 125.950428 141.70356 
L 124.824136 143.897843 
L 123.697844 146.369564 
L 122.571552 148.538625 
L 120.318969 153.809948 
L 118.066385 158.501173 
L 116.940093 161.300776 
L 115.813801 164.579589 
L 113.561217 169.876134 
L 111.308634 174.163813 
L 111.308634 174.693467 
L 112.434925 173.735045 
L 114.687509 170.052685 
L 116.940093 166.773872 
L 119.192677 163.041069 
L 123.697844 155.852901 
L 125.950428 152.674974 
L 128.203012 148.992615 
L 130.455595 145.68858 
L 134.960763 139.181396 
L 136.087055 137.289773 
L 140.592222 130.883476 
L 146.223681 122.963881 
L 151.855141 115.927043 
L 154.107725 112.749116 
L 155.234016 111.588921 
L 156.360308 110.151287 
L 157.4866 108.96587 
L 158.612892 107.402128 
L 161.991768 103.845877 
L 163.11806 102.534352 
L 165.370643 100.440955 
L 166.496935 99.684306 
L 167.623227 98.549332 
L 168.749519 97.691797 
L 173.254686 93.757221 
L 174.380978 92.82402 
L 178.886146 89.847866 
L 182.265021 88.132795 
L 183.391313 87.678805 
L 185.643897 86.543831 
L 186.770189 86.190728 
L 190.149064 85.635852 
L 192.401648 85.156641 
L 193.52794 85.080976 
L 194.654232 85.232306 
L 195.780524 85.232306 
L 198.033107 84.954868 
L 199.159399 84.980089 
L 200.285691 85.131419 
L 201.411983 85.131419 
L 203.664567 84.67743 
L 204.790859 84.778316 
L 208.169734 84.67743 
L 209.296026 84.954868 
L 211.54861 85.080976 
L 212.674902 84.82876 
L 214.927485 84.82876 
L 216.053777 85.106198 
L 217.180069 85.156641 
L 219.432653 84.879203 
L 219.432653 84.879203 
" clip-path="url(#p9fceb237b9)" style="fill: none; stroke: #ff0000; stroke-opacity: 0.271053; stroke-width: 0.5; stroke-linecap: square"/>
   </g>
   <g id="line2d_71">
    <path d="M 220.558945 85.181863 
L 214.927485 85.156641 
L 211.54861 84.904424 
L 209.296026 85.005311 
L 208.169734 85.106198 
L 204.790859 85.080976 
L 203.664567 85.131419 
L 200.285691 84.601765 
L 199.159399 84.82876 
L 198.033107 84.929646 
L 196.906816 85.232306 
L 195.780524 85.030533 
L 194.654232 85.055754 
L 193.52794 84.904424 
L 192.401648 84.954868 
L 190.149064 84.853981 
L 186.770189 85.358414 
L 185.643897 85.282749 
L 184.517605 85.434079 
L 183.391313 85.434079 
L 181.138729 85.055754 
L 177.759854 85.282749 
L 173.254686 85.585409 
L 172.128394 85.61063 
L 169.875811 86.140285 
L 168.749519 86.342058 
L 167.623227 86.21595 
L 161.991768 86.543831 
L 155.234016 87.376145 
L 152.981433 87.502254 
L 150.728849 87.981465 
L 148.476265 87.729248 
L 147.349973 87.830135 
L 146.223681 88.183238 
L 145.09739 88.813779 
L 143.971098 89.267768 
L 142.844806 89.923531 
L 141.718514 89.822645 
L 140.592222 89.948753 
L 139.46593 89.822645 
L 136.087055 91.638603 
L 134.960763 92.042149 
L 133.834471 93.177123 
L 132.708179 96.783817 
L 129.329303 130.252935 
L 128.203012 133.203867 
L 124.824136 143.897843 
L 121.44526 151.514779 
L 120.318969 153.608175 
L 119.192677 156.004231 
L 118.066385 158.75339 
L 116.940093 161.880873 
L 115.813801 164.503924 
L 113.561217 168.89249 
L 111.308634 174.088148 
L 111.308634 174.870019 
L 112.434925 174.239478 
L 113.561217 172.423519 
L 114.687509 171.061551 
L 116.940093 167.379191 
L 119.192677 163.570723 
L 123.697844 156.76088 
L 124.824136 155.146695 
L 128.203012 149.497048 
L 130.455595 146.142569 
L 131.581887 144.301389 
L 136.087055 137.970758 
L 140.592222 131.160914 
L 142.844806 128.310869 
L 146.223681 123.493535 
L 147.349973 122.156789 
L 149.602557 119.029305 
L 152.981433 114.867734 
L 154.107725 113.253549 
L 155.234016 111.916802 
L 156.360308 110.882715 
L 158.612892 107.931783 
L 159.739184 106.368041 
L 160.865476 105.510505 
L 163.11806 103.164893 
L 164.244351 101.777702 
L 165.370643 100.617507 
L 166.496935 99.785193 
L 167.623227 98.599776 
L 172.128394 94.766086 
L 174.380978 92.849241 
L 175.50727 92.294365 
L 178.886146 89.74698 
L 181.138729 88.561562 
L 183.391313 87.60314 
L 185.643897 86.468166 
L 187.896481 85.736739 
L 191.275356 85.509744 
L 193.52794 85.131419 
L 194.654232 85.106198 
L 195.780524 85.207084 
L 196.906816 85.181863 
L 198.033107 84.929646 
L 199.159399 84.904424 
L 202.538275 85.282749 
L 204.790859 85.307971 
L 207.043442 85.030533 
L 208.169734 85.207084 
L 210.422318 85.207084 
L 212.674902 84.904424 
L 216.053777 84.778316 
L 219.432653 85.232306 
L 219.432653 85.232306 
" clip-path="url(#p9fceb237b9)" style="fill: none; stroke: #ff0000; stroke-opacity: 0.305263; stroke-width: 0.5; stroke-linecap: square"/>
   </g>
   <g id="line2d_72">
    <path d="M 220.558945 85.055754 
L 218.306361 84.904424 
L 214.927485 85.207084 
L 210.422318 84.82876 
L 208.169734 85.106198 
L 207.043442 85.080976 
L 205.91715 85.232306 
L 203.664567 84.929646 
L 202.538275 84.803538 
L 201.411983 85.005311 
L 199.159399 85.106198 
L 198.033107 85.080976 
L 196.906816 85.207084 
L 195.780524 85.055754 
L 192.401648 85.106198 
L 191.275356 84.904424 
L 187.896481 85.055754 
L 184.517605 85.307971 
L 183.391313 85.232306 
L 177.759854 85.736739 
L 176.633562 85.963733 
L 174.380978 86.165507 
L 169.875811 86.493388 
L 168.749519 86.442945 
L 167.623227 86.569053 
L 166.496935 86.569053 
L 164.244351 87.250037 
L 161.991768 87.75447 
L 160.865476 87.75447 
L 159.739184 88.132795 
L 155.234016 89.14166 
L 152.981433 89.999196 
L 151.855141 90.150526 
L 150.728849 90.554072 
L 149.602557 91.184613 
L 148.476265 92.546582 
L 147.349973 93.605891 
L 145.09739 94.690421 
L 143.971098 96.304606 
L 141.718514 101.903811 
L 138.339638 108.864984 
L 137.213347 111.008823 
L 136.087055 112.824781 
L 133.834471 117.162904 
L 132.708179 119.508516 
L 131.581887 122.308118 
L 124.824136 143.923065 
L 122.571552 148.816063 
L 121.44526 151.262562 
L 120.318969 153.9865 
L 115.813801 163.242842 
L 111.308634 174.264699 
L 110.182342 176.257209 
L 110.182342 176.938193 
L 111.308634 176.181544 
L 112.434925 174.340364 
L 113.561217 172.246968 
L 115.813801 168.615052 
L 116.940093 167.05131 
L 119.192677 163.268064 
L 121.44526 159.863142 
L 124.824136 154.516154 
L 127.07672 150.682465 
L 130.455595 145.814688 
L 131.581887 144.023951 
L 136.087055 137.970758 
L 139.46593 132.800321 
L 141.718514 129.597173 
L 143.971098 126.721906 
L 147.349973 121.980237 
L 148.476265 120.744377 
L 151.855141 115.901821 
L 157.4866 109.293752 
L 159.739184 106.595036 
L 163.11806 103.265779 
L 165.370643 100.768837 
L 167.623227 98.624997 
L 169.875811 96.607266 
L 173.254686 93.807664 
L 174.380978 93.000571 
L 176.633562 91.083727 
L 177.759854 90.276634 
L 180.012438 89.267768 
L 181.138729 88.511119 
L 183.391313 87.350924 
L 184.517605 87.073486 
L 185.643897 86.493388 
L 187.896481 85.938512 
L 189.022772 85.862847 
L 190.149064 85.585409 
L 192.401648 85.232306 
L 193.52794 85.005311 
L 195.780524 85.080976 
L 202.538275 84.853981 
L 203.664567 84.980089 
L 204.790859 85.257527 
L 205.91715 85.156641 
L 207.043442 85.207084 
L 208.169734 85.005311 
L 210.422318 84.980089 
L 212.674902 84.980089 
L 214.927485 84.980089 
L 217.180069 85.282749 
L 218.306361 85.106198 
L 219.432653 85.055754 
L 219.432653 85.055754 
" clip-path="url(#p9fceb237b9)" style="fill: none; stroke: #ff0000; stroke-opacity: 0.339474; stroke-width: 0.5; stroke-linecap: square"/>
   </g>
   <g id="line2d_73">
    <path d="M 220.558945 84.879203 
L 219.432653 84.778316 
L 218.306361 84.980089 
L 214.927485 84.778316 
L 202.538275 85.055754 
L 201.411983 84.954868 
L 200.285691 85.131419 
L 196.906816 84.929646 
L 195.780524 84.954868 
L 194.654232 85.106198 
L 193.52794 84.954868 
L 189.022772 85.181863 
L 186.770189 84.980089 
L 182.265021 85.156641 
L 181.138729 85.434079 
L 180.012438 85.585409 
L 178.886146 85.534965 
L 177.759854 85.358414 
L 174.380978 85.686295 
L 171.002103 85.408857 
L 168.749519 85.837625 
L 167.623227 85.963733 
L 166.496935 85.736739 
L 161.991768 86.089842 
L 160.865476 86.06462 
L 158.612892 86.36728 
L 157.4866 86.543831 
L 154.107725 86.51861 
L 152.981433 86.770826 
L 151.855141 86.669939 
L 150.728849 86.947377 
L 149.602557 86.922156 
L 145.09739 87.60314 
L 143.971098 87.45181 
L 140.592222 87.981465 
L 139.46593 88.183238 
L 138.339638 88.561562 
L 137.213347 88.612006 
L 136.087055 89.44432 
L 134.960763 89.620871 
L 133.834471 91.033283 
L 132.708179 101.222826 
L 130.455595 126.974122 
L 129.329303 131.715791 
L 127.07672 138.550855 
L 125.950428 141.300014 
L 124.824136 143.569962 
L 123.697844 146.193013 
L 122.571552 148.437739 
L 121.44526 151.010346 
L 120.318969 153.280294 
L 114.687509 165.638898 
L 112.434925 170.330123 
L 111.308634 173.180169 
L 110.182342 175.475338 
L 110.182342 176.206766 
L 111.308634 175.424895 
L 113.561217 172.221746 
L 115.813801 168.791603 
L 120.318969 161.880873 
L 123.697844 155.752015 
L 125.950428 152.700196 
L 128.203012 149.043058 
L 130.455595 145.612915 
L 132.708179 142.258437 
L 136.087055 137.491546 
L 141.718514 129.09274 
L 147.349973 121.702799 
L 149.602557 118.600537 
L 152.981433 114.590296 
L 156.360308 110.025179 
L 164.244351 101.248048 
L 166.496935 99.230317 
L 168.749519 97.464802 
L 169.875811 96.506379 
L 172.128394 94.337318 
L 174.380978 92.622247 
L 175.50727 92.067371 
L 176.633562 91.209835 
L 180.012438 89.116439 
L 181.138729 88.284124 
L 182.265021 87.628362 
L 184.517605 86.947377 
L 185.643897 86.493388 
L 186.770189 86.21595 
L 189.022772 85.862847 
L 190.149064 85.484522 
L 191.275356 85.307971 
L 192.401648 85.358414 
L 194.654232 85.156641 
L 195.780524 84.82876 
L 198.033107 84.803538 
L 199.159399 85.106198 
L 200.285691 85.080976 
L 201.411983 85.207084 
L 202.538275 84.980089 
L 204.790859 84.82876 
L 205.91715 84.753095 
L 208.169734 84.879203 
L 210.422318 84.879203 
L 213.801194 85.232306 
L 216.053777 85.181863 
L 218.306361 84.778316 
L 219.432653 84.778316 
L 219.432653 84.778316 
" clip-path="url(#p9fceb237b9)" style="fill: none; stroke: #ff0000; stroke-opacity: 0.373684; stroke-width: 0.5; stroke-linecap: square"/>
   </g>
   <g id="line2d_74">
    <path d="M 220.558945 84.702651 
L 218.306361 84.803538 
L 212.674902 84.778316 
L 211.54861 85.005311 
L 209.296026 84.954868 
L 208.169734 84.727873 
L 207.043442 84.904424 
L 205.91715 84.879203 
L 204.790859 85.131419 
L 202.538275 85.181863 
L 201.411983 85.005311 
L 200.285691 85.030533 
L 199.159399 85.232306 
L 198.033107 85.307971 
L 190.149064 84.879203 
L 184.517605 85.333192 
L 182.265021 85.257527 
L 180.012438 85.307971 
L 178.886146 85.282749 
L 177.759854 85.055754 
L 174.380978 85.686295 
L 173.254686 85.585409 
L 172.128394 85.787182 
L 171.002103 85.837625 
L 169.875811 86.039398 
L 168.749519 85.812404 
L 167.623227 85.938512 
L 166.496935 86.190728 
L 165.370643 86.569053 
L 164.244351 86.720383 
L 161.991768 86.871712 
L 159.739184 87.426589 
L 158.612892 87.60314 
L 156.360308 87.60314 
L 155.234016 87.628362 
L 152.981433 88.359789 
L 151.855141 89.040774 
L 149.602557 90.100083 
L 148.476265 89.999196 
L 146.223681 90.150526 
L 145.09739 90.68018 
L 138.339638 92.849241 
L 137.213347 92.924906 
L 136.087055 93.177123 
L 134.960763 93.933772 
L 133.834471 103.694547 
L 131.581887 127.10023 
L 130.455595 130.606038 
L 128.203012 135.826918 
L 125.950428 141.930555 
L 123.697844 147.327986 
L 115.813801 164.882249 
L 114.687509 167.000867 
L 112.434925 171.893865 
L 111.308634 173.785488 
L 111.308634 174.315142 
L 112.434925 173.05406 
L 113.561217 171.490319 
L 114.687509 169.649139 
L 118.066385 164.655254 
L 120.318969 161.023338 
L 122.571552 157.315756 
L 124.824136 154.062165 
L 128.203012 148.61429 
L 129.329303 147.151435 
L 132.708179 141.627896 
L 136.087055 137.113222 
L 139.46593 132.068893 
L 140.592222 130.505152 
L 141.718514 129.143183 
L 143.971098 126.192251 
L 145.09739 124.32585 
L 147.349973 121.450583 
L 148.476265 120.391274 
L 152.981433 114.111085 
L 156.360308 110.277396 
L 157.4866 108.839762 
L 158.612892 107.200355 
L 159.739184 105.88883 
L 161.991768 103.971985 
L 164.244351 101.475043 
L 166.496935 99.482533 
L 167.623227 98.271894 
L 169.875811 96.304606 
L 171.002103 95.472292 
L 173.254686 93.454561 
L 176.633562 91.235056 
L 178.886146 89.74698 
L 180.012438 89.242547 
L 181.138729 88.334568 
L 182.265021 87.653583 
L 183.391313 87.149151 
L 184.517605 86.896934 
L 186.770189 86.06462 
L 187.896481 85.736739 
L 193.52794 84.853981 
L 194.654232 85.005311 
L 198.033107 84.82876 
L 199.159399 85.055754 
L 200.285691 85.030533 
L 201.411983 85.181863 
L 202.538275 84.980089 
L 207.043442 84.879203 
L 208.169734 85.080976 
L 211.54861 84.702651 
L 213.801194 85.106198 
L 217.180069 85.156641 
L 218.306361 84.954868 
L 219.432653 84.879203 
L 219.432653 84.879203 
" clip-path="url(#p9fceb237b9)" style="fill: none; stroke: #ff0000; stroke-opacity: 0.407895; stroke-width: 0.5; stroke-linecap: square"/>
   </g>
   <g id="line2d_75">
    <path d="M 220.558945 85.005311 
L 214.927485 84.82876 
L 212.674902 85.181863 
L 205.91715 84.778316 
L 203.664567 85.131419 
L 200.285691 84.82876 
L 194.654232 85.358414 
L 191.275356 84.929646 
L 190.149064 85.055754 
L 185.643897 85.156641 
L 184.517605 85.307971 
L 181.138729 85.358414 
L 177.759854 85.232306 
L 172.128394 85.358414 
L 171.002103 85.534965 
L 169.875811 85.484522 
L 168.749519 85.585409 
L 167.623227 85.484522 
L 166.496935 85.661074 
L 159.739184 86.06462 
L 157.4866 86.36728 
L 156.360308 86.417723 
L 152.981433 86.871712 
L 150.728849 87.123929 
L 148.476265 87.729248 
L 145.09739 88.460676 
L 141.718514 89.797423 
L 140.592222 90.301856 
L 138.339638 91.108948 
L 137.213347 97.212585 
L 134.960763 115.57394 
L 133.834471 119.785954 
L 132.708179 121.728021 
L 131.581887 123.897082 
L 130.455595 126.646241 
L 129.329303 130.126827 
L 127.07672 137.895093 
L 124.824136 143.69607 
L 123.697844 145.890353 
L 121.44526 151.035568 
L 119.192677 156.332112 
L 118.066385 158.349844 
L 116.940093 160.720678 
L 115.813801 162.788852 
L 113.561217 168.463722 
L 112.434925 171.717313 
L 111.308634 173.760266 
L 111.308634 174.239478 
L 112.434925 173.180169 
L 115.813801 168.236727 
L 119.192677 162.561858 
L 121.44526 159.409153 
L 124.824136 154.516154 
L 125.950428 152.700196 
L 127.07672 150.632021 
L 128.203012 148.866507 
L 131.581887 144.124838 
L 132.708179 142.258437 
L 142.844806 127.907323 
L 143.971098 126.494911 
L 145.09739 124.653731 
L 150.728849 117.238568 
L 152.981433 114.943399 
L 155.234016 111.790694 
L 156.360308 110.35306 
L 157.4866 109.1172 
L 158.612892 107.654345 
L 163.11806 102.786568 
L 167.623227 98.297116 
L 168.749519 97.162142 
L 169.875811 96.430714 
L 171.002103 95.44707 
L 172.128394 94.639978 
L 175.50727 91.815154 
L 177.759854 90.377521 
L 178.886146 89.898309 
L 180.012438 89.116439 
L 181.138729 88.561562 
L 182.265021 87.75447 
L 183.391313 87.325702 
L 184.517605 86.770826 
L 186.770189 85.888068 
L 191.275356 85.181863 
L 192.401648 85.055754 
L 194.654232 85.131419 
L 196.906816 85.080976 
L 201.411983 84.803538 
L 204.790859 85.005311 
L 205.91715 84.82876 
L 212.674902 84.954868 
L 213.801194 84.853981 
L 216.053777 84.879203 
L 219.432653 84.980089 
L 219.432653 84.980089 
" clip-path="url(#p9fceb237b9)" style="fill: none; stroke: #ff0000; stroke-opacity: 0.442105; stroke-width: 0.5; stroke-linecap: square"/>
   </g>
   <g id="line2d_76">
    <path d="M 220.558945 84.753095 
L 219.432653 84.727873 
L 217.180069 84.879203 
L 214.927485 84.853981 
L 212.674902 85.181863 
L 211.54861 85.131419 
L 210.422318 84.929646 
L 204.790859 84.753095 
L 203.664567 84.904424 
L 202.538275 84.803538 
L 201.411983 85.080976 
L 199.159399 85.181863 
L 196.906816 85.005311 
L 195.780524 85.181863 
L 191.275356 84.980089 
L 190.149064 85.181863 
L 185.643897 85.181863 
L 184.517605 85.307971 
L 183.391313 85.232306 
L 182.265021 85.383636 
L 180.012438 85.358414 
L 177.759854 85.055754 
L 175.50727 85.232306 
L 173.254686 85.736739 
L 172.128394 85.837625 
L 168.749519 85.711517 
L 165.370643 85.862847 
L 163.11806 86.21595 
L 160.865476 86.468166 
L 159.739184 86.468166 
L 157.4866 87.123929 
L 156.360308 87.577918 
L 155.234016 87.855356 
L 154.107725 87.855356 
L 152.981433 88.082351 
L 151.855141 87.981465 
L 148.476265 88.687671 
L 147.349973 88.965109 
L 143.971098 88.864222 
L 141.718514 89.091217 
L 139.46593 89.847866 
L 138.339638 91.310721 
L 137.213347 92.546582 
L 136.087055 93.177123 
L 134.960763 92.773577 
L 133.834471 101.525486 
L 131.581887 124.880726 
L 130.455595 128.840523 
L 129.329303 131.488796 
L 128.203012 134.464949 
L 127.07672 137.819428 
L 124.824136 143.569962 
L 123.697844 145.966018 
L 121.44526 151.943547 
L 118.066385 159.333488 
L 116.940093 161.628657 
L 115.813801 163.595945 
L 114.687509 165.865893 
L 112.434925 171.263324 
L 111.308634 173.709823 
L 110.182342 175.424895 
L 110.182342 176.131101 
L 111.308634 175.1979 
L 114.687509 169.876134 
L 116.940093 166.647764 
L 119.192677 162.889739 
L 121.44526 159.610926 
L 124.824136 154.263938 
L 128.203012 149.320496 
L 131.581887 144.276168 
L 132.708179 142.813313 
L 137.213347 136.028691 
L 139.46593 133.002094 
L 145.09739 124.451958 
L 148.476265 120.416495 
L 151.855141 115.674827 
L 155.234016 111.715029 
L 158.612892 107.704788 
L 159.739184 106.494149 
L 160.865476 105.056516 
L 161.991768 104.224202 
L 163.11806 102.837011 
L 164.244351 101.878589 
L 166.496935 99.558198 
L 168.749519 97.313472 
L 172.128394 94.539091 
L 174.380978 92.723133 
L 178.886146 89.74698 
L 180.012438 89.217325 
L 181.138729 88.511119 
L 183.391313 87.426589 
L 184.517605 86.972599 
L 185.643897 86.342058 
L 187.896481 85.585409 
L 189.022772 85.484522 
L 190.149064 85.509744 
L 193.52794 85.080976 
L 194.654232 85.131419 
L 196.906816 85.080976 
L 198.033107 85.232306 
L 201.411983 84.727873 
L 203.664567 85.080976 
L 204.790859 85.106198 
L 205.91715 84.929646 
L 209.296026 85.106198 
L 210.422318 85.232306 
L 213.801194 84.82876 
L 216.053777 84.954868 
L 217.180069 85.055754 
L 218.306361 84.879203 
L 219.432653 84.853981 
L 219.432653 84.853981 
" clip-path="url(#p9fceb237b9)" style="fill: none; stroke: #ff0000; stroke-opacity: 0.476316; stroke-width: 0.5; stroke-linecap: square"/>
   </g>
   <g id="line2d_77">
    <path d="M 220.558945 85.055754 
L 219.432653 84.954868 
L 218.306361 85.207084 
L 216.053777 85.282749 
L 214.927485 85.080976 
L 213.801194 84.753095 
L 211.54861 84.929646 
L 210.422318 84.980089 
L 208.169734 84.753095 
L 207.043442 84.82876 
L 205.91715 84.727873 
L 204.790859 84.904424 
L 203.664567 84.954868 
L 202.538275 85.156641 
L 201.411983 85.030533 
L 198.033107 85.181863 
L 196.906816 85.055754 
L 192.401648 85.181863 
L 190.149064 84.929646 
L 189.022772 84.929646 
L 186.770189 85.131419 
L 181.138729 85.181863 
L 180.012438 85.257527 
L 178.886146 85.459301 
L 175.50727 85.106198 
L 173.254686 85.080976 
L 168.749519 85.61063 
L 167.623227 85.358414 
L 166.496935 85.61063 
L 165.370643 85.711517 
L 164.244351 86.014177 
L 161.991768 86.115063 
L 159.739184 85.938512 
L 158.612892 86.115063 
L 155.234016 86.140285 
L 152.981433 86.594274 
L 151.855141 86.947377 
L 150.728849 87.098707 
L 149.602557 87.426589 
L 148.476265 87.577918 
L 147.349973 87.931021 
L 146.223681 87.981465 
L 145.09739 88.258903 
L 142.844806 88.485898 
L 141.718514 89.519985 
L 140.592222 95.497514 
L 138.339638 110.151287 
L 137.213347 113.581431 
L 134.960763 119.155413 
L 131.581887 126.394024 
L 130.455595 129.117961 
L 129.329303 132.447218 
L 125.950428 140.795581 
L 123.697844 145.764245 
L 118.066385 159.434374 
L 116.940093 161.83043 
L 113.561217 167.908846 
L 111.308634 173.180169 
L 110.182342 175.273565 
L 110.182342 175.904106 
L 111.308634 175.147457 
L 113.561217 171.792978 
L 114.687509 169.926577 
L 115.813801 168.337614 
L 118.066385 164.655254 
L 120.318969 160.972894 
L 124.824136 154.314381 
L 128.203012 149.06828 
L 130.455595 146.066904 
L 137.213347 135.927805 
L 141.718514 129.445843 
L 143.971098 126.772349 
L 146.223681 123.216097 
L 147.349973 121.778464 
L 148.476265 120.567825 
L 151.855141 115.901821 
L 155.234016 111.740251 
L 157.4866 109.293752 
L 159.739184 106.620258 
L 160.865476 105.58617 
L 165.370643 100.617507 
L 166.496935 99.684306 
L 168.749519 97.212585 
L 169.875811 96.228941 
L 172.128394 94.816529 
L 173.254686 93.832885 
L 174.380978 93.025793 
L 175.50727 92.016927 
L 181.138729 88.536341 
L 182.265021 87.931021 
L 187.896481 85.862847 
L 189.022772 85.509744 
L 192.401648 85.333192 
L 193.52794 85.434079 
L 194.654232 85.232306 
L 195.780524 85.232306 
L 196.906816 84.980089 
L 201.411983 85.055754 
L 203.664567 84.879203 
L 207.043442 84.954868 
L 209.296026 85.257527 
L 212.674902 84.702651 
L 213.801194 84.727873 
L 214.927485 84.954868 
L 216.053777 84.803538 
L 217.180069 84.879203 
L 218.306361 84.803538 
L 219.432653 84.980089 
L 219.432653 84.980089 
" clip-path="url(#p9fceb237b9)" style="fill: none; stroke: #ff0000; stroke-opacity: 0.510526; stroke-width: 0.5; stroke-linecap: square"/>
   </g>
   <g id="line2d_78">
    <path d="M 220.558945 84.904424 
L 218.306361 85.055754 
L 216.053777 85.181863 
L 214.927485 85.080976 
L 213.801194 85.181863 
L 212.674902 85.106198 
L 211.54861 85.156641 
L 210.422318 84.904424 
L 207.043442 84.879203 
L 205.91715 85.055754 
L 204.790859 85.005311 
L 203.664567 85.156641 
L 200.285691 85.131419 
L 199.159399 85.030533 
L 192.401648 85.131419 
L 191.275356 84.879203 
L 190.149064 84.929646 
L 187.896481 85.181863 
L 186.770189 85.282749 
L 184.517605 85.232306 
L 181.138729 85.862847 
L 178.886146 85.635852 
L 177.759854 85.76196 
L 175.50727 86.291615 
L 173.254686 86.190728 
L 171.002103 86.493388 
L 166.496935 86.997821 
L 165.370643 87.174372 
L 160.865476 88.284124 
L 157.4866 88.511119 
L 155.234016 89.015552 
L 154.107725 89.620871 
L 152.981433 89.822645 
L 150.728849 89.646093 
L 149.602557 89.469542 
L 148.476265 89.570428 
L 147.349973 89.545206 
L 146.223681 89.948753 
L 145.09739 90.200969 
L 143.971098 91.108948 
L 142.844806 92.168257 
L 141.718514 93.530226 
L 140.592222 94.488648 
L 139.46593 95.825395 
L 138.339638 101.399378 
L 137.213347 107.553458 
L 136.087055 114.438966 
L 134.960763 117.011574 
L 133.834471 120.391274 
L 132.708179 123.140433 
L 131.581887 126.368803 
L 127.07672 136.507902 
L 124.824136 142.258437 
L 122.571552 148.488182 
L 121.44526 150.75813 
L 119.192677 154.768371 
L 115.813801 163.041069 
L 114.687509 165.563233 
L 112.434925 171.490319 
L 111.308634 173.533272 
L 111.308634 173.911596 
L 112.434925 172.726179 
L 119.192677 162.587079 
L 131.581887 143.54474 
L 133.834471 140.31637 
L 136.087055 136.911449 
L 141.718514 128.689194 
L 151.855141 115.397389 
L 152.981433 114.18675 
L 155.234016 111.387148 
L 157.4866 108.713654 
L 159.739184 105.939273 
L 161.991768 103.694547 
L 163.11806 102.408243 
L 164.244351 101.374156 
L 166.496935 99.709528 
L 167.623227 98.650219 
L 168.749519 97.28825 
L 172.128394 94.438205 
L 175.50727 91.815154 
L 176.633562 91.033283 
L 180.012438 89.217325 
L 183.391313 87.552697 
L 184.517605 86.846491 
L 186.770189 85.888068 
L 189.022772 85.383636 
L 191.275356 85.181863 
L 193.52794 84.929646 
L 194.654232 85.131419 
L 196.906816 85.207084 
L 198.033107 85.005311 
L 199.159399 85.080976 
L 202.538275 84.652208 
L 204.790859 84.980089 
L 207.043442 85.181863 
L 208.169734 85.307971 
L 210.422318 85.181863 
L 212.674902 85.005311 
L 218.306361 84.929646 
L 219.432653 84.980089 
L 219.432653 84.980089 
" clip-path="url(#p9fceb237b9)" style="fill: none; stroke: #ff0000; stroke-opacity: 0.544737; stroke-width: 0.5; stroke-linecap: square"/>
   </g>
   <g id="line2d_79">
    <path d="M 220.558945 84.803538 
L 219.432653 84.727873 
L 218.306361 84.904424 
L 214.927485 84.879203 
L 212.674902 84.652208 
L 207.043442 85.080976 
L 205.91715 84.879203 
L 199.159399 85.055754 
L 198.033107 84.853981 
L 195.780524 84.879203 
L 194.654232 85.131419 
L 193.52794 84.929646 
L 190.149064 85.358414 
L 189.022772 85.131419 
L 186.770189 85.131419 
L 185.643897 85.257527 
L 184.517605 85.131419 
L 182.265021 85.307971 
L 181.138729 85.459301 
L 178.886146 85.232306 
L 175.50727 85.383636 
L 172.128394 85.686295 
L 171.002103 85.585409 
L 166.496935 85.787182 
L 160.865476 86.442945 
L 159.739184 86.36728 
L 155.234016 86.619496 
L 154.107725 87.023042 
L 151.855141 87.60314 
L 150.728849 87.653583 
L 142.844806 89.873088 
L 140.592222 90.125304 
L 139.46593 90.200969 
L 138.339638 90.402742 
L 137.213347 91.108948 
L 136.087055 92.168257 
L 133.834471 112.370792 
L 132.708179 123.140433 
L 128.203012 136.180021 
L 125.950428 141.627896 
L 124.824136 143.54474 
L 122.571552 148.589068 
L 121.44526 151.540001 
L 120.318969 153.885613 
L 118.066385 159.030828 
L 114.687509 166.370326 
L 112.434925 171.692092 
L 111.308634 173.886375 
L 110.182342 175.450116 
L 110.182342 175.979771 
L 111.308634 175.122235 
L 121.44526 159.863142 
L 123.697844 156.357334 
L 128.203012 149.497048 
L 129.329303 147.908084 
L 132.708179 142.384545 
L 133.834471 140.972133 
L 134.960763 139.332726 
L 137.213347 135.776475 
L 140.592222 130.984363 
L 146.223681 123.064768 
L 147.349973 121.627134 
L 148.476265 120.391274 
L 154.107725 112.673451 
L 155.234016 111.26104 
L 158.612892 107.704788 
L 163.11806 102.685682 
L 165.370643 100.642729 
L 166.496935 99.558198 
L 167.623227 98.196229 
L 168.749519 97.28825 
L 169.875811 96.228941 
L 171.002103 95.421849 
L 173.254686 93.454561 
L 178.886146 89.721758 
L 180.012438 88.889444 
L 181.138729 88.435454 
L 182.265021 87.804913 
L 184.517605 87.123929 
L 190.149064 85.307971 
L 191.275356 85.156641 
L 192.401648 85.232306 
L 193.52794 85.106198 
L 194.654232 85.156641 
L 195.780524 85.080976 
L 196.906816 85.156641 
L 200.285691 84.576543 
L 203.664567 84.803538 
L 204.790859 84.753095 
L 205.91715 84.954868 
L 208.169734 85.055754 
L 209.296026 85.055754 
L 210.422318 84.853981 
L 211.54861 84.904424 
L 212.674902 84.82876 
L 213.801194 85.030533 
L 214.927485 84.954868 
L 216.053777 85.055754 
L 217.180069 84.954868 
L 218.306361 85.030533 
L 219.432653 84.904424 
L 219.432653 84.904424 
" clip-path="url(#p9fceb237b9)" style="fill: none; stroke: #ff0000; stroke-opacity: 0.578947; stroke-width: 0.5; stroke-linecap: square"/>
   </g>
   <g id="line2d_80">
    <path d="M 220.558945 84.778316 
L 219.432653 84.727873 
L 218.306361 84.803538 
L 216.053777 85.181863 
L 213.801194 85.207084 
L 212.674902 85.005311 
L 210.422318 84.853981 
L 209.296026 84.980089 
L 198.033107 84.929646 
L 196.906816 84.853981 
L 194.654232 85.106198 
L 192.401648 84.853981 
L 191.275356 85.030533 
L 189.022772 85.030533 
L 187.896481 84.753095 
L 185.643897 84.853981 
L 184.517605 85.232306 
L 182.265021 85.282749 
L 181.138729 85.106198 
L 178.886146 85.207084 
L 173.254686 85.408857 
L 172.128394 85.484522 
L 171.002103 85.686295 
L 169.875811 85.686295 
L 168.749519 86.039398 
L 166.496935 86.089842 
L 164.244351 85.862847 
L 163.11806 86.115063 
L 161.991768 85.938512 
L 158.612892 86.619496 
L 157.4866 86.947377 
L 155.234016 87.30048 
L 152.981433 87.149151 
L 151.855141 87.30048 
L 149.602557 87.830135 
L 148.476265 88.309346 
L 147.349973 88.612006 
L 146.223681 89.29299 
L 141.718514 89.847866 
L 140.592222 90.175747 
L 139.46593 90.352299 
L 137.213347 91.083727 
L 134.960763 92.269144 
L 133.834471 98.095343 
L 132.708179 106.292376 
L 131.581887 115.498275 
L 129.329303 125.183385 
L 127.07672 134.414506 
L 124.824136 141.300014 
L 123.697844 144.175281 
L 122.571552 146.571337 
L 121.44526 149.572712 
L 120.318969 152.195763 
L 119.192677 155.171917 
L 118.066385 157.492308 
L 116.940093 160.59457 
L 115.813801 163.21762 
L 114.687509 166.218996 
L 112.434925 171.490319 
L 111.308634 174.416029 
L 110.182342 176.332874 
L 110.182342 176.862528 
L 111.308634 175.626668 
L 113.561217 171.66687 
L 118.066385 164.403038 
L 119.192677 162.410528 
L 121.44526 159.510039 
L 124.824136 153.759505 
L 125.950428 152.29665 
L 134.960763 138.601299 
L 137.213347 134.994604 
L 139.46593 132.144558 
L 141.718514 128.79008 
L 142.844806 127.150673 
L 143.971098 125.763483 
L 145.09739 123.972747 
L 147.349973 121.198366 
L 148.476265 120.012949 
L 150.728849 116.784579 
L 151.855141 115.372167 
L 152.981433 114.211972 
L 157.4866 108.436216 
L 159.739184 106.19149 
L 160.865476 105.106959 
L 164.244351 101.248048 
L 165.370643 100.365291 
L 166.496935 99.255538 
L 167.623227 97.944013 
L 168.749519 96.909926 
L 171.002103 95.169632 
L 172.128394 94.034659 
L 174.380978 92.395252 
L 175.50727 91.966484 
L 176.633562 91.209835 
L 177.759854 90.68018 
L 180.012438 89.242547 
L 185.643897 86.417723 
L 186.770189 85.91329 
L 187.896481 85.862847 
L 189.022772 85.686295 
L 190.149064 85.686295 
L 192.401648 85.257527 
L 194.654232 85.181863 
L 195.780524 85.232306 
L 198.033107 84.803538 
L 200.285691 84.929646 
L 201.411983 85.055754 
L 203.664567 85.005311 
L 205.91715 84.853981 
L 209.296026 85.257527 
L 212.674902 84.82876 
L 214.927485 85.207084 
L 219.432653 84.904424 
L 219.432653 84.904424 
" clip-path="url(#p9fceb237b9)" style="fill: none; stroke: #ff0000; stroke-opacity: 0.613158; stroke-width: 0.5; stroke-linecap: square"/>
   </g>
   <g id="line2d_81">
    <path d="M 220.558945 84.904424 
L 217.180069 85.030533 
L 214.927485 84.904424 
L 212.674902 84.980089 
L 209.296026 85.156641 
L 205.91715 84.929646 
L 203.664567 85.030533 
L 200.285691 84.727873 
L 199.159399 84.803538 
L 196.906816 85.257527 
L 195.780524 85.131419 
L 194.654232 85.207084 
L 191.275356 84.879203 
L 190.149064 84.879203 
L 186.770189 85.61063 
L 184.517605 85.736739 
L 183.391313 85.61063 
L 174.380978 85.988955 
L 173.254686 86.342058 
L 169.875811 86.947377 
L 168.749519 87.023042 
L 167.623227 87.376145 
L 165.370643 87.75447 
L 164.244351 87.729248 
L 163.11806 88.031908 
L 161.991768 88.158016 
L 160.865476 88.485898 
L 159.739184 88.612006 
L 157.4866 89.318212 
L 156.360308 89.570428 
L 152.981433 90.781067 
L 151.855141 91.209835 
L 150.728849 91.789933 
L 149.602557 92.168257 
L 148.476265 92.697912 
L 147.349973 92.97535 
L 146.223681 93.580669 
L 145.09739 93.731999 
L 143.971098 94.085102 
L 142.844806 95.497514 
L 141.718514 98.221451 
L 140.592222 101.676816 
L 139.46593 104.325088 
L 138.339638 107.351685 
L 137.213347 109.848628 
L 136.087055 113.076998 
L 134.960763 115.397389 
L 133.834471 118.676202 
L 132.708179 121.374918 
L 131.581887 124.552844 
L 129.329303 129.773724 
L 128.203012 132.043672 
L 125.950428 138.122087 
L 124.824136 141.527009 
L 123.697844 144.326611 
L 121.44526 150.505913 
L 120.318969 153.305515 
L 119.192677 155.348468 
L 116.940093 160.342353 
L 115.813801 163.469837 
L 114.687509 165.790228 
L 111.308634 173.936818 
L 111.308634 174.617802 
L 112.434925 173.608937 
L 121.44526 160.064915 
L 123.697844 156.231226 
L 124.824136 154.818814 
L 127.07672 151.237341 
L 128.203012 149.169166 
L 130.455595 145.991239 
L 132.708179 142.283658 
L 134.960763 139.004845 
L 137.213347 135.599923 
L 138.339638 134.187511 
L 146.223681 122.888216 
L 149.602557 118.499651 
L 151.855141 115.624383 
L 152.981433 114.237193 
L 155.234016 111.26104 
L 158.612892 107.049025 
L 159.739184 105.964495 
L 161.991768 104.022428 
L 164.244351 101.222826 
L 166.496935 99.406868 
L 167.623227 98.448446 
L 169.875811 96.279385 
L 175.50727 91.739489 
L 177.759854 90.200969 
L 180.012438 89.015552 
L 181.138729 88.511119 
L 182.265021 87.779692 
L 184.517605 86.669939 
L 187.896481 85.988955 
L 189.022772 85.61063 
L 191.275356 85.207084 
L 192.401648 85.156641 
L 193.52794 84.980089 
L 194.654232 85.181863 
L 201.411983 84.879203 
L 203.664567 85.232306 
L 204.790859 85.131419 
L 205.91715 84.904424 
L 208.169734 84.879203 
L 209.296026 85.055754 
L 212.674902 84.753095 
L 213.801194 84.853981 
L 214.927485 85.156641 
L 216.053777 85.005311 
L 218.306361 84.980089 
L 219.432653 85.055754 
L 219.432653 85.055754 
" clip-path="url(#p9fceb237b9)" style="fill: none; stroke: #ff0000; stroke-opacity: 0.647368; stroke-width: 0.5; stroke-linecap: square"/>
   </g>
   <g id="line2d_82">
    <path d="M 220.558945 85.358414 
L 219.432653 85.408857 
L 217.180069 84.803538 
L 210.422318 84.853981 
L 203.664567 85.257527 
L 202.538275 85.181863 
L 201.411983 85.232306 
L 200.285691 84.954868 
L 196.906816 84.954868 
L 193.52794 84.929646 
L 192.401648 84.82876 
L 190.149064 85.106198 
L 187.896481 85.534965 
L 186.770189 85.484522 
L 185.643897 85.560187 
L 184.517605 85.408857 
L 181.138729 85.736739 
L 178.886146 85.888068 
L 175.50727 86.695161 
L 172.128394 86.51861 
L 169.875811 86.796048 
L 168.749519 87.123929 
L 157.4866 88.939887 
L 154.107725 89.948753 
L 150.728849 90.629737 
L 149.602557 90.98284 
L 148.476265 91.033283 
L 145.09739 90.604515 
L 143.971098 90.98284 
L 142.844806 92.042149 
L 140.592222 94.463426 
L 139.46593 94.740865 
L 138.339638 95.573179 
L 137.213347 97.43958 
L 134.960763 110.781828 
L 133.834471 118.297877 
L 131.581887 126.646241 
L 130.455595 129.950276 
L 128.203012 134.792831 
L 127.07672 136.987114 
L 125.950428 139.761494 
L 123.697844 144.427498 
L 122.571552 147.050548 
L 118.066385 158.45073 
L 115.813801 163.192399 
L 114.687509 165.739784 
L 112.434925 171.742535 
L 111.308634 173.886375 
L 111.308634 174.819575 
L 112.434925 173.861153 
L 113.561217 172.322633 
L 116.940093 166.647764 
L 118.066385 164.453481 
L 131.581887 143.771735 
L 133.834471 140.61903 
L 136.087055 136.911449 
L 138.339638 133.632635 
L 139.46593 132.043672 
L 140.592222 130.202492 
L 145.09739 124.199741 
L 147.349973 121.072258 
L 152.981433 114.03542 
L 155.234016 111.134931 
L 157.4866 108.789319 
L 158.612892 107.27602 
L 161.991768 103.719769 
L 163.11806 102.433465 
L 165.370643 100.239182 
L 168.749519 96.909926 
L 171.002103 95.220076 
L 173.254686 93.303231 
L 177.759854 90.377521 
L 178.886146 89.620871 
L 183.391313 87.30048 
L 184.517605 86.896934 
L 185.643897 86.316836 
L 189.022772 85.736739 
L 190.149064 85.333192 
L 191.275356 85.080976 
L 192.401648 84.954868 
L 193.52794 85.106198 
L 195.780524 85.030533 
L 202.538275 85.106198 
L 204.790859 85.055754 
L 207.043442 85.055754 
L 208.169734 85.005311 
L 210.422318 85.181863 
L 211.54861 85.080976 
L 212.674902 84.82876 
L 213.801194 84.727873 
L 217.180069 84.853981 
L 218.306361 84.753095 
L 219.432653 84.778316 
L 219.432653 84.778316 
" clip-path="url(#p9fceb237b9)" style="fill: none; stroke: #ff0000; stroke-opacity: 0.681579; stroke-width: 0.5; stroke-linecap: square"/>
   </g>
   <g id="line2d_83">
    <path d="M 220.558945 85.307971 
L 219.432653 85.333192 
L 216.053777 84.980089 
L 214.927485 84.853981 
L 211.54861 84.879203 
L 209.296026 84.778316 
L 207.043442 85.005311 
L 202.538275 85.333192 
L 201.411983 85.106198 
L 198.033107 85.005311 
L 196.906816 85.131419 
L 194.654232 85.055754 
L 193.52794 84.879203 
L 187.896481 85.106198 
L 186.770189 85.156641 
L 185.643897 85.080976 
L 184.517605 85.232306 
L 183.391313 85.131419 
L 180.012438 85.459301 
L 178.886146 85.787182 
L 175.50727 85.76196 
L 174.380978 85.837625 
L 173.254686 86.115063 
L 172.128394 86.089842 
L 171.002103 86.21595 
L 168.749519 86.190728 
L 167.623227 86.493388 
L 164.244351 86.871712 
L 163.11806 87.174372 
L 161.991768 87.325702 
L 160.865476 87.350924 
L 157.4866 88.006686 
L 156.360308 88.006686 
L 155.234016 88.334568 
L 154.107725 88.788557 
L 151.855141 89.267768 
L 150.728849 89.519985 
L 149.602557 90.150526 
L 148.476265 90.453186 
L 147.349973 90.251412 
L 146.223681 90.402742 
L 145.09739 90.276634 
L 143.971098 90.83151 
L 142.844806 92.697912 
L 140.592222 100.869723 
L 139.46593 103.971985 
L 138.339638 106.090603 
L 137.213347 108.612767 
L 134.960763 114.48941 
L 133.834471 118.070883 
L 131.581887 124.17452 
L 128.203012 132.825543 
L 127.07672 135.019826 
L 124.824136 140.392035 
L 122.571552 146.344342 
L 120.318969 151.792217 
L 118.066385 156.76088 
L 113.561217 167.429634 
L 112.434925 170.733669 
L 111.308634 173.381942 
L 110.182342 175.50056 
L 110.182342 176.282431 
L 111.308634 175.752776 
L 112.434925 174.088148 
L 113.561217 171.8182 
L 114.687509 169.876134 
L 115.813801 168.261949 
L 116.940093 166.874758 
L 119.192677 163.545502 
L 121.44526 160.090137 
L 123.697844 156.357334 
L 124.824136 154.667484 
L 127.07672 150.783351 
L 129.329303 147.554981 
L 130.455595 145.991239 
L 133.834471 140.719916 
L 134.960763 139.257061 
L 139.46593 132.522883 
L 141.718514 129.09274 
L 143.971098 126.267916 
L 145.09739 124.451958 
L 148.476265 120.366052 
L 149.602557 118.575315 
L 152.981433 114.262415 
L 154.107725 112.64823 
L 156.360308 109.999957 
L 161.991768 103.946764 
L 167.623227 98.019678 
L 169.875811 96.178498 
L 171.002103 95.472292 
L 172.128394 94.387762 
L 175.50727 92.269144 
L 178.886146 89.721758 
L 180.012438 89.166882 
L 181.138729 88.485898 
L 186.770189 86.21595 
L 187.896481 85.91329 
L 189.022772 85.812404 
L 190.149064 85.408857 
L 192.401648 84.954868 
L 194.654232 85.232306 
L 195.780524 85.232306 
L 198.033107 84.879203 
L 200.285691 84.980089 
L 205.91715 84.879203 
L 207.043442 85.156641 
L 209.296026 85.383636 
L 216.053777 84.727873 
L 219.432653 84.879203 
L 219.432653 84.879203 
" clip-path="url(#p9fceb237b9)" style="fill: none; stroke: #ff0000; stroke-opacity: 0.715789; stroke-width: 0.5; stroke-linecap: square"/>
   </g>
   <g id="line2d_84">
    <path d="M 104.663512 84.954868 
L 226.077775 84.954868 
" clip-path="url(#p9fceb237b9)" style="fill: none; stroke: #000000; stroke-opacity: 0.25; stroke-width: 0.25; stroke-linecap: square"/>
   </g>
   <g id="line2d_85">
    <path d="M 220.052113 185.121635 
L 220.052113 3.00024 
" clip-path="url(#p9fceb237b9)" style="fill: none; stroke: #000000; stroke-opacity: 0.25; stroke-width: 0.25; stroke-linecap: square"/>
   </g>
   <g id="patch_3">
    <path d="M 104.663512 185.121635 
L 104.663512 3.00024 
" style="fill: none; stroke: #000000; stroke-width: 0.8; stroke-linejoin: miter; stroke-linecap: square"/>
   </g>
   <g id="patch_4">
    <path d="M 226.077775 185.121635 
L 226.077775 3.00024 
" style="fill: none; stroke: #000000; stroke-width: 0.8; stroke-linejoin: miter; stroke-linecap: square"/>
   </g>
   <g id="patch_5">
    <path d="M 104.663512 185.121635 
L 226.077775 185.121635 
" style="fill: none; stroke: #000000; stroke-width: 0.8; stroke-linejoin: miter; stroke-linecap: square"/>
   </g>
   <g id="patch_6">
    <path d="M 104.663512 3.00024 
L 226.077775 3.00024 
" style="fill: none; stroke: #000000; stroke-width: 0.8; stroke-linejoin: miter; stroke-linecap: square"/>
   </g>
  </g>
 </g>
 <defs>
  <clipPath id="p9fceb237b9">
   <rect x="104.663512" y="3.00024" width="121.414263" height="182.121395"/>
  </clipPath>
 </defs>
</svg>
