<?xml version="1.0" encoding="utf-8" standalone="no"?>
<!DOCTYPE svg PUBLIC "-//W3C//DTD SVG 1.1//EN"
  "http://www.w3.org/Graphics/SVG/1.1/DTD/svg11.dtd">
<svg xmlns:xlink="http://www.w3.org/1999/xlink" width="288pt" height="216pt" viewBox="0 0 288 216" xmlns="http://www.w3.org/2000/svg" version="1.1">
 <metadata>
  <rdf:RDF xmlns:dc="http://purl.org/dc/elements/1.1/" xmlns:cc="http://creativecommons.org/ns#" xmlns:rdf="http://www.w3.org/1999/02/22-rdf-syntax-ns#">
   <cc:Work>
    <dc:type rdf:resource="http://purl.org/dc/dcmitype/StillImage"/>
    <dc:date>2024-12-23T18:31:05.299776</dc:date>
    <dc:format>image/svg+xml</dc:format>
    <dc:creator>
     <cc:Agent>
      <dc:title>Matplotlib v3.6.0, https://matplotlib.org/</dc:title>
     </cc:Agent>
    </dc:creator>
   </cc:Work>
  </rdf:RDF>
 </metadata>
 <defs>
  <style type="text/css">*{stroke-linejoin: round; stroke-linecap: butt}</style>
 </defs>
 <g id="figure_1">
  <g id="patch_1">
   <path d="M 0 216 
L 288 216 
L 288 0 
L 0 0 
z
" style="fill: #ffffff"/>
  </g>
  <g id="axes_1">
   <g id="patch_2">
    <path d="M 102.118285 184.02351 
L 222.800465 184.02351 
L 222.800465 3.00024 
L 102.118285 3.00024 
z
" style="fill: #ffffff"/>
   </g>
   <g id="matplotlib.axis_1">
    <g id="xtick_1">
     <g id="line2d_1">
      <defs>
       <path id="m8b1658833b" d="M 0 0 
L 0 -3.5 
" style="stroke: #000000; stroke-width: 0.8"/>
      </defs>
      <g>
       <use xlink:href="#m8b1658833b" x="102.17426" y="184.02351" style="stroke: #000000; stroke-width: 0.8"/>
      </g>
     </g>
     <g id="line2d_2">
      <defs>
       <path id="m2747799382" d="M 0 0 
L 0 3.5 
" style="stroke: #000000; stroke-width: 0.8"/>
      </defs>
      <g>
       <use xlink:href="#m2747799382" x="102.17426" y="3.00024" style="stroke: #000000; stroke-width: 0.8"/>
      </g>
     </g>
     <g id="text_1">
      <!-- −2.5 -->
      <g transform="translate(94.27801 193.24976) scale(0.08 -0.08)">
       <defs>
        <path id="ArialMT-2212" d="M 3381 1997 
L 356 1997 
L 356 2522 
L 3381 2522 
L 3381 1997 
z
" transform="scale(0.015625)"/>
        <path id="ArialMT-32" d="M 3222 541 
L 3222 0 
L 194 0 
Q 188 203 259 391 
Q 375 700 629 1000 
Q 884 1300 1366 1694 
Q 2113 2306 2375 2664 
Q 2638 3022 2638 3341 
Q 2638 3675 2398 3904 
Q 2159 4134 1775 4134 
Q 1369 4134 1125 3890 
Q 881 3647 878 3216 
L 300 3275 
Q 359 3922 746 4261 
Q 1134 4600 1788 4600 
Q 2447 4600 2831 4234 
Q 3216 3869 3216 3328 
Q 3216 3053 3103 2787 
Q 2991 2522 2730 2228 
Q 2469 1934 1863 1422 
Q 1356 997 1212 845 
Q 1069 694 975 541 
L 3222 541 
z
" transform="scale(0.015625)"/>
        <path id="ArialMT-2e" d="M 581 0 
L 581 641 
L 1222 641 
L 1222 0 
L 581 0 
z
" transform="scale(0.015625)"/>
        <path id="ArialMT-35" d="M 266 1200 
L 856 1250 
Q 922 819 1161 601 
Q 1400 384 1738 384 
Q 2144 384 2425 690 
Q 2706 997 2706 1503 
Q 2706 1984 2436 2262 
Q 2166 2541 1728 2541 
Q 1456 2541 1237 2417 
Q 1019 2294 894 2097 
L 366 2166 
L 809 4519 
L 3088 4519 
L 3088 3981 
L 1259 3981 
L 1013 2750 
Q 1425 3038 1878 3038 
Q 2478 3038 2890 2622 
Q 3303 2206 3303 1553 
Q 3303 931 2941 478 
Q 2500 -78 1738 -78 
Q 1113 -78 717 272 
Q 322 622 266 1200 
z
" transform="scale(0.015625)"/>
       </defs>
       <use xlink:href="#ArialMT-2212"/>
       <use xlink:href="#ArialMT-32" x="58.398438"/>
       <use xlink:href="#ArialMT-2e" x="114.013672"/>
       <use xlink:href="#ArialMT-35" x="141.796875"/>
      </g>
     </g>
    </g>
    <g id="xtick_2">
     <g id="line2d_3">
      <g>
       <use xlink:href="#m8b1658833b" x="125.101635" y="184.02351" style="stroke: #000000; stroke-width: 0.8"/>
      </g>
     </g>
     <g id="line2d_4">
      <g>
       <use xlink:href="#m2747799382" x="125.101635" y="3.00024" style="stroke: #000000; stroke-width: 0.8"/>
      </g>
     </g>
     <g id="text_2">
      <!-- −2.0 -->
      <g transform="translate(117.205385 193.24976) scale(0.08 -0.08)">
       <defs>
        <path id="ArialMT-30" d="M 266 2259 
Q 266 3072 433 3567 
Q 600 4063 929 4331 
Q 1259 4600 1759 4600 
Q 2128 4600 2406 4451 
Q 2684 4303 2865 4023 
Q 3047 3744 3150 3342 
Q 3253 2941 3253 2259 
Q 3253 1453 3087 958 
Q 2922 463 2592 192 
Q 2263 -78 1759 -78 
Q 1097 -78 719 397 
Q 266 969 266 2259 
z
M 844 2259 
Q 844 1131 1108 757 
Q 1372 384 1759 384 
Q 2147 384 2411 759 
Q 2675 1134 2675 2259 
Q 2675 3391 2411 3762 
Q 2147 4134 1753 4134 
Q 1366 4134 1134 3806 
Q 844 3388 844 2259 
z
" transform="scale(0.015625)"/>
       </defs>
       <use xlink:href="#ArialMT-2212"/>
       <use xlink:href="#ArialMT-32" x="58.398438"/>
       <use xlink:href="#ArialMT-2e" x="114.013672"/>
       <use xlink:href="#ArialMT-30" x="141.796875"/>
      </g>
     </g>
    </g>
    <g id="xtick_3">
     <g id="line2d_5">
      <g>
       <use xlink:href="#m8b1658833b" x="148.02901" y="184.02351" style="stroke: #000000; stroke-width: 0.8"/>
      </g>
     </g>
     <g id="line2d_6">
      <g>
       <use xlink:href="#m2747799382" x="148.02901" y="3.00024" style="stroke: #000000; stroke-width: 0.8"/>
      </g>
     </g>
     <g id="text_3">
      <!-- −1.5 -->
      <g transform="translate(140.13276 193.24976) scale(0.08 -0.08)">
       <defs>
        <path id="ArialMT-31" d="M 2384 0 
L 1822 0 
L 1822 3584 
Q 1619 3391 1289 3197 
Q 959 3003 697 2906 
L 697 3450 
Q 1169 3672 1522 3987 
Q 1875 4303 2022 4600 
L 2384 4600 
L 2384 0 
z
" transform="scale(0.015625)"/>
       </defs>
       <use xlink:href="#ArialMT-2212"/>
       <use xlink:href="#ArialMT-31" x="58.398438"/>
       <use xlink:href="#ArialMT-2e" x="114.013672"/>
       <use xlink:href="#ArialMT-35" x="141.796875"/>
      </g>
     </g>
    </g>
    <g id="xtick_4">
     <g id="line2d_7">
      <g>
       <use xlink:href="#m8b1658833b" x="170.956386" y="184.02351" style="stroke: #000000; stroke-width: 0.8"/>
      </g>
     </g>
     <g id="line2d_8">
      <g>
       <use xlink:href="#m2747799382" x="170.956386" y="3.00024" style="stroke: #000000; stroke-width: 0.8"/>
      </g>
     </g>
     <g id="text_4">
      <!-- −1.0 -->
      <g transform="translate(163.060136 193.24976) scale(0.08 -0.08)">
       <use xlink:href="#ArialMT-2212"/>
       <use xlink:href="#ArialMT-31" x="58.398438"/>
       <use xlink:href="#ArialMT-2e" x="114.013672"/>
       <use xlink:href="#ArialMT-30" x="141.796875"/>
      </g>
     </g>
    </g>
    <g id="xtick_5">
     <g id="line2d_9">
      <g>
       <use xlink:href="#m8b1658833b" x="193.883761" y="184.02351" style="stroke: #000000; stroke-width: 0.8"/>
      </g>
     </g>
     <g id="line2d_10">
      <g>
       <use xlink:href="#m2747799382" x="193.883761" y="3.00024" style="stroke: #000000; stroke-width: 0.8"/>
      </g>
     </g>
     <g id="text_5">
      <!-- −0.5 -->
      <g transform="translate(185.987511 193.24976) scale(0.08 -0.08)">
       <use xlink:href="#ArialMT-2212"/>
       <use xlink:href="#ArialMT-30" x="58.398438"/>
       <use xlink:href="#ArialMT-2e" x="114.013672"/>
       <use xlink:href="#ArialMT-35" x="141.796875"/>
      </g>
     </g>
    </g>
    <g id="xtick_6">
     <g id="line2d_11">
      <g>
       <use xlink:href="#m8b1658833b" x="216.811136" y="184.02351" style="stroke: #000000; stroke-width: 0.8"/>
      </g>
     </g>
     <g id="line2d_12">
      <g>
       <use xlink:href="#m2747799382" x="216.811136" y="3.00024" style="stroke: #000000; stroke-width: 0.8"/>
      </g>
     </g>
     <g id="text_6">
      <!-- 0.0 -->
      <g transform="translate(211.251136 193.24976) scale(0.08 -0.08)">
       <use xlink:href="#ArialMT-30"/>
       <use xlink:href="#ArialMT-2e" x="55.615234"/>
       <use xlink:href="#ArialMT-30" x="83.398438"/>
      </g>
     </g>
    </g>
    <g id="xtick_7">
     <g id="line2d_13">
      <defs>
       <path id="mc96f43e1a6" d="M 0 0 
L 0 -2 
" style="stroke: #000000; stroke-width: 0.6"/>
      </defs>
      <g>
       <use xlink:href="#mc96f43e1a6" x="113.637948" y="184.02351" style="stroke: #000000; stroke-width: 0.6"/>
      </g>
     </g>
     <g id="line2d_14">
      <defs>
       <path id="m5d96836cc7" d="M 0 0 
L 0 2 
" style="stroke: #000000; stroke-width: 0.6"/>
      </defs>
      <g>
       <use xlink:href="#m5d96836cc7" x="113.637948" y="3.00024" style="stroke: #000000; stroke-width: 0.6"/>
      </g>
     </g>
    </g>
    <g id="xtick_8">
     <g id="line2d_15">
      <g>
       <use xlink:href="#mc96f43e1a6" x="136.565323" y="184.02351" style="stroke: #000000; stroke-width: 0.6"/>
      </g>
     </g>
     <g id="line2d_16">
      <g>
       <use xlink:href="#m5d96836cc7" x="136.565323" y="3.00024" style="stroke: #000000; stroke-width: 0.6"/>
      </g>
     </g>
    </g>
    <g id="xtick_9">
     <g id="line2d_17">
      <g>
       <use xlink:href="#mc96f43e1a6" x="159.492698" y="184.02351" style="stroke: #000000; stroke-width: 0.6"/>
      </g>
     </g>
     <g id="line2d_18">
      <g>
       <use xlink:href="#m5d96836cc7" x="159.492698" y="3.00024" style="stroke: #000000; stroke-width: 0.6"/>
      </g>
     </g>
    </g>
    <g id="xtick_10">
     <g id="line2d_19">
      <g>
       <use xlink:href="#mc96f43e1a6" x="182.420073" y="184.02351" style="stroke: #000000; stroke-width: 0.6"/>
      </g>
     </g>
     <g id="line2d_20">
      <g>
       <use xlink:href="#m5d96836cc7" x="182.420073" y="3.00024" style="stroke: #000000; stroke-width: 0.6"/>
      </g>
     </g>
    </g>
    <g id="xtick_11">
     <g id="line2d_21">
      <g>
       <use xlink:href="#mc96f43e1a6" x="205.347448" y="184.02351" style="stroke: #000000; stroke-width: 0.6"/>
      </g>
     </g>
     <g id="line2d_22">
      <g>
       <use xlink:href="#m5d96836cc7" x="205.347448" y="3.00024" style="stroke: #000000; stroke-width: 0.6"/>
      </g>
     </g>
    </g>
    <g id="text_7">
     <!-- Gate Voltage, $\mathit{V_{gate}}$ (V) -->
     <g transform="translate(101.919375 207.59976) scale(0.12 -0.12)">
      <defs>
       <path id="ArialMT-47" d="M 2638 1797 
L 2638 2334 
L 4578 2338 
L 4578 638 
Q 4131 281 3656 101 
Q 3181 -78 2681 -78 
Q 2006 -78 1454 211 
Q 903 500 622 1047 
Q 341 1594 341 2269 
Q 341 2938 620 3517 
Q 900 4097 1425 4378 
Q 1950 4659 2634 4659 
Q 3131 4659 3532 4498 
Q 3934 4338 4162 4050 
Q 4391 3763 4509 3300 
L 3963 3150 
Q 3859 3500 3706 3700 
Q 3553 3900 3268 4020 
Q 2984 4141 2638 4141 
Q 2222 4141 1919 4014 
Q 1616 3888 1430 3681 
Q 1244 3475 1141 3228 
Q 966 2803 966 2306 
Q 966 1694 1177 1281 
Q 1388 869 1791 669 
Q 2194 469 2647 469 
Q 3041 469 3416 620 
Q 3791 772 3984 944 
L 3984 1797 
L 2638 1797 
z
" transform="scale(0.015625)"/>
       <path id="ArialMT-61" d="M 2588 409 
Q 2275 144 1986 34 
Q 1697 -75 1366 -75 
Q 819 -75 525 192 
Q 231 459 231 875 
Q 231 1119 342 1320 
Q 453 1522 633 1644 
Q 813 1766 1038 1828 
Q 1203 1872 1538 1913 
Q 2219 1994 2541 2106 
Q 2544 2222 2544 2253 
Q 2544 2597 2384 2738 
Q 2169 2928 1744 2928 
Q 1347 2928 1158 2789 
Q 969 2650 878 2297 
L 328 2372 
Q 403 2725 575 2942 
Q 747 3159 1072 3276 
Q 1397 3394 1825 3394 
Q 2250 3394 2515 3294 
Q 2781 3194 2906 3042 
Q 3031 2891 3081 2659 
Q 3109 2516 3109 2141 
L 3109 1391 
Q 3109 606 3145 398 
Q 3181 191 3288 0 
L 2700 0 
Q 2613 175 2588 409 
z
M 2541 1666 
Q 2234 1541 1622 1453 
Q 1275 1403 1131 1340 
Q 988 1278 909 1158 
Q 831 1038 831 891 
Q 831 666 1001 516 
Q 1172 366 1500 366 
Q 1825 366 2078 508 
Q 2331 650 2450 897 
Q 2541 1088 2541 1459 
L 2541 1666 
z
" transform="scale(0.015625)"/>
       <path id="ArialMT-74" d="M 1650 503 
L 1731 6 
Q 1494 -44 1306 -44 
Q 1000 -44 831 53 
Q 663 150 594 308 
Q 525 466 525 972 
L 525 2881 
L 113 2881 
L 113 3319 
L 525 3319 
L 525 4141 
L 1084 4478 
L 1084 3319 
L 1650 3319 
L 1650 2881 
L 1084 2881 
L 1084 941 
Q 1084 700 1114 631 
Q 1144 563 1211 522 
Q 1278 481 1403 481 
Q 1497 481 1650 503 
z
" transform="scale(0.015625)"/>
       <path id="ArialMT-65" d="M 2694 1069 
L 3275 997 
Q 3138 488 2766 206 
Q 2394 -75 1816 -75 
Q 1088 -75 661 373 
Q 234 822 234 1631 
Q 234 2469 665 2931 
Q 1097 3394 1784 3394 
Q 2450 3394 2872 2941 
Q 3294 2488 3294 1666 
Q 3294 1616 3291 1516 
L 816 1516 
Q 847 969 1125 678 
Q 1403 388 1819 388 
Q 2128 388 2347 550 
Q 2566 713 2694 1069 
z
M 847 1978 
L 2700 1978 
Q 2663 2397 2488 2606 
Q 2219 2931 1791 2931 
Q 1403 2931 1139 2672 
Q 875 2413 847 1978 
z
" transform="scale(0.015625)"/>
       <path id="ArialMT-20" transform="scale(0.015625)"/>
       <path id="ArialMT-56" d="M 1803 0 
L 28 4581 
L 684 4581 
L 1875 1253 
Q 2019 853 2116 503 
Q 2222 878 2363 1253 
L 3600 4581 
L 4219 4581 
L 2425 0 
L 1803 0 
z
" transform="scale(0.015625)"/>
       <path id="ArialMT-6f" d="M 213 1659 
Q 213 2581 725 3025 
Q 1153 3394 1769 3394 
Q 2453 3394 2887 2945 
Q 3322 2497 3322 1706 
Q 3322 1066 3130 698 
Q 2938 331 2570 128 
Q 2203 -75 1769 -75 
Q 1072 -75 642 372 
Q 213 819 213 1659 
z
M 791 1659 
Q 791 1022 1069 705 
Q 1347 388 1769 388 
Q 2188 388 2466 706 
Q 2744 1025 2744 1678 
Q 2744 2294 2464 2611 
Q 2184 2928 1769 2928 
Q 1347 2928 1069 2612 
Q 791 2297 791 1659 
z
" transform="scale(0.015625)"/>
       <path id="ArialMT-6c" d="M 409 0 
L 409 4581 
L 972 4581 
L 972 0 
L 409 0 
z
" transform="scale(0.015625)"/>
       <path id="ArialMT-67" d="M 319 -275 
L 866 -356 
Q 900 -609 1056 -725 
Q 1266 -881 1628 -881 
Q 2019 -881 2231 -725 
Q 2444 -569 2519 -288 
Q 2563 -116 2559 434 
Q 2191 0 1641 0 
Q 956 0 581 494 
Q 206 988 206 1678 
Q 206 2153 378 2554 
Q 550 2956 876 3175 
Q 1203 3394 1644 3394 
Q 2231 3394 2613 2919 
L 2613 3319 
L 3131 3319 
L 3131 450 
Q 3131 -325 2973 -648 
Q 2816 -972 2473 -1159 
Q 2131 -1347 1631 -1347 
Q 1038 -1347 672 -1080 
Q 306 -813 319 -275 
z
M 784 1719 
Q 784 1066 1043 766 
Q 1303 466 1694 466 
Q 2081 466 2343 764 
Q 2606 1063 2606 1700 
Q 2606 2309 2336 2618 
Q 2066 2928 1684 2928 
Q 1309 2928 1046 2623 
Q 784 2319 784 1719 
z
" transform="scale(0.015625)"/>
       <path id="ArialMT-2c" d="M 569 0 
L 569 641 
L 1209 641 
L 1209 0 
Q 1209 -353 1084 -570 
Q 959 -788 688 -906 
L 531 -666 
Q 709 -588 793 -436 
Q 878 -284 888 0 
L 569 0 
z
" transform="scale(0.015625)"/>
       <path id="Arial-ItalicMT-56" d="M 1675 0 
L 794 4581 
L 1384 4581 
L 1916 1850 
Q 2063 1106 2106 650 
Q 2394 1238 2578 1581 
L 4213 4581 
L 4844 4581 
L 2331 0 
L 1675 0 
z
" transform="scale(0.015625)"/>
       <path id="Arial-ItalicMT-67" d="M 181 -300 
L 753 -353 
Q 747 -547 800 -644 
Q 853 -741 969 -794 
Q 1122 -863 1366 -863 
Q 1878 -863 2103 -597 
Q 2250 -419 2375 178 
L 2431 447 
Q 1991 0 1494 0 
Q 991 0 652 370 
Q 313 741 313 1419 
Q 313 1978 580 2447 
Q 847 2916 1215 3155 
Q 1584 3394 1975 3394 
Q 2628 3394 2981 2775 
L 3094 3319 
L 3613 3319 
L 2944 116 
Q 2834 -413 2656 -708 
Q 2478 -1003 2161 -1165 
Q 1844 -1328 1428 -1328 
Q 1028 -1328 739 -1225 
Q 450 -1122 308 -923 
Q 166 -725 166 -469 
Q 166 -391 181 -300 
z
M 888 1469 
Q 888 1128 953 956 
Q 1047 716 1220 589 
Q 1394 463 1606 463 
Q 1884 463 2159 658 
Q 2434 853 2604 1262 
Q 2775 1672 2775 2044 
Q 2775 2453 2548 2695 
Q 2322 2938 1988 2938 
Q 1781 2938 1587 2827 
Q 1394 2716 1226 2489 
Q 1059 2263 973 1947 
Q 888 1631 888 1469 
z
" transform="scale(0.015625)"/>
       <path id="Arial-ItalicMT-61" d="M 2450 413 
Q 2156 159 1884 42 
Q 1613 -75 1303 -75 
Q 844 -75 562 195 
Q 281 466 281 888 
Q 281 1166 407 1380 
Q 534 1594 743 1723 
Q 953 1853 1256 1909 
Q 1447 1947 1980 1969 
Q 2513 1991 2744 2081 
Q 2809 2313 2809 2466 
Q 2809 2663 2666 2775 
Q 2469 2931 2091 2931 
Q 1734 2931 1507 2773 
Q 1281 2616 1178 2325 
L 606 2375 
Q 781 2869 1161 3131 
Q 1541 3394 2119 3394 
Q 2734 3394 3094 3100 
Q 3369 2881 3369 2531 
Q 3369 2266 3291 1916 
L 3106 1091 
Q 3019 697 3019 450 
Q 3019 294 3088 0 
L 2516 0 
Q 2469 163 2450 413 
z
M 2659 1681 
Q 2541 1634 2405 1609 
Q 2269 1584 1950 1556 
Q 1456 1513 1253 1445 
Q 1050 1378 947 1231 
Q 844 1084 844 906 
Q 844 669 1008 516 
Q 1172 363 1475 363 
Q 1756 363 2015 511 
Q 2275 659 2425 925 
Q 2575 1191 2659 1681 
z
" transform="scale(0.015625)"/>
       <path id="Arial-ItalicMT-74" d="M 1534 459 
L 1441 -3 
Q 1238 -56 1047 -56 
Q 709 -56 509 109 
Q 359 234 359 450 
Q 359 559 441 953 
L 844 2881 
L 397 2881 
L 488 3319 
L 934 3319 
L 1106 4134 
L 1753 4525 
L 1500 3319 
L 2056 3319 
L 1963 2881 
L 1409 2881 
L 1025 1047 
Q 953 697 953 628 
Q 953 528 1011 475 
Q 1069 422 1200 422 
Q 1388 422 1534 459 
z
" transform="scale(0.015625)"/>
       <path id="Arial-ItalicMT-65" d="M 2650 1128 
L 3200 1072 
Q 3081 663 2654 294 
Q 2228 -75 1638 -75 
Q 1269 -75 961 95 
Q 653 266 492 591 
Q 331 916 331 1331 
Q 331 1875 582 2386 
Q 834 2897 1234 3145 
Q 1634 3394 2100 3394 
Q 2694 3394 3048 3025 
Q 3403 2656 3403 2019 
Q 3403 1775 3359 1519 
L 916 1519 
Q 903 1422 903 1344 
Q 903 878 1117 633 
Q 1331 388 1641 388 
Q 1931 388 2212 578 
Q 2494 769 2650 1128 
z
M 1006 1950 
L 2869 1950 
Q 2872 2038 2872 2075 
Q 2872 2500 2659 2726 
Q 2447 2953 2113 2953 
Q 1750 2953 1451 2703 
Q 1153 2453 1006 1950 
z
" transform="scale(0.015625)"/>
       <path id="ArialMT-28" d="M 1497 -1347 
Q 1031 -759 709 28 
Q 388 816 388 1659 
Q 388 2403 628 3084 
Q 909 3875 1497 4659 
L 1900 4659 
Q 1522 4009 1400 3731 
Q 1209 3300 1100 2831 
Q 966 2247 966 1656 
Q 966 153 1900 -1347 
L 1497 -1347 
z
" transform="scale(0.015625)"/>
       <path id="ArialMT-29" d="M 791 -1347 
L 388 -1347 
Q 1322 153 1322 1656 
Q 1322 2244 1188 2822 
Q 1081 3291 891 3722 
Q 769 4003 388 4659 
L 791 4659 
Q 1378 3875 1659 3084 
Q 1900 2403 1900 1659 
Q 1900 816 1576 28 
Q 1253 -759 791 -1347 
z
" transform="scale(0.015625)"/>
      </defs>
      <use xlink:href="#ArialMT-47" transform="translate(0 0.203125)"/>
      <use xlink:href="#ArialMT-61" transform="translate(77.783203 0.203125)"/>
      <use xlink:href="#ArialMT-74" transform="translate(133.398438 0.203125)"/>
      <use xlink:href="#ArialMT-65" transform="translate(161.181641 0.203125)"/>
      <use xlink:href="#ArialMT-20" transform="translate(216.796875 0.203125)"/>
      <use xlink:href="#ArialMT-56" transform="translate(244.580078 0.203125)"/>
      <use xlink:href="#ArialMT-6f" transform="translate(311.279297 0.203125)"/>
      <use xlink:href="#ArialMT-6c" transform="translate(366.894531 0.203125)"/>
      <use xlink:href="#ArialMT-74" transform="translate(389.111328 0.203125)"/>
      <use xlink:href="#ArialMT-61" transform="translate(416.894531 0.203125)"/>
      <use xlink:href="#ArialMT-67" transform="translate(472.509766 0.203125)"/>
      <use xlink:href="#ArialMT-65" transform="translate(528.125 0.203125)"/>
      <use xlink:href="#ArialMT-2c" transform="translate(583.740234 0.203125)"/>
      <use xlink:href="#ArialMT-20" transform="translate(611.523438 0.203125)"/>
      <use xlink:href="#Arial-ItalicMT-56" transform="translate(639.306641 0.203125)"/>
      <use xlink:href="#Arial-ItalicMT-67" transform="translate(706.005859 -29.665625) scale(0.7)"/>
      <use xlink:href="#Arial-ItalicMT-61" transform="translate(744.936523 -29.665625) scale(0.7)"/>
      <use xlink:href="#Arial-ItalicMT-74" transform="translate(783.867188 -29.665625) scale(0.7)"/>
      <use xlink:href="#Arial-ItalicMT-65" transform="translate(803.31543 -29.665625) scale(0.7)"/>
      <use xlink:href="#ArialMT-20" transform="translate(847.224219 0.203125)"/>
      <use xlink:href="#ArialMT-28" transform="translate(875.007422 0.203125)"/>
      <use xlink:href="#ArialMT-56" transform="translate(908.308203 0.203125)"/>
      <use xlink:href="#ArialMT-29" transform="translate(975.007422 0.203125)"/>
     </g>
    </g>
   </g>
   <g id="matplotlib.axis_2">
    <g id="ytick_1">
     <g id="line2d_23">
      <defs>
       <path id="m911a83dac0" d="M 0 0 
L 3.5 0 
" style="stroke: #000000; stroke-width: 0.8"/>
      </defs>
      <g>
       <use xlink:href="#m911a83dac0" x="102.118285" y="174.972346" style="stroke: #000000; stroke-width: 0.8"/>
      </g>
     </g>
     <g id="line2d_24">
      <defs>
       <path id="mdd4f3b84f9" d="M 0 0 
L -3.5 0 
" style="stroke: #000000; stroke-width: 0.8"/>
      </defs>
      <g>
       <use xlink:href="#mdd4f3b84f9" x="222.800465" y="174.972346" style="stroke: #000000; stroke-width: 0.8"/>
      </g>
     </g>
     <g id="text_8">
      <!-- −500 -->
      <g transform="translate(80.599535 177.835471) scale(0.08 -0.08)">
       <use xlink:href="#ArialMT-2212"/>
       <use xlink:href="#ArialMT-35" x="58.398438"/>
       <use xlink:href="#ArialMT-30" x="114.013672"/>
       <use xlink:href="#ArialMT-30" x="169.628906"/>
      </g>
     </g>
    </g>
    <g id="ytick_2">
     <g id="line2d_25">
      <g>
       <use xlink:href="#m911a83dac0" x="102.118285" y="156.870019" style="stroke: #000000; stroke-width: 0.8"/>
      </g>
     </g>
     <g id="line2d_26">
      <g>
       <use xlink:href="#mdd4f3b84f9" x="222.800465" y="156.870019" style="stroke: #000000; stroke-width: 0.8"/>
      </g>
     </g>
     <g id="text_9">
      <!-- −400 -->
      <g transform="translate(80.599535 159.733144) scale(0.08 -0.08)">
       <defs>
        <path id="ArialMT-34" d="M 2069 0 
L 2069 1097 
L 81 1097 
L 81 1613 
L 2172 4581 
L 2631 4581 
L 2631 1613 
L 3250 1613 
L 3250 1097 
L 2631 1097 
L 2631 0 
L 2069 0 
z
M 2069 1613 
L 2069 3678 
L 634 1613 
L 2069 1613 
z
" transform="scale(0.015625)"/>
       </defs>
       <use xlink:href="#ArialMT-2212"/>
       <use xlink:href="#ArialMT-34" x="58.398438"/>
       <use xlink:href="#ArialMT-30" x="114.013672"/>
       <use xlink:href="#ArialMT-30" x="169.628906"/>
      </g>
     </g>
    </g>
    <g id="ytick_3">
     <g id="line2d_27">
      <g>
       <use xlink:href="#m911a83dac0" x="102.118285" y="138.767692" style="stroke: #000000; stroke-width: 0.8"/>
      </g>
     </g>
     <g id="line2d_28">
      <g>
       <use xlink:href="#mdd4f3b84f9" x="222.800465" y="138.767692" style="stroke: #000000; stroke-width: 0.8"/>
      </g>
     </g>
     <g id="text_10">
      <!-- −300 -->
      <g transform="translate(80.599535 141.630817) scale(0.08 -0.08)">
       <defs>
        <path id="ArialMT-33" d="M 269 1209 
L 831 1284 
Q 928 806 1161 595 
Q 1394 384 1728 384 
Q 2125 384 2398 659 
Q 2672 934 2672 1341 
Q 2672 1728 2419 1979 
Q 2166 2231 1775 2231 
Q 1616 2231 1378 2169 
L 1441 2663 
Q 1497 2656 1531 2656 
Q 1891 2656 2178 2843 
Q 2466 3031 2466 3422 
Q 2466 3731 2256 3934 
Q 2047 4138 1716 4138 
Q 1388 4138 1169 3931 
Q 950 3725 888 3313 
L 325 3413 
Q 428 3978 793 4289 
Q 1159 4600 1703 4600 
Q 2078 4600 2393 4439 
Q 2709 4278 2876 4000 
Q 3044 3722 3044 3409 
Q 3044 3113 2884 2869 
Q 2725 2625 2413 2481 
Q 2819 2388 3044 2092 
Q 3269 1797 3269 1353 
Q 3269 753 2831 336 
Q 2394 -81 1725 -81 
Q 1122 -81 723 278 
Q 325 638 269 1209 
z
" transform="scale(0.015625)"/>
       </defs>
       <use xlink:href="#ArialMT-2212"/>
       <use xlink:href="#ArialMT-33" x="58.398438"/>
       <use xlink:href="#ArialMT-30" x="114.013672"/>
       <use xlink:href="#ArialMT-30" x="169.628906"/>
      </g>
     </g>
    </g>
    <g id="ytick_4">
     <g id="line2d_29">
      <g>
       <use xlink:href="#m911a83dac0" x="102.118285" y="120.665365" style="stroke: #000000; stroke-width: 0.8"/>
      </g>
     </g>
     <g id="line2d_30">
      <g>
       <use xlink:href="#mdd4f3b84f9" x="222.800465" y="120.665365" style="stroke: #000000; stroke-width: 0.8"/>
      </g>
     </g>
     <g id="text_11">
      <!-- −200 -->
      <g transform="translate(80.599535 123.52849) scale(0.08 -0.08)">
       <use xlink:href="#ArialMT-2212"/>
       <use xlink:href="#ArialMT-32" x="58.398438"/>
       <use xlink:href="#ArialMT-30" x="114.013672"/>
       <use xlink:href="#ArialMT-30" x="169.628906"/>
      </g>
     </g>
    </g>
    <g id="ytick_5">
     <g id="line2d_31">
      <g>
       <use xlink:href="#m911a83dac0" x="102.118285" y="102.563039" style="stroke: #000000; stroke-width: 0.8"/>
      </g>
     </g>
     <g id="line2d_32">
      <g>
       <use xlink:href="#mdd4f3b84f9" x="222.800465" y="102.563039" style="stroke: #000000; stroke-width: 0.8"/>
      </g>
     </g>
     <g id="text_12">
      <!-- −100 -->
      <g transform="translate(80.599535 105.426164) scale(0.08 -0.08)">
       <use xlink:href="#ArialMT-2212"/>
       <use xlink:href="#ArialMT-31" x="58.398438"/>
       <use xlink:href="#ArialMT-30" x="114.013672"/>
       <use xlink:href="#ArialMT-30" x="169.628906"/>
      </g>
     </g>
    </g>
    <g id="ytick_6">
     <g id="line2d_33">
      <g>
       <use xlink:href="#m911a83dac0" x="102.118285" y="84.460712" style="stroke: #000000; stroke-width: 0.8"/>
      </g>
     </g>
     <g id="line2d_34">
      <g>
       <use xlink:href="#mdd4f3b84f9" x="222.800465" y="84.460712" style="stroke: #000000; stroke-width: 0.8"/>
      </g>
     </g>
     <g id="text_13">
      <!-- 0 -->
      <g transform="translate(94.169535 87.323836) scale(0.08 -0.08)">
       <use xlink:href="#ArialMT-30"/>
      </g>
     </g>
    </g>
    <g id="ytick_7">
     <g id="line2d_35">
      <g>
       <use xlink:href="#m911a83dac0" x="102.118285" y="66.358384" style="stroke: #000000; stroke-width: 0.8"/>
      </g>
     </g>
     <g id="line2d_36">
      <g>
       <use xlink:href="#mdd4f3b84f9" x="222.800465" y="66.358384" style="stroke: #000000; stroke-width: 0.8"/>
      </g>
     </g>
     <g id="text_14">
      <!-- 100 -->
      <g transform="translate(85.272035 69.221509) scale(0.08 -0.08)">
       <use xlink:href="#ArialMT-31"/>
       <use xlink:href="#ArialMT-30" x="55.615234"/>
       <use xlink:href="#ArialMT-30" x="111.230469"/>
      </g>
     </g>
    </g>
    <g id="ytick_8">
     <g id="line2d_37">
      <g>
       <use xlink:href="#m911a83dac0" x="102.118285" y="48.256058" style="stroke: #000000; stroke-width: 0.8"/>
      </g>
     </g>
     <g id="line2d_38">
      <g>
       <use xlink:href="#mdd4f3b84f9" x="222.800465" y="48.256058" style="stroke: #000000; stroke-width: 0.8"/>
      </g>
     </g>
     <g id="text_15">
      <!-- 200 -->
      <g transform="translate(85.272035 51.119182) scale(0.08 -0.08)">
       <use xlink:href="#ArialMT-32"/>
       <use xlink:href="#ArialMT-30" x="55.615234"/>
       <use xlink:href="#ArialMT-30" x="111.230469"/>
      </g>
     </g>
    </g>
    <g id="ytick_9">
     <g id="line2d_39">
      <g>
       <use xlink:href="#m911a83dac0" x="102.118285" y="30.153731" style="stroke: #000000; stroke-width: 0.8"/>
      </g>
     </g>
     <g id="line2d_40">
      <g>
       <use xlink:href="#mdd4f3b84f9" x="222.800465" y="30.153731" style="stroke: #000000; stroke-width: 0.8"/>
      </g>
     </g>
     <g id="text_16">
      <!-- 300 -->
      <g transform="translate(85.272035 33.016856) scale(0.08 -0.08)">
       <use xlink:href="#ArialMT-33"/>
       <use xlink:href="#ArialMT-30" x="55.615234"/>
       <use xlink:href="#ArialMT-30" x="111.230469"/>
      </g>
     </g>
    </g>
    <g id="ytick_10">
     <g id="line2d_41">
      <g>
       <use xlink:href="#m911a83dac0" x="102.118285" y="12.051404" style="stroke: #000000; stroke-width: 0.8"/>
      </g>
     </g>
     <g id="line2d_42">
      <g>
       <use xlink:href="#mdd4f3b84f9" x="222.800465" y="12.051404" style="stroke: #000000; stroke-width: 0.8"/>
      </g>
     </g>
     <g id="text_17">
      <!-- 400 -->
      <g transform="translate(85.272035 14.914529) scale(0.08 -0.08)">
       <use xlink:href="#ArialMT-34"/>
       <use xlink:href="#ArialMT-30" x="55.615234"/>
       <use xlink:href="#ArialMT-30" x="111.230469"/>
      </g>
     </g>
    </g>
    <g id="ytick_11">
     <g id="line2d_43">
      <defs>
       <path id="m1a6f157cbb" d="M 0 0 
L 2 0 
" style="stroke: #000000; stroke-width: 0.6"/>
      </defs>
      <g>
       <use xlink:href="#m1a6f157cbb" x="102.118285" y="184.02351" style="stroke: #000000; stroke-width: 0.6"/>
      </g>
     </g>
     <g id="line2d_44">
      <defs>
       <path id="ma01f2ad862" d="M 0 0 
L -2 0 
" style="stroke: #000000; stroke-width: 0.6"/>
      </defs>
      <g>
       <use xlink:href="#ma01f2ad862" x="222.800465" y="184.02351" style="stroke: #000000; stroke-width: 0.6"/>
      </g>
     </g>
    </g>
    <g id="ytick_12">
     <g id="line2d_45">
      <g>
       <use xlink:href="#m1a6f157cbb" x="102.118285" y="165.921183" style="stroke: #000000; stroke-width: 0.6"/>
      </g>
     </g>
     <g id="line2d_46">
      <g>
       <use xlink:href="#ma01f2ad862" x="222.800465" y="165.921183" style="stroke: #000000; stroke-width: 0.6"/>
      </g>
     </g>
    </g>
    <g id="ytick_13">
     <g id="line2d_47">
      <g>
       <use xlink:href="#m1a6f157cbb" x="102.118285" y="147.818856" style="stroke: #000000; stroke-width: 0.6"/>
      </g>
     </g>
     <g id="line2d_48">
      <g>
       <use xlink:href="#ma01f2ad862" x="222.800465" y="147.818856" style="stroke: #000000; stroke-width: 0.6"/>
      </g>
     </g>
    </g>
    <g id="ytick_14">
     <g id="line2d_49">
      <g>
       <use xlink:href="#m1a6f157cbb" x="102.118285" y="129.716529" style="stroke: #000000; stroke-width: 0.6"/>
      </g>
     </g>
     <g id="line2d_50">
      <g>
       <use xlink:href="#ma01f2ad862" x="222.800465" y="129.716529" style="stroke: #000000; stroke-width: 0.6"/>
      </g>
     </g>
    </g>
    <g id="ytick_15">
     <g id="line2d_51">
      <g>
       <use xlink:href="#m1a6f157cbb" x="102.118285" y="111.614202" style="stroke: #000000; stroke-width: 0.6"/>
      </g>
     </g>
     <g id="line2d_52">
      <g>
       <use xlink:href="#ma01f2ad862" x="222.800465" y="111.614202" style="stroke: #000000; stroke-width: 0.6"/>
      </g>
     </g>
    </g>
    <g id="ytick_16">
     <g id="line2d_53">
      <g>
       <use xlink:href="#m1a6f157cbb" x="102.118285" y="93.511875" style="stroke: #000000; stroke-width: 0.6"/>
      </g>
     </g>
     <g id="line2d_54">
      <g>
       <use xlink:href="#ma01f2ad862" x="222.800465" y="93.511875" style="stroke: #000000; stroke-width: 0.6"/>
      </g>
     </g>
    </g>
    <g id="ytick_17">
     <g id="line2d_55">
      <g>
       <use xlink:href="#m1a6f157cbb" x="102.118285" y="75.409548" style="stroke: #000000; stroke-width: 0.6"/>
      </g>
     </g>
     <g id="line2d_56">
      <g>
       <use xlink:href="#ma01f2ad862" x="222.800465" y="75.409548" style="stroke: #000000; stroke-width: 0.6"/>
      </g>
     </g>
    </g>
    <g id="ytick_18">
     <g id="line2d_57">
      <g>
       <use xlink:href="#m1a6f157cbb" x="102.118285" y="57.307221" style="stroke: #000000; stroke-width: 0.6"/>
      </g>
     </g>
     <g id="line2d_58">
      <g>
       <use xlink:href="#ma01f2ad862" x="222.800465" y="57.307221" style="stroke: #000000; stroke-width: 0.6"/>
      </g>
     </g>
    </g>
    <g id="ytick_19">
     <g id="line2d_59">
      <g>
       <use xlink:href="#m1a6f157cbb" x="102.118285" y="39.204894" style="stroke: #000000; stroke-width: 0.6"/>
      </g>
     </g>
     <g id="line2d_60">
      <g>
       <use xlink:href="#ma01f2ad862" x="222.800465" y="39.204894" style="stroke: #000000; stroke-width: 0.6"/>
      </g>
     </g>
    </g>
    <g id="ytick_20">
     <g id="line2d_61">
      <g>
       <use xlink:href="#m1a6f157cbb" x="102.118285" y="21.102567" style="stroke: #000000; stroke-width: 0.6"/>
      </g>
     </g>
     <g id="line2d_62">
      <g>
       <use xlink:href="#ma01f2ad862" x="222.800465" y="21.102567" style="stroke: #000000; stroke-width: 0.6"/>
      </g>
     </g>
    </g>
    <g id="ytick_21">
     <g id="line2d_63">
      <g>
       <use xlink:href="#m1a6f157cbb" x="102.118285" y="3.00024" style="stroke: #000000; stroke-width: 0.6"/>
      </g>
     </g>
     <g id="line2d_64">
      <g>
       <use xlink:href="#ma01f2ad862" x="222.800465" y="3.00024" style="stroke: #000000; stroke-width: 0.6"/>
      </g>
     </g>
    </g>
    <g id="text_18">
     <!-- Current, $\mathit{I}$ (μA) -->
     <g transform="translate(73.959535 131.671875) rotate(-90) scale(0.12 -0.12)">
      <defs>
       <path id="ArialMT-43" d="M 3763 1606 
L 4369 1453 
Q 4178 706 3683 314 
Q 3188 -78 2472 -78 
Q 1731 -78 1267 223 
Q 803 525 561 1097 
Q 319 1669 319 2325 
Q 319 3041 592 3573 
Q 866 4106 1370 4382 
Q 1875 4659 2481 4659 
Q 3169 4659 3637 4309 
Q 4106 3959 4291 3325 
L 3694 3184 
Q 3534 3684 3231 3912 
Q 2928 4141 2469 4141 
Q 1941 4141 1586 3887 
Q 1231 3634 1087 3207 
Q 944 2781 944 2328 
Q 944 1744 1114 1308 
Q 1284 872 1643 656 
Q 2003 441 2422 441 
Q 2931 441 3284 734 
Q 3638 1028 3763 1606 
z
" transform="scale(0.015625)"/>
       <path id="ArialMT-75" d="M 2597 0 
L 2597 488 
Q 2209 -75 1544 -75 
Q 1250 -75 995 37 
Q 741 150 617 320 
Q 494 491 444 738 
Q 409 903 409 1263 
L 409 3319 
L 972 3319 
L 972 1478 
Q 972 1038 1006 884 
Q 1059 663 1231 536 
Q 1403 409 1656 409 
Q 1909 409 2131 539 
Q 2353 669 2445 892 
Q 2538 1116 2538 1541 
L 2538 3319 
L 3100 3319 
L 3100 0 
L 2597 0 
z
" transform="scale(0.015625)"/>
       <path id="ArialMT-72" d="M 416 0 
L 416 3319 
L 922 3319 
L 922 2816 
Q 1116 3169 1280 3281 
Q 1444 3394 1641 3394 
Q 1925 3394 2219 3213 
L 2025 2691 
Q 1819 2813 1613 2813 
Q 1428 2813 1281 2702 
Q 1134 2591 1072 2394 
Q 978 2094 978 1738 
L 978 0 
L 416 0 
z
" transform="scale(0.015625)"/>
       <path id="ArialMT-6e" d="M 422 0 
L 422 3319 
L 928 3319 
L 928 2847 
Q 1294 3394 1984 3394 
Q 2284 3394 2536 3286 
Q 2788 3178 2913 3003 
Q 3038 2828 3088 2588 
Q 3119 2431 3119 2041 
L 3119 0 
L 2556 0 
L 2556 2019 
Q 2556 2363 2490 2533 
Q 2425 2703 2258 2804 
Q 2091 2906 1866 2906 
Q 1506 2906 1245 2678 
Q 984 2450 984 1813 
L 984 0 
L 422 0 
z
" transform="scale(0.015625)"/>
       <path id="Arial-ItalicMT-49" d="M 366 0 
L 1325 4581 
L 1934 4581 
L 978 0 
L 366 0 
z
" transform="scale(0.015625)"/>
       <path id="ArialMT-3bc" d="M 3181 3319 
L 3181 0 
L 2678 0 
L 2678 394 
Q 2516 144 2356 50 
Q 2138 -78 1847 -78 
Q 1588 -78 1388 25 
Q 1238 103 1056 334 
L 1056 -1272 
L 500 -1272 
L 500 3319 
L 1056 3319 
L 1056 1913 
Q 1056 1147 1137 920 
Q 1219 694 1401 562 
Q 1584 431 1822 431 
Q 2072 431 2269 568 
Q 2466 706 2547 923 
Q 2628 1141 2628 1903 
L 2628 3319 
L 3181 3319 
z
" transform="scale(0.015625)"/>
       <path id="ArialMT-41" d="M -9 0 
L 1750 4581 
L 2403 4581 
L 4278 0 
L 3588 0 
L 3053 1388 
L 1138 1388 
L 634 0 
L -9 0 
z
M 1313 1881 
L 2866 1881 
L 2388 3150 
Q 2169 3728 2063 4100 
Q 1975 3659 1816 3225 
L 1313 1881 
z
" transform="scale(0.015625)"/>
      </defs>
      <use xlink:href="#ArialMT-43" transform="translate(0 0.203125)"/>
      <use xlink:href="#ArialMT-75" transform="translate(72.216797 0.203125)"/>
      <use xlink:href="#ArialMT-72" transform="translate(127.832031 0.203125)"/>
      <use xlink:href="#ArialMT-72" transform="translate(161.132812 0.203125)"/>
      <use xlink:href="#ArialMT-65" transform="translate(194.433594 0.203125)"/>
      <use xlink:href="#ArialMT-6e" transform="translate(250.048828 0.203125)"/>
      <use xlink:href="#ArialMT-74" transform="translate(305.664062 0.203125)"/>
      <use xlink:href="#ArialMT-2c" transform="translate(333.447266 0.203125)"/>
      <use xlink:href="#ArialMT-20" transform="translate(361.230469 0.203125)"/>
      <use xlink:href="#Arial-ItalicMT-49" transform="translate(389.013672 0.203125)"/>
      <use xlink:href="#ArialMT-20" transform="translate(416.796875 0.203125)"/>
      <use xlink:href="#ArialMT-28" transform="translate(444.580078 0.203125)"/>
      <use xlink:href="#ArialMT-3bc" transform="translate(477.880859 0.203125)"/>
      <use xlink:href="#ArialMT-41" transform="translate(535.498047 0.203125)"/>
      <use xlink:href="#ArialMT-29" transform="translate(602.197266 0.203125)"/>
     </g>
    </g>
   </g>
   <g id="line2d_65">
    <path d="M 217.314911 84.310294 
L 215.07591 84.435642 
L 213.956409 84.686338 
L 212.836908 84.711407 
L 211.717408 84.56099 
L 201.641901 84.385503 
L 199.402899 84.385503 
L 197.163898 84.335364 
L 196.044397 84.460712 
L 194.924897 84.736477 
L 193.805396 84.636198 
L 191.566394 84.661268 
L 190.446894 84.911964 
L 189.327393 84.886894 
L 185.968891 84.435642 
L 184.84939 84.611129 
L 182.610388 84.56099 
L 181.490888 84.360433 
L 178.132385 84.686338 
L 177.012885 84.786616 
L 173.654382 84.435642 
L 170.29588 84.736477 
L 168.056879 85.037311 
L 166.937378 85.062381 
L 165.817877 85.212798 
L 161.339874 85.11252 
L 156.861871 85.789398 
L 155.742371 85.789398 
L 154.62287 85.989955 
L 153.503369 86.040094 
L 152.383868 86.315859 
L 150.144867 86.441207 
L 147.905865 86.441207 
L 146.786365 86.666833 
L 145.666864 86.742042 
L 144.547363 87.168224 
L 143.427862 87.193294 
L 142.308362 87.694685 
L 141.188861 87.920311 
L 140.06936 88.672398 
L 138.949859 89.650111 
L 136.710858 94.33812 
L 135.591357 95.817224 
L 134.471856 96.61945 
L 133.352356 96.920285 
L 131.113354 108.627771 
L 129.993853 116.800449 
L 127.754852 124.421596 
L 123.276849 136.680613 
L 122.157348 139.563613 
L 119.918347 144.025996 
L 117.679345 150.594221 
L 116.559845 154.078891 
L 114.320843 159.819821 
L 112.081842 166.964647 
L 110.962341 170.925638 
L 109.84284 173.282177 
L 109.84284 173.733429 
L 110.962341 172.580229 
L 114.320843 167.516177 
L 116.559845 163.555186 
L 117.679345 161.975803 
L 122.157348 154.70563 
L 123.276849 153.101178 
L 124.39635 150.970265 
L 128.874353 143.900648 
L 129.993853 142.07057 
L 131.113354 140.516257 
L 134.471856 135.226579 
L 136.710858 132.117953 
L 137.830359 130.363083 
L 141.188861 125.800422 
L 143.427862 122.365892 
L 145.666864 119.307405 
L 146.786365 117.652814 
L 147.905865 116.198779 
L 150.144867 113.741962 
L 151.264368 112.16258 
L 153.503369 109.429997 
L 154.62287 108.276797 
L 155.742371 106.897971 
L 165.817877 96.64452 
L 171.415381 92.182137 
L 172.534882 91.655676 
L 173.654382 90.652894 
L 177.012885 88.948163 
L 178.132385 88.196077 
L 180.371387 87.042877 
L 184.84939 85.162659 
L 185.968891 84.962103 
L 188.207892 84.911964 
L 190.446894 84.611129 
L 199.402899 84.510851 
L 200.5224 84.56099 
L 201.641901 84.410572 
L 202.761402 84.636198 
L 206.119904 84.159877 
L 212.836908 84.786616 
L 215.07591 84.460712 
L 216.195411 84.360433 
L 216.195411 84.360433 
" clip-path="url(#ped50bfad43)" style="fill: none; stroke: #ff0000; stroke-opacity: 0.1; stroke-width: 0.5; stroke-linecap: square"/>
   </g>
   <g id="line2d_66">
    <path d="M 217.314911 84.460712 
L 213.956409 84.636198 
L 210.597907 84.310294 
L 208.358905 84.360433 
L 207.239405 84.235085 
L 203.880902 84.586059 
L 202.761402 84.485781 
L 200.5224 84.56099 
L 198.283399 84.510851 
L 194.924897 84.53592 
L 190.446894 84.435642 
L 188.207892 84.761546 
L 187.088391 84.711407 
L 185.968891 84.410572 
L 181.490888 84.661268 
L 179.251886 84.611129 
L 174.773883 84.911964 
L 172.534882 84.886894 
L 168.056879 85.087451 
L 165.817877 85.037311 
L 163.578876 85.413355 
L 161.339874 85.864607 
L 157.981372 85.463494 
L 155.742371 85.71419 
L 152.383868 86.315859 
L 151.264368 86.340929 
L 149.025366 86.742042 
L 147.905865 87.168224 
L 146.786365 87.318642 
L 145.666864 87.669616 
L 144.547363 87.870172 
L 143.427862 88.221146 
L 142.308362 88.045659 
L 141.188861 88.120868 
L 140.06936 88.070729 
L 137.830359 88.246216 
L 136.710858 88.872955 
L 134.471856 90.30192 
L 133.352356 90.85345 
L 132.232855 91.806094 
L 131.113354 93.310268 
L 129.993853 100.856206 
L 128.874353 110.758684 
L 127.754852 121.989849 
L 126.635351 127.204318 
L 125.515851 130.56364 
L 124.39635 133.045526 
L 118.798846 147.360248 
L 117.679345 149.741856 
L 115.440344 155.382508 
L 114.320843 158.917317 
L 108.723339 173.08162 
L 108.723339 174.485516 
L 109.84284 174.209751 
L 115.440344 165.159638 
L 117.679345 161.57469 
L 118.798846 159.970238 
L 121.037848 156.360221 
L 127.754852 146.482813 
L 128.874353 144.527387 
L 129.993853 142.797587 
L 132.232855 139.839378 
L 134.471856 136.605405 
L 135.591357 135.15137 
L 138.949859 129.98704 
L 141.188861 127.204318 
L 143.427862 123.945275 
L 146.786365 119.60824 
L 149.025366 116.975936 
L 152.383868 112.237788 
L 156.861871 106.99825 
L 160.220374 103.363163 
L 161.339874 102.36038 
L 162.459375 101.081832 
L 163.578876 100.154259 
L 164.698376 98.800502 
L 165.817877 97.847859 
L 169.176379 94.689094 
L 171.415381 92.959294 
L 172.534882 92.307485 
L 175.893384 89.70025 
L 178.132385 88.346494 
L 179.251886 87.569337 
L 181.490888 86.591624 
L 182.610388 86.190511 
L 183.729889 85.613911 
L 185.968891 84.987172 
L 191.566394 84.53592 
L 193.805396 84.686338 
L 196.044397 84.485781 
L 197.163898 84.435642 
L 199.402899 84.611129 
L 201.641901 84.510851 
L 202.761402 84.460712 
L 203.880902 84.285225 
L 209.478406 84.586059 
L 210.597907 84.711407 
L 212.836908 84.460712 
L 213.956409 84.285225 
L 216.195411 84.385503 
L 216.195411 84.385503 
" clip-path="url(#ped50bfad43)" style="fill: none; stroke: #ff0000; stroke-opacity: 0.134211; stroke-width: 0.5; stroke-linecap: square"/>
   </g>
   <g id="line2d_67">
    <path d="M 217.314911 84.56099 
L 211.717408 84.460712 
L 210.597907 84.586059 
L 206.119904 84.586059 
L 203.880902 84.310294 
L 199.402899 84.435642 
L 198.283399 84.611129 
L 197.163898 84.53592 
L 196.044397 84.611129 
L 193.805396 84.53592 
L 190.446894 84.611129 
L 188.207892 84.661268 
L 187.088391 84.786616 
L 184.84939 84.485781 
L 183.729889 84.56099 
L 182.610388 84.811685 
L 181.490888 84.937033 
L 180.371387 84.836755 
L 178.132385 85.037311 
L 177.012885 85.288007 
L 175.893384 85.363216 
L 174.773883 85.212798 
L 171.415381 85.538703 
L 165.817877 86.040094 
L 164.698376 86.315859 
L 162.459375 86.691903 
L 160.220374 87.243433 
L 156.861871 87.619477 
L 154.62287 88.221146 
L 153.503369 88.797746 
L 152.383868 88.973233 
L 151.264368 89.625042 
L 150.144867 89.549833 
L 149.025366 89.825598 
L 147.905865 89.70025 
L 145.666864 90.652894 
L 144.547363 90.87852 
L 142.308362 90.803311 
L 141.188861 91.129216 
L 140.06936 92.633389 
L 138.949859 94.538676 
L 136.710858 101.182111 
L 135.591357 106.897971 
L 133.352356 116.925797 
L 131.113354 122.340823 
L 128.874353 126.602649 
L 126.635351 131.340796 
L 123.276849 140.215422 
L 119.918347 147.109552 
L 118.798846 149.165256 
L 116.559845 154.028752 
L 114.320843 159.970238 
L 109.84284 171.176333 
L 108.723339 173.10669 
L 108.723339 173.833707 
L 109.84284 173.181898 
L 110.962341 172.053768 
L 113.201342 168.744586 
L 116.559845 163.254351 
L 118.798846 159.86996 
L 121.037848 156.310082 
L 122.157348 154.755769 
L 125.515851 149.466091 
L 127.754852 146.432674 
L 129.993853 142.722378 
L 133.352356 137.482839 
L 136.710858 132.895109 
L 137.830359 131.165309 
L 140.06936 128.131892 
L 143.427862 123.594301 
L 145.666864 120.736371 
L 146.786365 118.881223 
L 149.025366 116.048362 
L 151.264368 113.516336 
L 155.742371 108.076241 
L 156.861871 106.97318 
L 160.220374 103.087398 
L 163.578876 99.878493 
L 164.698376 98.499667 
L 166.937378 96.494102 
L 168.056879 95.817224 
L 171.415381 92.758737 
L 172.534882 91.856233 
L 173.654382 90.728102 
L 175.893384 89.274068 
L 177.012885 88.797746 
L 179.251886 87.569337 
L 181.490888 86.466277 
L 185.968891 85.087451 
L 191.566394 84.736477 
L 192.685895 84.586059 
L 193.805396 84.711407 
L 198.283399 84.510851 
L 199.402899 84.310294 
L 201.641901 84.285225 
L 203.880902 84.636198 
L 206.119904 84.460712 
L 207.239405 84.210016 
L 209.478406 84.109738 
L 213.956409 84.310294 
L 216.195411 84.611129 
L 216.195411 84.611129 
" clip-path="url(#ped50bfad43)" style="fill: none; stroke: #ff0000; stroke-opacity: 0.168421; stroke-width: 0.5; stroke-linecap: square"/>
   </g>
   <g id="line2d_68">
    <path d="M 217.314911 84.385503 
L 216.195411 84.310294 
L 211.717408 84.510851 
L 210.597907 84.435642 
L 209.478406 84.53592 
L 208.358905 84.460712 
L 207.239405 84.586059 
L 203.880902 84.410572 
L 202.761402 84.360433 
L 200.5224 84.460712 
L 197.163898 84.56099 
L 196.044397 84.686338 
L 192.685895 84.510851 
L 191.566394 84.711407 
L 189.327393 84.586059 
L 188.207892 84.335364 
L 185.968891 84.460712 
L 184.84939 84.56099 
L 183.729889 84.836755 
L 182.610388 84.911964 
L 181.490888 85.11252 
L 180.371387 84.761546 
L 175.893384 84.962103 
L 172.534882 85.037311 
L 169.176379 84.987172 
L 165.817877 85.588842 
L 163.578876 85.789398 
L 160.220374 86.190511 
L 159.100873 86.165442 
L 156.861871 86.441207 
L 154.62287 87.193294 
L 152.383868 87.368781 
L 150.144867 87.870172 
L 149.025366 88.221146 
L 145.666864 88.446772 
L 144.547363 88.847885 
L 143.427862 89.098581 
L 142.308362 89.574903 
L 141.188861 90.452337 
L 138.949859 92.533111 
L 137.830359 92.859015 
L 136.710858 93.811659 
L 133.352356 99.753146 
L 132.232855 104.516363 
L 129.993853 117.928579 
L 128.874353 121.162553 
L 127.754852 123.293466 
L 123.276849 134.750257 
L 122.157348 138.485622 
L 119.918347 146.708439 
L 118.798846 150.042691 
L 115.440344 157.939604 
L 110.962341 170.248759 
L 109.84284 172.580229 
L 109.84284 173.206968 
L 110.962341 172.204185 
L 112.081842 170.474386 
L 113.201342 169.095559 
L 114.320843 167.390829 
L 117.679345 161.474412 
L 118.798846 159.84489 
L 121.037848 156.259943 
L 122.157348 154.605352 
L 125.515851 148.714004 
L 127.754852 145.329613 
L 129.993853 141.619317 
L 132.232855 138.510691 
L 134.471856 134.925744 
L 137.830359 129.836622 
L 141.188861 125.223823 
L 143.427862 121.864501 
L 152.383868 110.482919 
L 153.503369 109.25451 
L 155.742371 106.246163 
L 161.339874 100.354815 
L 171.415381 92.081859 
L 174.773883 89.72532 
L 175.893384 89.073511 
L 180.371387 87.118085 
L 182.610388 85.889677 
L 184.84939 85.13759 
L 187.088391 84.736477 
L 190.446894 84.686338 
L 192.685895 84.686338 
L 196.044397 84.235085 
L 200.5224 84.485781 
L 203.880902 84.385503 
L 205.000403 84.56099 
L 207.239405 84.460712 
L 208.358905 84.435642 
L 209.478406 84.285225 
L 210.597907 84.410572 
L 211.717408 84.360433 
L 212.836908 84.510851 
L 213.956409 84.360433 
L 216.195411 84.410572 
L 216.195411 84.410572 
" clip-path="url(#ped50bfad43)" style="fill: none; stroke: #ff0000; stroke-opacity: 0.202632; stroke-width: 0.5; stroke-linecap: square"/>
   </g>
   <g id="line2d_69">
    <path d="M 217.314911 84.184946 
L 216.195411 84.335364 
L 215.07591 84.661268 
L 213.956409 84.836755 
L 210.597907 84.711407 
L 201.641901 84.285225 
L 198.283399 84.636198 
L 197.163898 84.611129 
L 196.044397 84.711407 
L 191.566394 84.611129 
L 185.968891 84.485781 
L 182.610388 84.761546 
L 181.490888 85.237868 
L 179.251886 85.288007 
L 178.132385 84.937033 
L 175.893384 85.363216 
L 172.534882 85.764329 
L 171.415381 86.090233 
L 170.29588 86.240651 
L 168.056879 86.716972 
L 165.817877 86.992737 
L 162.459375 88.095798 
L 161.339874 88.145937 
L 157.981372 89.073511 
L 156.861871 89.198859 
L 155.742371 89.499694 
L 153.503369 90.377129 
L 152.383868 90.427268 
L 151.264368 90.978798 
L 150.144867 91.655676 
L 143.427862 96.519172 
L 142.308362 97.095772 
L 141.188861 98.073485 
L 140.06936 99.201615 
L 138.949859 100.05398 
L 137.830359 100.605511 
L 136.710858 101.80885 
L 135.591357 103.588789 
L 133.352356 109.780971 
L 129.993853 123.468953 
L 128.874353 126.52744 
L 125.515851 133.521848 
L 123.276849 138.761387 
L 122.157348 141.769735 
L 117.679345 151.747421 
L 114.320843 159.443777 
L 108.723339 172.705577 
L 107.603839 174.435377 
L 107.603839 175.112255 
L 108.723339 174.284959 
L 109.84284 172.705577 
L 116.559845 161.725108 
L 119.918347 156.560777 
L 122.157348 153.201456 
L 129.993853 141.669456 
L 133.352356 136.480057 
L 136.710858 131.892327 
L 137.830359 130.087318 
L 140.06936 127.229388 
L 141.188861 126.000979 
L 142.308362 124.170901 
L 143.427862 122.792075 
L 144.547363 121.162553 
L 145.666864 119.884005 
L 147.905865 116.825519 
L 149.025366 115.546971 
L 150.144867 113.89238 
L 153.503369 109.655623 
L 156.861871 105.870119 
L 157.981372 104.892406 
L 159.100873 103.689067 
L 160.220374 102.736424 
L 162.459375 100.63058 
L 164.698376 98.474598 
L 166.937378 96.168198 
L 170.29588 93.235059 
L 171.415381 92.357624 
L 172.534882 91.730885 
L 173.654382 90.828381 
L 174.773883 90.151503 
L 175.893384 89.299137 
L 181.490888 86.591624 
L 182.610388 86.140372 
L 187.088391 85.012242 
L 188.207892 84.937033 
L 189.327393 84.56099 
L 191.566394 84.510851 
L 193.805396 84.460712 
L 194.924897 84.636198 
L 197.163898 84.761546 
L 198.283399 84.636198 
L 199.402899 84.686338 
L 201.641901 84.210016 
L 202.761402 84.159877 
L 206.119904 84.586059 
L 209.478406 84.285225 
L 212.836908 84.485781 
L 215.07591 84.460712 
L 216.195411 84.410572 
L 216.195411 84.410572 
" clip-path="url(#ped50bfad43)" style="fill: none; stroke: #ff0000; stroke-opacity: 0.236842; stroke-width: 0.5; stroke-linecap: square"/>
   </g>
   <g id="line2d_70">
    <path d="M 217.314911 84.235085 
L 216.195411 84.184946 
L 213.956409 84.435642 
L 211.717408 84.611129 
L 210.597907 84.586059 
L 209.478406 84.435642 
L 206.119904 84.711407 
L 202.761402 84.410572 
L 199.402899 84.56099 
L 198.283399 84.485781 
L 197.163898 84.686338 
L 196.044397 84.761546 
L 193.805396 84.335364 
L 190.446894 84.510851 
L 189.327393 84.285225 
L 188.207892 84.360433 
L 185.968891 84.886894 
L 184.84939 84.786616 
L 181.490888 85.012242 
L 180.371387 85.11252 
L 177.012885 85.037311 
L 171.415381 85.71419 
L 166.937378 86.190511 
L 164.698376 86.792181 
L 160.220374 88.196077 
L 157.981372 88.622259 
L 156.861871 88.998303 
L 154.62287 89.349276 
L 153.503369 89.399416 
L 151.264368 90.352059 
L 147.905865 91.781024 
L 144.547363 94.012215 
L 143.427862 94.964859 
L 142.308362 96.168198 
L 140.06936 97.822789 
L 138.949859 98.549806 
L 137.830359 99.903563 
L 136.710858 102.661215 
L 135.591357 106.020537 
L 133.352356 114.143075 
L 132.232855 116.950866 
L 131.113354 120.310188 
L 129.993853 122.817144 
L 128.874353 126.201536 
L 126.635351 131.315727 
L 125.515851 134.5497 
L 124.39635 137.4327 
L 123.276849 140.86723 
L 122.157348 143.048283 
L 121.037848 145.5051 
L 119.918347 147.661082 
L 117.679345 152.900621 
L 115.440344 157.56356 
L 114.320843 160.346282 
L 113.201342 163.605325 
L 110.962341 168.869933 
L 108.723339 173.131759 
L 108.723339 173.65822 
L 109.84284 172.705577 
L 112.081842 169.04542 
L 114.320843 165.786377 
L 116.559845 162.076082 
L 121.037848 154.931256 
L 123.276849 151.772491 
L 125.515851 148.112334 
L 127.754852 144.828222 
L 132.232855 138.360274 
L 133.352356 136.480057 
L 137.830359 130.112388 
L 143.427862 122.240544 
L 149.025366 115.246136 
L 151.264368 112.087371 
L 152.383868 110.934171 
L 153.503369 109.505206 
L 154.62287 108.326936 
L 155.742371 106.772623 
L 159.100873 103.237815 
L 160.220374 101.934198 
L 162.459375 99.853424 
L 163.578876 99.101337 
L 164.698376 97.973206 
L 165.817877 97.120841 
L 170.29588 93.209989 
L 171.415381 92.282415 
L 175.893384 89.324207 
L 179.251886 87.619477 
L 180.371387 87.168224 
L 182.610388 86.040094 
L 183.729889 85.68912 
L 187.088391 85.13759 
L 189.327393 84.661268 
L 190.446894 84.586059 
L 191.566394 84.736477 
L 192.685895 84.736477 
L 194.924897 84.460712 
L 196.044397 84.485781 
L 197.163898 84.636198 
L 198.283399 84.636198 
L 200.5224 84.184946 
L 201.641901 84.285225 
L 205.000403 84.184946 
L 206.119904 84.460712 
L 208.358905 84.586059 
L 209.478406 84.335364 
L 211.717408 84.335364 
L 212.836908 84.611129 
L 213.956409 84.661268 
L 216.195411 84.385503 
L 216.195411 84.385503 
" clip-path="url(#ped50bfad43)" style="fill: none; stroke: #ff0000; stroke-opacity: 0.271053; stroke-width: 0.5; stroke-linecap: square"/>
   </g>
   <g id="line2d_71">
    <path d="M 217.314911 84.686338 
L 211.717408 84.661268 
L 208.358905 84.410572 
L 206.119904 84.510851 
L 205.000403 84.611129 
L 201.641901 84.586059 
L 200.5224 84.636198 
L 197.163898 84.109738 
L 196.044397 84.335364 
L 194.924897 84.435642 
L 193.805396 84.736477 
L 192.685895 84.53592 
L 191.566394 84.56099 
L 190.446894 84.410572 
L 189.327393 84.460712 
L 187.088391 84.360433 
L 183.729889 84.861825 
L 182.610388 84.786616 
L 181.490888 84.937033 
L 180.371387 84.937033 
L 178.132385 84.56099 
L 174.773883 84.786616 
L 170.29588 85.087451 
L 169.176379 85.11252 
L 166.937378 85.638981 
L 165.817877 85.839538 
L 164.698376 85.71419 
L 159.100873 86.040094 
L 152.383868 86.86739 
L 150.144867 86.992737 
L 147.905865 87.469059 
L 145.666864 87.218364 
L 144.547363 87.318642 
L 143.427862 87.669616 
L 142.308362 88.296355 
L 141.188861 88.747607 
L 140.06936 89.399416 
L 138.949859 89.299137 
L 137.830359 89.424485 
L 136.710858 89.299137 
L 133.352356 91.104146 
L 132.232855 91.505259 
L 131.113354 92.633389 
L 129.993853 96.218337 
L 126.635351 129.485648 
L 125.515851 132.418787 
L 122.157348 143.048283 
L 118.798846 150.619291 
L 117.679345 152.700065 
L 116.559845 155.081673 
L 115.440344 157.814256 
L 114.320843 160.922882 
L 113.201342 163.530116 
L 110.962341 167.89222 
L 108.723339 173.056551 
L 108.723339 173.833707 
L 109.84284 173.206968 
L 110.962341 171.401959 
L 112.081842 170.048203 
L 114.320843 166.388047 
L 116.559845 162.602542 
L 121.037848 155.83376 
L 122.157348 154.229308 
L 125.515851 148.613726 
L 127.754852 145.279474 
L 128.874353 143.449396 
L 133.352356 137.156935 
L 137.830359 130.388153 
L 140.06936 127.555292 
L 143.427862 122.767005 
L 144.547363 121.438318 
L 146.786365 118.329692 
L 150.144867 114.193214 
L 151.264368 112.588762 
L 152.383868 111.260075 
L 153.503369 110.232223 
L 155.742371 107.299084 
L 156.861871 105.744771 
L 157.981372 104.892406 
L 160.220374 102.560937 
L 161.339874 101.182111 
L 162.459375 100.028911 
L 163.578876 99.201615 
L 164.698376 98.023346 
L 169.176379 94.212772 
L 171.415381 92.307485 
L 172.534882 91.755955 
L 175.893384 89.223929 
L 178.132385 88.045659 
L 180.371387 87.093016 
L 182.610388 85.964885 
L 184.84939 85.237868 
L 188.207892 85.012242 
L 190.446894 84.636198 
L 191.566394 84.611129 
L 192.685895 84.711407 
L 193.805396 84.686338 
L 194.924897 84.435642 
L 196.044397 84.410572 
L 199.402899 84.786616 
L 201.641901 84.811685 
L 203.880902 84.53592 
L 205.000403 84.711407 
L 207.239405 84.711407 
L 209.478406 84.410572 
L 212.836908 84.285225 
L 216.195411 84.736477 
L 216.195411 84.736477 
" clip-path="url(#ped50bfad43)" style="fill: none; stroke: #ff0000; stroke-opacity: 0.305263; stroke-width: 0.5; stroke-linecap: square"/>
   </g>
   <g id="line2d_72">
    <path d="M 217.314911 84.56099 
L 215.07591 84.410572 
L 211.717408 84.711407 
L 207.239405 84.335364 
L 205.000403 84.611129 
L 203.880902 84.586059 
L 202.761402 84.736477 
L 200.5224 84.435642 
L 199.402899 84.310294 
L 198.283399 84.510851 
L 196.044397 84.611129 
L 194.924897 84.586059 
L 193.805396 84.711407 
L 192.685895 84.56099 
L 189.327393 84.611129 
L 188.207892 84.410572 
L 184.84939 84.56099 
L 181.490888 84.811685 
L 180.371387 84.736477 
L 174.773883 85.237868 
L 173.654382 85.463494 
L 171.415381 85.664051 
L 166.937378 85.989955 
L 165.817877 85.939816 
L 164.698376 86.065164 
L 163.578876 86.065164 
L 161.339874 86.742042 
L 159.100873 87.243433 
L 157.981372 87.243433 
L 156.861871 87.619477 
L 152.383868 88.622259 
L 150.144867 89.474624 
L 149.025366 89.625042 
L 147.905865 90.026155 
L 146.786365 90.652894 
L 145.666864 92.00665 
L 144.547363 93.059572 
L 142.308362 94.137563 
L 141.188861 95.742015 
L 138.949859 101.307458 
L 135.591357 108.226658 
L 134.471856 110.357571 
L 133.352356 112.16258 
L 131.113354 116.474545 
L 129.993853 118.806014 
L 128.874353 121.588736 
L 122.157348 143.073352 
L 119.918347 147.936847 
L 118.798846 150.368595 
L 117.679345 153.076108 
L 113.201342 162.276638 
L 108.723339 173.232038 
L 107.603839 175.212533 
L 107.603839 175.889411 
L 108.723339 175.137324 
L 109.84284 173.307246 
L 110.962341 171.226472 
L 113.201342 167.616455 
L 114.320843 166.062142 
L 116.559845 162.301708 
L 118.798846 158.917317 
L 122.157348 153.602569 
L 124.39635 149.791995 
L 127.754852 144.953569 
L 128.874353 143.17363 
L 133.352356 137.156935 
L 136.710858 132.017674 
L 138.949859 128.83384 
L 141.188861 125.975909 
L 144.547363 121.262831 
L 145.666864 120.034423 
L 149.025366 115.221067 
L 154.62287 108.652841 
L 156.861871 105.970397 
L 160.220374 102.661215 
L 162.459375 100.179328 
L 164.698376 98.048415 
L 166.937378 96.04285 
L 170.29588 93.260128 
L 171.415381 92.457902 
L 173.654382 90.552616 
L 174.773883 89.750389 
L 177.012885 88.747607 
L 178.132385 87.99552 
L 180.371387 86.84232 
L 181.490888 86.566555 
L 182.610388 85.989955 
L 184.84939 85.438424 
L 185.968891 85.363216 
L 187.088391 85.087451 
L 189.327393 84.736477 
L 190.446894 84.510851 
L 192.685895 84.586059 
L 199.402899 84.360433 
L 200.5224 84.485781 
L 201.641901 84.761546 
L 202.761402 84.661268 
L 203.880902 84.711407 
L 205.000403 84.510851 
L 207.239405 84.485781 
L 209.478406 84.485781 
L 211.717408 84.485781 
L 213.956409 84.786616 
L 215.07591 84.611129 
L 216.195411 84.56099 
L 216.195411 84.56099 
" clip-path="url(#ped50bfad43)" style="fill: none; stroke: #ff0000; stroke-opacity: 0.339474; stroke-width: 0.5; stroke-linecap: square"/>
   </g>
   <g id="line2d_73">
    <path d="M 217.314911 84.385503 
L 216.195411 84.285225 
L 215.07591 84.485781 
L 211.717408 84.285225 
L 199.402899 84.56099 
L 198.283399 84.460712 
L 197.163898 84.636198 
L 193.805396 84.435642 
L 192.685895 84.460712 
L 191.566394 84.611129 
L 190.446894 84.460712 
L 185.968891 84.686338 
L 183.729889 84.485781 
L 179.251886 84.661268 
L 178.132385 84.937033 
L 177.012885 85.087451 
L 175.893384 85.037311 
L 174.773883 84.861825 
L 171.415381 85.187729 
L 168.056879 84.911964 
L 165.817877 85.338146 
L 164.698376 85.463494 
L 163.578876 85.237868 
L 159.100873 85.588842 
L 157.981372 85.563772 
L 155.742371 85.864607 
L 154.62287 86.040094 
L 151.264368 86.015024 
L 150.144867 86.26572 
L 149.025366 86.165442 
L 147.905865 86.441207 
L 146.786365 86.416137 
L 142.308362 87.093016 
L 141.188861 86.942598 
L 137.830359 87.469059 
L 136.710858 87.669616 
L 135.591357 88.045659 
L 134.471856 88.095798 
L 133.352356 88.923094 
L 132.232855 89.098581 
L 131.113354 90.502476 
L 129.993853 100.63058 
L 127.754852 126.226605 
L 126.635351 130.939683 
L 124.39635 137.733535 
L 123.276849 140.466117 
L 122.157348 142.722378 
L 121.037848 145.329613 
L 119.918347 147.560804 
L 118.798846 150.1179 
L 117.679345 152.37416 
L 112.081842 164.658247 
L 109.84284 169.321186 
L 108.723339 172.154046 
L 107.603839 174.435377 
L 107.603839 175.162394 
L 108.723339 174.385237 
L 110.962341 171.201403 
L 113.201342 167.791942 
L 117.679345 160.922882 
L 121.037848 154.830978 
L 123.276849 151.79756 
L 125.515851 148.162474 
L 127.754852 144.753013 
L 129.993853 141.418761 
L 133.352356 136.680613 
L 138.949859 128.332448 
L 144.547363 120.987066 
L 146.786365 117.90351 
L 150.144867 113.917449 
L 153.503369 109.379858 
L 161.339874 100.65565 
L 163.578876 98.650085 
L 165.817877 96.895215 
L 166.937378 95.942572 
L 169.176379 93.786589 
L 171.415381 92.081859 
L 172.534882 91.530329 
L 173.654382 90.677963 
L 177.012885 88.59719 
L 178.132385 87.769894 
L 179.251886 87.118085 
L 181.490888 86.441207 
L 182.610388 85.989955 
L 183.729889 85.71419 
L 185.968891 85.363216 
L 187.088391 84.987172 
L 188.207892 84.811685 
L 189.327393 84.861825 
L 191.566394 84.661268 
L 192.685895 84.335364 
L 194.924897 84.310294 
L 196.044397 84.611129 
L 197.163898 84.586059 
L 198.283399 84.711407 
L 199.402899 84.485781 
L 201.641901 84.335364 
L 202.761402 84.260155 
L 205.000403 84.385503 
L 207.239405 84.385503 
L 210.597907 84.736477 
L 212.836908 84.686338 
L 215.07591 84.285225 
L 216.195411 84.285225 
L 216.195411 84.285225 
" clip-path="url(#ped50bfad43)" style="fill: none; stroke: #ff0000; stroke-opacity: 0.373684; stroke-width: 0.5; stroke-linecap: square"/>
   </g>
   <g id="line2d_74">
    <path d="M 217.314911 84.210016 
L 215.07591 84.310294 
L 209.478406 84.285225 
L 208.358905 84.510851 
L 206.119904 84.460712 
L 205.000403 84.235085 
L 203.880902 84.410572 
L 202.761402 84.385503 
L 201.641901 84.636198 
L 199.402899 84.686338 
L 198.283399 84.510851 
L 197.163898 84.53592 
L 196.044397 84.736477 
L 194.924897 84.811685 
L 187.088391 84.385503 
L 181.490888 84.836755 
L 179.251886 84.761546 
L 177.012885 84.811685 
L 175.893384 84.786616 
L 174.773883 84.56099 
L 171.415381 85.187729 
L 170.29588 85.087451 
L 169.176379 85.288007 
L 168.056879 85.338146 
L 166.937378 85.538703 
L 165.817877 85.313077 
L 164.698376 85.438424 
L 163.578876 85.68912 
L 162.459375 86.065164 
L 161.339874 86.215581 
L 159.100873 86.365998 
L 156.861871 86.917529 
L 155.742371 87.093016 
L 153.503369 87.093016 
L 152.383868 87.118085 
L 150.144867 87.845103 
L 149.025366 88.521981 
L 146.786365 89.574903 
L 145.666864 89.474624 
L 143.427862 89.625042 
L 142.308362 90.151503 
L 135.591357 92.307485 
L 134.471856 92.382694 
L 133.352356 92.633389 
L 132.232855 93.385476 
L 131.113354 103.087398 
L 128.874353 126.351953 
L 127.754852 129.836622 
L 125.515851 135.026022 
L 123.276849 141.092857 
L 121.037848 146.457743 
L 113.201342 163.90616 
L 112.081842 166.012003 
L 109.84284 170.875499 
L 108.723339 172.755716 
L 108.723339 173.282177 
L 109.84284 172.028698 
L 110.962341 170.474386 
L 112.081842 168.644307 
L 115.440344 163.680534 
L 117.679345 160.070516 
L 119.918347 156.385291 
L 122.157348 153.151317 
L 125.515851 147.736291 
L 126.635351 146.282256 
L 129.993853 140.792022 
L 133.352356 136.30457 
L 136.710858 131.290657 
L 137.830359 129.736344 
L 138.949859 128.382588 
L 141.188861 125.449449 
L 142.308362 123.594301 
L 144.547363 120.736371 
L 145.666864 119.683449 
L 150.144867 113.441127 
L 153.503369 109.630554 
L 154.62287 108.201589 
L 155.742371 106.572067 
L 156.861871 105.26845 
L 159.100873 103.363163 
L 161.339874 100.881276 
L 163.578876 98.90078 
L 164.698376 97.697441 
L 166.937378 95.742015 
L 168.056879 94.91472 
L 170.29588 92.909155 
L 173.654382 90.703033 
L 175.893384 89.223929 
L 177.012885 88.722537 
L 178.132385 87.820033 
L 179.251886 87.143155 
L 180.371387 86.641764 
L 181.490888 86.391068 
L 183.729889 85.563772 
L 184.84939 85.237868 
L 190.446894 84.360433 
L 191.566394 84.510851 
L 194.924897 84.335364 
L 196.044397 84.56099 
L 197.163898 84.53592 
L 198.283399 84.686338 
L 199.402899 84.485781 
L 203.880902 84.385503 
L 205.000403 84.586059 
L 208.358905 84.210016 
L 210.597907 84.611129 
L 213.956409 84.661268 
L 215.07591 84.460712 
L 216.195411 84.385503 
L 216.195411 84.385503 
" clip-path="url(#ped50bfad43)" style="fill: none; stroke: #ff0000; stroke-opacity: 0.407895; stroke-width: 0.5; stroke-linecap: square"/>
   </g>
   <g id="line2d_75">
    <path d="M 217.314911 84.510851 
L 211.717408 84.335364 
L 209.478406 84.686338 
L 202.761402 84.285225 
L 200.5224 84.636198 
L 197.163898 84.335364 
L 191.566394 84.861825 
L 188.207892 84.435642 
L 187.088391 84.56099 
L 182.610388 84.661268 
L 181.490888 84.811685 
L 178.132385 84.861825 
L 174.773883 84.736477 
L 169.176379 84.861825 
L 168.056879 85.037311 
L 166.937378 84.987172 
L 165.817877 85.087451 
L 164.698376 84.987172 
L 163.578876 85.162659 
L 156.861871 85.563772 
L 154.62287 85.864607 
L 153.503369 85.914746 
L 150.144867 86.365998 
L 147.905865 86.616694 
L 145.666864 87.218364 
L 142.308362 87.945381 
L 138.949859 89.274068 
L 137.830359 89.775459 
L 135.591357 90.577685 
L 134.471856 96.64452 
L 132.232855 114.895162 
L 131.113354 119.081779 
L 129.993853 121.012136 
L 128.874353 123.168118 
L 127.754852 125.900701 
L 126.635351 129.360301 
L 124.39635 137.081726 
L 122.157348 142.847726 
L 121.037848 145.028778 
L 118.798846 150.142969 
L 116.559845 155.407578 
L 115.440344 157.413143 
L 114.320843 159.769682 
L 113.201342 161.825386 
L 110.962341 167.466038 
L 109.84284 170.700012 
L 108.723339 172.730646 
L 108.723339 173.206968 
L 109.84284 172.154046 
L 113.201342 167.240412 
L 116.559845 161.59976 
L 118.798846 158.466064 
L 122.157348 153.602569 
L 123.276849 151.79756 
L 124.39635 149.741856 
L 125.515851 147.986987 
L 128.874353 143.273909 
L 129.993853 141.418761 
L 140.06936 127.154179 
L 141.188861 125.750283 
L 142.308362 123.920205 
L 147.905865 116.549753 
L 150.144867 114.268423 
L 152.383868 111.134728 
L 153.503369 109.705762 
L 154.62287 108.477354 
L 155.742371 107.023319 
L 160.220374 102.184893 
L 164.698376 97.722511 
L 165.817877 96.59438 
L 166.937378 95.867363 
L 168.056879 94.88965 
L 169.176379 94.087424 
L 172.534882 91.279633 
L 174.773883 89.850668 
L 175.893384 89.374346 
L 177.012885 88.59719 
L 178.132385 88.045659 
L 179.251886 87.243433 
L 180.371387 86.817251 
L 181.490888 86.26572 
L 183.729889 85.388285 
L 188.207892 84.686338 
L 189.327393 84.56099 
L 191.566394 84.636198 
L 193.805396 84.586059 
L 198.283399 84.310294 
L 201.641901 84.510851 
L 202.761402 84.335364 
L 209.478406 84.460712 
L 210.597907 84.360433 
L 212.836908 84.385503 
L 216.195411 84.485781 
L 216.195411 84.485781 
" clip-path="url(#ped50bfad43)" style="fill: none; stroke: #ff0000; stroke-opacity: 0.442105; stroke-width: 0.5; stroke-linecap: square"/>
   </g>
   <g id="line2d_76">
    <path d="M 217.314911 84.260155 
L 216.195411 84.235085 
L 213.956409 84.385503 
L 211.717408 84.360433 
L 209.478406 84.686338 
L 208.358905 84.636198 
L 207.239405 84.435642 
L 201.641901 84.260155 
L 200.5224 84.410572 
L 199.402899 84.310294 
L 198.283399 84.586059 
L 196.044397 84.686338 
L 193.805396 84.510851 
L 192.685895 84.686338 
L 188.207892 84.485781 
L 187.088391 84.686338 
L 182.610388 84.686338 
L 181.490888 84.811685 
L 180.371387 84.736477 
L 179.251886 84.886894 
L 177.012885 84.861825 
L 174.773883 84.56099 
L 172.534882 84.736477 
L 170.29588 85.237868 
L 169.176379 85.338146 
L 165.817877 85.212798 
L 162.459375 85.363216 
L 160.220374 85.71419 
L 157.981372 85.964885 
L 156.861871 85.964885 
L 154.62287 86.616694 
L 153.503369 87.067946 
L 152.383868 87.343711 
L 151.264368 87.343711 
L 150.144867 87.569337 
L 149.025366 87.469059 
L 145.666864 88.171007 
L 144.547363 88.446772 
L 141.188861 88.346494 
L 138.949859 88.57212 
L 136.710858 89.324207 
L 135.591357 90.778242 
L 134.471856 92.00665 
L 133.352356 92.633389 
L 132.232855 92.232276 
L 131.113354 100.931415 
L 128.874353 124.145831 
L 127.754852 128.081753 
L 126.635351 130.714057 
L 125.515851 133.672266 
L 124.39635 137.006518 
L 122.157348 142.722378 
L 121.037848 145.103987 
L 118.798846 151.045473 
L 115.440344 158.390856 
L 114.320843 160.672186 
L 113.201342 162.627612 
L 112.081842 164.883873 
L 109.84284 170.248759 
L 108.723339 172.680507 
L 107.603839 174.385237 
L 107.603839 175.087185 
L 108.723339 174.159611 
L 112.081842 168.869933 
L 114.320843 165.661029 
L 116.559845 161.925664 
L 118.798846 158.666621 
L 122.157348 153.351873 
L 125.515851 148.438239 
L 128.874353 143.424326 
L 129.993853 141.970291 
L 134.471856 135.226579 
L 136.710858 132.218231 
L 142.308362 123.719649 
L 145.666864 119.708518 
L 149.025366 114.99544 
L 152.383868 111.059519 
L 155.742371 107.073458 
L 156.861871 105.870119 
L 157.981372 104.441154 
L 159.100873 103.613858 
L 160.220374 102.235032 
L 161.339874 101.282389 
L 163.578876 98.975989 
L 165.817877 96.744798 
L 169.176379 93.987146 
L 171.415381 92.182137 
L 175.893384 89.223929 
L 177.012885 88.697468 
L 178.132385 87.99552 
L 180.371387 86.917529 
L 181.490888 86.466277 
L 182.610388 85.839538 
L 184.84939 85.087451 
L 185.968891 84.987172 
L 187.088391 85.012242 
L 190.446894 84.586059 
L 191.566394 84.636198 
L 193.805396 84.586059 
L 194.924897 84.736477 
L 198.283399 84.235085 
L 200.5224 84.586059 
L 201.641901 84.611129 
L 202.761402 84.435642 
L 206.119904 84.611129 
L 207.239405 84.736477 
L 210.597907 84.335364 
L 212.836908 84.460712 
L 213.956409 84.56099 
L 215.07591 84.385503 
L 216.195411 84.360433 
L 216.195411 84.360433 
" clip-path="url(#ped50bfad43)" style="fill: none; stroke: #ff0000; stroke-opacity: 0.476316; stroke-width: 0.5; stroke-linecap: square"/>
   </g>
   <g id="line2d_77">
    <path d="M 217.314911 84.56099 
L 216.195411 84.460712 
L 215.07591 84.711407 
L 212.836908 84.786616 
L 211.717408 84.586059 
L 210.597907 84.260155 
L 208.358905 84.435642 
L 207.239405 84.485781 
L 205.000403 84.260155 
L 203.880902 84.335364 
L 202.761402 84.235085 
L 201.641901 84.410572 
L 200.5224 84.460712 
L 199.402899 84.661268 
L 198.283399 84.53592 
L 194.924897 84.686338 
L 193.805396 84.56099 
L 189.327393 84.686338 
L 187.088391 84.435642 
L 185.968891 84.435642 
L 183.729889 84.636198 
L 178.132385 84.686338 
L 177.012885 84.761546 
L 175.893384 84.962103 
L 172.534882 84.611129 
L 170.29588 84.586059 
L 165.817877 85.11252 
L 164.698376 84.861825 
L 163.578876 85.11252 
L 162.459375 85.212798 
L 161.339874 85.513633 
L 159.100873 85.613911 
L 156.861871 85.438424 
L 155.742371 85.613911 
L 152.383868 85.638981 
L 150.144867 86.090233 
L 149.025366 86.441207 
L 147.905865 86.591624 
L 146.786365 86.917529 
L 145.666864 87.067946 
L 144.547363 87.41892 
L 143.427862 87.469059 
L 142.308362 87.744824 
L 140.06936 87.97045 
L 138.949859 88.998303 
L 137.830359 94.939789 
L 135.591357 109.505206 
L 134.471856 112.914667 
L 132.232855 118.45504 
L 128.874353 125.650005 
L 127.754852 128.357518 
L 126.635351 131.6667 
L 123.276849 139.964726 
L 121.037848 144.90343 
L 115.440344 158.491134 
L 114.320843 160.872743 
L 110.962341 166.914507 
L 108.723339 172.154046 
L 107.603839 174.23482 
L 107.603839 174.861559 
L 108.723339 174.109472 
L 110.962341 170.77522 
L 112.081842 168.920073 
L 113.201342 167.34069 
L 115.440344 163.680534 
L 117.679345 160.020377 
L 122.157348 153.402012 
L 125.515851 148.187543 
L 127.754852 145.204265 
L 134.471856 135.1263 
L 138.949859 128.683422 
L 141.188861 126.026049 
L 143.427862 122.49124 
L 144.547363 121.062275 
L 145.666864 119.858936 
L 149.025366 115.221067 
L 152.383868 111.084588 
L 154.62287 108.652841 
L 156.861871 105.995467 
L 157.981372 104.967615 
L 162.459375 100.028911 
L 163.578876 99.101337 
L 165.817877 96.64452 
L 166.937378 95.666807 
L 169.176379 94.262911 
L 170.29588 93.285198 
L 171.415381 92.482972 
L 172.534882 91.480189 
L 178.132385 88.02059 
L 179.251886 87.41892 
L 184.84939 85.363216 
L 185.968891 85.012242 
L 189.327393 84.836755 
L 190.446894 84.937033 
L 191.566394 84.736477 
L 192.685895 84.736477 
L 193.805396 84.485781 
L 198.283399 84.56099 
L 200.5224 84.385503 
L 203.880902 84.460712 
L 206.119904 84.761546 
L 209.478406 84.210016 
L 210.597907 84.235085 
L 211.717408 84.460712 
L 212.836908 84.310294 
L 213.956409 84.385503 
L 215.07591 84.310294 
L 216.195411 84.485781 
L 216.195411 84.485781 
" clip-path="url(#ped50bfad43)" style="fill: none; stroke: #ff0000; stroke-opacity: 0.510526; stroke-width: 0.5; stroke-linecap: square"/>
   </g>
   <g id="line2d_78">
    <path d="M 217.314911 84.410572 
L 215.07591 84.56099 
L 212.836908 84.686338 
L 211.717408 84.586059 
L 210.597907 84.686338 
L 209.478406 84.611129 
L 208.358905 84.661268 
L 207.239405 84.410572 
L 203.880902 84.385503 
L 202.761402 84.56099 
L 201.641901 84.510851 
L 200.5224 84.661268 
L 197.163898 84.636198 
L 196.044397 84.53592 
L 189.327393 84.636198 
L 188.207892 84.385503 
L 187.088391 84.435642 
L 184.84939 84.686338 
L 183.729889 84.786616 
L 181.490888 84.736477 
L 178.132385 85.363216 
L 175.893384 85.13759 
L 174.773883 85.262938 
L 172.534882 85.789398 
L 170.29588 85.68912 
L 168.056879 85.989955 
L 163.578876 86.491346 
L 162.459375 86.666833 
L 157.981372 87.769894 
L 154.62287 87.99552 
L 152.383868 88.496911 
L 151.264368 89.098581 
L 150.144867 89.299137 
L 147.905865 89.12365 
L 146.786365 88.948163 
L 145.666864 89.048442 
L 144.547363 89.023372 
L 143.427862 89.424485 
L 142.308362 89.675181 
L 141.188861 90.577685 
L 140.06936 91.630607 
L 138.949859 92.984363 
L 137.830359 93.937007 
L 136.710858 95.265694 
L 135.591357 100.806067 
L 134.471856 106.923041 
L 133.352356 113.767032 
L 132.232855 116.324127 
L 131.113354 119.683449 
L 129.993853 122.416031 
L 128.874353 125.624936 
L 124.39635 135.7029 
L 122.157348 141.418761 
L 119.918347 147.610943 
L 118.798846 149.867204 
L 116.559845 153.853265 
L 113.201342 162.076082 
L 112.081842 164.583038 
L 109.84284 170.474386 
L 108.723339 172.50502 
L 108.723339 172.881064 
L 109.84284 171.702794 
L 116.559845 161.624829 
L 128.874353 142.697309 
L 131.113354 139.488404 
L 133.352356 136.104013 
L 138.949859 127.931335 
L 149.025366 114.719675 
L 150.144867 113.516336 
L 152.383868 110.733615 
L 154.62287 108.076241 
L 156.861871 105.318589 
L 159.100873 103.087398 
L 160.220374 101.80885 
L 161.339874 100.780998 
L 163.578876 99.126406 
L 164.698376 98.073485 
L 165.817877 96.719728 
L 169.176379 93.886868 
L 172.534882 91.279633 
L 173.654382 90.502476 
L 177.012885 88.697468 
L 180.371387 87.042877 
L 181.490888 86.340929 
L 183.729889 85.388285 
L 185.968891 84.886894 
L 188.207892 84.686338 
L 190.446894 84.435642 
L 191.566394 84.636198 
L 193.805396 84.711407 
L 194.924897 84.510851 
L 196.044397 84.586059 
L 199.402899 84.159877 
L 201.641901 84.485781 
L 203.880902 84.686338 
L 205.000403 84.811685 
L 207.239405 84.686338 
L 209.478406 84.510851 
L 215.07591 84.435642 
L 216.195411 84.485781 
L 216.195411 84.485781 
" clip-path="url(#ped50bfad43)" style="fill: none; stroke: #ff0000; stroke-opacity: 0.544737; stroke-width: 0.5; stroke-linecap: square"/>
   </g>
   <g id="line2d_79">
    <path d="M 217.314911 84.310294 
L 216.195411 84.235085 
L 215.07591 84.410572 
L 211.717408 84.385503 
L 209.478406 84.159877 
L 203.880902 84.586059 
L 202.761402 84.385503 
L 196.044397 84.56099 
L 194.924897 84.360433 
L 192.685895 84.385503 
L 191.566394 84.636198 
L 190.446894 84.435642 
L 187.088391 84.861825 
L 185.968891 84.636198 
L 183.729889 84.636198 
L 182.610388 84.761546 
L 181.490888 84.636198 
L 179.251886 84.811685 
L 178.132385 84.962103 
L 175.893384 84.736477 
L 172.534882 84.886894 
L 169.176379 85.187729 
L 168.056879 85.087451 
L 163.578876 85.288007 
L 157.981372 85.939816 
L 156.861871 85.864607 
L 152.383868 86.115303 
L 151.264368 86.516416 
L 149.025366 87.093016 
L 147.905865 87.143155 
L 140.06936 89.349276 
L 137.830359 89.599972 
L 136.710858 89.675181 
L 135.591357 89.875737 
L 134.471856 90.577685 
L 133.352356 91.630607 
L 131.113354 111.711328 
L 129.993853 122.416031 
L 125.515851 135.376996 
L 123.276849 140.792022 
L 122.157348 142.697309 
L 119.918347 147.711221 
L 118.798846 150.64436 
L 117.679345 152.97583 
L 115.440344 158.090021 
L 112.081842 165.385264 
L 109.84284 170.674942 
L 108.723339 172.855994 
L 107.603839 174.410307 
L 107.603839 174.936768 
L 108.723339 174.084403 
L 118.798846 158.917317 
L 121.037848 155.432647 
L 125.515851 148.613726 
L 126.635351 147.034343 
L 129.993853 141.544109 
L 131.113354 140.140213 
L 132.232855 138.510691 
L 134.471856 134.975883 
L 137.830359 130.212666 
L 143.427862 122.340823 
L 144.547363 120.911858 
L 145.666864 119.683449 
L 151.264368 112.012162 
L 152.383868 110.608267 
L 155.742371 107.073458 
L 160.220374 102.084615 
L 162.459375 100.05398 
L 163.578876 98.975989 
L 164.698376 97.622233 
L 165.817877 96.719728 
L 166.937378 95.666807 
L 168.056879 94.864581 
L 170.29588 92.909155 
L 175.893384 89.198859 
L 177.012885 88.371563 
L 178.132385 87.920311 
L 179.251886 87.293572 
L 181.490888 86.616694 
L 187.088391 84.811685 
L 188.207892 84.661268 
L 189.327393 84.736477 
L 190.446894 84.611129 
L 191.566394 84.661268 
L 192.685895 84.586059 
L 193.805396 84.661268 
L 197.163898 84.084668 
L 200.5224 84.310294 
L 201.641901 84.260155 
L 202.761402 84.460712 
L 205.000403 84.56099 
L 206.119904 84.56099 
L 207.239405 84.360433 
L 208.358905 84.410572 
L 209.478406 84.335364 
L 210.597907 84.53592 
L 211.717408 84.460712 
L 212.836908 84.56099 
L 213.956409 84.460712 
L 215.07591 84.53592 
L 216.195411 84.410572 
L 216.195411 84.410572 
" clip-path="url(#ped50bfad43)" style="fill: none; stroke: #ff0000; stroke-opacity: 0.578947; stroke-width: 0.5; stroke-linecap: square"/>
   </g>
   <g id="line2d_80">
    <path d="M 217.314911 84.285225 
L 216.195411 84.235085 
L 215.07591 84.310294 
L 212.836908 84.686338 
L 210.597907 84.711407 
L 209.478406 84.510851 
L 207.239405 84.360433 
L 206.119904 84.485781 
L 194.924897 84.435642 
L 193.805396 84.360433 
L 191.566394 84.611129 
L 189.327393 84.360433 
L 188.207892 84.53592 
L 185.968891 84.53592 
L 184.84939 84.260155 
L 182.610388 84.360433 
L 181.490888 84.736477 
L 179.251886 84.786616 
L 178.132385 84.611129 
L 175.893384 84.711407 
L 170.29588 84.911964 
L 169.176379 84.987172 
L 168.056879 85.187729 
L 166.937378 85.187729 
L 165.817877 85.538703 
L 163.578876 85.588842 
L 161.339874 85.363216 
L 160.220374 85.613911 
L 159.100873 85.438424 
L 155.742371 86.115303 
L 154.62287 86.441207 
L 152.383868 86.792181 
L 150.144867 86.641764 
L 149.025366 86.792181 
L 146.786365 87.318642 
L 145.666864 87.794964 
L 144.547363 88.095798 
L 143.427862 88.772677 
L 138.949859 89.324207 
L 137.830359 89.650111 
L 136.710858 89.825598 
L 134.471856 90.552616 
L 132.232855 91.730885 
L 131.113354 97.521954 
L 129.993853 105.669563 
L 128.874353 114.819953 
L 126.635351 124.446666 
L 124.39635 133.622126 
L 122.157348 140.466117 
L 121.037848 143.324048 
L 119.918347 145.705656 
L 118.798846 148.688934 
L 117.679345 151.296169 
L 116.559845 154.254378 
L 115.440344 156.560777 
L 114.320843 159.644334 
L 113.201342 162.251569 
L 112.081842 165.234847 
L 109.84284 170.474386 
L 108.723339 173.382455 
L 107.603839 175.287742 
L 107.603839 175.814203 
L 108.723339 174.585794 
L 110.962341 170.649872 
L 115.440344 163.429838 
L 116.559845 161.449342 
L 118.798846 158.566343 
L 122.157348 152.850482 
L 123.276849 151.396447 
L 132.232855 137.783674 
L 134.471856 134.198726 
L 136.710858 131.365866 
L 138.949859 128.031614 
L 140.06936 126.402092 
L 141.188861 125.023266 
L 142.308362 123.243327 
L 144.547363 120.485675 
L 145.666864 119.307405 
L 147.905865 116.098501 
L 149.025366 114.694606 
L 150.144867 113.541406 
L 154.62287 107.800476 
L 156.861871 105.569284 
L 157.981372 104.491293 
L 161.339874 100.65565 
L 162.459375 99.778215 
L 163.578876 98.675154 
L 164.698376 97.371537 
L 165.817877 96.343685 
L 168.056879 94.613885 
L 169.176379 93.485755 
L 171.415381 91.856233 
L 172.534882 91.43005 
L 173.654382 90.677963 
L 174.773883 90.151503 
L 177.012885 88.722537 
L 182.610388 85.914746 
L 183.729889 85.413355 
L 184.84939 85.363216 
L 185.968891 85.187729 
L 187.088391 85.187729 
L 189.327393 84.761546 
L 191.566394 84.686338 
L 192.685895 84.736477 
L 194.924897 84.310294 
L 197.163898 84.435642 
L 198.283399 84.56099 
L 200.5224 84.510851 
L 202.761402 84.360433 
L 206.119904 84.761546 
L 209.478406 84.335364 
L 211.717408 84.711407 
L 216.195411 84.410572 
L 216.195411 84.410572 
" clip-path="url(#ped50bfad43)" style="fill: none; stroke: #ff0000; stroke-opacity: 0.613158; stroke-width: 0.5; stroke-linecap: square"/>
   </g>
   <g id="line2d_81">
    <path d="M 217.314911 84.410572 
L 213.956409 84.53592 
L 211.717408 84.410572 
L 209.478406 84.485781 
L 206.119904 84.661268 
L 202.761402 84.435642 
L 200.5224 84.53592 
L 197.163898 84.235085 
L 196.044397 84.310294 
L 193.805396 84.761546 
L 192.685895 84.636198 
L 191.566394 84.711407 
L 188.207892 84.385503 
L 187.088391 84.385503 
L 183.729889 85.11252 
L 181.490888 85.237868 
L 180.371387 85.11252 
L 171.415381 85.488564 
L 170.29588 85.839538 
L 166.937378 86.441207 
L 165.817877 86.516416 
L 164.698376 86.86739 
L 162.459375 87.243433 
L 161.339874 87.218364 
L 160.220374 87.519198 
L 159.100873 87.644546 
L 157.981372 87.97045 
L 156.861871 88.095798 
L 154.62287 88.797746 
L 153.503369 89.048442 
L 150.144867 90.251781 
L 149.025366 90.677963 
L 147.905865 91.254563 
L 146.786365 91.630607 
L 145.666864 92.157068 
L 144.547363 92.432833 
L 143.427862 93.034502 
L 142.308362 93.18492 
L 141.188861 93.535894 
L 140.06936 94.939789 
L 138.949859 97.647302 
L 137.830359 101.081832 
L 136.710858 103.714137 
L 135.591357 106.722484 
L 134.471856 109.204371 
L 133.352356 112.413275 
L 132.232855 114.719675 
L 131.113354 117.978719 
L 129.993853 120.661162 
L 128.874353 123.819927 
L 126.635351 129.009327 
L 125.515851 131.265587 
L 123.276849 137.307352 
L 122.157348 140.691744 
L 121.037848 143.474465 
L 118.798846 149.616508 
L 117.679345 152.39923 
L 116.559845 154.429865 
L 114.320843 159.393638 
L 113.201342 162.502264 
L 112.081842 164.808664 
L 108.723339 172.906133 
L 108.723339 173.583011 
L 109.84284 172.580229 
L 118.798846 159.117873 
L 121.037848 155.307299 
L 122.157348 153.903404 
L 124.39635 150.343526 
L 125.515851 148.287821 
L 127.754852 145.129056 
L 129.993853 141.44383 
L 132.232855 138.184787 
L 134.471856 134.800396 
L 135.591357 133.3965 
L 143.427862 122.165336 
L 146.786365 117.803232 
L 149.025366 114.945301 
L 151.264368 112.012162 
L 155.742371 106.42165 
L 156.861871 105.343658 
L 159.100873 103.413302 
L 161.339874 100.63058 
L 163.578876 98.825572 
L 164.698376 97.872928 
L 166.937378 95.716946 
L 172.534882 91.204424 
L 174.773883 89.675181 
L 177.012885 88.496911 
L 178.132385 87.99552 
L 179.251886 87.268503 
L 181.490888 86.165442 
L 184.84939 85.488564 
L 185.968891 85.11252 
L 188.207892 84.711407 
L 189.327393 84.661268 
L 190.446894 84.485781 
L 191.566394 84.686338 
L 198.283399 84.385503 
L 200.5224 84.736477 
L 201.641901 84.636198 
L 202.761402 84.410572 
L 205.000403 84.385503 
L 206.119904 84.56099 
L 209.478406 84.260155 
L 210.597907 84.360433 
L 211.717408 84.661268 
L 212.836908 84.510851 
L 215.07591 84.485781 
L 216.195411 84.56099 
L 216.195411 84.56099 
" clip-path="url(#ped50bfad43)" style="fill: none; stroke: #ff0000; stroke-opacity: 0.647368; stroke-width: 0.5; stroke-linecap: square"/>
   </g>
   <g id="line2d_82">
    <path d="M 217.314911 84.861825 
L 216.195411 84.911964 
L 213.956409 84.310294 
L 207.239405 84.360433 
L 200.5224 84.761546 
L 199.402899 84.686338 
L 198.283399 84.736477 
L 197.163898 84.460712 
L 193.805396 84.460712 
L 190.446894 84.435642 
L 189.327393 84.335364 
L 187.088391 84.611129 
L 184.84939 85.037311 
L 183.729889 84.987172 
L 182.610388 85.062381 
L 181.490888 84.911964 
L 178.132385 85.237868 
L 175.893384 85.388285 
L 172.534882 86.190511 
L 169.176379 86.015024 
L 166.937378 86.29079 
L 165.817877 86.616694 
L 154.62287 88.421703 
L 151.264368 89.424485 
L 147.905865 90.101363 
L 146.786365 90.452337 
L 145.666864 90.502476 
L 142.308362 90.076294 
L 141.188861 90.452337 
L 140.06936 91.505259 
L 137.830359 93.911937 
L 136.710858 94.187702 
L 135.591357 95.014998 
L 134.471856 96.870146 
L 132.232855 110.131945 
L 131.113354 117.602675 
L 128.874353 125.900701 
L 127.754852 129.184814 
L 125.515851 133.99817 
L 124.39635 136.179222 
L 123.276849 138.936874 
L 121.037848 143.574743 
L 119.918347 146.181978 
L 115.440344 157.513421 
L 113.201342 162.226499 
L 112.081842 164.758525 
L 109.84284 170.725081 
L 108.723339 172.855994 
L 108.723339 173.783568 
L 109.84284 172.830925 
L 110.962341 171.301681 
L 114.320843 165.661029 
L 115.440344 163.479977 
L 128.874353 142.922935 
L 131.113354 139.789239 
L 133.352356 136.104013 
L 135.591357 132.84497 
L 136.710858 131.265587 
L 137.830359 129.435509 
L 142.308362 123.468953 
L 144.547363 120.360327 
L 150.144867 113.365919 
L 152.383868 110.482919 
L 154.62287 108.151449 
L 155.742371 106.647276 
L 159.100873 103.112467 
L 160.220374 101.833919 
L 162.459375 99.652867 
L 165.817877 96.343685 
L 168.056879 94.664024 
L 170.29588 92.758737 
L 174.773883 89.850668 
L 175.893384 89.098581 
L 180.371387 86.792181 
L 181.490888 86.391068 
L 182.610388 85.814468 
L 185.968891 85.237868 
L 187.088391 84.836755 
L 188.207892 84.586059 
L 189.327393 84.460712 
L 190.446894 84.611129 
L 192.685895 84.53592 
L 199.402899 84.611129 
L 201.641901 84.56099 
L 203.880902 84.56099 
L 205.000403 84.510851 
L 207.239405 84.686338 
L 208.358905 84.586059 
L 209.478406 84.335364 
L 210.597907 84.235085 
L 213.956409 84.360433 
L 215.07591 84.260155 
L 216.195411 84.285225 
L 216.195411 84.285225 
" clip-path="url(#ped50bfad43)" style="fill: none; stroke: #ff0000; stroke-opacity: 0.681579; stroke-width: 0.5; stroke-linecap: square"/>
   </g>
   <g id="line2d_83">
    <path d="M 217.314911 84.811685 
L 216.195411 84.836755 
L 212.836908 84.485781 
L 211.717408 84.360433 
L 208.358905 84.385503 
L 206.119904 84.285225 
L 203.880902 84.510851 
L 199.402899 84.836755 
L 198.283399 84.611129 
L 194.924897 84.510851 
L 193.805396 84.636198 
L 191.566394 84.56099 
L 190.446894 84.385503 
L 184.84939 84.611129 
L 183.729889 84.661268 
L 182.610388 84.586059 
L 181.490888 84.736477 
L 180.371387 84.636198 
L 177.012885 84.962103 
L 175.893384 85.288007 
L 172.534882 85.262938 
L 171.415381 85.338146 
L 170.29588 85.613911 
L 169.176379 85.588842 
L 168.056879 85.71419 
L 165.817877 85.68912 
L 164.698376 85.989955 
L 161.339874 86.365998 
L 160.220374 86.666833 
L 159.100873 86.817251 
L 157.981372 86.84232 
L 154.62287 87.494129 
L 153.503369 87.494129 
L 152.383868 87.820033 
L 151.264368 88.271285 
L 149.025366 88.747607 
L 147.905865 88.998303 
L 146.786365 89.625042 
L 145.666864 89.925876 
L 144.547363 89.72532 
L 143.427862 89.875737 
L 142.308362 89.750389 
L 141.188861 90.30192 
L 140.06936 92.157068 
L 137.830359 100.279606 
L 136.710858 103.363163 
L 135.591357 105.469006 
L 134.471856 107.975963 
L 132.232855 113.817171 
L 131.113354 117.377049 
L 128.874353 123.443883 
L 125.515851 132.042744 
L 124.39635 134.223796 
L 122.157348 139.563613 
L 119.918347 145.48003 
L 117.679345 150.895056 
L 115.440344 155.83376 
L 110.962341 166.438186 
L 109.84284 169.722299 
L 108.723339 172.354603 
L 107.603839 174.460446 
L 107.603839 175.237603 
L 108.723339 174.711142 
L 109.84284 173.056551 
L 110.962341 170.80029 
L 112.081842 168.869933 
L 113.201342 167.265481 
L 114.320843 165.886655 
L 116.559845 162.577473 
L 118.798846 159.142943 
L 121.037848 155.432647 
L 122.157348 153.752986 
L 124.39635 149.892273 
L 126.635351 146.683369 
L 127.754852 145.129056 
L 131.113354 139.889517 
L 132.232855 138.435483 
L 136.710858 131.741909 
L 138.949859 128.332448 
L 141.188861 125.524657 
L 142.308362 123.719649 
L 145.666864 119.658379 
L 146.786365 117.87844 
L 150.144867 113.591545 
L 151.264368 111.987093 
L 153.503369 109.354789 
L 159.100873 103.338093 
L 164.698376 97.446746 
L 166.937378 95.616667 
L 168.056879 94.91472 
L 169.176379 93.836728 
L 172.534882 91.730885 
L 175.893384 89.198859 
L 177.012885 88.647329 
L 178.132385 87.97045 
L 183.729889 85.71419 
L 184.84939 85.413355 
L 185.968891 85.313077 
L 187.088391 84.911964 
L 189.327393 84.460712 
L 191.566394 84.736477 
L 192.685895 84.736477 
L 194.924897 84.385503 
L 197.163898 84.485781 
L 202.761402 84.385503 
L 203.880902 84.661268 
L 206.119904 84.886894 
L 212.836908 84.235085 
L 216.195411 84.385503 
L 216.195411 84.385503 
" clip-path="url(#ped50bfad43)" style="fill: none; stroke: #ff0000; stroke-opacity: 0.715789; stroke-width: 0.5; stroke-linecap: square"/>
   </g>
   <g id="line2d_84">
    <path d="M 102.118285 84.460712 
L 222.800465 84.460712 
" clip-path="url(#ped50bfad43)" style="fill: none; stroke: #000000; stroke-opacity: 0.25; stroke-width: 0.25; stroke-linecap: square"/>
   </g>
   <g id="line2d_85">
    <path d="M 216.811136 184.02351 
L 216.811136 3.00024 
" clip-path="url(#ped50bfad43)" style="fill: none; stroke: #000000; stroke-opacity: 0.25; stroke-width: 0.25; stroke-linecap: square"/>
   </g>
   <g id="patch_3">
    <path d="M 102.118285 184.02351 
L 102.118285 3.00024 
" style="fill: none; stroke: #000000; stroke-width: 0.8; stroke-linejoin: miter; stroke-linecap: square"/>
   </g>
   <g id="patch_4">
    <path d="M 222.800465 184.02351 
L 222.800465 3.00024 
" style="fill: none; stroke: #000000; stroke-width: 0.8; stroke-linejoin: miter; stroke-linecap: square"/>
   </g>
   <g id="patch_5">
    <path d="M 102.118285 184.02351 
L 222.800465 184.02351 
" style="fill: none; stroke: #000000; stroke-width: 0.8; stroke-linejoin: miter; stroke-linecap: square"/>
   </g>
   <g id="patch_6">
    <path d="M 102.118285 3.00024 
L 222.800465 3.00024 
" style="fill: none; stroke: #000000; stroke-width: 0.8; stroke-linejoin: miter; stroke-linecap: square"/>
   </g>
  </g>
 </g>
 <defs>
  <clipPath id="ped50bfad43">
   <rect x="102.118285" y="3.00024" width="120.68218" height="181.02327"/>
  </clipPath>
 </defs>
</svg>
