<?xml version="1.0" encoding="utf-8" standalone="no"?>
<!DOCTYPE svg PUBLIC "-//W3C//DTD SVG 1.1//EN"
  "http://www.w3.org/Graphics/SVG/1.1/DTD/svg11.dtd">
<svg xmlns:xlink="http://www.w3.org/1999/xlink" width="288pt" height="216pt" viewBox="0 0 288 216" xmlns="http://www.w3.org/2000/svg" version="1.1">
 <metadata>
  <rdf:RDF xmlns:dc="http://purl.org/dc/elements/1.1/" xmlns:cc="http://creativecommons.org/ns#" xmlns:rdf="http://www.w3.org/1999/02/22-rdf-syntax-ns#">
   <cc:Work>
    <dc:type rdf:resource="http://purl.org/dc/dcmitype/StillImage"/>
    <dc:date>2024-12-22T21:00:44.765410</dc:date>
    <dc:format>image/svg+xml</dc:format>
    <dc:creator>
     <cc:Agent>
      <dc:title>Matplotlib v3.6.0, https://matplotlib.org/</dc:title>
     </cc:Agent>
    </dc:creator>
   </cc:Work>
  </rdf:RDF>
 </metadata>
 <defs>
  <style type="text/css">*{stroke-linejoin: round; stroke-linecap: butt}</style>
 </defs>
 <g id="figure_1">
  <g id="patch_1">
   <path d="M 0 216 
L 288 216 
L 288 0 
L 0 0 
z
" style="fill: #ffffff"/>
  </g>
  <g id="axes_1">
   <g id="patch_2">
    <path d="M 120.553245 186.121635 
L 212.113943 186.121635 
L 212.113943 3.00024 
L 120.553245 3.00024 
z
" style="fill: #ffffff"/>
   </g>
   <g id="matplotlib.axis_1">
    <g id="xtick_1">
     <g id="line2d_1">
      <defs>
       <path id="mbf466e9016" d="M 0 0 
L 0 -3.5 
" style="stroke: #000000; stroke-width: 0.8"/>
      </defs>
      <g>
       <use xlink:href="#mbf466e9016" x="124.715095" y="186.121635" style="stroke: #000000; stroke-width: 0.8"/>
      </g>
     </g>
     <g id="line2d_2">
      <defs>
       <path id="m560b8b26e3" d="M 0 0 
L 0 3.5 
" style="stroke: #000000; stroke-width: 0.8"/>
      </defs>
      <g>
       <use xlink:href="#m560b8b26e3" x="124.715095" y="3.00024" style="stroke: #000000; stroke-width: 0.8"/>
      </g>
     </g>
     <g id="text_1">
      <!-- 0.0 -->
      <g transform="translate(116.763532 197.220073) scale(0.1 -0.1)">
       <defs>
        <path id="DejaVuSans-30" d="M 2034 4250 
Q 1547 4250 1301 3770 
Q 1056 3291 1056 2328 
Q 1056 1369 1301 889 
Q 1547 409 2034 409 
Q 2525 409 2770 889 
Q 3016 1369 3016 2328 
Q 3016 3291 2770 3770 
Q 2525 4250 2034 4250 
z
M 2034 4750 
Q 2819 4750 3233 4129 
Q 3647 3509 3647 2328 
Q 3647 1150 3233 529 
Q 2819 -91 2034 -91 
Q 1250 -91 836 529 
Q 422 1150 422 2328 
Q 422 3509 836 4129 
Q 1250 4750 2034 4750 
z
" transform="scale(0.015625)"/>
        <path id="DejaVuSans-2e" d="M 684 794 
L 1344 794 
L 1344 0 
L 684 0 
L 684 794 
z
" transform="scale(0.015625)"/>
       </defs>
       <use xlink:href="#DejaVuSans-30"/>
       <use xlink:href="#DejaVuSans-2e" x="63.623047"/>
       <use xlink:href="#DejaVuSans-30" x="95.410156"/>
      </g>
     </g>
    </g>
    <g id="xtick_2">
     <g id="line2d_3">
      <g>
       <use xlink:href="#mbf466e9016" x="161.773654" y="186.121635" style="stroke: #000000; stroke-width: 0.8"/>
      </g>
     </g>
     <g id="line2d_4">
      <g>
       <use xlink:href="#m560b8b26e3" x="161.773654" y="3.00024" style="stroke: #000000; stroke-width: 0.8"/>
      </g>
     </g>
     <g id="text_2">
      <!-- 0.5 -->
      <g transform="translate(153.822091 197.220073) scale(0.1 -0.1)">
       <defs>
        <path id="DejaVuSans-35" d="M 691 4666 
L 3169 4666 
L 3169 4134 
L 1269 4134 
L 1269 2991 
Q 1406 3038 1543 3061 
Q 1681 3084 1819 3084 
Q 2600 3084 3056 2656 
Q 3513 2228 3513 1497 
Q 3513 744 3044 326 
Q 2575 -91 1722 -91 
Q 1428 -91 1123 -41 
Q 819 9 494 109 
L 494 744 
Q 775 591 1075 516 
Q 1375 441 1709 441 
Q 2250 441 2565 725 
Q 2881 1009 2881 1497 
Q 2881 1984 2565 2268 
Q 2250 2553 1709 2553 
Q 1456 2553 1204 2497 
Q 953 2441 691 2322 
L 691 4666 
z
" transform="scale(0.015625)"/>
       </defs>
       <use xlink:href="#DejaVuSans-30"/>
       <use xlink:href="#DejaVuSans-2e" x="63.623047"/>
       <use xlink:href="#DejaVuSans-35" x="95.410156"/>
      </g>
     </g>
    </g>
    <g id="xtick_3">
     <g id="line2d_5">
      <g>
       <use xlink:href="#mbf466e9016" x="198.832213" y="186.121635" style="stroke: #000000; stroke-width: 0.8"/>
      </g>
     </g>
     <g id="line2d_6">
      <g>
       <use xlink:href="#m560b8b26e3" x="198.832213" y="3.00024" style="stroke: #000000; stroke-width: 0.8"/>
      </g>
     </g>
     <g id="text_3">
      <!-- 1.0 -->
      <g transform="translate(190.88065 197.220073) scale(0.1 -0.1)">
       <defs>
        <path id="DejaVuSans-31" d="M 794 531 
L 1825 531 
L 1825 4091 
L 703 3866 
L 703 4441 
L 1819 4666 
L 2450 4666 
L 2450 531 
L 3481 531 
L 3481 0 
L 794 0 
L 794 531 
z
" transform="scale(0.015625)"/>
       </defs>
       <use xlink:href="#DejaVuSans-31"/>
       <use xlink:href="#DejaVuSans-2e" x="63.623047"/>
       <use xlink:href="#DejaVuSans-30" x="95.410156"/>
      </g>
     </g>
    </g>
    <g id="xtick_4">
     <g id="line2d_7">
      <defs>
       <path id="m0d190d7308" d="M 0 0 
L 0 -2 
" style="stroke: #000000; stroke-width: 0.6"/>
      </defs>
      <g>
       <use xlink:href="#m0d190d7308" x="143.244374" y="186.121635" style="stroke: #000000; stroke-width: 0.6"/>
      </g>
     </g>
     <g id="line2d_8">
      <defs>
       <path id="m1c1a10ecf3" d="M 0 0 
L 0 2 
" style="stroke: #000000; stroke-width: 0.6"/>
      </defs>
      <g>
       <use xlink:href="#m1c1a10ecf3" x="143.244374" y="3.00024" style="stroke: #000000; stroke-width: 0.6"/>
      </g>
     </g>
    </g>
    <g id="xtick_5">
     <g id="line2d_9">
      <g>
       <use xlink:href="#m0d190d7308" x="180.302933" y="186.121635" style="stroke: #000000; stroke-width: 0.6"/>
      </g>
     </g>
     <g id="line2d_10">
      <g>
       <use xlink:href="#m1c1a10ecf3" x="180.302933" y="3.00024" style="stroke: #000000; stroke-width: 0.6"/>
      </g>
     </g>
    </g>
    <g id="text_4">
     <!-- Col. Voltage, $\mathit{V_{col}}$ (V) -->
     <g transform="translate(115.383594 210.89976) scale(0.1 -0.1)">
      <defs>
       <path id="DejaVuSans-43" d="M 4122 4306 
L 4122 3641 
Q 3803 3938 3442 4084 
Q 3081 4231 2675 4231 
Q 1875 4231 1450 3742 
Q 1025 3253 1025 2328 
Q 1025 1406 1450 917 
Q 1875 428 2675 428 
Q 3081 428 3442 575 
Q 3803 722 4122 1019 
L 4122 359 
Q 3791 134 3420 21 
Q 3050 -91 2638 -91 
Q 1578 -91 968 557 
Q 359 1206 359 2328 
Q 359 3453 968 4101 
Q 1578 4750 2638 4750 
Q 3056 4750 3426 4639 
Q 3797 4528 4122 4306 
z
" transform="scale(0.015625)"/>
       <path id="DejaVuSans-6f" d="M 1959 3097 
Q 1497 3097 1228 2736 
Q 959 2375 959 1747 
Q 959 1119 1226 758 
Q 1494 397 1959 397 
Q 2419 397 2687 759 
Q 2956 1122 2956 1747 
Q 2956 2369 2687 2733 
Q 2419 3097 1959 3097 
z
M 1959 3584 
Q 2709 3584 3137 3096 
Q 3566 2609 3566 1747 
Q 3566 888 3137 398 
Q 2709 -91 1959 -91 
Q 1206 -91 779 398 
Q 353 888 353 1747 
Q 353 2609 779 3096 
Q 1206 3584 1959 3584 
z
" transform="scale(0.015625)"/>
       <path id="DejaVuSans-6c" d="M 603 4863 
L 1178 4863 
L 1178 0 
L 603 0 
L 603 4863 
z
" transform="scale(0.015625)"/>
       <path id="DejaVuSans-20" transform="scale(0.015625)"/>
       <path id="DejaVuSans-56" d="M 1831 0 
L 50 4666 
L 709 4666 
L 2188 738 
L 3669 4666 
L 4325 4666 
L 2547 0 
L 1831 0 
z
" transform="scale(0.015625)"/>
       <path id="DejaVuSans-74" d="M 1172 4494 
L 1172 3500 
L 2356 3500 
L 2356 3053 
L 1172 3053 
L 1172 1153 
Q 1172 725 1289 603 
Q 1406 481 1766 481 
L 2356 481 
L 2356 0 
L 1766 0 
Q 1100 0 847 248 
Q 594 497 594 1153 
L 594 3053 
L 172 3053 
L 172 3500 
L 594 3500 
L 594 4494 
L 1172 4494 
z
" transform="scale(0.015625)"/>
       <path id="DejaVuSans-61" d="M 2194 1759 
Q 1497 1759 1228 1600 
Q 959 1441 959 1056 
Q 959 750 1161 570 
Q 1363 391 1709 391 
Q 2188 391 2477 730 
Q 2766 1069 2766 1631 
L 2766 1759 
L 2194 1759 
z
M 3341 1997 
L 3341 0 
L 2766 0 
L 2766 531 
Q 2569 213 2275 61 
Q 1981 -91 1556 -91 
Q 1019 -91 701 211 
Q 384 513 384 1019 
Q 384 1609 779 1909 
Q 1175 2209 1959 2209 
L 2766 2209 
L 2766 2266 
Q 2766 2663 2505 2880 
Q 2244 3097 1772 3097 
Q 1472 3097 1187 3025 
Q 903 2953 641 2809 
L 641 3341 
Q 956 3463 1253 3523 
Q 1550 3584 1831 3584 
Q 2591 3584 2966 3190 
Q 3341 2797 3341 1997 
z
" transform="scale(0.015625)"/>
       <path id="DejaVuSans-67" d="M 2906 1791 
Q 2906 2416 2648 2759 
Q 2391 3103 1925 3103 
Q 1463 3103 1205 2759 
Q 947 2416 947 1791 
Q 947 1169 1205 825 
Q 1463 481 1925 481 
Q 2391 481 2648 825 
Q 2906 1169 2906 1791 
z
M 3481 434 
Q 3481 -459 3084 -895 
Q 2688 -1331 1869 -1331 
Q 1566 -1331 1297 -1286 
Q 1028 -1241 775 -1147 
L 775 -588 
Q 1028 -725 1275 -790 
Q 1522 -856 1778 -856 
Q 2344 -856 2625 -561 
Q 2906 -266 2906 331 
L 2906 616 
Q 2728 306 2450 153 
Q 2172 0 1784 0 
Q 1141 0 747 490 
Q 353 981 353 1791 
Q 353 2603 747 3093 
Q 1141 3584 1784 3584 
Q 2172 3584 2450 3431 
Q 2728 3278 2906 2969 
L 2906 3500 
L 3481 3500 
L 3481 434 
z
" transform="scale(0.015625)"/>
       <path id="DejaVuSans-65" d="M 3597 1894 
L 3597 1613 
L 953 1613 
Q 991 1019 1311 708 
Q 1631 397 2203 397 
Q 2534 397 2845 478 
Q 3156 559 3463 722 
L 3463 178 
Q 3153 47 2828 -22 
Q 2503 -91 2169 -91 
Q 1331 -91 842 396 
Q 353 884 353 1716 
Q 353 2575 817 3079 
Q 1281 3584 2069 3584 
Q 2775 3584 3186 3129 
Q 3597 2675 3597 1894 
z
M 3022 2063 
Q 3016 2534 2758 2815 
Q 2500 3097 2075 3097 
Q 1594 3097 1305 2825 
Q 1016 2553 972 2059 
L 3022 2063 
z
" transform="scale(0.015625)"/>
       <path id="DejaVuSans-2c" d="M 750 794 
L 1409 794 
L 1409 256 
L 897 -744 
L 494 -744 
L 750 256 
L 750 794 
z
" transform="scale(0.015625)"/>
       <path id="DejaVuSans-Oblique-56" d="M 1319 0 
L 500 4666 
L 1119 4666 
L 1797 653 
L 4063 4666 
L 4750 4666 
L 2053 0 
L 1319 0 
z
" transform="scale(0.015625)"/>
       <path id="DejaVuSans-Oblique-63" d="M 3431 3366 
L 3316 2797 
Q 3109 2947 2876 3022 
Q 2644 3097 2394 3097 
Q 2119 3097 1870 3000 
Q 1622 2903 1453 2725 
Q 1184 2453 1037 2087 
Q 891 1722 891 1331 
Q 891 859 1127 628 
Q 1363 397 1844 397 
Q 2081 397 2348 469 
Q 2616 541 2906 684 
L 2797 116 
Q 2547 13 2283 -39 
Q 2019 -91 1741 -91 
Q 1044 -91 669 257 
Q 294 606 294 1253 
Q 294 1797 489 2255 
Q 684 2713 1069 3078 
Q 1331 3328 1684 3456 
Q 2038 3584 2456 3584 
Q 2700 3584 2940 3529 
Q 3181 3475 3431 3366 
z
" transform="scale(0.015625)"/>
       <path id="DejaVuSans-Oblique-6f" d="M 1625 -91 
Q 1009 -91 651 289 
Q 294 669 294 1325 
Q 294 1706 417 2101 
Q 541 2497 738 2766 
Q 1047 3184 1428 3384 
Q 1809 3584 2291 3584 
Q 2888 3584 3255 3212 
Q 3622 2841 3622 2241 
Q 3622 1825 3500 1412 
Q 3378 1000 3181 728 
Q 2875 309 2494 109 
Q 2113 -91 1625 -91 
z
M 891 1344 
Q 891 869 1089 633 
Q 1288 397 1691 397 
Q 2269 397 2648 901 
Q 3028 1406 3028 2181 
Q 3028 2634 2825 2865 
Q 2622 3097 2228 3097 
Q 1903 3097 1650 2945 
Q 1397 2794 1197 2484 
Q 1050 2253 970 1956 
Q 891 1659 891 1344 
z
" transform="scale(0.015625)"/>
       <path id="DejaVuSans-Oblique-6c" d="M 1172 4863 
L 1747 4863 
L 800 0 
L 225 0 
L 1172 4863 
z
" transform="scale(0.015625)"/>
       <path id="DejaVuSans-28" d="M 1984 4856 
Q 1566 4138 1362 3434 
Q 1159 2731 1159 2009 
Q 1159 1288 1364 580 
Q 1569 -128 1984 -844 
L 1484 -844 
Q 1016 -109 783 600 
Q 550 1309 550 2009 
Q 550 2706 781 3412 
Q 1013 4119 1484 4856 
L 1984 4856 
z
" transform="scale(0.015625)"/>
       <path id="DejaVuSans-29" d="M 513 4856 
L 1013 4856 
Q 1481 4119 1714 3412 
Q 1947 2706 1947 2009 
Q 1947 1309 1714 600 
Q 1481 -109 1013 -844 
L 513 -844 
Q 928 -128 1133 580 
Q 1338 1288 1338 2009 
Q 1338 2731 1133 3434 
Q 928 4138 513 4856 
z
" transform="scale(0.015625)"/>
      </defs>
      <use xlink:href="#DejaVuSans-43" transform="translate(0 0.015625)"/>
      <use xlink:href="#DejaVuSans-6f" transform="translate(69.824219 0.015625)"/>
      <use xlink:href="#DejaVuSans-6c" transform="translate(131.005859 0.015625)"/>
      <use xlink:href="#DejaVuSans-2e" transform="translate(158.789062 0.015625)"/>
      <use xlink:href="#DejaVuSans-20" transform="translate(190.576172 0.015625)"/>
      <use xlink:href="#DejaVuSans-56" transform="translate(222.363281 0.015625)"/>
      <use xlink:href="#DejaVuSans-6f" transform="translate(290.771484 0.015625)"/>
      <use xlink:href="#DejaVuSans-6c" transform="translate(351.953125 0.015625)"/>
      <use xlink:href="#DejaVuSans-74" transform="translate(379.736328 0.015625)"/>
      <use xlink:href="#DejaVuSans-61" transform="translate(418.945312 0.015625)"/>
      <use xlink:href="#DejaVuSans-67" transform="translate(480.224609 0.015625)"/>
      <use xlink:href="#DejaVuSans-65" transform="translate(543.701172 0.015625)"/>
      <use xlink:href="#DejaVuSans-2c" transform="translate(605.224609 0.015625)"/>
      <use xlink:href="#DejaVuSans-20" transform="translate(637.011719 0.015625)"/>
      <use xlink:href="#DejaVuSans-Oblique-56" transform="translate(668.798828 0.015625)"/>
      <use xlink:href="#DejaVuSans-Oblique-63" transform="translate(737.207031 -16.390625) scale(0.7)"/>
      <use xlink:href="#DejaVuSans-Oblique-6f" transform="translate(775.693359 -16.390625) scale(0.7)"/>
      <use xlink:href="#DejaVuSans-Oblique-6c" transform="translate(818.520508 -16.390625) scale(0.7)"/>
      <use xlink:href="#DejaVuSans-20" transform="translate(840.703125 0.015625)"/>
      <use xlink:href="#DejaVuSans-28" transform="translate(872.490234 0.015625)"/>
      <use xlink:href="#DejaVuSans-56" transform="translate(911.503906 0.015625)"/>
      <use xlink:href="#DejaVuSans-29" transform="translate(979.912109 0.015625)"/>
     </g>
    </g>
   </g>
   <g id="matplotlib.axis_2">
    <g id="ytick_1">
     <g id="line2d_11">
      <defs>
       <path id="m3e0934eb16" d="M 0 0 
L 3.5 0 
" style="stroke: #000000; stroke-width: 0.8"/>
      </defs>
      <g>
       <use xlink:href="#m3e0934eb16" x="120.553245" y="176.965565" style="stroke: #000000; stroke-width: 0.8"/>
      </g>
     </g>
     <g id="line2d_12">
      <defs>
       <path id="m110038dea9" d="M 0 0 
L -3.5 0 
" style="stroke: #000000; stroke-width: 0.8"/>
      </defs>
      <g>
       <use xlink:href="#m110038dea9" x="212.113943" y="176.965565" style="stroke: #000000; stroke-width: 0.8"/>
      </g>
     </g>
     <g id="text_5">
      <!-- −500 -->
      <g transform="translate(89.586058 180.764784) scale(0.1 -0.1)">
       <defs>
        <path id="DejaVuSans-2212" d="M 678 2272 
L 4684 2272 
L 4684 1741 
L 678 1741 
L 678 2272 
z
" transform="scale(0.015625)"/>
       </defs>
       <use xlink:href="#DejaVuSans-2212"/>
       <use xlink:href="#DejaVuSans-35" x="83.789062"/>
       <use xlink:href="#DejaVuSans-30" x="147.412109"/>
       <use xlink:href="#DejaVuSans-30" x="211.035156"/>
      </g>
     </g>
    </g>
    <g id="ytick_2">
     <g id="line2d_13">
      <g>
       <use xlink:href="#m3e0934eb16" x="120.553245" y="158.653426" style="stroke: #000000; stroke-width: 0.8"/>
      </g>
     </g>
     <g id="line2d_14">
      <g>
       <use xlink:href="#m110038dea9" x="212.113943" y="158.653426" style="stroke: #000000; stroke-width: 0.8"/>
      </g>
     </g>
     <g id="text_6">
      <!-- −400 -->
      <g transform="translate(89.586058 162.452644) scale(0.1 -0.1)">
       <defs>
        <path id="DejaVuSans-34" d="M 2419 4116 
L 825 1625 
L 2419 1625 
L 2419 4116 
z
M 2253 4666 
L 3047 4666 
L 3047 1625 
L 3713 1625 
L 3713 1100 
L 3047 1100 
L 3047 0 
L 2419 0 
L 2419 1100 
L 313 1100 
L 313 1709 
L 2253 4666 
z
" transform="scale(0.015625)"/>
       </defs>
       <use xlink:href="#DejaVuSans-2212"/>
       <use xlink:href="#DejaVuSans-34" x="83.789062"/>
       <use xlink:href="#DejaVuSans-30" x="147.412109"/>
       <use xlink:href="#DejaVuSans-30" x="211.035156"/>
      </g>
     </g>
    </g>
    <g id="ytick_3">
     <g id="line2d_15">
      <g>
       <use xlink:href="#m3e0934eb16" x="120.553245" y="140.341286" style="stroke: #000000; stroke-width: 0.8"/>
      </g>
     </g>
     <g id="line2d_16">
      <g>
       <use xlink:href="#m110038dea9" x="212.113943" y="140.341286" style="stroke: #000000; stroke-width: 0.8"/>
      </g>
     </g>
     <g id="text_7">
      <!-- −300 -->
      <g transform="translate(89.586058 144.140505) scale(0.1 -0.1)">
       <defs>
        <path id="DejaVuSans-33" d="M 2597 2516 
Q 3050 2419 3304 2112 
Q 3559 1806 3559 1356 
Q 3559 666 3084 287 
Q 2609 -91 1734 -91 
Q 1441 -91 1130 -33 
Q 819 25 488 141 
L 488 750 
Q 750 597 1062 519 
Q 1375 441 1716 441 
Q 2309 441 2620 675 
Q 2931 909 2931 1356 
Q 2931 1769 2642 2001 
Q 2353 2234 1838 2234 
L 1294 2234 
L 1294 2753 
L 1863 2753 
Q 2328 2753 2575 2939 
Q 2822 3125 2822 3475 
Q 2822 3834 2567 4026 
Q 2313 4219 1838 4219 
Q 1578 4219 1281 4162 
Q 984 4106 628 3988 
L 628 4550 
Q 988 4650 1302 4700 
Q 1616 4750 1894 4750 
Q 2613 4750 3031 4423 
Q 3450 4097 3450 3541 
Q 3450 3153 3228 2886 
Q 3006 2619 2597 2516 
z
" transform="scale(0.015625)"/>
       </defs>
       <use xlink:href="#DejaVuSans-2212"/>
       <use xlink:href="#DejaVuSans-33" x="83.789062"/>
       <use xlink:href="#DejaVuSans-30" x="147.412109"/>
       <use xlink:href="#DejaVuSans-30" x="211.035156"/>
      </g>
     </g>
    </g>
    <g id="ytick_4">
     <g id="line2d_17">
      <g>
       <use xlink:href="#m3e0934eb16" x="120.553245" y="122.029147" style="stroke: #000000; stroke-width: 0.8"/>
      </g>
     </g>
     <g id="line2d_18">
      <g>
       <use xlink:href="#m110038dea9" x="212.113943" y="122.029147" style="stroke: #000000; stroke-width: 0.8"/>
      </g>
     </g>
     <g id="text_8">
      <!-- −200 -->
      <g transform="translate(89.586058 125.828365) scale(0.1 -0.1)">
       <defs>
        <path id="DejaVuSans-32" d="M 1228 531 
L 3431 531 
L 3431 0 
L 469 0 
L 469 531 
Q 828 903 1448 1529 
Q 2069 2156 2228 2338 
Q 2531 2678 2651 2914 
Q 2772 3150 2772 3378 
Q 2772 3750 2511 3984 
Q 2250 4219 1831 4219 
Q 1534 4219 1204 4116 
Q 875 4013 500 3803 
L 500 4441 
Q 881 4594 1212 4672 
Q 1544 4750 1819 4750 
Q 2544 4750 2975 4387 
Q 3406 4025 3406 3419 
Q 3406 3131 3298 2873 
Q 3191 2616 2906 2266 
Q 2828 2175 2409 1742 
Q 1991 1309 1228 531 
z
" transform="scale(0.015625)"/>
       </defs>
       <use xlink:href="#DejaVuSans-2212"/>
       <use xlink:href="#DejaVuSans-32" x="83.789062"/>
       <use xlink:href="#DejaVuSans-30" x="147.412109"/>
       <use xlink:href="#DejaVuSans-30" x="211.035156"/>
      </g>
     </g>
    </g>
    <g id="ytick_5">
     <g id="line2d_19">
      <g>
       <use xlink:href="#m3e0934eb16" x="120.553245" y="103.717007" style="stroke: #000000; stroke-width: 0.8"/>
      </g>
     </g>
     <g id="line2d_20">
      <g>
       <use xlink:href="#m110038dea9" x="212.113943" y="103.717007" style="stroke: #000000; stroke-width: 0.8"/>
      </g>
     </g>
     <g id="text_9">
      <!-- −100 -->
      <g transform="translate(89.586058 107.516226) scale(0.1 -0.1)">
       <use xlink:href="#DejaVuSans-2212"/>
       <use xlink:href="#DejaVuSans-31" x="83.789062"/>
       <use xlink:href="#DejaVuSans-30" x="147.412109"/>
       <use xlink:href="#DejaVuSans-30" x="211.035156"/>
      </g>
     </g>
    </g>
    <g id="ytick_6">
     <g id="line2d_21">
      <g>
       <use xlink:href="#m3e0934eb16" x="120.553245" y="85.404868" style="stroke: #000000; stroke-width: 0.8"/>
      </g>
     </g>
     <g id="line2d_22">
      <g>
       <use xlink:href="#m110038dea9" x="212.113943" y="85.404868" style="stroke: #000000; stroke-width: 0.8"/>
      </g>
     </g>
     <g id="text_10">
      <!-- 0 -->
      <g transform="translate(110.690745 89.204086) scale(0.1 -0.1)">
       <use xlink:href="#DejaVuSans-30"/>
      </g>
     </g>
    </g>
    <g id="ytick_7">
     <g id="line2d_23">
      <g>
       <use xlink:href="#m3e0934eb16" x="120.553245" y="67.092728" style="stroke: #000000; stroke-width: 0.8"/>
      </g>
     </g>
     <g id="line2d_24">
      <g>
       <use xlink:href="#m110038dea9" x="212.113943" y="67.092728" style="stroke: #000000; stroke-width: 0.8"/>
      </g>
     </g>
     <g id="text_11">
      <!-- 100 -->
      <g transform="translate(97.965745 70.891947) scale(0.1 -0.1)">
       <use xlink:href="#DejaVuSans-31"/>
       <use xlink:href="#DejaVuSans-30" x="63.623047"/>
       <use xlink:href="#DejaVuSans-30" x="127.246094"/>
      </g>
     </g>
    </g>
    <g id="ytick_8">
     <g id="line2d_25">
      <g>
       <use xlink:href="#m3e0934eb16" x="120.553245" y="48.780589" style="stroke: #000000; stroke-width: 0.8"/>
      </g>
     </g>
     <g id="line2d_26">
      <g>
       <use xlink:href="#m110038dea9" x="212.113943" y="48.780589" style="stroke: #000000; stroke-width: 0.8"/>
      </g>
     </g>
     <g id="text_12">
      <!-- 200 -->
      <g transform="translate(97.965745 52.579807) scale(0.1 -0.1)">
       <use xlink:href="#DejaVuSans-32"/>
       <use xlink:href="#DejaVuSans-30" x="63.623047"/>
       <use xlink:href="#DejaVuSans-30" x="127.246094"/>
      </g>
     </g>
    </g>
    <g id="ytick_9">
     <g id="line2d_27">
      <g>
       <use xlink:href="#m3e0934eb16" x="120.553245" y="30.468449" style="stroke: #000000; stroke-width: 0.8"/>
      </g>
     </g>
     <g id="line2d_28">
      <g>
       <use xlink:href="#m110038dea9" x="212.113943" y="30.468449" style="stroke: #000000; stroke-width: 0.8"/>
      </g>
     </g>
     <g id="text_13">
      <!-- 300 -->
      <g transform="translate(97.965745 34.267668) scale(0.1 -0.1)">
       <use xlink:href="#DejaVuSans-33"/>
       <use xlink:href="#DejaVuSans-30" x="63.623047"/>
       <use xlink:href="#DejaVuSans-30" x="127.246094"/>
      </g>
     </g>
    </g>
    <g id="ytick_10">
     <g id="line2d_29">
      <g>
       <use xlink:href="#m3e0934eb16" x="120.553245" y="12.15631" style="stroke: #000000; stroke-width: 0.8"/>
      </g>
     </g>
     <g id="line2d_30">
      <g>
       <use xlink:href="#m110038dea9" x="212.113943" y="12.15631" style="stroke: #000000; stroke-width: 0.8"/>
      </g>
     </g>
     <g id="text_14">
      <!-- 400 -->
      <g transform="translate(97.965745 15.955528) scale(0.1 -0.1)">
       <use xlink:href="#DejaVuSans-34"/>
       <use xlink:href="#DejaVuSans-30" x="63.623047"/>
       <use xlink:href="#DejaVuSans-30" x="127.246094"/>
      </g>
     </g>
    </g>
    <g id="ytick_11">
     <g id="line2d_31">
      <defs>
       <path id="mfa970c5a8f" d="M 0 0 
L 2 0 
" style="stroke: #000000; stroke-width: 0.6"/>
      </defs>
      <g>
       <use xlink:href="#mfa970c5a8f" x="120.553245" y="186.121635" style="stroke: #000000; stroke-width: 0.6"/>
      </g>
     </g>
     <g id="line2d_32">
      <defs>
       <path id="md4545d825c" d="M 0 0 
L -2 0 
" style="stroke: #000000; stroke-width: 0.6"/>
      </defs>
      <g>
       <use xlink:href="#md4545d825c" x="212.113943" y="186.121635" style="stroke: #000000; stroke-width: 0.6"/>
      </g>
     </g>
    </g>
    <g id="ytick_12">
     <g id="line2d_33">
      <g>
       <use xlink:href="#mfa970c5a8f" x="120.553245" y="167.809495" style="stroke: #000000; stroke-width: 0.6"/>
      </g>
     </g>
     <g id="line2d_34">
      <g>
       <use xlink:href="#md4545d825c" x="212.113943" y="167.809495" style="stroke: #000000; stroke-width: 0.6"/>
      </g>
     </g>
    </g>
    <g id="ytick_13">
     <g id="line2d_35">
      <g>
       <use xlink:href="#mfa970c5a8f" x="120.553245" y="149.497356" style="stroke: #000000; stroke-width: 0.6"/>
      </g>
     </g>
     <g id="line2d_36">
      <g>
       <use xlink:href="#md4545d825c" x="212.113943" y="149.497356" style="stroke: #000000; stroke-width: 0.6"/>
      </g>
     </g>
    </g>
    <g id="ytick_14">
     <g id="line2d_37">
      <g>
       <use xlink:href="#mfa970c5a8f" x="120.553245" y="131.185216" style="stroke: #000000; stroke-width: 0.6"/>
      </g>
     </g>
     <g id="line2d_38">
      <g>
       <use xlink:href="#md4545d825c" x="212.113943" y="131.185216" style="stroke: #000000; stroke-width: 0.6"/>
      </g>
     </g>
    </g>
    <g id="ytick_15">
     <g id="line2d_39">
      <g>
       <use xlink:href="#mfa970c5a8f" x="120.553245" y="112.873077" style="stroke: #000000; stroke-width: 0.6"/>
      </g>
     </g>
     <g id="line2d_40">
      <g>
       <use xlink:href="#md4545d825c" x="212.113943" y="112.873077" style="stroke: #000000; stroke-width: 0.6"/>
      </g>
     </g>
    </g>
    <g id="ytick_16">
     <g id="line2d_41">
      <g>
       <use xlink:href="#mfa970c5a8f" x="120.553245" y="94.560937" style="stroke: #000000; stroke-width: 0.6"/>
      </g>
     </g>
     <g id="line2d_42">
      <g>
       <use xlink:href="#md4545d825c" x="212.113943" y="94.560937" style="stroke: #000000; stroke-width: 0.6"/>
      </g>
     </g>
    </g>
    <g id="ytick_17">
     <g id="line2d_43">
      <g>
       <use xlink:href="#mfa970c5a8f" x="120.553245" y="76.248798" style="stroke: #000000; stroke-width: 0.6"/>
      </g>
     </g>
     <g id="line2d_44">
      <g>
       <use xlink:href="#md4545d825c" x="212.113943" y="76.248798" style="stroke: #000000; stroke-width: 0.6"/>
      </g>
     </g>
    </g>
    <g id="ytick_18">
     <g id="line2d_45">
      <g>
       <use xlink:href="#mfa970c5a8f" x="120.553245" y="57.936658" style="stroke: #000000; stroke-width: 0.6"/>
      </g>
     </g>
     <g id="line2d_46">
      <g>
       <use xlink:href="#md4545d825c" x="212.113943" y="57.936658" style="stroke: #000000; stroke-width: 0.6"/>
      </g>
     </g>
    </g>
    <g id="ytick_19">
     <g id="line2d_47">
      <g>
       <use xlink:href="#mfa970c5a8f" x="120.553245" y="39.624519" style="stroke: #000000; stroke-width: 0.6"/>
      </g>
     </g>
     <g id="line2d_48">
      <g>
       <use xlink:href="#md4545d825c" x="212.113943" y="39.624519" style="stroke: #000000; stroke-width: 0.6"/>
      </g>
     </g>
    </g>
    <g id="ytick_20">
     <g id="line2d_49">
      <g>
       <use xlink:href="#mfa970c5a8f" x="120.553245" y="21.312379" style="stroke: #000000; stroke-width: 0.6"/>
      </g>
     </g>
     <g id="line2d_50">
      <g>
       <use xlink:href="#md4545d825c" x="212.113943" y="21.312379" style="stroke: #000000; stroke-width: 0.6"/>
      </g>
     </g>
    </g>
    <g id="ytick_21">
     <g id="line2d_51">
      <g>
       <use xlink:href="#mfa970c5a8f" x="120.553245" y="3.00024" style="stroke: #000000; stroke-width: 0.6"/>
      </g>
     </g>
     <g id="line2d_52">
      <g>
       <use xlink:href="#md4545d825c" x="212.113943" y="3.00024" style="stroke: #000000; stroke-width: 0.6"/>
      </g>
     </g>
    </g>
    <g id="text_15">
     <!-- Current, $\mathit{I}$ (μA) -->
     <g transform="translate(83.486058 130.310937) rotate(-90) scale(0.1 -0.1)">
      <defs>
       <path id="DejaVuSans-75" d="M 544 1381 
L 544 3500 
L 1119 3500 
L 1119 1403 
Q 1119 906 1312 657 
Q 1506 409 1894 409 
Q 2359 409 2629 706 
Q 2900 1003 2900 1516 
L 2900 3500 
L 3475 3500 
L 3475 0 
L 2900 0 
L 2900 538 
Q 2691 219 2414 64 
Q 2138 -91 1772 -91 
Q 1169 -91 856 284 
Q 544 659 544 1381 
z
M 1991 3584 
L 1991 3584 
z
" transform="scale(0.015625)"/>
       <path id="DejaVuSans-72" d="M 2631 2963 
Q 2534 3019 2420 3045 
Q 2306 3072 2169 3072 
Q 1681 3072 1420 2755 
Q 1159 2438 1159 1844 
L 1159 0 
L 581 0 
L 581 3500 
L 1159 3500 
L 1159 2956 
Q 1341 3275 1631 3429 
Q 1922 3584 2338 3584 
Q 2397 3584 2469 3576 
Q 2541 3569 2628 3553 
L 2631 2963 
z
" transform="scale(0.015625)"/>
       <path id="DejaVuSans-6e" d="M 3513 2113 
L 3513 0 
L 2938 0 
L 2938 2094 
Q 2938 2591 2744 2837 
Q 2550 3084 2163 3084 
Q 1697 3084 1428 2787 
Q 1159 2491 1159 1978 
L 1159 0 
L 581 0 
L 581 3500 
L 1159 3500 
L 1159 2956 
Q 1366 3272 1645 3428 
Q 1925 3584 2291 3584 
Q 2894 3584 3203 3211 
Q 3513 2838 3513 2113 
z
" transform="scale(0.015625)"/>
       <path id="DejaVuSans-Oblique-49" d="M 1081 4666 
L 1716 4666 
L 806 0 
L 172 0 
L 1081 4666 
z
" transform="scale(0.015625)"/>
       <path id="DejaVuSans-3bc" d="M 544 -1331 
L 544 3500 
L 1119 3500 
L 1119 1325 
Q 1119 872 1334 640 
Q 1550 409 1972 409 
Q 2434 409 2667 671 
Q 2900 934 2900 1459 
L 2900 3500 
L 3475 3500 
L 3475 806 
Q 3475 619 3529 530 
Q 3584 441 3700 441 
Q 3728 441 3778 458 
Q 3828 475 3916 513 
L 3916 50 
Q 3788 -22 3673 -56 
Q 3559 -91 3450 -91 
Q 3234 -91 3106 31 
Q 2978 153 2931 403 
Q 2775 156 2548 32 
Q 2322 -91 2016 -91 
Q 1697 -91 1473 31 
Q 1250 153 1119 397 
L 1119 -1331 
L 544 -1331 
z
" transform="scale(0.015625)"/>
       <path id="DejaVuSans-41" d="M 2188 4044 
L 1331 1722 
L 3047 1722 
L 2188 4044 
z
M 1831 4666 
L 2547 4666 
L 4325 0 
L 3669 0 
L 3244 1197 
L 1141 1197 
L 716 0 
L 50 0 
L 1831 4666 
z
" transform="scale(0.015625)"/>
      </defs>
      <use xlink:href="#DejaVuSans-43" transform="translate(0 0.125)"/>
      <use xlink:href="#DejaVuSans-75" transform="translate(69.824219 0.125)"/>
      <use xlink:href="#DejaVuSans-72" transform="translate(133.203125 0.125)"/>
      <use xlink:href="#DejaVuSans-72" transform="translate(174.316406 0.125)"/>
      <use xlink:href="#DejaVuSans-65" transform="translate(215.429688 0.125)"/>
      <use xlink:href="#DejaVuSans-6e" transform="translate(276.953125 0.125)"/>
      <use xlink:href="#DejaVuSans-74" transform="translate(340.332031 0.125)"/>
      <use xlink:href="#DejaVuSans-2c" transform="translate(379.541016 0.125)"/>
      <use xlink:href="#DejaVuSans-20" transform="translate(411.328125 0.125)"/>
      <use xlink:href="#DejaVuSans-Oblique-49" transform="translate(443.115234 0.125)"/>
      <use xlink:href="#DejaVuSans-20" transform="translate(472.607422 0.125)"/>
      <use xlink:href="#DejaVuSans-28" transform="translate(504.394531 0.125)"/>
      <use xlink:href="#DejaVuSans-3bc" transform="translate(543.408203 0.125)"/>
      <use xlink:href="#DejaVuSans-41" transform="translate(607.03125 0.125)"/>
      <use xlink:href="#DejaVuSans-29" transform="translate(675.439453 0.125)"/>
     </g>
    </g>
   </g>
   <g id="line2d_53">
    <path d="M 124.715095 84.131649 
L 126.524595 82.259268 
L 127.429345 81.784931 
L 130.143595 79.038773 
L 131.048345 78.364716 
L 131.953095 77.515903 
L 132.857845 76.841846 
L 134.667345 74.99443 
L 137.381595 71.649109 
L 139.191094 69.751763 
L 140.095844 68.678265 
L 141.000594 67.979243 
L 141.905344 66.780919 
L 142.810094 65.982036 
L 143.714844 64.509097 
L 144.619594 63.410633 
L 145.524344 62.536856 
L 146.429094 61.338532 
L 147.333844 60.514684 
L 149.143344 58.167967 
L 150.048094 57.069503 
L 150.952844 55.321948 
L 151.857594 54.073694 
L 152.762344 53.424602 
L 154.571844 51.702011 
L 156.381344 48.082075 
L 158.190844 45.211091 
L 159.095594 44.262418 
L 161.809844 40.667446 
L 167.238344 32.903307 
L 168.143094 31.605123 
L 169.047844 30.881136 
L 172.666844 25.438748 
L 173.571594 24.390215 
L 176.285843 20.570558 
L 179.000093 17.100412 
L 179.904843 16.151739 
L 181.714343 15.103206 
L 182.619093 14.029707 
L 183.523843 13.730126 
L 184.428593 13.25579 
L 186.238093 14.429149 
L 188.047593 17.100412 
L 188.952343 18.872933 
L 189.857093 20.221047 
L 192.571343 28.184907 
L 193.476093 31.405402 
L 196.190343 42.589758 
L 197.095093 44.212488 
L 197.999843 45.0613 
L 198.904593 46.833821 
L 200.714093 54.223484 
L 201.618843 54.672856 
L 202.523593 54.622926 
L 203.428343 55.022367 
L 202.523593 57.843421 
L 201.618843 59.790697 
L 200.714093 61.363497 
L 199.809343 62.586786 
L 197.999843 65.5077 
L 196.190343 67.205325 
L 195.285593 67.829452 
L 193.476093 69.527078 
L 191.666593 70.875192 
L 188.952343 73.147014 
L 185.333343 75.443801 
L 184.428593 75.868208 
L 180.809593 78.040169 
L 174.476344 80.311992 
L 173.571594 80.237096 
L 172.666844 80.461782 
L 171.762094 80.886188 
L 170.857344 81.48535 
L 169.952594 81.834861 
L 169.047844 81.984652 
L 168.143094 81.984652 
L 167.238344 82.284233 
L 166.333594 82.458988 
L 165.428844 82.8085 
L 162.714594 82.608779 
L 161.809844 82.783534 
L 160.905094 83.257871 
L 158.190844 83.607382 
L 157.286094 83.607382 
L 156.381344 83.881998 
L 155.476594 83.532487 
L 153.667094 84.131649 
L 152.762344 84.43123 
L 151.857594 84.206544 
L 150.952844 84.131649 
L 150.048094 84.48116 
L 149.143344 84.58102 
L 148.238594 84.805706 
L 147.333844 84.43123 
L 146.429094 84.605985 
L 145.524344 84.3813 
L 144.619594 84.58102 
L 143.714844 84.406265 
L 142.810094 84.605985 
L 141.000594 84.755776 
L 140.095844 84.48116 
L 139.191094 84.63095 
L 138.286345 85.155217 
L 137.381595 85.404868 
L 136.476845 85.354938 
L 135.572095 85.180182 
L 134.667345 85.255077 
L 133.762595 85.629553 
L 132.857845 85.529693 
L 131.953095 85.604588 
L 131.048345 85.080322 
L 130.143595 85.280042 
L 129.238845 85.130252 
L 127.429345 85.429833 
L 126.524595 85.354938 
L 125.619845 85.404868 
L 125.619845 85.404868 
" clip-path="url(#p9472399c78)" style="fill: none; stroke: #0000ff; stroke-opacity: 0.1; stroke-width: 0.5; stroke-linecap: square"/>
   </g>
   <g id="line2d_54">
    <path d="M 124.715095 83.682277 
L 125.619845 82.384093 
L 126.524595 81.585211 
L 127.429345 81.110874 
L 128.334095 80.212131 
L 129.238845 79.138633 
L 130.143595 78.264855 
L 131.048345 77.715623 
L 131.953095 76.791916 
L 134.667345 73.52149 
L 135.572095 72.697643 
L 139.191094 68.378684 
L 141.000594 66.056932 
L 142.810094 64.434202 
L 143.714844 63.136017 
L 144.619594 61.638113 
L 148.238594 57.818456 
L 149.143344 56.445376 
L 150.048094 55.396843 
L 150.952844 53.824043 
L 152.762344 51.177745 
L 153.667094 49.62991 
L 156.381344 47.008576 
L 157.286094 45.635497 
L 158.190844 43.987802 
L 159.095594 42.889338 
L 160.000344 41.990596 
L 160.905094 40.867167 
L 161.809844 39.943459 
L 167.238344 31.979599 
L 168.143094 30.481694 
L 169.047844 29.358266 
L 170.857344 26.637072 
L 172.666844 24.639866 
L 174.476344 23.416577 
L 175.381094 22.143358 
L 176.285843 21.11979 
L 177.190593 19.871536 
L 178.095343 19.322304 
L 179.000093 18.972793 
L 180.809593 18.897898 
L 181.714343 19.671815 
L 182.619093 20.695383 
L 185.333343 25.613504 
L 186.238093 27.535815 
L 188.952343 37.1973 
L 189.857093 38.470519 
L 190.761843 39.294367 
L 191.666593 39.269402 
L 192.571343 41.116818 
L 194.380843 47.058507 
L 195.285593 47.857389 
L 196.190343 49.854595 
L 197.095093 49.954456 
L 197.999843 50.878164 
L 198.904593 50.453757 
L 197.999843 50.803268 
L 197.095093 50.703408 
L 196.190343 49.005783 
L 195.285593 50.403827 
L 194.380843 52.82544 
L 193.476093 56.145795 
L 192.571343 57.294189 
L 191.666593 57.968246 
L 190.761843 58.267827 
L 189.857093 58.866989 
L 188.952343 58.692233 
L 188.047593 59.516081 
L 187.142843 60.040348 
L 186.238093 61.288602 
L 184.428593 62.636716 
L 183.523843 63.88497 
L 182.619093 64.583992 
L 181.714343 65.532665 
L 180.809593 65.857211 
L 179.000093 66.98064 
L 177.190593 68.228893 
L 176.285843 69.027776 
L 175.381094 69.626938 
L 174.476344 70.500716 
L 173.571594 70.875192 
L 171.762094 71.773935 
L 169.952594 73.42163 
L 169.047844 74.120652 
L 168.143094 74.295408 
L 167.238344 74.619954 
L 165.428844 75.868208 
L 164.524094 76.642125 
L 163.619344 77.091496 
L 162.714594 77.765554 
L 160.000344 78.814087 
L 159.095594 79.413249 
L 158.190844 79.837655 
L 157.286094 80.112271 
L 156.381344 80.212131 
L 153.667094 80.911154 
L 152.762344 81.410455 
L 150.952844 81.735001 
L 150.048094 81.635141 
L 149.143344 81.784931 
L 147.333844 82.983255 
L 146.429094 83.432627 
L 145.524344 83.307801 
L 144.619594 83.307801 
L 141.905344 83.657312 
L 141.000594 83.482557 
L 140.095844 83.857033 
L 139.191094 84.106684 
L 138.286345 84.506125 
L 134.667345 84.131649 
L 133.762595 84.3813 
L 132.857845 84.855636 
L 130.143595 85.130252 
L 129.238845 85.404868 
L 128.334095 85.379903 
L 127.429345 85.579623 
L 126.524595 85.454798 
L 125.619845 85.479763 
L 125.619845 85.479763 
" clip-path="url(#p9472399c78)" style="fill: none; stroke: #0000ff; stroke-opacity: 0.134211; stroke-width: 0.5; stroke-linecap: square"/>
   </g>
   <g id="line2d_55">
    <path d="M 124.715095 84.006823 
L 125.619845 82.633744 
L 126.524595 81.909757 
L 127.429345 80.786328 
L 128.334095 80.112271 
L 129.238845 78.988842 
L 130.143595 78.514506 
L 131.048345 77.790519 
L 136.476845 71.94869 
L 137.381595 71.149808 
L 140.095844 67.779522 
L 141.000594 66.805884 
L 142.810094 64.309376 
L 143.714844 62.736576 
L 144.619594 61.962659 
L 145.524344 60.7893 
L 146.429094 59.865592 
L 147.333844 58.642303 
L 148.238594 57.768525 
L 150.048094 55.371878 
L 151.857594 52.625719 
L 152.762344 51.751941 
L 153.667094 50.603548 
L 154.571844 49.879561 
L 157.286094 45.136196 
L 160.905094 40.492691 
L 161.809844 39.494088 
L 168.143094 30.881136 
L 169.952594 28.234837 
L 170.857344 27.186304 
L 171.762094 26.362456 
L 172.666844 24.989377 
L 174.476344 22.967206 
L 177.190593 18.922863 
L 178.095343 18.148945 
L 179.904843 17.949225 
L 180.809593 17.799434 
L 181.714343 18.198875 
L 182.619093 17.749504 
L 184.428593 19.721745 
L 185.333343 21.519231 
L 186.238093 22.268183 
L 188.047593 24.689796 
L 188.952343 27.311129 
L 189.857093 28.958824 
L 190.761843 32.204285 
L 193.476093 38.121008 
L 195.285593 40.14318 
L 196.190343 42.040526 
L 197.095093 45.685427 
L 197.999843 47.582773 
L 198.904593 46.883751 
L 199.809343 47.557808 
L 198.904593 48.356691 
L 197.999843 52.401033 
L 197.095093 52.900335 
L 196.190343 55.321948 
L 195.285593 56.12083 
L 194.380843 58.242862 
L 193.476093 59.815662 
L 192.571343 60.83923 
L 191.666593 62.187344 
L 189.857093 65.432805 
L 188.047593 66.880779 
L 187.142843 67.155395 
L 186.238093 67.954278 
L 184.428593 69.801693 
L 183.523843 70.625541 
L 182.619093 71.099878 
L 180.809593 72.822468 
L 176.285843 75.643522 
L 175.381094 75.693452 
L 174.476344 76.217719 
L 173.571594 77.016601 
L 172.666844 77.590798 
L 171.762094 77.940309 
L 170.857344 78.14003 
L 169.952594 78.589401 
L 169.047844 79.463179 
L 168.143094 79.937515 
L 167.238344 80.212131 
L 166.333594 80.336957 
L 164.524094 80.936119 
L 163.619344 81.2357 
L 162.714594 81.210735 
L 161.809844 81.510315 
L 160.905094 81.535281 
L 160.000344 81.859827 
L 159.095594 81.959687 
L 158.190844 82.384093 
L 156.381344 82.983255 
L 154.571844 82.95829 
L 153.667094 83.033185 
L 152.762344 83.357731 
L 151.857594 83.981858 
L 150.048094 84.106684 
L 149.143344 83.956893 
L 148.238594 84.331369 
L 147.333844 84.281439 
L 143.714844 84.655915 
L 142.810094 84.43123 
L 141.000594 84.3813 
L 139.191094 84.755776 
L 138.286345 84.58102 
L 137.381595 84.655915 
L 136.476845 84.855636 
L 135.572095 85.230112 
L 134.667345 85.255077 
L 133.762595 85.479763 
L 131.953095 85.479763 
L 131.048345 85.305007 
L 129.238845 85.105287 
L 128.334095 84.930531 
L 125.619845 85.454798 
L 125.619845 85.454798 
" clip-path="url(#p9472399c78)" style="fill: none; stroke: #0000ff; stroke-opacity: 0.168421; stroke-width: 0.5; stroke-linecap: square"/>
   </g>
   <g id="line2d_56">
    <path d="M 124.715095 84.456195 
L 126.524595 82.384093 
L 131.048345 78.689262 
L 131.953095 77.590798 
L 132.857845 76.916741 
L 133.762595 75.943103 
L 136.476845 73.546455 
L 138.286345 71.599179 
L 139.191094 70.37589 
L 140.095844 69.352322 
L 141.905344 66.606163 
L 142.810094 65.707421 
L 143.714844 64.633922 
L 144.619594 64.059725 
L 145.524344 63.210913 
L 147.333844 60.414824 
L 148.238594 58.916919 
L 150.048094 56.769922 
L 150.952844 55.571599 
L 153.667094 52.650684 
L 155.476594 50.378862 
L 156.381344 48.656272 
L 157.286094 47.432983 
L 158.190844 45.860183 
L 160.000344 43.53843 
L 160.905094 42.090456 
L 163.619344 38.67024 
L 164.524094 37.721567 
L 165.428844 36.123802 
L 167.238344 33.652259 
L 169.047844 30.631485 
L 171.762094 26.287561 
L 172.666844 24.564971 
L 178.095343 16.950622 
L 179.000093 16.051879 
L 180.809593 14.87852 
L 181.714343 14.87852 
L 182.619093 14.304323 
L 183.523843 14.079637 
L 184.428593 14.129568 
L 185.333343 15.078241 
L 186.238093 16.426355 
L 187.142843 17.399993 
L 188.047593 17.774469 
L 189.857093 20.695383 
L 190.761843 24.614901 
L 191.666593 27.635675 
L 192.571343 28.833999 
L 193.476093 29.158545 
L 194.380843 29.632882 
L 193.476093 33.003167 
L 192.571343 36.847789 
L 191.666593 39.693808 
L 190.761843 41.491294 
L 189.857093 41.541224 
L 188.952343 42.240246 
L 187.142843 45.935078 
L 186.238093 47.083472 
L 185.333343 46.6341 
L 184.428593 47.108437 
L 182.619093 50.778303 
L 181.714343 52.076487 
L 180.809593 52.326138 
L 179.904843 53.149986 
L 179.000093 54.39824 
L 177.190593 57.394049 
L 176.285843 58.742164 
L 174.476344 60.265033 
L 173.571594 61.163776 
L 169.952594 65.807281 
L 169.047844 67.0805 
L 168.143094 67.654697 
L 167.238344 68.55344 
L 166.333594 69.102671 
L 165.428844 70.101274 
L 162.714594 72.173376 
L 160.905094 73.771141 
L 160.000344 74.470163 
L 158.190844 75.219116 
L 155.476594 76.991636 
L 154.571844 77.690658 
L 153.667094 78.115065 
L 151.857594 78.564436 
L 150.952844 79.163598 
L 150.048094 80.037376 
L 149.143344 80.686468 
L 147.333844 81.2357 
L 146.429094 81.110874 
L 145.524344 81.685071 
L 143.714844 82.284233 
L 141.905344 82.633744 
L 141.000594 83.083115 
L 140.095844 82.90836 
L 139.191094 83.05815 
L 138.286345 83.033185 
L 137.381595 83.507522 
L 136.476845 83.732207 
L 135.572095 84.081719 
L 134.667345 84.031788 
L 133.762595 84.256474 
L 132.857845 84.206544 
L 131.953095 84.331369 
L 130.143595 84.43123 
L 128.334095 84.755776 
L 126.524595 85.005426 
L 125.619845 85.030392 
L 125.619845 85.030392 
" clip-path="url(#p9472399c78)" style="fill: none; stroke: #0000ff; stroke-opacity: 0.202632; stroke-width: 0.5; stroke-linecap: square"/>
   </g>
   <g id="line2d_57">
    <path d="M 124.715095 83.956893 
L 125.619845 82.8085 
L 126.524595 82.159407 
L 127.429345 81.085909 
L 129.238845 79.438214 
L 131.048345 78.18996 
L 131.953095 76.891776 
L 132.857845 75.918138 
L 134.667345 74.470163 
L 135.572095 73.646316 
L 136.476845 72.447992 
L 140.095844 68.628335 
L 141.905344 66.381478 
L 142.810094 65.65749 
L 143.714844 64.559027 
L 144.619594 63.185948 
L 145.524344 62.41203 
L 146.429094 61.088881 
L 147.333844 60.065313 
L 148.238594 58.292792 
L 149.143344 57.169364 
L 150.952844 55.371878 
L 152.762344 53.02516 
L 153.667094 51.552221 
L 154.571844 50.678443 
L 155.476594 49.305364 
L 156.381344 48.281795 
L 160.905094 42.190316 
L 161.809844 40.742342 
L 162.714594 38.994786 
L 163.619344 38.071078 
L 164.524094 37.397021 
L 167.238344 33.602329 
L 169.047844 31.305542 
L 171.762094 27.785466 
L 172.666844 26.137771 
L 173.571594 24.839586 
L 175.381094 23.191891 
L 177.190593 20.570558 
L 178.095343 19.896501 
L 179.000093 19.871536 
L 179.904843 19.54699 
L 180.809593 19.621885 
L 181.714343 19.871536 
L 182.619093 19.64685 
L 184.428593 18.523421 
L 185.333343 19.122583 
L 187.142843 22.542799 
L 188.047593 23.865948 
L 188.952343 24.814621 
L 189.857093 25.563574 
L 190.761843 26.462317 
L 191.666593 26.062875 
L 192.571343 26.687002 
L 193.476093 29.383231 
L 194.380843 32.578761 
L 195.285593 32.753516 
L 196.190343 32.254215 
L 197.095093 32.22925 
L 196.190343 34.526037 
L 195.285593 37.397021 
L 192.571343 43.463535 
L 191.666593 44.636894 
L 190.761843 46.109834 
L 189.857093 45.935078 
L 188.952343 46.58417 
L 188.047593 46.908716 
L 187.142843 47.982215 
L 186.238093 49.555015 
L 185.333343 51.677046 
L 183.523843 54.198519 
L 182.619093 54.423205 
L 181.714343 55.022367 
L 180.809593 55.771319 
L 179.904843 57.069503 
L 179.000093 58.767129 
L 178.095343 59.16657 
L 176.285843 60.714405 
L 175.381094 61.987624 
L 173.571594 63.860005 
L 171.762094 66.381478 
L 170.857344 67.205325 
L 169.047844 68.503509 
L 168.143094 68.902951 
L 166.333594 70.2261 
L 164.524094 72.522887 
L 163.619344 73.147014 
L 162.714594 74.220512 
L 161.809844 74.644919 
L 160.905094 75.593592 
L 160.000344 75.468766 
L 159.095594 76.167789 
L 158.190844 76.192754 
L 157.286094 77.191357 
L 155.476594 78.864017 
L 152.762344 79.563039 
L 151.857594 80.037376 
L 150.952844 80.336957 
L 150.048094 81.085909 
L 149.143344 81.460385 
L 148.238594 81.660106 
L 147.333844 81.510315 
L 146.429094 81.909757 
L 145.524344 82.059547 
L 144.619594 82.633744 
L 143.714844 82.658709 
L 142.810094 83.182976 
L 141.905344 82.933325 
L 141.000594 83.307801 
L 140.095844 83.332766 
L 138.286345 83.807103 
L 137.381595 83.881998 
L 136.476845 84.081719 
L 135.572095 83.981858 
L 134.667345 84.406265 
L 132.857845 84.805706 
L 131.953095 84.556055 
L 130.143595 84.506125 
L 126.524595 85.429833 
L 125.619845 85.529693 
L 125.619845 85.529693 
" clip-path="url(#p9472399c78)" style="fill: none; stroke: #0000ff; stroke-opacity: 0.236842; stroke-width: 0.5; stroke-linecap: square"/>
   </g>
   <g id="line2d_58">
    <path d="M 124.715095 84.231509 
L 125.619845 82.883395 
L 126.524595 82.084512 
L 127.429345 80.861223 
L 128.334095 80.511712 
L 129.238845 79.637935 
L 130.143595 79.288423 
L 131.953095 77.490938 
L 132.857845 76.692055 
L 133.762595 75.643522 
L 134.667345 74.844639 
L 135.572095 73.721211 
L 136.476845 72.822468 
L 137.381595 71.574214 
L 138.286345 70.950087 
L 139.191094 69.577008 
L 140.095844 68.578405 
L 141.000594 67.13043 
L 141.905344 66.556233 
L 143.714844 64.184551 
L 144.619594 62.961262 
L 145.524344 62.187344 
L 146.429094 61.038951 
L 148.238594 59.16657 
L 149.143344 58.093071 
L 150.048094 57.194329 
L 150.952844 55.396843 
L 151.857594 54.4981 
L 152.762344 53.174951 
L 153.667094 52.101453 
L 154.571844 50.628513 
L 157.286094 47.258227 
L 158.190844 45.760323 
L 160.000344 43.463535 
L 160.905094 41.9157 
L 161.809844 40.617516 
L 162.714594 39.693808 
L 164.524094 37.546812 
L 165.428844 35.924081 
L 166.333594 34.875548 
L 167.238344 33.552399 
L 168.143094 32.528831 
L 169.047844 31.155751 
L 169.952594 30.132183 
L 170.857344 28.709174 
L 171.762094 27.860361 
L 173.571594 25.214063 
L 174.476344 24.440145 
L 177.190593 19.846571 
L 178.095343 18.798037 
L 179.000093 18.473491 
L 179.904843 17.599714 
L 180.809593 17.499853 
L 181.714343 17.574748 
L 183.523843 18.348666 
L 184.428593 19.072653 
L 185.333343 20.395802 
L 186.238093 22.592729 
L 187.142843 23.516437 
L 188.952343 24.490075 
L 189.857093 25.338888 
L 190.761843 26.387421 
L 193.476093 31.105821 
L 194.380843 31.455332 
L 195.285593 32.528831 
L 196.190343 32.578761 
L 197.095093 31.879739 
L 197.999843 31.655053 
L 198.904593 32.304145 
L 199.809343 33.90191 
L 200.714093 35.824221 
L 201.618843 38.62031 
L 202.523593 42.489897 
L 203.428343 43.463535 
L 204.333093 43.213884 
L 205.237843 42.265211 
L 204.333093 44.087662 
L 203.428343 47.308157 
L 202.523593 48.980818 
L 200.714093 50.578583 
L 198.904593 55.496703 
L 197.999843 56.495306 
L 197.095093 56.695027 
L 196.190343 57.868386 
L 194.380843 60.814265 
L 193.476093 61.488322 
L 190.761843 64.159586 
L 189.857093 65.432805 
L 188.952343 66.031967 
L 188.047593 67.430011 
L 187.142843 68.203928 
L 186.238093 69.277427 
L 185.333343 69.976449 
L 184.428593 70.201135 
L 183.523843 71.124843 
L 182.619093 71.699039 
L 181.714343 72.747573 
L 179.904843 74.145617 
L 179.000093 74.395268 
L 177.190593 75.668487 
L 176.285843 76.66709 
L 175.381094 76.66709 
L 174.476344 76.891776 
L 173.571594 77.316182 
L 171.762094 78.913947 
L 169.952594 78.913947 
L 169.047844 79.038773 
L 168.143094 79.413249 
L 167.238344 80.112271 
L 166.333594 79.962481 
L 164.524094 80.486747 
L 163.619344 80.886188 
L 161.809844 81.260665 
L 160.000344 82.259268 
L 158.190844 82.309198 
L 157.286094 82.533884 
L 156.381344 82.95829 
L 155.476594 83.10808 
L 154.571844 83.382696 
L 153.667094 83.307801 
L 152.762344 83.682277 
L 151.857594 83.457592 
L 150.048094 83.557452 
L 147.333844 84.63095 
L 145.524344 84.980461 
L 142.810094 83.881998 
L 141.000594 84.58102 
L 140.095844 84.980461 
L 138.286345 84.980461 
L 137.381595 84.58102 
L 135.572095 84.68088 
L 134.667345 85.379903 
L 133.762595 85.305007 
L 132.857845 85.404868 
L 131.953095 85.130252 
L 130.143595 85.504728 
L 129.238845 85.329973 
L 128.334095 85.305007 
L 127.429345 85.055357 
L 126.524595 85.205147 
L 125.619845 85.230112 
L 125.619845 85.230112 
" clip-path="url(#p9472399c78)" style="fill: none; stroke: #0000ff; stroke-opacity: 0.271053; stroke-width: 0.5; stroke-linecap: square"/>
   </g>
   <g id="line2d_59">
    <path d="M 124.715095 83.682277 
L 125.619845 82.359128 
L 126.524595 81.959687 
L 127.429345 81.035979 
L 128.334095 80.361922 
L 129.238845 78.988842 
L 131.048345 78.0901 
L 131.953095 77.690658 
L 132.857845 76.841846 
L 137.381595 71.873795 
L 138.286345 71.049947 
L 139.191094 69.577008 
L 141.000594 67.430011 
L 142.810094 66.007001 
L 143.714844 64.559027 
L 145.524344 62.561821 
L 147.333844 59.865592 
L 148.238594 58.292792 
L 150.048094 56.395446 
L 151.857594 53.424602 
L 153.667094 51.751941 
L 154.571844 51.052919 
L 158.190844 45.685427 
L 160.905094 41.316538 
L 161.809844 40.442761 
L 162.714594 39.344297 
L 163.619344 38.445554 
L 166.333594 34.126596 
L 167.238344 33.003167 
L 168.143094 31.680018 
L 169.952594 29.582951 
L 170.857344 28.134977 
L 174.476344 23.441542 
L 175.381094 22.068463 
L 176.285843 21.344475 
L 178.095343 18.773072 
L 179.000093 17.899295 
L 179.904843 17.499853 
L 181.714343 18.798037 
L 183.523843 19.49706 
L 184.428593 19.79664 
L 185.333343 20.320907 
L 187.142843 20.920069 
L 188.047593 21.244615 
L 188.952343 22.517834 
L 189.857093 23.491472 
L 190.761843 26.761898 
L 191.666593 29.607916 
L 192.571343 33.227853 
L 193.476093 35.349885 
L 194.380843 38.046113 
L 195.285593 40.068285 
L 196.190343 42.415002 
L 197.095093 42.240246 
L 197.999843 42.589758 
L 198.904593 40.24304 
L 197.999843 41.191713 
L 197.095093 42.564792 
L 196.190343 45.760323 
L 195.285593 47.632703 
L 193.476093 50.179141 
L 192.571343 50.129211 
L 190.761843 52.575789 
L 189.857093 54.048729 
L 188.952343 54.148589 
L 188.047593 54.54803 
L 187.142843 55.421808 
L 186.238093 56.769922 
L 185.333343 57.74356 
L 184.428593 58.991814 
L 183.523843 60.73937 
L 182.619093 61.163776 
L 181.714343 61.962659 
L 180.809593 61.812868 
L 179.904843 62.661681 
L 179.000093 63.111052 
L 178.095343 63.735179 
L 176.285843 65.857211 
L 175.381094 67.005605 
L 173.571594 68.503509 
L 171.762094 70.126239 
L 170.857344 70.950087 
L 168.143094 73.022189 
L 164.524094 75.918138 
L 163.619344 76.317579 
L 162.714594 76.991636 
L 161.809844 77.490938 
L 160.905094 78.314785 
L 160.000344 78.839052 
L 159.095594 79.76276 
L 158.190844 80.187166 
L 157.286094 80.861223 
L 156.381344 80.886188 
L 155.476594 81.110874 
L 154.571844 81.560246 
L 153.667094 81.735001 
L 152.762344 82.159407 
L 151.857594 81.809896 
L 150.952844 82.359128 
L 150.048094 82.608779 
L 149.143344 83.282836 
L 146.429094 83.832068 
L 145.524344 83.707242 
L 144.619594 83.857033 
L 143.714844 83.657312 
L 142.810094 83.682277 
L 141.905344 83.857033 
L 140.095844 84.48116 
L 139.191094 84.48116 
L 138.286345 84.231509 
L 136.476845 84.63095 
L 135.572095 84.955496 
L 134.667345 85.504728 
L 132.857845 85.205147 
L 131.953095 84.730811 
L 131.048345 85.130252 
L 130.143595 85.055357 
L 129.238845 85.454798 
L 128.334095 85.255077 
L 127.429345 85.654519 
L 126.524595 85.429833 
L 125.619845 85.479763 
L 125.619845 85.479763 
" clip-path="url(#p9472399c78)" style="fill: none; stroke: #0000ff; stroke-opacity: 0.305263; stroke-width: 0.5; stroke-linecap: square"/>
   </g>
   <g id="line2d_60">
    <path d="M 124.715095 84.206544 
L 125.619845 83.182976 
L 126.524595 82.384093 
L 127.429345 81.38549 
L 128.334095 80.661503 
L 129.238845 79.76276 
L 131.048345 78.439611 
L 132.857845 76.46737 
L 134.667345 74.170582 
L 135.572095 73.446595 
L 136.476845 72.323166 
L 138.286345 70.42582 
L 141.000594 67.23029 
L 142.810094 65.108259 
L 143.714844 63.710214 
L 146.429094 61.313567 
L 148.238594 58.842024 
L 149.143344 57.443979 
L 150.048094 56.320551 
L 150.952844 54.797681 
L 152.762344 52.750545 
L 156.381344 48.032145 
L 157.286094 47.333122 
L 158.190844 45.635497 
L 160.000344 43.313745 
L 160.905094 42.564792 
L 163.619344 38.071078 
L 164.524094 37.09744 
L 165.428844 35.125199 
L 166.333594 34.226456 
L 169.047844 31.080856 
L 169.952594 29.732742 
L 170.857344 28.858964 
L 171.762094 27.635675 
L 174.476344 23.141961 
L 175.381094 21.943637 
L 176.285843 20.945034 
L 178.095343 17.92426 
L 179.904843 16.35146 
L 180.809593 16.076844 
L 181.714343 15.677402 
L 182.619093 15.577542 
L 184.428593 16.326495 
L 185.333343 17.574748 
L 187.142843 20.795244 
L 188.047593 21.968602 
L 188.952343 23.716158 
L 189.857093 26.337491 
L 191.666593 30.007358 
L 193.476093 33.152958 
L 194.380843 33.876945 
L 195.285593 35.200094 
L 197.095093 38.645275 
L 197.999843 38.7701 
L 198.904593 38.470519 
L 199.809343 38.62031 
L 201.618843 43.962837 
L 202.523593 47.083472 
L 204.333093 50.453757 
L 205.237843 50.303967 
L 206.142593 49.804665 
L 207.047343 49.57998 
L 207.952093 51.227675 
L 206.142593 56.844818 
L 205.237843 58.991814 
L 204.333093 59.840627 
L 202.523593 61.113846 
L 201.618843 61.213706 
L 199.809343 62.337135 
L 198.904593 63.310773 
L 197.999843 64.733782 
L 197.095093 65.45777 
L 196.190343 66.730989 
L 194.380843 68.75316 
L 193.476093 69.327357 
L 192.571343 69.427217 
L 190.761843 71.049947 
L 189.857093 71.724005 
L 188.952343 72.223306 
L 186.238093 74.470163 
L 185.333343 74.919535 
L 184.428593 75.568627 
L 180.809593 77.465973 
L 179.000093 78.28982 
L 177.190593 78.539471 
L 176.285843 79.138633 
L 175.381094 79.588004 
L 174.476344 80.411852 
L 173.571594 80.511712 
L 172.666844 81.060944 
L 169.952594 81.410455 
L 169.047844 81.759966 
L 168.143094 81.535281 
L 167.238344 81.934722 
L 166.333594 82.059547 
L 165.428844 82.683674 
L 164.524094 82.783534 
L 162.714594 83.332766 
L 161.809844 83.307801 
L 160.905094 83.557452 
L 160.000344 83.482557 
L 159.095594 83.557452 
L 158.190844 83.257871 
L 156.381344 83.881998 
L 153.667094 83.857033 
L 152.762344 84.106684 
L 151.857594 84.031788 
L 150.048094 84.281439 
L 149.143344 84.43123 
L 146.429094 84.456195 
L 145.524344 84.605985 
L 143.714844 84.456195 
L 142.810094 84.256474 
L 141.905344 84.506125 
L 141.000594 84.48116 
L 140.095844 84.805706 
L 139.191094 84.730811 
L 138.286345 84.980461 
L 137.381595 84.730811 
L 136.476845 84.605985 
L 134.667345 84.655915 
L 133.762595 84.955496 
L 130.143595 84.980461 
L 129.238845 85.305007 
L 128.334095 85.404868 
L 126.524595 85.305007 
L 125.619845 85.280042 
L 125.619845 85.280042 
" clip-path="url(#p9472399c78)" style="fill: none; stroke: #0000ff; stroke-opacity: 0.339474; stroke-width: 0.5; stroke-linecap: square"/>
   </g>
   <g id="line2d_61">
    <path d="M 124.715095 84.006823 
L 125.619845 82.708639 
L 126.524595 82.184373 
L 127.429345 81.011014 
L 128.334095 80.586608 
L 129.238845 79.837655 
L 130.143595 79.488144 
L 131.048345 78.514506 
L 131.953095 77.266252 
L 132.857845 76.217719 
L 133.762595 75.618557 
L 135.572095 74.020792 
L 136.476845 73.097084 
L 138.286345 71.499319 
L 139.191094 70.42582 
L 140.095844 69.177566 
L 141.000594 68.129033 
L 141.905344 66.830849 
L 142.810094 66.007001 
L 143.714844 64.783713 
L 145.524344 62.861402 
L 146.429094 61.862798 
L 147.333844 60.489719 
L 148.238594 59.391256 
L 150.952844 55.122227 
L 151.857594 53.873973 
L 155.476594 50.079281 
L 156.381344 48.681237 
L 157.286094 47.557808 
L 158.190844 46.159764 
L 159.095594 45.11123 
L 160.000344 43.413605 
L 163.619344 38.395624 
L 164.524094 36.972615 
L 165.428844 35.799256 
L 166.333594 34.850583 
L 167.238344 34.251421 
L 168.143094 32.553796 
L 169.952594 29.732742 
L 171.762094 28.010151 
L 174.476344 24.290355 
L 175.381094 22.94224 
L 176.285843 21.943637 
L 177.190593 20.071256 
L 179.000093 17.424958 
L 179.904843 16.875726 
L 180.809593 16.576145 
L 181.714343 16.700971 
L 182.619093 16.301529 
L 183.523843 16.651041 
L 184.428593 17.375028 
L 185.333343 19.147548 
L 187.142843 23.716158 
L 188.047593 26.387421 
L 189.857093 30.331904 
L 190.761843 31.605123 
L 191.666593 32.304145 
L 192.571343 33.352678 
L 193.476093 34.176526 
L 194.380843 36.398418 
L 195.285593 36.697999 
L 196.190343 39.818634 
L 197.095093 40.19311 
L 197.999843 41.641085 
L 198.904593 41.641085 
L 196.190343 49.929491 
L 195.285593 51.477326 
L 193.476093 55.047332 
L 191.666593 59.566011 
L 190.761843 60.864195 
L 188.047593 61.188741 
L 187.142843 61.937694 
L 185.333343 64.284411 
L 184.428593 65.782316 
L 183.523843 66.581198 
L 182.619093 67.105465 
L 181.714343 67.454976 
L 179.904843 69.027776 
L 179.000093 70.300995 
L 178.095343 70.925122 
L 177.190593 71.7989 
L 176.285843 72.198341 
L 170.857344 75.618557 
L 169.047844 76.442404 
L 168.143094 76.61716 
L 167.238344 77.515903 
L 165.428844 78.564436 
L 163.619344 79.038773 
L 162.714594 79.71283 
L 161.809844 80.037376 
L 160.905094 80.237096 
L 160.000344 80.711433 
L 159.095594 80.986049 
L 158.190844 81.510315 
L 157.286094 81.48535 
L 156.381344 81.784931 
L 155.476594 81.809896 
L 154.571844 82.608779 
L 153.667094 82.8085 
L 152.762344 83.133046 
L 151.857594 82.708639 
L 150.952844 82.983255 
L 150.048094 83.133046 
L 149.143344 83.607382 
L 148.238594 83.657312 
L 147.333844 84.106684 
L 142.810094 84.68088 
L 141.905344 84.506125 
L 140.095844 84.58102 
L 139.191094 84.356334 
L 136.476845 85.130252 
L 135.572095 85.230112 
L 133.762595 85.080322 
L 132.857845 84.63095 
L 131.953095 84.655915 
L 131.048345 84.805706 
L 130.143595 85.379903 
L 129.238845 85.654519 
L 127.429345 85.729414 
L 126.524595 85.579623 
L 125.619845 85.604588 
L 125.619845 85.604588 
" clip-path="url(#p9472399c78)" style="fill: none; stroke: #0000ff; stroke-opacity: 0.373684; stroke-width: 0.5; stroke-linecap: square"/>
   </g>
   <g id="line2d_62">
    <path d="M 124.715095 84.406265 
L 125.619845 83.582417 
L 126.524595 82.583814 
L 127.429345 81.984652 
L 128.334095 81.185769 
L 130.143595 78.988842 
L 131.048345 77.940309 
L 135.572095 73.696246 
L 136.476845 72.522887 
L 140.095844 68.80309 
L 141.000594 67.654697 
L 143.714844 65.108259 
L 144.619594 63.785109 
L 145.524344 62.686646 
L 146.429094 61.013986 
L 147.333844 60.215103 
L 148.238594 58.991814 
L 149.143344 58.242862 
L 150.048094 57.019573 
L 150.952844 55.546633 
L 151.857594 53.799078 
L 153.667094 52.151383 
L 154.571844 51.052919 
L 156.381344 47.882354 
L 157.286094 47.383053 
L 158.190844 46.034938 
L 159.095594 44.96144 
L 160.000344 43.688221 
L 161.809844 41.790875 
L 162.714594 40.467726 
L 163.619344 38.72017 
L 164.524094 37.421986 
L 165.428844 35.874151 
L 166.333594 35.075269 
L 167.238344 33.976805 
L 168.143094 33.177923 
L 169.047844 31.754913 
L 169.952594 30.581555 
L 170.857344 28.709174 
L 171.762094 27.535815 
L 172.666844 25.763294 
L 174.476344 23.391612 
L 175.381094 21.793847 
L 177.190593 19.422164 
L 179.000093 17.674609 
L 179.904843 16.326495 
L 180.809593 15.552577 
L 181.714343 15.627472 
L 182.619093 15.827193 
L 183.523843 16.276564 
L 185.333343 16.45132 
L 186.238093 17.375028 
L 187.142843 18.548387 
L 188.952343 23.865948 
L 191.666593 28.784069 
L 192.571343 30.207078 
L 193.476093 31.080856 
L 194.380843 32.578761 
L 195.285593 35.749326 
L 196.190343 39.793669 
L 197.095093 42.864373 
L 197.999843 44.287383 
L 198.904593 45.261021 
L 199.809343 45.310951 
L 200.714093 47.308157 
L 201.618843 48.356691 
L 202.523593 45.460742 
L 203.428343 43.563396 
L 204.333093 45.485707 
L 203.428343 52.750545 
L 202.523593 56.395446 
L 200.714093 56.819852 
L 199.809343 57.668665 
L 197.999843 58.966849 
L 197.095093 59.416221 
L 196.190343 60.414824 
L 195.285593 61.862798 
L 194.380843 63.610354 
L 191.666593 66.805884 
L 190.761843 68.353719 
L 189.857093 69.377287 
L 188.952343 70.750366 
L 188.047593 71.174773 
L 187.142843 71.773935 
L 186.238093 72.123446 
L 183.523843 74.245477 
L 182.619093 74.644919 
L 181.714343 75.568627 
L 179.904843 76.891776 
L 178.095343 77.366112 
L 176.285843 79.038773 
L 175.381094 79.588004 
L 173.571594 79.887585 
L 172.666844 80.386887 
L 171.762094 81.035979 
L 170.857344 81.510315 
L 169.047844 81.809896 
L 167.238344 82.134442 
L 166.333594 82.059547 
L 163.619344 83.05815 
L 161.809844 83.257871 
L 160.000344 83.232906 
L 157.286094 84.406265 
L 156.381344 84.356334 
L 155.476594 84.63095 
L 154.571844 84.58102 
L 153.667094 84.705846 
L 152.762344 84.506125 
L 151.857594 84.63095 
L 150.952844 84.406265 
L 150.048094 84.905566 
L 149.143344 85.030392 
L 148.238594 85.305007 
L 146.429094 84.755776 
L 143.714844 85.255077 
L 141.905344 85.205147 
L 139.191094 84.755776 
L 138.286345 84.930531 
L 137.381595 84.880601 
L 135.572095 85.080322 
L 134.667345 85.454798 
L 133.762595 85.554658 
L 132.857845 85.804309 
L 131.953095 85.479763 
L 131.048345 85.779344 
L 130.143595 85.504728 
L 129.238845 85.604588 
L 128.334095 85.529693 
L 127.429345 85.629553 
L 126.524595 85.379903 
L 125.619845 85.280042 
L 125.619845 85.280042 
" clip-path="url(#p9472399c78)" style="fill: none; stroke: #0000ff; stroke-opacity: 0.407895; stroke-width: 0.5; stroke-linecap: square"/>
   </g>
   <g id="line2d_63">
    <path d="M 124.715095 84.53109 
L 127.429345 81.310595 
L 128.334095 80.761363 
L 129.238845 79.6629 
L 130.143595 79.063738 
L 132.857845 76.592195 
L 133.762595 75.468766 
L 135.572095 73.920931 
L 136.476845 72.597782 
L 137.381595 71.474354 
L 140.095844 68.80309 
L 141.000594 67.405046 
L 142.810094 66.031967 
L 146.429094 61.338532 
L 147.333844 60.364894 
L 148.238594 59.11664 
L 150.048094 56.17076 
L 151.857594 53.724183 
L 152.762344 52.750545 
L 157.286094 47.058507 
L 158.190844 45.910113 
L 159.095594 44.561999 
L 161.809844 41.216678 
L 163.619344 37.946253 
L 166.333594 34.725758 
L 167.238344 33.926875 
L 170.857344 28.309732 
L 171.762094 27.435955 
L 172.666844 26.137771 
L 173.571594 24.390215 
L 174.476344 23.241821 
L 175.381094 21.893707 
L 176.285843 21.344475 
L 177.190593 20.146152 
L 178.095343 19.172514 
L 179.904843 17.824399 
L 180.809593 17.499853 
L 181.714343 17.524818 
L 182.619093 17.275168 
L 183.523843 17.949225 
L 184.428593 18.298736 
L 185.333343 19.49706 
L 186.238093 20.046291 
L 187.142843 21.893707 
L 190.761843 32.478901 
L 194.380843 39.419192 
L 195.285593 39.618913 
L 196.190343 40.19311 
L 197.095093 40.09325 
L 197.999843 41.516259 
L 198.904593 41.516259 
L 199.809343 43.513465 
L 200.714093 45.211091 
L 201.618843 47.233262 
L 202.523593 48.706202 
L 203.428343 50.803268 
L 204.333093 52.600754 
L 205.237843 50.828234 
L 206.142593 48.00718 
L 207.047343 44.586964 
L 206.142593 46.359484 
L 205.237843 48.781097 
L 204.333093 53.199916 
L 203.428343 55.571599 
L 202.523593 57.468945 
L 201.618843 57.918316 
L 200.714093 58.242862 
L 199.809343 58.392652 
L 198.904593 59.416221 
L 197.999843 60.140208 
L 197.095093 60.389859 
L 196.190343 60.914125 
L 195.285593 62.26224 
L 191.666593 66.606163 
L 189.857093 67.829452 
L 188.047593 70.001414 
L 187.142843 70.400855 
L 185.333343 71.724005 
L 182.619093 73.696246 
L 181.714343 74.594989 
L 180.809593 75.019395 
L 179.904843 75.269046 
L 179.000093 75.943103 
L 178.095343 76.791916 
L 175.381094 77.291217 
L 174.476344 78.115065 
L 173.571594 78.464576 
L 172.666844 78.639331 
L 170.857344 79.338354 
L 169.952594 79.71283 
L 168.143094 80.611573 
L 167.238344 80.986049 
L 166.333594 80.811293 
L 164.524094 81.011014 
L 163.619344 81.585211 
L 162.714594 81.834861 
L 161.809844 82.309198 
L 160.905094 82.209338 
L 160.000344 82.733604 
L 159.095594 82.683674 
L 158.190844 83.457592 
L 157.286094 83.357731 
L 156.381344 83.632347 
L 155.476594 83.507522 
L 154.571844 83.607382 
L 153.667094 83.507522 
L 152.762344 83.532487 
L 151.857594 83.707242 
L 150.952844 83.757173 
L 150.048094 83.607382 
L 148.238594 83.607382 
L 147.333844 83.757173 
L 145.524344 83.682277 
L 144.619594 83.906963 
L 143.714844 83.807103 
L 142.810094 84.106684 
L 141.905344 84.231509 
L 141.000594 84.655915 
L 139.191094 84.456195 
L 138.286345 84.506125 
L 137.381595 84.755776 
L 136.476845 84.855636 
L 135.572095 84.63095 
L 133.762595 85.305007 
L 131.953095 85.529693 
L 131.048345 85.255077 
L 130.143595 85.255077 
L 129.238845 84.955496 
L 128.334095 85.404868 
L 127.429345 85.679484 
L 126.524595 85.529693 
L 125.619845 85.230112 
L 125.619845 85.230112 
" clip-path="url(#p9472399c78)" style="fill: none; stroke: #0000ff; stroke-opacity: 0.442105; stroke-width: 0.5; stroke-linecap: square"/>
   </g>
   <g id="line2d_64">
    <path d="M 124.715095 84.106684 
L 125.619845 82.90836 
L 126.524595 81.984652 
L 128.334095 80.436817 
L 130.143595 78.739192 
L 131.048345 78.115065 
L 131.953095 76.966671 
L 132.857845 76.117858 
L 133.762595 75.069325 
L 134.667345 74.420233 
L 136.476845 72.572817 
L 137.381595 71.374493 
L 138.286345 70.725401 
L 141.000594 67.454976 
L 141.905344 66.256652 
L 142.810094 65.5077 
L 145.524344 62.561821 
L 146.429094 61.063916 
L 148.238594 58.542443 
L 149.143344 57.6437 
L 150.048094 56.994608 
L 156.381344 48.331726 
L 158.190844 46.084869 
L 159.095594 44.886545 
L 160.000344 43.937872 
L 160.905094 42.215281 
L 165.428844 35.549605 
L 166.333594 34.051701 
L 167.238344 32.978202 
L 168.143094 31.555193 
L 169.047844 30.70638 
L 169.952594 29.208475 
L 171.762094 27.011548 
L 173.571594 24.115599 
L 176.285843 21.718952 
L 177.190593 19.846571 
L 179.000093 17.275168 
L 183.523843 14.628869 
L 184.428593 14.92845 
L 185.333343 15.952018 
L 186.238093 17.824399 
L 188.047593 23.716158 
L 188.952343 25.538609 
L 189.857093 26.08784 
L 190.761843 29.533021 
L 191.666593 34.226456 
L 192.571343 39.693808 
L 193.476093 42.664653 
L 194.380843 43.513465 
L 195.285593 44.661859 
L 196.190343 44.262418 
L 197.095093 44.586964 
L 198.904593 44.586964 
L 199.809343 45.485707 
L 200.714093 45.985008 
L 201.618843 48.606342 
L 202.523593 49.030748 
L 203.428343 50.079281 
L 204.333093 50.878164 
L 203.428343 54.073694 
L 202.523593 55.296983 
L 201.618843 55.871179 
L 200.714093 55.296983 
L 199.809343 56.894748 
L 198.904593 58.941884 
L 197.999843 61.588183 
L 196.190343 63.685249 
L 194.380843 66.606163 
L 193.476093 67.430011 
L 192.571343 67.979243 
L 190.761843 69.577008 
L 188.047593 72.447992 
L 186.238093 73.671281 
L 185.333343 74.020792 
L 182.619093 76.242684 
L 180.809593 77.191357 
L 179.904843 77.915344 
L 178.095343 78.439611 
L 177.190593 78.414646 
L 176.285843 79.238493 
L 175.381094 79.787725 
L 174.476344 80.112271 
L 173.571594 80.137236 
L 170.857344 81.560246 
L 167.238344 82.059547 
L 166.333594 82.434023 
L 164.524094 82.733604 
L 163.619344 82.558849 
L 162.714594 82.683674 
L 161.809844 82.583814 
L 160.905094 82.608779 
L 158.190844 83.582417 
L 156.381344 83.557452 
L 154.571844 84.006823 
L 150.952844 84.456195 
L 150.048094 84.506125 
L 149.143344 84.231509 
L 148.238594 84.58102 
L 147.333844 84.556055 
L 146.429094 84.780741 
L 145.524344 84.58102 
L 144.619594 84.655915 
L 143.714844 84.506125 
L 142.810094 84.68088 
L 141.905344 84.730811 
L 141.000594 85.080322 
L 139.191094 84.780741 
L 138.286345 85.080322 
L 137.381595 85.504728 
L 136.476845 85.679484 
L 134.667345 85.055357 
L 132.857845 85.404868 
L 131.953095 85.704449 
L 131.048345 85.454798 
L 129.238845 85.280042 
L 128.334095 85.604588 
L 126.524595 85.704449 
L 125.619845 85.529693 
L 125.619845 85.529693 
" clip-path="url(#p9472399c78)" style="fill: none; stroke: #0000ff; stroke-opacity: 0.476316; stroke-width: 0.5; stroke-linecap: square"/>
   </g>
   <g id="line2d_65">
    <path d="M 124.715095 84.131649 
L 125.619845 82.783534 
L 126.524595 81.685071 
L 128.334095 80.686468 
L 130.143595 79.138633 
L 131.048345 78.589401 
L 131.953095 77.765554 
L 132.857845 76.71702 
L 133.762595 75.393871 
L 135.572095 73.671281 
L 136.476845 72.747573 
L 137.381595 71.449389 
L 138.286345 70.850227 
L 139.191094 69.626938 
L 140.095844 68.828055 
L 141.905344 66.780919 
L 142.810094 65.432805 
L 143.714844 63.685249 
L 144.619594 62.786506 
L 145.524344 62.387065 
L 146.429094 61.513287 
L 148.238594 58.692233 
L 150.048094 56.17076 
L 150.952844 54.44817 
L 151.857594 53.224881 
L 153.667094 51.652081 
L 154.571844 50.628513 
L 160.000344 43.43857 
L 160.905094 42.040526 
L 162.714594 39.818634 
L 163.619344 38.495485 
L 164.524094 37.372056 
L 165.428844 35.674431 
L 166.333594 34.451142 
L 169.047844 31.305542 
L 172.666844 25.738329 
L 173.571594 24.664831 
L 174.476344 23.766088 
L 178.095343 19.022723 
L 179.000093 18.07405 
L 179.904843 16.775866 
L 180.809593 15.702368 
L 182.619093 14.953415 
L 184.428593 14.553974 
L 185.333343 14.97838 
L 186.238093 16.226634 
L 187.142843 17.849364 
L 188.952343 24.564971 
L 189.857093 27.311129 
L 190.761843 27.435955 
L 192.571343 28.634278 
L 193.476093 31.305542 
L 194.380843 34.351281 
L 196.190343 41.740945 
L 197.095093 43.014164 
L 197.999843 45.460742 
L 198.904593 45.435776 
L 199.809343 47.183332 
L 200.714093 45.560602 
L 199.809343 47.258227 
L 198.904593 47.882354 
L 197.999843 51.20271 
L 197.095093 52.450964 
L 196.190343 54.523065 
L 195.285593 54.947472 
L 194.380843 55.871179 
L 192.571343 58.617338 
L 191.666593 60.539649 
L 190.761843 61.463357 
L 189.857093 62.062519 
L 188.952343 62.46196 
L 188.047593 63.210913 
L 186.238093 65.108259 
L 185.333343 65.482735 
L 184.428593 66.231687 
L 183.523843 67.155395 
L 182.619093 68.303789 
L 180.809593 69.427217 
L 179.904843 69.851624 
L 177.190593 72.048551 
L 173.571594 74.470163 
L 172.666844 74.669884 
L 171.762094 75.069325 
L 170.857344 75.693452 
L 169.952594 76.017998 
L 169.047844 76.46737 
L 168.143094 76.76695 
L 167.238344 77.515903 
L 166.333594 77.990239 
L 164.524094 79.313389 
L 163.619344 79.463179 
L 161.809844 79.438214 
L 160.905094 79.887585 
L 160.000344 80.162201 
L 159.095594 80.711433 
L 158.190844 80.811293 
L 157.286094 81.185769 
L 152.762344 82.159407 
L 151.857594 82.109477 
L 150.952844 81.934722 
L 150.048094 82.184373 
L 148.238594 83.407661 
L 147.333844 83.857033 
L 146.429094 83.532487 
L 145.524344 83.457592 
L 144.619594 83.083115 
L 142.810094 83.807103 
L 141.905344 84.3813 
L 141.000594 84.58102 
L 140.095844 84.506125 
L 139.191094 84.231509 
L 138.286345 84.256474 
L 136.476845 84.780741 
L 135.572095 84.755776 
L 134.667345 84.930531 
L 132.857845 85.130252 
L 131.953095 84.955496 
L 131.048345 85.105287 
L 130.143595 85.030392 
L 129.238845 85.280042 
L 128.334095 84.980461 
L 127.429345 85.255077 
L 126.524595 85.030392 
L 125.619845 85.280042 
L 125.619845 85.280042 
" clip-path="url(#p9472399c78)" style="fill: none; stroke: #0000ff; stroke-opacity: 0.510526; stroke-width: 0.5; stroke-linecap: square"/>
   </g>
   <g id="line2d_66">
    <path d="M 124.715095 84.356334 
L 125.619845 83.00822 
L 127.429345 81.260665 
L 129.238845 80.212131 
L 130.143595 79.413249 
L 131.048345 78.938912 
L 133.762595 75.693452 
L 136.476845 73.546455 
L 139.191094 70.600576 
L 143.714844 64.459167 
L 145.524344 62.786506 
L 147.333844 60.564614 
L 149.143344 57.768525 
L 150.952844 55.421808 
L 151.857594 54.44817 
L 153.667094 52.87537 
L 154.571844 52.126418 
L 156.381344 49.130608 
L 157.286094 47.932284 
L 159.095594 45.161161 
L 160.000344 44.037732 
L 160.905094 42.714583 
L 161.809844 41.840805 
L 166.333594 35.37485 
L 169.047844 31.754913 
L 171.762094 27.41099 
L 172.666844 26.612107 
L 173.571594 25.064272 
L 174.476344 24.190494 
L 175.381094 22.492869 
L 176.285843 21.519231 
L 177.190593 20.146152 
L 178.095343 19.147548 
L 180.809593 16.800831 
L 182.619093 16.251599 
L 184.428593 16.426355 
L 185.333343 17.624679 
L 186.238093 19.447129 
L 187.142843 20.570558 
L 188.047593 21.194685 
L 188.952343 22.043498 
L 189.857093 23.865948 
L 190.761843 26.587142 
L 191.666593 30.531624 
L 192.571343 33.976805 
L 193.476093 35.250024 
L 194.380843 35.349885 
L 195.285593 34.351281 
L 197.095093 34.251421 
L 197.999843 36.598139 
L 198.904593 40.492691 
L 199.809343 43.788081 
L 200.714093 46.334519 
L 201.618843 45.186126 
L 202.523593 42.864373 
L 203.428343 44.262418 
L 202.523593 48.2069 
L 201.618843 52.650684 
L 200.714093 55.147192 
L 199.809343 56.994608 
L 198.904593 59.740767 
L 197.999843 60.489719 
L 197.095093 61.088881 
L 195.285593 62.087484 
L 194.380843 63.086087 
L 193.476093 64.334341 
L 192.571343 65.133224 
L 191.666593 66.381478 
L 190.761843 68.203928 
L 189.857093 69.552043 
L 188.952343 70.600576 
L 188.047593 70.675471 
L 186.238093 72.148411 
L 184.428593 73.796106 
L 183.523843 74.545058 
L 182.619093 75.069325 
L 181.714343 75.318976 
L 180.809593 75.443801 
L 178.095343 77.191357 
L 177.190593 77.166392 
L 174.476344 78.938912 
L 173.571594 79.363319 
L 170.857344 80.062341 
L 169.047844 81.38549 
L 166.333594 81.959687 
L 165.428844 82.409058 
L 164.524094 82.209338 
L 163.619344 82.434023 
L 162.714594 82.334163 
L 161.809844 83.033185 
L 160.000344 83.407661 
L 158.190844 83.307801 
L 156.381344 83.732207 
L 155.476594 84.206544 
L 154.571844 84.456195 
L 153.667094 84.356334 
L 152.762344 84.43123 
L 151.857594 84.306404 
L 150.952844 84.605985 
L 149.143344 84.755776 
L 148.238594 84.306404 
L 147.333844 84.106684 
L 146.429094 84.056753 
L 145.524344 84.63095 
L 143.714844 85.379903 
L 141.905344 85.180182 
L 141.000594 85.329973 
L 140.095844 85.305007 
L 139.191094 85.404868 
L 138.286345 85.230112 
L 137.381595 85.329973 
L 136.476845 85.180182 
L 135.572095 85.155217 
L 133.762595 84.705846 
L 131.953095 84.805706 
L 129.238845 85.280042 
L 128.334095 85.529693 
L 125.619845 85.255077 
L 125.619845 85.255077 
" clip-path="url(#p9472399c78)" style="fill: none; stroke: #0000ff; stroke-opacity: 0.544737; stroke-width: 0.5; stroke-linecap: square"/>
   </g>
   <g id="line2d_67">
    <path d="M 124.715095 84.356334 
L 125.619845 83.207941 
L 126.524595 81.784931 
L 128.334095 80.187166 
L 131.048345 78.23989 
L 134.667345 74.644919 
L 135.572095 73.995827 
L 136.476845 72.722608 
L 137.381595 72.023585 
L 138.286345 70.875192 
L 139.191094 70.201135 
L 140.095844 68.85302 
L 141.000594 68.004208 
L 144.619594 62.836436 
L 145.524344 62.387065 
L 146.429094 61.138811 
L 147.333844 60.240068 
L 148.238594 58.767129 
L 149.143344 57.618735 
L 150.048094 56.744957 
L 151.857594 54.198519 
L 152.762344 53.249846 
L 153.667094 51.876767 
L 154.571844 51.102849 
L 155.476594 49.654875 
L 156.381344 48.456551 
L 158.190844 45.460742 
L 160.905094 42.464932 
L 162.714594 39.818634 
L 163.619344 38.245834 
L 165.428844 35.649466 
L 166.333594 34.501072 
L 167.238344 33.702189 
L 170.857344 28.035117 
L 171.762094 27.086444 
L 172.666844 25.738329 
L 177.190593 20.021326 
L 178.095343 18.373631 
L 179.000093 17.574748 
L 179.904843 16.45132 
L 180.809593 16.026914 
L 182.619093 14.628869 
L 183.523843 14.703764 
L 184.428593 15.203066 
L 188.047593 20.945034 
L 188.952343 23.216856 
L 189.857093 24.41518 
L 190.761843 26.187701 
L 191.666593 27.361059 
L 192.571343 29.557986 
L 194.380843 30.456729 
L 195.285593 30.70638 
L 196.190343 33.702189 
L 197.095093 36.248627 
L 197.999843 37.846393 
L 198.904593 38.919891 
L 199.809343 39.194507 
L 200.714093 40.991992 
L 201.618843 39.119612 
L 202.523593 38.919891 
L 203.428343 37.696602 
L 202.523593 43.064094 
L 201.618843 47.283192 
L 200.714093 52.151383 
L 199.809343 53.474532 
L 197.999843 56.695027 
L 197.095093 57.843421 
L 196.190343 60.040348 
L 195.285593 60.714405 
L 194.380843 62.3621 
L 193.476093 62.561821 
L 192.571343 64.509097 
L 191.666593 65.307979 
L 190.761843 67.105465 
L 189.857093 67.929313 
L 188.952343 68.977846 
L 187.142843 69.676868 
L 184.428593 72.572817 
L 183.523843 72.897363 
L 182.619093 73.072119 
L 179.904843 75.294011 
L 179.000093 76.292614 
L 178.095343 76.841846 
L 177.190593 77.241287 
L 175.381094 77.316182 
L 173.571594 78.18996 
L 172.666844 78.913947 
L 171.762094 79.163598 
L 169.952594 79.962481 
L 169.047844 80.861223 
L 168.143094 81.011014 
L 167.238344 81.28563 
L 166.333594 81.110874 
L 163.619344 82.209338 
L 162.714594 82.633744 
L 161.809844 82.758569 
L 160.905094 83.207941 
L 160.000344 83.282836 
L 159.095594 83.582417 
L 156.381344 83.582417 
L 154.571844 83.382696 
L 153.667094 83.557452 
L 151.857594 83.532487 
L 150.952844 83.532487 
L 150.048094 83.657312 
L 148.238594 84.256474 
L 144.619594 85.080322 
L 142.810094 84.880601 
L 141.905344 85.105287 
L 140.095844 85.155217 
L 139.191094 84.755776 
L 138.286345 84.830671 
L 137.381595 84.63095 
L 136.476845 85.130252 
L 135.572095 85.105287 
L 134.667345 85.554658 
L 133.762595 85.155217 
L 132.857845 85.454798 
L 131.953095 85.105287 
L 131.048345 85.280042 
L 130.143595 84.855636 
L 129.238845 84.905566 
L 128.334095 84.805706 
L 127.429345 85.255077 
L 126.524595 85.130252 
L 125.619845 85.379903 
L 125.619845 85.379903 
" clip-path="url(#p9472399c78)" style="fill: none; stroke: #0000ff; stroke-opacity: 0.578947; stroke-width: 0.5; stroke-linecap: square"/>
   </g>
   <g id="line2d_68">
    <path d="M 124.715095 84.231509 
L 125.619845 83.158011 
L 127.429345 81.535281 
L 128.334095 80.811293 
L 129.238845 79.637935 
L 131.048345 78.464576 
L 131.953095 77.990239 
L 132.857845 77.091496 
L 133.762595 75.868208 
L 135.572095 74.220512 
L 136.476845 73.446595 
L 137.381595 71.99862 
L 138.286345 71.349528 
L 139.191094 70.126239 
L 140.095844 69.302392 
L 141.000594 67.854417 
L 141.905344 66.805884 
L 142.810094 66.081897 
L 143.714844 64.808678 
L 144.619594 63.909935 
L 146.429094 61.663078 
L 147.333844 60.539649 
L 149.143344 58.068106 
L 150.048094 57.144398 
L 153.667094 52.700614 
L 154.571844 51.851802 
L 155.476594 50.179141 
L 157.286094 47.832424 
L 158.190844 46.933681 
L 160.000344 43.912907 
L 160.905094 42.589758 
L 161.809844 41.566189 
L 164.524094 37.646672 
L 166.333594 34.875548 
L 167.238344 34.076666 
L 169.952594 29.932463 
L 170.857344 28.584348 
L 171.762094 27.735536 
L 174.476344 23.741123 
L 175.381094 22.218253 
L 176.285843 21.06986 
L 177.190593 19.59692 
L 178.095343 18.598317 
L 179.000093 17.999155 
L 179.904843 17.175307 
L 180.809593 16.101809 
L 181.714343 15.203066 
L 182.619093 14.479079 
L 183.523843 14.029707 
L 184.428593 13.705161 
L 185.333343 13.929847 
L 187.142843 16.476285 
L 188.047593 18.148945 
L 188.952343 20.969999 
L 190.761843 24.814621 
L 191.666593 25.613504 
L 193.476093 26.437351 
L 194.380843 26.487282 
L 195.285593 27.860361 
L 196.190343 31.480297 
L 197.095093 33.127993 
L 197.999843 34.301351 
L 198.904593 31.829809 
L 197.999843 34.301351 
L 196.190343 42.365072 
L 195.285593 42.714583 
L 194.380843 42.165351 
L 193.476093 43.38864 
L 192.571343 45.086265 
L 190.761843 47.582773 
L 189.857093 48.2069 
L 188.952343 49.654875 
L 188.047593 50.528653 
L 187.142843 52.101453 
L 186.238093 52.77551 
L 184.428593 56.270621 
L 183.523843 58.492513 
L 181.714343 60.964056 
L 177.190593 65.582595 
L 176.285843 66.780919 
L 174.476344 68.253859 
L 173.571594 68.528474 
L 172.666844 69.152601 
L 170.857344 71.374493 
L 169.952594 72.323166 
L 169.047844 73.022189 
L 168.143094 73.57142 
L 167.238344 73.970862 
L 166.333594 74.170582 
L 163.619344 76.866811 
L 162.714594 77.041566 
L 161.809844 77.815484 
L 160.905094 78.015204 
L 160.000344 78.639331 
L 159.095594 78.789122 
L 158.190844 79.263458 
L 157.286094 79.513109 
L 156.381344 80.062341 
L 154.571844 80.786328 
L 153.667094 81.310595 
L 151.857594 81.959687 
L 150.048094 82.034582 
L 149.143344 82.109477 
L 147.333844 82.658709 
L 146.429094 82.983255 
L 144.619594 83.282836 
L 143.714844 83.457592 
L 142.810094 83.931928 
L 141.000594 84.331369 
L 140.095844 84.456195 
L 138.286345 84.406265 
L 137.381595 84.605985 
L 136.476845 84.506125 
L 135.572095 84.930531 
L 134.667345 84.780741 
L 133.762595 84.880601 
L 132.857845 84.506125 
L 131.953095 84.331369 
L 131.048345 84.53109 
L 130.143595 84.905566 
L 128.334095 85.080322 
L 127.429345 84.905566 
L 125.619845 85.130252 
L 125.619845 85.130252 
" clip-path="url(#p9472399c78)" style="fill: none; stroke: #0000ff; stroke-opacity: 0.613158; stroke-width: 0.5; stroke-linecap: square"/>
   </g>
   <g id="line2d_69">
    <path d="M 124.715095 84.131649 
L 125.619845 82.883395 
L 127.429345 81.410455 
L 128.334095 81.035979 
L 129.238845 79.787725 
L 130.143595 79.188563 
L 136.476845 72.672678 
L 137.381595 71.624144 
L 138.286345 71.000017 
L 141.905344 66.531268 
L 142.810094 65.757351 
L 143.714844 64.459167 
L 146.429094 61.338532 
L 148.238594 58.517478 
L 150.048094 56.495306 
L 152.762344 53.449567 
L 153.667094 52.026557 
L 154.571844 50.903129 
L 155.476594 49.380259 
L 157.286094 46.883751 
L 159.095594 44.387243 
L 160.000344 43.588361 
L 160.905094 42.564792 
L 161.809844 41.166748 
L 162.714594 39.419192 
L 163.619344 37.996183 
L 164.524094 36.847789 
L 166.333594 34.126596 
L 167.238344 33.053097 
L 168.143094 31.680018 
L 169.047844 30.906101 
L 172.666844 25.488678 
L 174.476344 23.191891 
L 175.381094 21.768882 
L 178.095343 18.573352 
L 179.000093 17.649644 
L 180.809593 15.327891 
L 181.714343 14.578939 
L 182.619093 13.630266 
L 184.428593 12.806418 
L 185.333343 12.731523 
L 186.238093 13.30572 
L 187.142843 13.630266 
L 188.047593 15.128171 
L 188.952343 17.674609 
L 189.857093 19.846571 
L 190.761843 21.619091 
L 191.666593 22.592729 
L 192.571343 24.36525 
L 193.476093 26.786863 
L 194.380843 28.833999 
L 195.285593 29.707777 
L 197.095093 33.876945 
L 197.999843 36.548208 
L 198.904593 35.749326 
L 199.809343 33.926875 
L 200.714093 33.427574 
L 201.618843 32.603726 
L 202.523593 34.775688 
L 203.428343 37.546812 
L 202.523593 42.165351 
L 201.618843 45.685427 
L 200.714093 44.636894 
L 199.809343 46.559205 
L 198.904593 44.561999 
L 197.999843 47.233262 
L 197.095093 44.986405 
L 196.190343 46.833821 
L 195.285593 47.582773 
L 194.380843 50.328932 
L 193.476093 52.625719 
L 192.571343 53.923903 
L 189.857093 56.145795 
L 188.047593 58.542443 
L 187.142843 59.191535 
L 186.238093 60.714405 
L 185.333343 61.588183 
L 184.428593 62.861402 
L 182.619093 63.909935 
L 180.809593 65.382875 
L 179.904843 66.007001 
L 179.000093 66.780919 
L 178.095343 67.305186 
L 177.190593 68.203928 
L 176.285843 68.902951 
L 175.381094 69.776728 
L 174.476344 70.126239 
L 173.571594 70.800297 
L 172.666844 71.224703 
L 171.762094 71.923725 
L 170.857344 72.373097 
L 168.143094 74.844639 
L 162.714594 77.815484 
L 159.095594 78.839052 
L 158.190844 79.438214 
L 156.381344 79.837655 
L 155.476594 79.637935 
L 154.571844 79.91255 
L 153.667094 80.311992 
L 152.762344 80.936119 
L 151.857594 81.035979 
L 150.952844 81.260665 
L 150.048094 81.685071 
L 147.333844 82.384093 
L 146.429094 83.083115 
L 145.524344 83.083115 
L 143.714844 82.608779 
L 142.810094 83.00822 
L 141.000594 83.182976 
L 138.286345 83.782138 
L 137.381595 84.181579 
L 136.476845 84.231509 
L 135.572095 84.031788 
L 134.667345 83.457592 
L 132.857845 84.48116 
L 131.953095 84.705846 
L 131.048345 84.755776 
L 130.143595 84.605985 
L 127.429345 85.080322 
L 126.524595 85.255077 
L 125.619845 85.130252 
L 125.619845 85.130252 
" clip-path="url(#p9472399c78)" style="fill: none; stroke: #0000ff; stroke-opacity: 0.647368; stroke-width: 0.5; stroke-linecap: square"/>
   </g>
   <g id="line2d_70">
    <path d="M 124.715095 84.181579 
L 126.524595 82.084512 
L 128.334095 81.2357 
L 132.857845 76.816881 
L 136.476845 72.847433 
L 138.286345 71.199738 
L 144.619594 63.83504 
L 145.524344 63.160982 
L 146.429094 61.663078 
L 147.333844 60.764335 
L 148.238594 59.191535 
L 150.048094 56.744957 
L 151.857594 54.34831 
L 153.667094 52.301173 
L 154.571844 51.377465 
L 155.476594 49.804665 
L 157.286094 47.283192 
L 158.190844 46.309554 
L 159.095594 44.836615 
L 160.000344 44.087662 
L 160.905094 42.689618 
L 161.809844 41.691015 
L 162.714594 39.868564 
L 164.524094 37.621707 
L 166.333594 34.600932 
L 168.143094 32.37904 
L 169.047844 31.005961 
L 170.857344 27.985186 
L 172.666844 25.963015 
L 174.476344 23.691193 
L 175.381094 22.318113 
L 176.285843 21.244615 
L 179.904843 16.226634 
L 180.809593 14.703764 
L 182.619093 12.681593 
L 185.333343 11.68299 
L 186.238093 11.757885 
L 187.142843 11.258584 
L 188.047593 11.658025 
L 188.952343 11.757885 
L 190.761843 12.606698 
L 191.666593 13.854952 
L 192.571343 15.802228 
L 194.380843 20.845174 
L 195.285593 21.793847 
L 196.190343 22.567764 
L 197.095093 23.791053 
L 197.999843 25.913085 
L 199.809343 31.005961 
L 200.714093 36.048907 
L 201.618843 38.220869 
L 202.523593 38.894926 
L 203.428343 39.943459 
L 202.523593 43.014164 
L 201.618843 45.485707 
L 200.714093 46.733961 
L 199.809343 47.457948 
L 198.904593 48.930888 
L 197.095093 50.204107 
L 196.190343 50.653478 
L 195.285593 50.928094 
L 194.380843 51.926697 
L 193.476093 54.523065 
L 192.571343 56.095865 
L 191.666593 57.194329 
L 190.761843 57.019573 
L 188.952343 57.74356 
L 188.047593 59.016779 
L 187.142843 60.664475 
L 186.238093 61.713008 
L 185.333343 62.3621 
L 184.428593 62.811471 
L 183.523843 64.059725 
L 182.619093 64.559027 
L 181.714343 65.682455 
L 180.809593 66.181757 
L 179.904843 67.504906 
L 179.000093 67.854417 
L 178.095343 68.60337 
L 177.190593 69.102671 
L 176.285843 70.42582 
L 175.381094 71.249668 
L 174.476344 71.7989 
L 173.571594 71.99862 
L 172.666844 72.472957 
L 171.762094 73.446595 
L 169.952594 75.119255 
L 168.143094 75.668487 
L 167.238344 76.192754 
L 165.428844 77.490938 
L 164.524094 78.115065 
L 161.809844 79.113668 
L 160.000344 80.112271 
L 157.286094 80.212131 
L 156.381344 80.536677 
L 155.476594 81.310595 
L 153.667094 82.309198 
L 150.048094 82.384093 
L 149.143344 82.583814 
L 148.238594 82.90836 
L 147.333844 82.95829 
L 146.429094 83.282836 
L 145.524344 83.782138 
L 143.714844 84.43123 
L 142.810094 84.056753 
L 141.905344 83.981858 
L 141.000594 83.782138 
L 139.191094 84.331369 
L 138.286345 84.331369 
L 136.476845 84.68088 
L 135.572095 85.305007 
L 134.667345 85.404868 
L 133.762595 85.305007 
L 132.857845 85.354938 
L 131.953095 85.230112 
L 131.048345 85.604588 
L 126.524595 85.205147 
L 125.619845 85.255077 
L 125.619845 85.255077 
" clip-path="url(#p9472399c78)" style="fill: none; stroke: #0000ff; stroke-opacity: 0.681579; stroke-width: 0.5; stroke-linecap: square"/>
   </g>
   <g id="line2d_71">
    <path d="M 124.715095 84.356334 
L 125.619845 83.282836 
L 126.524595 82.409058 
L 127.429345 81.33556 
L 128.334095 80.786328 
L 129.238845 79.76276 
L 131.953095 78.115065 
L 132.857845 77.091496 
L 133.762595 75.643522 
L 134.667345 74.619954 
L 135.572095 74.070722 
L 136.476845 72.922328 
L 138.286345 70.900157 
L 141.000594 67.829452 
L 141.905344 67.13043 
L 142.810094 65.957071 
L 143.714844 64.509097 
L 144.619594 63.385668 
L 145.524344 62.786506 
L 146.429094 61.613148 
L 147.333844 60.63951 
L 148.238594 59.16657 
L 149.143344 58.267827 
L 151.857594 54.098659 
L 153.667094 52.475929 
L 154.571844 51.427395 
L 155.476594 49.72977 
L 156.381344 48.381656 
L 157.286094 46.833821 
L 158.190844 45.685427 
L 159.095594 44.287383 
L 160.000344 43.53843 
L 160.905094 42.065491 
L 161.809844 41.041923 
L 162.714594 39.693808 
L 164.524094 37.646672 
L 165.428844 36.223662 
L 166.333594 34.476107 
L 167.238344 33.003167 
L 169.952594 29.23344 
L 170.857344 27.885326 
L 172.666844 25.563574 
L 173.571594 24.290355 
L 174.476344 23.216856 
L 175.381094 21.519231 
L 176.285843 20.221047 
L 177.190593 18.723142 
L 178.095343 17.674609 
L 179.904843 15.128171 
L 180.809593 14.304323 
L 181.714343 14.054672 
L 182.619093 13.30572 
L 184.428593 12.082431 
L 187.142843 11.78285 
L 188.047593 12.157326 
L 188.952343 14.628869 
L 189.857093 16.251599 
L 190.761843 18.773072 
L 191.666593 18.099015 
L 192.571343 19.921466 
L 193.476093 20.595523 
L 194.380843 22.168323 
L 195.285593 22.318113 
L 196.190343 24.26539 
L 197.095093 26.587142 
L 197.999843 27.336094 
L 199.809343 27.236234 
L 198.904593 30.481694 
L 197.999843 32.304145 
L 197.095093 35.349885 
L 196.190343 37.546812 
L 195.285593 40.3429 
L 192.571343 45.285986 
L 191.666593 47.108437 
L 190.761843 48.556411 
L 189.857093 48.431586 
L 188.047593 49.230468 
L 187.142843 51.227675 
L 184.428593 54.972437 
L 183.523843 56.969643 
L 181.714343 59.416221 
L 179.904843 61.113846 
L 179.000093 62.486925 
L 178.095343 63.535459 
L 177.190593 64.808678 
L 176.285843 65.832246 
L 173.571594 67.829452 
L 171.762094 69.876589 
L 170.857344 70.725401 
L 169.952594 71.174773 
L 168.143094 73.122049 
L 167.238344 74.195547 
L 164.524094 75.718417 
L 162.714594 77.241287 
L 161.809844 77.890379 
L 160.905094 78.115065 
L 160.000344 78.564436 
L 159.095594 78.888982 
L 158.190844 79.363319 
L 156.381344 80.836258 
L 155.476594 80.936119 
L 152.762344 81.560246 
L 151.857594 82.009617 
L 150.952844 81.934722 
L 150.048094 82.334163 
L 149.143344 82.384093 
L 148.238594 82.95829 
L 147.333844 83.282836 
L 145.524344 83.05815 
L 143.714844 83.832068 
L 142.810094 84.031788 
L 141.905344 84.081719 
L 140.095844 84.53109 
L 139.191094 84.406265 
L 138.286345 84.456195 
L 137.381595 84.3813 
L 136.476845 84.58102 
L 135.572095 84.43123 
L 134.667345 84.880601 
L 132.857845 85.030392 
L 131.953095 84.755776 
L 131.048345 84.655915 
L 130.143595 85.105287 
L 129.238845 85.379903 
L 128.334095 85.305007 
L 127.429345 85.055357 
L 126.524595 85.030392 
L 125.619845 85.329973 
L 125.619845 85.329973 
" clip-path="url(#p9472399c78)" style="fill: none; stroke: #0000ff; stroke-opacity: 0.715789; stroke-width: 0.5; stroke-linecap: square"/>
   </g>
   <g id="line2d_72">
    <path d="M 120.553245 85.404868 
L 212.113943 85.404868 
" clip-path="url(#p9472399c78)" style="fill: none; stroke: #000000; stroke-opacity: 0.25; stroke-width: 0.25; stroke-linecap: square"/>
   </g>
   <g id="line2d_73">
    <path d="M 124.715095 186.121635 
L 124.715095 3.00024 
" clip-path="url(#p9472399c78)" style="fill: none; stroke: #000000; stroke-opacity: 0.25; stroke-width: 0.25; stroke-linecap: square"/>
   </g>
   <g id="patch_3">
    <path d="M 120.553245 186.121635 
L 120.553245 3.00024 
" style="fill: none; stroke: #000000; stroke-width: 0.8; stroke-linejoin: miter; stroke-linecap: square"/>
   </g>
   <g id="patch_4">
    <path d="M 212.113943 186.121635 
L 212.113943 3.00024 
" style="fill: none; stroke: #000000; stroke-width: 0.8; stroke-linejoin: miter; stroke-linecap: square"/>
   </g>
   <g id="patch_5">
    <path d="M 120.553245 186.121635 
L 212.113943 186.121635 
" style="fill: none; stroke: #000000; stroke-width: 0.8; stroke-linejoin: miter; stroke-linecap: square"/>
   </g>
   <g id="patch_6">
    <path d="M 120.553245 3.00024 
L 212.113943 3.00024 
" style="fill: none; stroke: #000000; stroke-width: 0.8; stroke-linejoin: miter; stroke-linecap: square"/>
   </g>
  </g>
 </g>
 <defs>
  <clipPath id="p9472399c78">
   <rect x="120.553245" y="3.00024" width="91.560698" height="183.121395"/>
  </clipPath>
 </defs>
</svg>
