<?xml version="1.0" encoding="utf-8" standalone="no"?>
<!DOCTYPE svg PUBLIC "-//W3C//DTD SVG 1.1//EN"
  "http://www.w3.org/Graphics/SVG/1.1/DTD/svg11.dtd">
<svg xmlns:xlink="http://www.w3.org/1999/xlink" width="288pt" height="216pt" viewBox="0 0 288 216" xmlns="http://www.w3.org/2000/svg" version="1.1">
 <metadata>
  <rdf:RDF xmlns:dc="http://purl.org/dc/elements/1.1/" xmlns:cc="http://creativecommons.org/ns#" xmlns:rdf="http://www.w3.org/1999/02/22-rdf-syntax-ns#">
   <cc:Work>
    <dc:type rdf:resource="http://purl.org/dc/dcmitype/StillImage"/>
    <dc:date>2024-12-22T21:03:45.979682</dc:date>
    <dc:format>image/svg+xml</dc:format>
    <dc:creator>
     <cc:Agent>
      <dc:title>Matplotlib v3.6.0, https://matplotlib.org/</dc:title>
     </cc:Agent>
    </dc:creator>
   </cc:Work>
  </rdf:RDF>
 </metadata>
 <defs>
  <style type="text/css">*{stroke-linejoin: round; stroke-linecap: butt}</style>
 </defs>
 <g id="figure_1">
  <g id="patch_1">
   <path d="M 0 216 
L 288 216 
L 288 0 
L 0 0 
z
" style="fill: #ffffff"/>
  </g>
  <g id="axes_1">
   <g id="patch_2">
    <path d="M 36.403365 182.621635 
L 275.45601 182.621635 
L 275.45601 3.00024 
L 36.403365 3.00024 
z
" style="fill: #ffffff"/>
   </g>
   <g id="patch_3">
    <path d="M -31.901782 182.621635 
L -28.063224 182.621635 
L -28.063224 161.88612 
L -31.901782 161.88612 
z
" clip-path="url(#p9e9537bae9)" style="fill: #0000ff; fill-opacity: 0.5; stroke: #000000; stroke-linejoin: miter"/>
   </g>
   <g id="patch_4">
    <path d="M -28.063224 182.621635 
L -24.224667 182.621635 
L -24.224667 182.621635 
L -28.063224 182.621635 
z
" clip-path="url(#p9e9537bae9)" style="fill: #0000ff; fill-opacity: 0.5; stroke: #000000; stroke-linejoin: miter"/>
   </g>
   <g id="patch_5">
    <path d="M -24.224667 182.621635 
L -20.38611 182.621635 
L -20.38611 182.621635 
L -24.224667 182.621635 
z
" clip-path="url(#p9e9537bae9)" style="fill: #0000ff; fill-opacity: 0.5; stroke: #000000; stroke-linejoin: miter"/>
   </g>
   <g id="patch_6">
    <path d="M -20.38611 182.621635 
L -16.547552 182.621635 
L -16.547552 182.621635 
L -20.38611 182.621635 
z
" clip-path="url(#p9e9537bae9)" style="fill: #0000ff; fill-opacity: 0.5; stroke: #000000; stroke-linejoin: miter"/>
   </g>
   <g id="patch_7">
    <path d="M -16.547552 182.621635 
L -12.708995 182.621635 
L -12.708995 182.621635 
L -16.547552 182.621635 
z
" clip-path="url(#p9e9537bae9)" style="fill: #0000ff; fill-opacity: 0.5; stroke: #000000; stroke-linejoin: miter"/>
   </g>
   <g id="patch_8">
    <path d="M -12.708995 182.621635 
L -8.870438 182.621635 
L -8.870438 182.621635 
L -12.708995 182.621635 
z
" clip-path="url(#p9e9537bae9)" style="fill: #0000ff; fill-opacity: 0.5; stroke: #000000; stroke-linejoin: miter"/>
   </g>
   <g id="patch_9">
    <path d="M -8.870438 182.621635 
L -5.03188 182.621635 
L -5.03188 182.621635 
L -8.870438 182.621635 
z
" clip-path="url(#p9e9537bae9)" style="fill: #0000ff; fill-opacity: 0.5; stroke: #000000; stroke-linejoin: miter"/>
   </g>
   <g id="patch_10">
    <path d="M -5.03188 182.621635 
L -1.193323 182.621635 
L -1.193323 182.621635 
L -5.03188 182.621635 
z
" clip-path="url(#p9e9537bae9)" style="fill: #0000ff; fill-opacity: 0.5; stroke: #000000; stroke-linejoin: miter"/>
   </g>
   <g id="patch_11">
    <path d="M -1.193323 182.621635 
L 2.645234 182.621635 
L 2.645234 182.621635 
L -1.193323 182.621635 
z
" clip-path="url(#p9e9537bae9)" style="fill: #0000ff; fill-opacity: 0.5; stroke: #000000; stroke-linejoin: miter"/>
   </g>
   <g id="patch_12">
    <path d="M 2.645234 182.621635 
L 6.483792 182.621635 
L 6.483792 182.621635 
L 2.645234 182.621635 
z
" clip-path="url(#p9e9537bae9)" style="fill: #0000ff; fill-opacity: 0.5; stroke: #000000; stroke-linejoin: miter"/>
   </g>
   <g id="patch_13">
    <path d="M 6.483792 182.621635 
L 10.322349 182.621635 
L 10.322349 182.621635 
L 6.483792 182.621635 
z
" clip-path="url(#p9e9537bae9)" style="fill: #0000ff; fill-opacity: 0.5; stroke: #000000; stroke-linejoin: miter"/>
   </g>
   <g id="patch_14">
    <path d="M 10.322349 182.621635 
L 14.160906 182.621635 
L 14.160906 182.621635 
L 10.322349 182.621635 
z
" clip-path="url(#p9e9537bae9)" style="fill: #0000ff; fill-opacity: 0.5; stroke: #000000; stroke-linejoin: miter"/>
   </g>
   <g id="patch_15">
    <path d="M 14.160906 182.621635 
L 17.999463 182.621635 
L 17.999463 182.621635 
L 14.160906 182.621635 
z
" clip-path="url(#p9e9537bae9)" style="fill: #0000ff; fill-opacity: 0.5; stroke: #000000; stroke-linejoin: miter"/>
   </g>
   <g id="patch_16">
    <path d="M 17.999463 182.621635 
L 21.838021 182.621635 
L 21.838021 182.621635 
L 17.999463 182.621635 
z
" clip-path="url(#p9e9537bae9)" style="fill: #0000ff; fill-opacity: 0.5; stroke: #000000; stroke-linejoin: miter"/>
   </g>
   <g id="patch_17">
    <path d="M 21.838021 182.621635 
L 25.676578 182.621635 
L 25.676578 182.621635 
L 21.838021 182.621635 
z
" clip-path="url(#p9e9537bae9)" style="fill: #0000ff; fill-opacity: 0.5; stroke: #000000; stroke-linejoin: miter"/>
   </g>
   <g id="patch_18">
    <path d="M 25.676578 182.621635 
L 29.515135 182.621635 
L 29.515135 182.621635 
L 25.676578 182.621635 
z
" clip-path="url(#p9e9537bae9)" style="fill: #0000ff; fill-opacity: 0.5; stroke: #000000; stroke-linejoin: miter"/>
   </g>
   <g id="patch_19">
    <path d="M 29.515135 182.621635 
L 33.353693 182.621635 
L 33.353693 182.621635 
L 29.515135 182.621635 
z
" clip-path="url(#p9e9537bae9)" style="fill: #0000ff; fill-opacity: 0.5; stroke: #000000; stroke-linejoin: miter"/>
   </g>
   <g id="patch_20">
    <path d="M 33.353693 182.621635 
L 37.19225 182.621635 
L 37.19225 182.621635 
L 33.353693 182.621635 
z
" clip-path="url(#p9e9537bae9)" style="fill: #0000ff; fill-opacity: 0.5; stroke: #000000; stroke-linejoin: miter"/>
   </g>
   <g id="patch_21">
    <path d="M 37.19225 182.621635 
L 41.030807 182.621635 
L 41.030807 182.621635 
L 37.19225 182.621635 
z
" clip-path="url(#p9e9537bae9)" style="fill: #0000ff; fill-opacity: 0.5; stroke: #000000; stroke-linejoin: miter"/>
   </g>
   <g id="patch_22">
    <path d="M 41.030807 182.621635 
L 44.869365 182.621635 
L 44.869365 182.621635 
L 41.030807 182.621635 
z
" clip-path="url(#p9e9537bae9)" style="fill: #0000ff; fill-opacity: 0.5; stroke: #000000; stroke-linejoin: miter"/>
   </g>
   <g id="patch_23">
    <path d="M 44.869365 182.621635 
L 48.707922 182.621635 
L 48.707922 182.621635 
L 44.869365 182.621635 
z
" clip-path="url(#p9e9537bae9)" style="fill: #0000ff; fill-opacity: 0.5; stroke: #000000; stroke-linejoin: miter"/>
   </g>
   <g id="patch_24">
    <path d="M 48.707922 182.621635 
L 52.546479 182.621635 
L 52.546479 182.621635 
L 48.707922 182.621635 
z
" clip-path="url(#p9e9537bae9)" style="fill: #0000ff; fill-opacity: 0.5; stroke: #000000; stroke-linejoin: miter"/>
   </g>
   <g id="patch_25">
    <path d="M 52.546479 182.621635 
L 56.385037 182.621635 
L 56.385037 182.621635 
L 52.546479 182.621635 
z
" clip-path="url(#p9e9537bae9)" style="fill: #0000ff; fill-opacity: 0.5; stroke: #000000; stroke-linejoin: miter"/>
   </g>
   <g id="patch_26">
    <path d="M 56.385037 182.621635 
L 60.223594 182.621635 
L 60.223594 182.621635 
L 56.385037 182.621635 
z
" clip-path="url(#p9e9537bae9)" style="fill: #0000ff; fill-opacity: 0.5; stroke: #000000; stroke-linejoin: miter"/>
   </g>
   <g id="patch_27">
    <path d="M 60.223594 182.621635 
L 64.062151 182.621635 
L 64.062151 182.621635 
L 60.223594 182.621635 
z
" clip-path="url(#p9e9537bae9)" style="fill: #0000ff; fill-opacity: 0.5; stroke: #000000; stroke-linejoin: miter"/>
   </g>
   <g id="patch_28">
    <path d="M 64.062151 182.621635 
L 67.900708 182.621635 
L 67.900708 182.621635 
L 64.062151 182.621635 
z
" clip-path="url(#p9e9537bae9)" style="fill: #0000ff; fill-opacity: 0.5; stroke: #000000; stroke-linejoin: miter"/>
   </g>
   <g id="patch_29">
    <path d="M 67.900708 182.621635 
L 71.739266 182.621635 
L 71.739266 182.621635 
L 67.900708 182.621635 
z
" clip-path="url(#p9e9537bae9)" style="fill: #0000ff; fill-opacity: 0.5; stroke: #000000; stroke-linejoin: miter"/>
   </g>
   <g id="patch_30">
    <path d="M 71.739266 182.621635 
L 75.577823 182.621635 
L 75.577823 182.621635 
L 71.739266 182.621635 
z
" clip-path="url(#p9e9537bae9)" style="fill: #0000ff; fill-opacity: 0.5; stroke: #000000; stroke-linejoin: miter"/>
   </g>
   <g id="patch_31">
    <path d="M 75.577823 182.621635 
L 79.41638 182.621635 
L 79.41638 182.621635 
L 75.577823 182.621635 
z
" clip-path="url(#p9e9537bae9)" style="fill: #0000ff; fill-opacity: 0.5; stroke: #000000; stroke-linejoin: miter"/>
   </g>
   <g id="patch_32">
    <path d="M 79.41638 182.621635 
L 83.254938 182.621635 
L 83.254938 182.621635 
L 79.41638 182.621635 
z
" clip-path="url(#p9e9537bae9)" style="fill: #0000ff; fill-opacity: 0.5; stroke: #000000; stroke-linejoin: miter"/>
   </g>
   <g id="patch_33">
    <path d="M 83.254938 182.621635 
L 87.093495 182.621635 
L 87.093495 182.621635 
L 83.254938 182.621635 
z
" clip-path="url(#p9e9537bae9)" style="fill: #0000ff; fill-opacity: 0.5; stroke: #000000; stroke-linejoin: miter"/>
   </g>
   <g id="patch_34">
    <path d="M 87.093495 182.621635 
L 90.932052 182.621635 
L 90.932052 164.47806 
L 87.093495 164.47806 
z
" clip-path="url(#p9e9537bae9)" style="fill: #0000ff; fill-opacity: 0.5; stroke: #000000; stroke-linejoin: miter"/>
   </g>
   <g id="patch_35">
    <path d="M 90.932052 182.621635 
L 94.77061 182.621635 
L 94.77061 167.069999 
L 90.932052 167.069999 
z
" clip-path="url(#p9e9537bae9)" style="fill: #0000ff; fill-opacity: 0.5; stroke: #000000; stroke-linejoin: miter"/>
   </g>
   <g id="patch_36">
    <path d="M 94.77061 182.621635 
L 98.609167 182.621635 
L 98.609167 164.47806 
L 94.77061 164.47806 
z
" clip-path="url(#p9e9537bae9)" style="fill: #0000ff; fill-opacity: 0.5; stroke: #000000; stroke-linejoin: miter"/>
   </g>
   <g id="patch_37">
    <path d="M 98.609167 182.621635 
L 102.447724 182.621635 
L 102.447724 154.110302 
L 98.609167 154.110302 
z
" clip-path="url(#p9e9537bae9)" style="fill: #0000ff; fill-opacity: 0.5; stroke: #000000; stroke-linejoin: miter"/>
   </g>
   <g id="patch_38">
    <path d="M 102.447724 182.621635 
L 106.286282 182.621635 
L 106.286282 143.742545 
L 102.447724 143.742545 
z
" clip-path="url(#p9e9537bae9)" style="fill: #0000ff; fill-opacity: 0.5; stroke: #000000; stroke-linejoin: miter"/>
   </g>
   <g id="patch_39">
    <path d="M 106.286282 182.621635 
L 110.124839 182.621635 
L 110.124839 141.150606 
L 106.286282 141.150606 
z
" clip-path="url(#p9e9537bae9)" style="fill: #0000ff; fill-opacity: 0.5; stroke: #000000; stroke-linejoin: miter"/>
   </g>
   <g id="patch_40">
    <path d="M 110.124839 182.621635 
L 113.963396 182.621635 
L 113.963396 133.374788 
L 110.124839 133.374788 
z
" clip-path="url(#p9e9537bae9)" style="fill: #0000ff; fill-opacity: 0.5; stroke: #000000; stroke-linejoin: miter"/>
   </g>
   <g id="patch_41">
    <path d="M 113.963396 182.621635 
L 117.801953 182.621635 
L 117.801953 130.782849 
L 113.963396 130.782849 
z
" clip-path="url(#p9e9537bae9)" style="fill: #0000ff; fill-opacity: 0.5; stroke: #000000; stroke-linejoin: miter"/>
   </g>
   <g id="patch_42">
    <path d="M 117.801953 182.621635 
L 121.640511 182.621635 
L 121.640511 123.007031 
L 117.801953 123.007031 
z
" clip-path="url(#p9e9537bae9)" style="fill: #0000ff; fill-opacity: 0.5; stroke: #000000; stroke-linejoin: miter"/>
   </g>
   <g id="patch_43">
    <path d="M -31.901782 182.621635 
L -27.206891 182.621635 
L -27.206891 159.294181 
L -31.901782 159.294181 
z
" clip-path="url(#p9e9537bae9)" style="fill: #b2b2b2; fill-opacity: 0.5; stroke: #000000; stroke-linejoin: miter"/>
   </g>
   <g id="patch_44">
    <path d="M -27.206891 182.621635 
L -22.512001 182.621635 
L -22.512001 182.621635 
L -27.206891 182.621635 
z
" clip-path="url(#p9e9537bae9)" style="fill: #b2b2b2; fill-opacity: 0.5; stroke: #000000; stroke-linejoin: miter"/>
   </g>
   <g id="patch_45">
    <path d="M -22.512001 182.621635 
L -17.817111 182.621635 
L -17.817111 182.621635 
L -22.512001 182.621635 
z
" clip-path="url(#p9e9537bae9)" style="fill: #b2b2b2; fill-opacity: 0.5; stroke: #000000; stroke-linejoin: miter"/>
   </g>
   <g id="patch_46">
    <path d="M -17.817111 182.621635 
L -13.12222 182.621635 
L -13.12222 182.621635 
L -17.817111 182.621635 
z
" clip-path="url(#p9e9537bae9)" style="fill: #b2b2b2; fill-opacity: 0.5; stroke: #000000; stroke-linejoin: miter"/>
   </g>
   <g id="patch_47">
    <path d="M -13.12222 182.621635 
L -8.42733 182.621635 
L -8.42733 182.621635 
L -13.12222 182.621635 
z
" clip-path="url(#p9e9537bae9)" style="fill: #b2b2b2; fill-opacity: 0.5; stroke: #000000; stroke-linejoin: miter"/>
   </g>
   <g id="patch_48">
    <path d="M -8.42733 182.621635 
L -3.73244 182.621635 
L -3.73244 182.621635 
L -8.42733 182.621635 
z
" clip-path="url(#p9e9537bae9)" style="fill: #b2b2b2; fill-opacity: 0.5; stroke: #000000; stroke-linejoin: miter"/>
   </g>
   <g id="patch_49">
    <path d="M -3.73244 182.621635 
L 0.96245 182.621635 
L 0.96245 182.621635 
L -3.73244 182.621635 
z
" clip-path="url(#p9e9537bae9)" style="fill: #b2b2b2; fill-opacity: 0.5; stroke: #000000; stroke-linejoin: miter"/>
   </g>
   <g id="patch_50">
    <path d="M 0.96245 182.621635 
L 5.657341 182.621635 
L 5.657341 182.621635 
L 0.96245 182.621635 
z
" clip-path="url(#p9e9537bae9)" style="fill: #b2b2b2; fill-opacity: 0.5; stroke: #000000; stroke-linejoin: miter"/>
   </g>
   <g id="patch_51">
    <path d="M 5.657341 182.621635 
L 10.352231 182.621635 
L 10.352231 182.621635 
L 5.657341 182.621635 
z
" clip-path="url(#p9e9537bae9)" style="fill: #b2b2b2; fill-opacity: 0.5; stroke: #000000; stroke-linejoin: miter"/>
   </g>
   <g id="patch_52">
    <path d="M 10.352231 182.621635 
L 15.047121 182.621635 
L 15.047121 182.621635 
L 10.352231 182.621635 
z
" clip-path="url(#p9e9537bae9)" style="fill: #b2b2b2; fill-opacity: 0.5; stroke: #000000; stroke-linejoin: miter"/>
   </g>
   <g id="patch_53">
    <path d="M 15.047121 182.621635 
L 19.742011 182.621635 
L 19.742011 182.621635 
L 15.047121 182.621635 
z
" clip-path="url(#p9e9537bae9)" style="fill: #b2b2b2; fill-opacity: 0.5; stroke: #000000; stroke-linejoin: miter"/>
   </g>
   <g id="patch_54">
    <path d="M 19.742011 182.621635 
L 24.436902 182.621635 
L 24.436902 182.621635 
L 19.742011 182.621635 
z
" clip-path="url(#p9e9537bae9)" style="fill: #b2b2b2; fill-opacity: 0.5; stroke: #000000; stroke-linejoin: miter"/>
   </g>
   <g id="patch_55">
    <path d="M 24.436902 182.621635 
L 29.131792 182.621635 
L 29.131792 182.621635 
L 24.436902 182.621635 
z
" clip-path="url(#p9e9537bae9)" style="fill: #b2b2b2; fill-opacity: 0.5; stroke: #000000; stroke-linejoin: miter"/>
   </g>
   <g id="patch_56">
    <path d="M 29.131792 182.621635 
L 33.826682 182.621635 
L 33.826682 182.621635 
L 29.131792 182.621635 
z
" clip-path="url(#p9e9537bae9)" style="fill: #b2b2b2; fill-opacity: 0.5; stroke: #000000; stroke-linejoin: miter"/>
   </g>
   <g id="patch_57">
    <path d="M 33.826682 182.621635 
L 38.521572 182.621635 
L 38.521572 182.621635 
L 33.826682 182.621635 
z
" clip-path="url(#p9e9537bae9)" style="fill: #b2b2b2; fill-opacity: 0.5; stroke: #000000; stroke-linejoin: miter"/>
   </g>
   <g id="patch_58">
    <path d="M 38.521572 182.621635 
L 43.216463 182.621635 
L 43.216463 182.621635 
L 38.521572 182.621635 
z
" clip-path="url(#p9e9537bae9)" style="fill: #b2b2b2; fill-opacity: 0.5; stroke: #000000; stroke-linejoin: miter"/>
   </g>
   <g id="patch_59">
    <path d="M 43.216463 182.621635 
L 47.911353 182.621635 
L 47.911353 182.621635 
L 43.216463 182.621635 
z
" clip-path="url(#p9e9537bae9)" style="fill: #b2b2b2; fill-opacity: 0.5; stroke: #000000; stroke-linejoin: miter"/>
   </g>
   <g id="patch_60">
    <path d="M 47.911353 182.621635 
L 52.606243 182.621635 
L 52.606243 182.621635 
L 47.911353 182.621635 
z
" clip-path="url(#p9e9537bae9)" style="fill: #b2b2b2; fill-opacity: 0.5; stroke: #000000; stroke-linejoin: miter"/>
   </g>
   <g id="patch_61">
    <path d="M 52.606243 182.621635 
L 57.301134 182.621635 
L 57.301134 182.621635 
L 52.606243 182.621635 
z
" clip-path="url(#p9e9537bae9)" style="fill: #b2b2b2; fill-opacity: 0.5; stroke: #000000; stroke-linejoin: miter"/>
   </g>
   <g id="patch_62">
    <path d="M 57.301134 182.621635 
L 61.996024 182.621635 
L 61.996024 182.621635 
L 57.301134 182.621635 
z
" clip-path="url(#p9e9537bae9)" style="fill: #b2b2b2; fill-opacity: 0.5; stroke: #000000; stroke-linejoin: miter"/>
   </g>
   <g id="patch_63">
    <path d="M 61.996024 182.621635 
L 66.690914 182.621635 
L 66.690914 182.621635 
L 61.996024 182.621635 
z
" clip-path="url(#p9e9537bae9)" style="fill: #b2b2b2; fill-opacity: 0.5; stroke: #000000; stroke-linejoin: miter"/>
   </g>
   <g id="patch_64">
    <path d="M 66.690914 182.621635 
L 71.385804 182.621635 
L 71.385804 182.621635 
L 66.690914 182.621635 
z
" clip-path="url(#p9e9537bae9)" style="fill: #b2b2b2; fill-opacity: 0.5; stroke: #000000; stroke-linejoin: miter"/>
   </g>
   <g id="patch_65">
    <path d="M 71.385804 182.621635 
L 76.080695 182.621635 
L 76.080695 182.621635 
L 71.385804 182.621635 
z
" clip-path="url(#p9e9537bae9)" style="fill: #b2b2b2; fill-opacity: 0.5; stroke: #000000; stroke-linejoin: miter"/>
   </g>
   <g id="patch_66">
    <path d="M 76.080695 182.621635 
L 80.775585 182.621635 
L 80.775585 182.621635 
L 76.080695 182.621635 
z
" clip-path="url(#p9e9537bae9)" style="fill: #b2b2b2; fill-opacity: 0.5; stroke: #000000; stroke-linejoin: miter"/>
   </g>
   <g id="patch_67">
    <path d="M 80.775585 182.621635 
L 85.470475 182.621635 
L 85.470475 182.621635 
L 80.775585 182.621635 
z
" clip-path="url(#p9e9537bae9)" style="fill: #b2b2b2; fill-opacity: 0.5; stroke: #000000; stroke-linejoin: miter"/>
   </g>
   <g id="patch_68">
    <path d="M 85.470475 182.621635 
L 90.165365 182.621635 
L 90.165365 182.621635 
L 85.470475 182.621635 
z
" clip-path="url(#p9e9537bae9)" style="fill: #b2b2b2; fill-opacity: 0.5; stroke: #000000; stroke-linejoin: miter"/>
   </g>
   <g id="patch_69">
    <path d="M 90.165365 182.621635 
L 94.860256 182.621635 
L 94.860256 182.621635 
L 90.165365 182.621635 
z
" clip-path="url(#p9e9537bae9)" style="fill: #b2b2b2; fill-opacity: 0.5; stroke: #000000; stroke-linejoin: miter"/>
   </g>
   <g id="patch_70">
    <path d="M 94.860256 182.621635 
L 99.555146 182.621635 
L 99.555146 182.621635 
L 94.860256 182.621635 
z
" clip-path="url(#p9e9537bae9)" style="fill: #b2b2b2; fill-opacity: 0.5; stroke: #000000; stroke-linejoin: miter"/>
   </g>
   <g id="patch_71">
    <path d="M 99.555146 182.621635 
L 104.250036 182.621635 
L 104.250036 182.621635 
L 99.555146 182.621635 
z
" clip-path="url(#p9e9537bae9)" style="fill: #b2b2b2; fill-opacity: 0.5; stroke: #000000; stroke-linejoin: miter"/>
   </g>
   <g id="patch_72">
    <path d="M 104.250036 182.621635 
L 108.944926 182.621635 
L 108.944926 182.621635 
L 104.250036 182.621635 
z
" clip-path="url(#p9e9537bae9)" style="fill: #b2b2b2; fill-opacity: 0.5; stroke: #000000; stroke-linejoin: miter"/>
   </g>
   <g id="patch_73">
    <path d="M 108.944926 182.621635 
L 113.639817 182.621635 
L 113.639817 182.621635 
L 108.944926 182.621635 
z
" clip-path="url(#p9e9537bae9)" style="fill: #b2b2b2; fill-opacity: 0.5; stroke: #000000; stroke-linejoin: miter"/>
   </g>
   <g id="patch_74">
    <path d="M 113.639817 182.621635 
L 118.334707 182.621635 
L 118.334707 182.621635 
L 113.639817 182.621635 
z
" clip-path="url(#p9e9537bae9)" style="fill: #b2b2b2; fill-opacity: 0.5; stroke: #000000; stroke-linejoin: miter"/>
   </g>
   <g id="patch_75">
    <path d="M 118.334707 182.621635 
L 123.029597 182.621635 
L 123.029597 177.437756 
L 118.334707 177.437756 
z
" clip-path="url(#p9e9537bae9)" style="fill: #b2b2b2; fill-opacity: 0.5; stroke: #000000; stroke-linejoin: miter"/>
   </g>
   <g id="patch_76">
    <path d="M 123.029597 182.621635 
L 127.724487 182.621635 
L 127.724487 174.845817 
L 123.029597 174.845817 
z
" clip-path="url(#p9e9537bae9)" style="fill: #b2b2b2; fill-opacity: 0.5; stroke: #000000; stroke-linejoin: miter"/>
   </g>
   <g id="patch_77">
    <path d="M 127.724487 182.621635 
L 132.419378 182.621635 
L 132.419378 148.926424 
L 127.724487 148.926424 
z
" clip-path="url(#p9e9537bae9)" style="fill: #b2b2b2; fill-opacity: 0.5; stroke: #000000; stroke-linejoin: miter"/>
   </g>
   <g id="patch_78">
    <path d="M 132.419378 182.621635 
L 137.114268 182.621635 
L 137.114268 161.88612 
L 132.419378 161.88612 
z
" clip-path="url(#p9e9537bae9)" style="fill: #b2b2b2; fill-opacity: 0.5; stroke: #000000; stroke-linejoin: miter"/>
   </g>
   <g id="patch_79">
    <path d="M 137.114268 182.621635 
L 141.809158 182.621635 
L 141.809158 143.742545 
L 137.114268 143.742545 
z
" clip-path="url(#p9e9537bae9)" style="fill: #b2b2b2; fill-opacity: 0.5; stroke: #000000; stroke-linejoin: miter"/>
   </g>
   <g id="patch_80">
    <path d="M 141.809158 182.621635 
L 146.504049 182.621635 
L 146.504049 112.639273 
L 141.809158 112.639273 
z
" clip-path="url(#p9e9537bae9)" style="fill: #b2b2b2; fill-opacity: 0.5; stroke: #000000; stroke-linejoin: miter"/>
   </g>
   <g id="patch_81">
    <path d="M 146.504049 182.621635 
L 151.198939 182.621635 
L 151.198939 84.127941 
L 146.504049 84.127941 
z
" clip-path="url(#p9e9537bae9)" style="fill: #b2b2b2; fill-opacity: 0.5; stroke: #000000; stroke-linejoin: miter"/>
   </g>
   <g id="patch_82">
    <path d="M 151.198939 182.621635 
L 155.893829 182.621635 
L 155.893829 47.84079 
L 151.198939 47.84079 
z
" clip-path="url(#p9e9537bae9)" style="fill: #b2b2b2; fill-opacity: 0.5; stroke: #000000; stroke-linejoin: miter"/>
   </g>
   <g id="patch_83">
    <path d="M -31.901782 182.621635 
L -26.358242 182.621635 
L -26.358242 164.47806 
L -31.901782 164.47806 
z
" clip-path="url(#p9e9537bae9)" style="fill: #b2b2b2; fill-opacity: 0.5; stroke: #000000; stroke-linejoin: miter"/>
   </g>
   <g id="patch_84">
    <path d="M -26.358242 182.621635 
L -20.814703 182.621635 
L -20.814703 182.621635 
L -26.358242 182.621635 
z
" clip-path="url(#p9e9537bae9)" style="fill: #b2b2b2; fill-opacity: 0.5; stroke: #000000; stroke-linejoin: miter"/>
   </g>
   <g id="patch_85">
    <path d="M -20.814703 182.621635 
L -15.271164 182.621635 
L -15.271164 182.621635 
L -20.814703 182.621635 
z
" clip-path="url(#p9e9537bae9)" style="fill: #b2b2b2; fill-opacity: 0.5; stroke: #000000; stroke-linejoin: miter"/>
   </g>
   <g id="patch_86">
    <path d="M -15.271164 182.621635 
L -9.727624 182.621635 
L -9.727624 182.621635 
L -15.271164 182.621635 
z
" clip-path="url(#p9e9537bae9)" style="fill: #b2b2b2; fill-opacity: 0.5; stroke: #000000; stroke-linejoin: miter"/>
   </g>
   <g id="patch_87">
    <path d="M -9.727624 182.621635 
L -4.184085 182.621635 
L -4.184085 182.621635 
L -9.727624 182.621635 
z
" clip-path="url(#p9e9537bae9)" style="fill: #b2b2b2; fill-opacity: 0.5; stroke: #000000; stroke-linejoin: miter"/>
   </g>
   <g id="patch_88">
    <path d="M -4.184085 182.621635 
L 1.359454 182.621635 
L 1.359454 182.621635 
L -4.184085 182.621635 
z
" clip-path="url(#p9e9537bae9)" style="fill: #b2b2b2; fill-opacity: 0.5; stroke: #000000; stroke-linejoin: miter"/>
   </g>
   <g id="patch_89">
    <path d="M 1.359454 182.621635 
L 6.902993 182.621635 
L 6.902993 182.621635 
L 1.359454 182.621635 
z
" clip-path="url(#p9e9537bae9)" style="fill: #b2b2b2; fill-opacity: 0.5; stroke: #000000; stroke-linejoin: miter"/>
   </g>
   <g id="patch_90">
    <path d="M 6.902993 182.621635 
L 12.446533 182.621635 
L 12.446533 182.621635 
L 6.902993 182.621635 
z
" clip-path="url(#p9e9537bae9)" style="fill: #b2b2b2; fill-opacity: 0.5; stroke: #000000; stroke-linejoin: miter"/>
   </g>
   <g id="patch_91">
    <path d="M 12.446533 182.621635 
L 17.990072 182.621635 
L 17.990072 182.621635 
L 12.446533 182.621635 
z
" clip-path="url(#p9e9537bae9)" style="fill: #b2b2b2; fill-opacity: 0.5; stroke: #000000; stroke-linejoin: miter"/>
   </g>
   <g id="patch_92">
    <path d="M 17.990072 182.621635 
L 23.533611 182.621635 
L 23.533611 182.621635 
L 17.990072 182.621635 
z
" clip-path="url(#p9e9537bae9)" style="fill: #b2b2b2; fill-opacity: 0.5; stroke: #000000; stroke-linejoin: miter"/>
   </g>
   <g id="patch_93">
    <path d="M 23.533611 182.621635 
L 29.077151 182.621635 
L 29.077151 182.621635 
L 23.533611 182.621635 
z
" clip-path="url(#p9e9537bae9)" style="fill: #b2b2b2; fill-opacity: 0.5; stroke: #000000; stroke-linejoin: miter"/>
   </g>
   <g id="patch_94">
    <path d="M 29.077151 182.621635 
L 34.62069 182.621635 
L 34.62069 182.621635 
L 29.077151 182.621635 
z
" clip-path="url(#p9e9537bae9)" style="fill: #b2b2b2; fill-opacity: 0.5; stroke: #000000; stroke-linejoin: miter"/>
   </g>
   <g id="patch_95">
    <path d="M 34.62069 182.621635 
L 40.164229 182.621635 
L 40.164229 182.621635 
L 34.62069 182.621635 
z
" clip-path="url(#p9e9537bae9)" style="fill: #b2b2b2; fill-opacity: 0.5; stroke: #000000; stroke-linejoin: miter"/>
   </g>
   <g id="patch_96">
    <path d="M 40.164229 182.621635 
L 45.707768 182.621635 
L 45.707768 182.621635 
L 40.164229 182.621635 
z
" clip-path="url(#p9e9537bae9)" style="fill: #b2b2b2; fill-opacity: 0.5; stroke: #000000; stroke-linejoin: miter"/>
   </g>
   <g id="patch_97">
    <path d="M 45.707768 182.621635 
L 51.251308 182.621635 
L 51.251308 182.621635 
L 45.707768 182.621635 
z
" clip-path="url(#p9e9537bae9)" style="fill: #b2b2b2; fill-opacity: 0.5; stroke: #000000; stroke-linejoin: miter"/>
   </g>
   <g id="patch_98">
    <path d="M 51.251308 182.621635 
L 56.794847 182.621635 
L 56.794847 182.621635 
L 51.251308 182.621635 
z
" clip-path="url(#p9e9537bae9)" style="fill: #b2b2b2; fill-opacity: 0.5; stroke: #000000; stroke-linejoin: miter"/>
   </g>
   <g id="patch_99">
    <path d="M 56.794847 182.621635 
L 62.338386 182.621635 
L 62.338386 182.621635 
L 56.794847 182.621635 
z
" clip-path="url(#p9e9537bae9)" style="fill: #b2b2b2; fill-opacity: 0.5; stroke: #000000; stroke-linejoin: miter"/>
   </g>
   <g id="patch_100">
    <path d="M 62.338386 182.621635 
L 67.881925 182.621635 
L 67.881925 182.621635 
L 62.338386 182.621635 
z
" clip-path="url(#p9e9537bae9)" style="fill: #b2b2b2; fill-opacity: 0.5; stroke: #000000; stroke-linejoin: miter"/>
   </g>
   <g id="patch_101">
    <path d="M 67.881925 182.621635 
L 73.425465 182.621635 
L 73.425465 182.621635 
L 67.881925 182.621635 
z
" clip-path="url(#p9e9537bae9)" style="fill: #b2b2b2; fill-opacity: 0.5; stroke: #000000; stroke-linejoin: miter"/>
   </g>
   <g id="patch_102">
    <path d="M 73.425465 182.621635 
L 78.969004 182.621635 
L 78.969004 182.621635 
L 73.425465 182.621635 
z
" clip-path="url(#p9e9537bae9)" style="fill: #b2b2b2; fill-opacity: 0.5; stroke: #000000; stroke-linejoin: miter"/>
   </g>
   <g id="patch_103">
    <path d="M 78.969004 182.621635 
L 84.512543 182.621635 
L 84.512543 182.621635 
L 78.969004 182.621635 
z
" clip-path="url(#p9e9537bae9)" style="fill: #b2b2b2; fill-opacity: 0.5; stroke: #000000; stroke-linejoin: miter"/>
   </g>
   <g id="patch_104">
    <path d="M 84.512543 182.621635 
L 90.056083 182.621635 
L 90.056083 182.621635 
L 84.512543 182.621635 
z
" clip-path="url(#p9e9537bae9)" style="fill: #b2b2b2; fill-opacity: 0.5; stroke: #000000; stroke-linejoin: miter"/>
   </g>
   <g id="patch_105">
    <path d="M 90.056083 182.621635 
L 95.599622 182.621635 
L 95.599622 182.621635 
L 90.056083 182.621635 
z
" clip-path="url(#p9e9537bae9)" style="fill: #b2b2b2; fill-opacity: 0.5; stroke: #000000; stroke-linejoin: miter"/>
   </g>
   <g id="patch_106">
    <path d="M 95.599622 182.621635 
L 101.143161 182.621635 
L 101.143161 182.621635 
L 95.599622 182.621635 
z
" clip-path="url(#p9e9537bae9)" style="fill: #b2b2b2; fill-opacity: 0.5; stroke: #000000; stroke-linejoin: miter"/>
   </g>
   <g id="patch_107">
    <path d="M 101.143161 182.621635 
L 106.6867 182.621635 
L 106.6867 182.621635 
L 101.143161 182.621635 
z
" clip-path="url(#p9e9537bae9)" style="fill: #b2b2b2; fill-opacity: 0.5; stroke: #000000; stroke-linejoin: miter"/>
   </g>
   <g id="patch_108">
    <path d="M 106.6867 182.621635 
L 112.23024 182.621635 
L 112.23024 182.621635 
L 106.6867 182.621635 
z
" clip-path="url(#p9e9537bae9)" style="fill: #b2b2b2; fill-opacity: 0.5; stroke: #000000; stroke-linejoin: miter"/>
   </g>
   <g id="patch_109">
    <path d="M 112.23024 182.621635 
L 117.773779 182.621635 
L 117.773779 182.621635 
L 112.23024 182.621635 
z
" clip-path="url(#p9e9537bae9)" style="fill: #b2b2b2; fill-opacity: 0.5; stroke: #000000; stroke-linejoin: miter"/>
   </g>
   <g id="patch_110">
    <path d="M 117.773779 182.621635 
L 123.317318 182.621635 
L 123.317318 182.621635 
L 117.773779 182.621635 
z
" clip-path="url(#p9e9537bae9)" style="fill: #b2b2b2; fill-opacity: 0.5; stroke: #000000; stroke-linejoin: miter"/>
   </g>
   <g id="patch_111">
    <path d="M 123.317318 182.621635 
L 128.860858 182.621635 
L 128.860858 182.621635 
L 123.317318 182.621635 
z
" clip-path="url(#p9e9537bae9)" style="fill: #b2b2b2; fill-opacity: 0.5; stroke: #000000; stroke-linejoin: miter"/>
   </g>
   <g id="patch_112">
    <path d="M 128.860858 182.621635 
L 134.404397 182.621635 
L 134.404397 182.621635 
L 128.860858 182.621635 
z
" clip-path="url(#p9e9537bae9)" style="fill: #b2b2b2; fill-opacity: 0.5; stroke: #000000; stroke-linejoin: miter"/>
   </g>
   <g id="patch_113">
    <path d="M 134.404397 182.621635 
L 139.947936 182.621635 
L 139.947936 182.621635 
L 134.404397 182.621635 
z
" clip-path="url(#p9e9537bae9)" style="fill: #b2b2b2; fill-opacity: 0.5; stroke: #000000; stroke-linejoin: miter"/>
   </g>
   <g id="patch_114">
    <path d="M 139.947936 182.621635 
L 145.491475 182.621635 
L 145.491475 182.621635 
L 139.947936 182.621635 
z
" clip-path="url(#p9e9537bae9)" style="fill: #b2b2b2; fill-opacity: 0.5; stroke: #000000; stroke-linejoin: miter"/>
   </g>
   <g id="patch_115">
    <path d="M 145.491475 182.621635 
L 151.035015 182.621635 
L 151.035015 182.621635 
L 145.491475 182.621635 
z
" clip-path="url(#p9e9537bae9)" style="fill: #b2b2b2; fill-opacity: 0.5; stroke: #000000; stroke-linejoin: miter"/>
   </g>
   <g id="patch_116">
    <path d="M 151.035015 182.621635 
L 156.578554 182.621635 
L 156.578554 180.029696 
L 151.035015 180.029696 
z
" clip-path="url(#p9e9537bae9)" style="fill: #b2b2b2; fill-opacity: 0.5; stroke: #000000; stroke-linejoin: miter"/>
   </g>
   <g id="patch_117">
    <path d="M 156.578554 182.621635 
L 162.122093 182.621635 
L 162.122093 164.47806 
L 156.578554 164.47806 
z
" clip-path="url(#p9e9537bae9)" style="fill: #b2b2b2; fill-opacity: 0.5; stroke: #000000; stroke-linejoin: miter"/>
   </g>
   <g id="patch_118">
    <path d="M 162.122093 182.621635 
L 167.665633 182.621635 
L 167.665633 161.88612 
L 162.122093 161.88612 
z
" clip-path="url(#p9e9537bae9)" style="fill: #b2b2b2; fill-opacity: 0.5; stroke: #000000; stroke-linejoin: miter"/>
   </g>
   <g id="patch_119">
    <path d="M 167.665633 182.621635 
L 173.209172 182.621635 
L 173.209172 151.518363 
L 167.665633 151.518363 
z
" clip-path="url(#p9e9537bae9)" style="fill: #b2b2b2; fill-opacity: 0.5; stroke: #000000; stroke-linejoin: miter"/>
   </g>
   <g id="patch_120">
    <path d="M 173.209172 182.621635 
L 178.752711 182.621635 
L 178.752711 115.231213 
L 173.209172 115.231213 
z
" clip-path="url(#p9e9537bae9)" style="fill: #b2b2b2; fill-opacity: 0.5; stroke: #000000; stroke-linejoin: miter"/>
   </g>
   <g id="patch_121">
    <path d="M 178.752711 182.621635 
L 184.29625 182.621635 
L 184.29625 63.392426 
L 178.752711 63.392426 
z
" clip-path="url(#p9e9537bae9)" style="fill: #b2b2b2; fill-opacity: 0.5; stroke: #000000; stroke-linejoin: miter"/>
   </g>
   <g id="patch_122">
    <path d="M 184.29625 182.621635 
L 189.83979 182.621635 
L 189.83979 14.145579 
L 184.29625 14.145579 
z
" clip-path="url(#p9e9537bae9)" style="fill: #b2b2b2; fill-opacity: 0.5; stroke: #000000; stroke-linejoin: miter"/>
   </g>
   <g id="patch_123">
    <path d="M -31.901782 182.621635 
L -25.504471 182.621635 
L -25.504471 161.88612 
L -31.901782 161.88612 
z
" clip-path="url(#p9e9537bae9)" style="fill: #ff0000; fill-opacity: 0.5; stroke: #000000; stroke-linejoin: miter"/>
   </g>
   <g id="patch_124">
    <path d="M -25.504471 182.621635 
L -19.10716 182.621635 
L -19.10716 182.621635 
L -25.504471 182.621635 
z
" clip-path="url(#p9e9537bae9)" style="fill: #ff0000; fill-opacity: 0.5; stroke: #000000; stroke-linejoin: miter"/>
   </g>
   <g id="patch_125">
    <path d="M -19.10716 182.621635 
L -12.709849 182.621635 
L -12.709849 182.621635 
L -19.10716 182.621635 
z
" clip-path="url(#p9e9537bae9)" style="fill: #ff0000; fill-opacity: 0.5; stroke: #000000; stroke-linejoin: miter"/>
   </g>
   <g id="patch_126">
    <path d="M -12.709849 182.621635 
L -6.312538 182.621635 
L -6.312538 182.621635 
L -12.709849 182.621635 
z
" clip-path="url(#p9e9537bae9)" style="fill: #ff0000; fill-opacity: 0.5; stroke: #000000; stroke-linejoin: miter"/>
   </g>
   <g id="patch_127">
    <path d="M -6.312538 182.621635 
L 0.084773 182.621635 
L 0.084773 182.621635 
L -6.312538 182.621635 
z
" clip-path="url(#p9e9537bae9)" style="fill: #ff0000; fill-opacity: 0.5; stroke: #000000; stroke-linejoin: miter"/>
   </g>
   <g id="patch_128">
    <path d="M 0.084773 182.621635 
L 6.482084 182.621635 
L 6.482084 182.621635 
L 0.084773 182.621635 
z
" clip-path="url(#p9e9537bae9)" style="fill: #ff0000; fill-opacity: 0.5; stroke: #000000; stroke-linejoin: miter"/>
   </g>
   <g id="patch_129">
    <path d="M 6.482084 182.621635 
L 12.879395 182.621635 
L 12.879395 182.621635 
L 6.482084 182.621635 
z
" clip-path="url(#p9e9537bae9)" style="fill: #ff0000; fill-opacity: 0.5; stroke: #000000; stroke-linejoin: miter"/>
   </g>
   <g id="patch_130">
    <path d="M 12.879395 182.621635 
L 19.276706 182.621635 
L 19.276706 182.621635 
L 12.879395 182.621635 
z
" clip-path="url(#p9e9537bae9)" style="fill: #ff0000; fill-opacity: 0.5; stroke: #000000; stroke-linejoin: miter"/>
   </g>
   <g id="patch_131">
    <path d="M 19.276706 182.621635 
L 25.674017 182.621635 
L 25.674017 182.621635 
L 19.276706 182.621635 
z
" clip-path="url(#p9e9537bae9)" style="fill: #ff0000; fill-opacity: 0.5; stroke: #000000; stroke-linejoin: miter"/>
   </g>
   <g id="patch_132">
    <path d="M 25.674017 182.621635 
L 32.071328 182.621635 
L 32.071328 182.621635 
L 25.674017 182.621635 
z
" clip-path="url(#p9e9537bae9)" style="fill: #ff0000; fill-opacity: 0.5; stroke: #000000; stroke-linejoin: miter"/>
   </g>
   <g id="patch_133">
    <path d="M 32.071328 182.621635 
L 38.468639 182.621635 
L 38.468639 182.621635 
L 32.071328 182.621635 
z
" clip-path="url(#p9e9537bae9)" style="fill: #ff0000; fill-opacity: 0.5; stroke: #000000; stroke-linejoin: miter"/>
   </g>
   <g id="patch_134">
    <path d="M 38.468639 182.621635 
L 44.86595 182.621635 
L 44.86595 182.621635 
L 38.468639 182.621635 
z
" clip-path="url(#p9e9537bae9)" style="fill: #ff0000; fill-opacity: 0.5; stroke: #000000; stroke-linejoin: miter"/>
   </g>
   <g id="patch_135">
    <path d="M 44.86595 182.621635 
L 51.26326 182.621635 
L 51.26326 182.621635 
L 44.86595 182.621635 
z
" clip-path="url(#p9e9537bae9)" style="fill: #ff0000; fill-opacity: 0.5; stroke: #000000; stroke-linejoin: miter"/>
   </g>
   <g id="patch_136">
    <path d="M 51.26326 182.621635 
L 57.660571 182.621635 
L 57.660571 182.621635 
L 51.26326 182.621635 
z
" clip-path="url(#p9e9537bae9)" style="fill: #ff0000; fill-opacity: 0.5; stroke: #000000; stroke-linejoin: miter"/>
   </g>
   <g id="patch_137">
    <path d="M 57.660571 182.621635 
L 64.057882 182.621635 
L 64.057882 182.621635 
L 57.660571 182.621635 
z
" clip-path="url(#p9e9537bae9)" style="fill: #ff0000; fill-opacity: 0.5; stroke: #000000; stroke-linejoin: miter"/>
   </g>
   <g id="patch_138">
    <path d="M 64.057882 182.621635 
L 70.455193 182.621635 
L 70.455193 182.621635 
L 64.057882 182.621635 
z
" clip-path="url(#p9e9537bae9)" style="fill: #ff0000; fill-opacity: 0.5; stroke: #000000; stroke-linejoin: miter"/>
   </g>
   <g id="patch_139">
    <path d="M 70.455193 182.621635 
L 76.852504 182.621635 
L 76.852504 182.621635 
L 70.455193 182.621635 
z
" clip-path="url(#p9e9537bae9)" style="fill: #ff0000; fill-opacity: 0.5; stroke: #000000; stroke-linejoin: miter"/>
   </g>
   <g id="patch_140">
    <path d="M 76.852504 182.621635 
L 83.249815 182.621635 
L 83.249815 182.621635 
L 76.852504 182.621635 
z
" clip-path="url(#p9e9537bae9)" style="fill: #ff0000; fill-opacity: 0.5; stroke: #000000; stroke-linejoin: miter"/>
   </g>
   <g id="patch_141">
    <path d="M 83.249815 182.621635 
L 89.647126 182.621635 
L 89.647126 182.621635 
L 83.249815 182.621635 
z
" clip-path="url(#p9e9537bae9)" style="fill: #ff0000; fill-opacity: 0.5; stroke: #000000; stroke-linejoin: miter"/>
   </g>
   <g id="patch_142">
    <path d="M 89.647126 182.621635 
L 96.044437 182.621635 
L 96.044437 182.621635 
L 89.647126 182.621635 
z
" clip-path="url(#p9e9537bae9)" style="fill: #ff0000; fill-opacity: 0.5; stroke: #000000; stroke-linejoin: miter"/>
   </g>
   <g id="patch_143">
    <path d="M 96.044437 182.621635 
L 102.441748 182.621635 
L 102.441748 182.621635 
L 96.044437 182.621635 
z
" clip-path="url(#p9e9537bae9)" style="fill: #ff0000; fill-opacity: 0.5; stroke: #000000; stroke-linejoin: miter"/>
   </g>
   <g id="patch_144">
    <path d="M 102.441748 182.621635 
L 108.839059 182.621635 
L 108.839059 182.621635 
L 102.441748 182.621635 
z
" clip-path="url(#p9e9537bae9)" style="fill: #ff0000; fill-opacity: 0.5; stroke: #000000; stroke-linejoin: miter"/>
   </g>
   <g id="patch_145">
    <path d="M 108.839059 182.621635 
L 115.23637 182.621635 
L 115.23637 182.621635 
L 108.839059 182.621635 
z
" clip-path="url(#p9e9537bae9)" style="fill: #ff0000; fill-opacity: 0.5; stroke: #000000; stroke-linejoin: miter"/>
   </g>
   <g id="patch_146">
    <path d="M 115.23637 182.621635 
L 121.633681 182.621635 
L 121.633681 182.621635 
L 115.23637 182.621635 
z
" clip-path="url(#p9e9537bae9)" style="fill: #ff0000; fill-opacity: 0.5; stroke: #000000; stroke-linejoin: miter"/>
   </g>
   <g id="patch_147">
    <path d="M 121.633681 182.621635 
L 128.030992 182.621635 
L 128.030992 182.621635 
L 121.633681 182.621635 
z
" clip-path="url(#p9e9537bae9)" style="fill: #ff0000; fill-opacity: 0.5; stroke: #000000; stroke-linejoin: miter"/>
   </g>
   <g id="patch_148">
    <path d="M 128.030992 182.621635 
L 134.428302 182.621635 
L 134.428302 182.621635 
L 128.030992 182.621635 
z
" clip-path="url(#p9e9537bae9)" style="fill: #ff0000; fill-opacity: 0.5; stroke: #000000; stroke-linejoin: miter"/>
   </g>
   <g id="patch_149">
    <path d="M 134.428302 182.621635 
L 140.825613 182.621635 
L 140.825613 182.621635 
L 134.428302 182.621635 
z
" clip-path="url(#p9e9537bae9)" style="fill: #ff0000; fill-opacity: 0.5; stroke: #000000; stroke-linejoin: miter"/>
   </g>
   <g id="patch_150">
    <path d="M 140.825613 182.621635 
L 147.222924 182.621635 
L 147.222924 182.621635 
L 140.825613 182.621635 
z
" clip-path="url(#p9e9537bae9)" style="fill: #ff0000; fill-opacity: 0.5; stroke: #000000; stroke-linejoin: miter"/>
   </g>
   <g id="patch_151">
    <path d="M 147.222924 182.621635 
L 153.620235 182.621635 
L 153.620235 182.621635 
L 147.222924 182.621635 
z
" clip-path="url(#p9e9537bae9)" style="fill: #ff0000; fill-opacity: 0.5; stroke: #000000; stroke-linejoin: miter"/>
   </g>
   <g id="patch_152">
    <path d="M 153.620235 182.621635 
L 160.017546 182.621635 
L 160.017546 182.621635 
L 153.620235 182.621635 
z
" clip-path="url(#p9e9537bae9)" style="fill: #ff0000; fill-opacity: 0.5; stroke: #000000; stroke-linejoin: miter"/>
   </g>
   <g id="patch_153">
    <path d="M 160.017546 182.621635 
L 166.414857 182.621635 
L 166.414857 182.621635 
L 160.017546 182.621635 
z
" clip-path="url(#p9e9537bae9)" style="fill: #ff0000; fill-opacity: 0.5; stroke: #000000; stroke-linejoin: miter"/>
   </g>
   <g id="patch_154">
    <path d="M 166.414857 182.621635 
L 172.812168 182.621635 
L 172.812168 182.621635 
L 166.414857 182.621635 
z
" clip-path="url(#p9e9537bae9)" style="fill: #ff0000; fill-opacity: 0.5; stroke: #000000; stroke-linejoin: miter"/>
   </g>
   <g id="patch_155">
    <path d="M 172.812168 182.621635 
L 179.209479 182.621635 
L 179.209479 182.621635 
L 172.812168 182.621635 
z
" clip-path="url(#p9e9537bae9)" style="fill: #ff0000; fill-opacity: 0.5; stroke: #000000; stroke-linejoin: miter"/>
   </g>
   <g id="patch_156">
    <path d="M 179.209479 182.621635 
L 185.60679 182.621635 
L 185.60679 182.621635 
L 179.209479 182.621635 
z
" clip-path="url(#p9e9537bae9)" style="fill: #ff0000; fill-opacity: 0.5; stroke: #000000; stroke-linejoin: miter"/>
   </g>
   <g id="patch_157">
    <path d="M 185.60679 182.621635 
L 192.004101 182.621635 
L 192.004101 151.518363 
L 185.60679 151.518363 
z
" clip-path="url(#p9e9537bae9)" style="fill: #ff0000; fill-opacity: 0.5; stroke: #000000; stroke-linejoin: miter"/>
   </g>
   <g id="patch_158">
    <path d="M 192.004101 182.621635 
L 198.401412 182.621635 
L 198.401412 154.110302 
L 192.004101 154.110302 
z
" clip-path="url(#p9e9537bae9)" style="fill: #ff0000; fill-opacity: 0.5; stroke: #000000; stroke-linejoin: miter"/>
   </g>
   <g id="patch_159">
    <path d="M 198.401412 182.621635 
L 204.798723 182.621635 
L 204.798723 159.294181 
L 198.401412 159.294181 
z
" clip-path="url(#p9e9537bae9)" style="fill: #ff0000; fill-opacity: 0.5; stroke: #000000; stroke-linejoin: miter"/>
   </g>
   <g id="patch_160">
    <path d="M 204.798723 182.621635 
L 211.196034 182.621635 
L 211.196034 133.374788 
L 204.798723 133.374788 
z
" clip-path="url(#p9e9537bae9)" style="fill: #ff0000; fill-opacity: 0.5; stroke: #000000; stroke-linejoin: miter"/>
   </g>
   <g id="patch_161">
    <path d="M 211.196034 182.621635 
L 217.593344 182.621635 
L 217.593344 107.455395 
L 211.196034 107.455395 
z
" clip-path="url(#p9e9537bae9)" style="fill: #ff0000; fill-opacity: 0.5; stroke: #000000; stroke-linejoin: miter"/>
   </g>
   <g id="patch_162">
    <path d="M 217.593344 182.621635 
L 223.990655 182.621635 
L 223.990655 11.55364 
L 217.593344 11.55364 
z
" clip-path="url(#p9e9537bae9)" style="fill: #ff0000; fill-opacity: 0.5; stroke: #000000; stroke-linejoin: miter"/>
   </g>
   <g id="matplotlib.axis_1">
    <g id="xtick_1">
     <g id="line2d_1">
      <defs>
       <path id="m5738823c06" d="M 0 0 
L 0 3.5 
" style="stroke: #000000; stroke-width: 0.8"/>
      </defs>
      <g>
       <use xlink:href="#m5738823c06" x="70.550816" y="182.621635" style="stroke: #000000; stroke-width: 0.8"/>
      </g>
     </g>
     <g id="text_1">
      <!-- 100 -->
      <g transform="translate(61.007066 197.220073) scale(0.1 -0.1)">
       <defs>
        <path id="DejaVuSans-31" d="M 794 531 
L 1825 531 
L 1825 4091 
L 703 3866 
L 703 4441 
L 1819 4666 
L 2450 4666 
L 2450 531 
L 3481 531 
L 3481 0 
L 794 0 
L 794 531 
z
" transform="scale(0.015625)"/>
        <path id="DejaVuSans-30" d="M 2034 4250 
Q 1547 4250 1301 3770 
Q 1056 3291 1056 2328 
Q 1056 1369 1301 889 
Q 1547 409 2034 409 
Q 2525 409 2770 889 
Q 3016 1369 3016 2328 
Q 3016 3291 2770 3770 
Q 2525 4250 2034 4250 
z
M 2034 4750 
Q 2819 4750 3233 4129 
Q 3647 3509 3647 2328 
Q 3647 1150 3233 529 
Q 2819 -91 2034 -91 
Q 1250 -91 836 529 
Q 422 1150 422 2328 
Q 422 3509 836 4129 
Q 1250 4750 2034 4750 
z
" transform="scale(0.015625)"/>
       </defs>
       <use xlink:href="#DejaVuSans-31"/>
       <use xlink:href="#DejaVuSans-30" x="63.623047"/>
       <use xlink:href="#DejaVuSans-30" x="127.246094"/>
      </g>
     </g>
    </g>
    <g id="xtick_2">
     <g id="line2d_2">
      <g>
       <use xlink:href="#m5738823c06" x="121.777114" y="182.621635" style="stroke: #000000; stroke-width: 0.8"/>
      </g>
     </g>
     <g id="text_2">
      <!-- 150 -->
      <g transform="translate(112.233364 197.220073) scale(0.1 -0.1)">
       <defs>
        <path id="DejaVuSans-35" d="M 691 4666 
L 3169 4666 
L 3169 4134 
L 1269 4134 
L 1269 2991 
Q 1406 3038 1543 3061 
Q 1681 3084 1819 3084 
Q 2600 3084 3056 2656 
Q 3513 2228 3513 1497 
Q 3513 744 3044 326 
Q 2575 -91 1722 -91 
Q 1428 -91 1123 -41 
Q 819 9 494 109 
L 494 744 
Q 775 591 1075 516 
Q 1375 441 1709 441 
Q 2250 441 2565 725 
Q 2881 1009 2881 1497 
Q 2881 1984 2565 2268 
Q 2250 2553 1709 2553 
Q 1456 2553 1204 2497 
Q 953 2441 691 2322 
L 691 4666 
z
" transform="scale(0.015625)"/>
       </defs>
       <use xlink:href="#DejaVuSans-31"/>
       <use xlink:href="#DejaVuSans-35" x="63.623047"/>
       <use xlink:href="#DejaVuSans-30" x="127.246094"/>
      </g>
     </g>
    </g>
    <g id="xtick_3">
     <g id="line2d_3">
      <g>
       <use xlink:href="#m5738823c06" x="173.003413" y="182.621635" style="stroke: #000000; stroke-width: 0.8"/>
      </g>
     </g>
     <g id="text_3">
      <!-- 200 -->
      <g transform="translate(163.459663 197.220073) scale(0.1 -0.1)">
       <defs>
        <path id="DejaVuSans-32" d="M 1228 531 
L 3431 531 
L 3431 0 
L 469 0 
L 469 531 
Q 828 903 1448 1529 
Q 2069 2156 2228 2338 
Q 2531 2678 2651 2914 
Q 2772 3150 2772 3378 
Q 2772 3750 2511 3984 
Q 2250 4219 1831 4219 
Q 1534 4219 1204 4116 
Q 875 4013 500 3803 
L 500 4441 
Q 881 4594 1212 4672 
Q 1544 4750 1819 4750 
Q 2544 4750 2975 4387 
Q 3406 4025 3406 3419 
Q 3406 3131 3298 2873 
Q 3191 2616 2906 2266 
Q 2828 2175 2409 1742 
Q 1991 1309 1228 531 
z
" transform="scale(0.015625)"/>
       </defs>
       <use xlink:href="#DejaVuSans-32"/>
       <use xlink:href="#DejaVuSans-30" x="63.623047"/>
       <use xlink:href="#DejaVuSans-30" x="127.246094"/>
      </g>
     </g>
    </g>
    <g id="xtick_4">
     <g id="line2d_4">
      <g>
       <use xlink:href="#m5738823c06" x="224.229711" y="182.621635" style="stroke: #000000; stroke-width: 0.8"/>
      </g>
     </g>
     <g id="text_4">
      <!-- 250 -->
      <g transform="translate(214.685961 197.220073) scale(0.1 -0.1)">
       <use xlink:href="#DejaVuSans-32"/>
       <use xlink:href="#DejaVuSans-35" x="63.623047"/>
       <use xlink:href="#DejaVuSans-30" x="127.246094"/>
      </g>
     </g>
    </g>
    <g id="xtick_5">
     <g id="line2d_5">
      <g>
       <use xlink:href="#m5738823c06" x="275.45601" y="182.621635" style="stroke: #000000; stroke-width: 0.8"/>
      </g>
     </g>
     <g id="text_5">
      <!-- 300 -->
      <g transform="translate(265.91226 197.220073) scale(0.1 -0.1)">
       <defs>
        <path id="DejaVuSans-33" d="M 2597 2516 
Q 3050 2419 3304 2112 
Q 3559 1806 3559 1356 
Q 3559 666 3084 287 
Q 2609 -91 1734 -91 
Q 1441 -91 1130 -33 
Q 819 25 488 141 
L 488 750 
Q 750 597 1062 519 
Q 1375 441 1716 441 
Q 2309 441 2620 675 
Q 2931 909 2931 1356 
Q 2931 1769 2642 2001 
Q 2353 2234 1838 2234 
L 1294 2234 
L 1294 2753 
L 1863 2753 
Q 2328 2753 2575 2939 
Q 2822 3125 2822 3475 
Q 2822 3834 2567 4026 
Q 2313 4219 1838 4219 
Q 1578 4219 1281 4162 
Q 984 4106 628 3988 
L 628 4550 
Q 988 4650 1302 4700 
Q 1616 4750 1894 4750 
Q 2613 4750 3031 4423 
Q 3450 4097 3450 3541 
Q 3450 3153 3228 2886 
Q 3006 2619 2597 2516 
z
" transform="scale(0.015625)"/>
       </defs>
       <use xlink:href="#DejaVuSans-33"/>
       <use xlink:href="#DejaVuSans-30" x="63.623047"/>
       <use xlink:href="#DejaVuSans-30" x="127.246094"/>
      </g>
     </g>
    </g>
    <g id="text_6">
     <!-- Conductance, $\mathit{G}$ (μS) -->
     <g transform="translate(104.179688 210.89976) scale(0.1 -0.1)">
      <defs>
       <path id="DejaVuSans-43" d="M 4122 4306 
L 4122 3641 
Q 3803 3938 3442 4084 
Q 3081 4231 2675 4231 
Q 1875 4231 1450 3742 
Q 1025 3253 1025 2328 
Q 1025 1406 1450 917 
Q 1875 428 2675 428 
Q 3081 428 3442 575 
Q 3803 722 4122 1019 
L 4122 359 
Q 3791 134 3420 21 
Q 3050 -91 2638 -91 
Q 1578 -91 968 557 
Q 359 1206 359 2328 
Q 359 3453 968 4101 
Q 1578 4750 2638 4750 
Q 3056 4750 3426 4639 
Q 3797 4528 4122 4306 
z
" transform="scale(0.015625)"/>
       <path id="DejaVuSans-6f" d="M 1959 3097 
Q 1497 3097 1228 2736 
Q 959 2375 959 1747 
Q 959 1119 1226 758 
Q 1494 397 1959 397 
Q 2419 397 2687 759 
Q 2956 1122 2956 1747 
Q 2956 2369 2687 2733 
Q 2419 3097 1959 3097 
z
M 1959 3584 
Q 2709 3584 3137 3096 
Q 3566 2609 3566 1747 
Q 3566 888 3137 398 
Q 2709 -91 1959 -91 
Q 1206 -91 779 398 
Q 353 888 353 1747 
Q 353 2609 779 3096 
Q 1206 3584 1959 3584 
z
" transform="scale(0.015625)"/>
       <path id="DejaVuSans-6e" d="M 3513 2113 
L 3513 0 
L 2938 0 
L 2938 2094 
Q 2938 2591 2744 2837 
Q 2550 3084 2163 3084 
Q 1697 3084 1428 2787 
Q 1159 2491 1159 1978 
L 1159 0 
L 581 0 
L 581 3500 
L 1159 3500 
L 1159 2956 
Q 1366 3272 1645 3428 
Q 1925 3584 2291 3584 
Q 2894 3584 3203 3211 
Q 3513 2838 3513 2113 
z
" transform="scale(0.015625)"/>
       <path id="DejaVuSans-64" d="M 2906 2969 
L 2906 4863 
L 3481 4863 
L 3481 0 
L 2906 0 
L 2906 525 
Q 2725 213 2448 61 
Q 2172 -91 1784 -91 
Q 1150 -91 751 415 
Q 353 922 353 1747 
Q 353 2572 751 3078 
Q 1150 3584 1784 3584 
Q 2172 3584 2448 3432 
Q 2725 3281 2906 2969 
z
M 947 1747 
Q 947 1113 1208 752 
Q 1469 391 1925 391 
Q 2381 391 2643 752 
Q 2906 1113 2906 1747 
Q 2906 2381 2643 2742 
Q 2381 3103 1925 3103 
Q 1469 3103 1208 2742 
Q 947 2381 947 1747 
z
" transform="scale(0.015625)"/>
       <path id="DejaVuSans-75" d="M 544 1381 
L 544 3500 
L 1119 3500 
L 1119 1403 
Q 1119 906 1312 657 
Q 1506 409 1894 409 
Q 2359 409 2629 706 
Q 2900 1003 2900 1516 
L 2900 3500 
L 3475 3500 
L 3475 0 
L 2900 0 
L 2900 538 
Q 2691 219 2414 64 
Q 2138 -91 1772 -91 
Q 1169 -91 856 284 
Q 544 659 544 1381 
z
M 1991 3584 
L 1991 3584 
z
" transform="scale(0.015625)"/>
       <path id="DejaVuSans-63" d="M 3122 3366 
L 3122 2828 
Q 2878 2963 2633 3030 
Q 2388 3097 2138 3097 
Q 1578 3097 1268 2742 
Q 959 2388 959 1747 
Q 959 1106 1268 751 
Q 1578 397 2138 397 
Q 2388 397 2633 464 
Q 2878 531 3122 666 
L 3122 134 
Q 2881 22 2623 -34 
Q 2366 -91 2075 -91 
Q 1284 -91 818 406 
Q 353 903 353 1747 
Q 353 2603 823 3093 
Q 1294 3584 2113 3584 
Q 2378 3584 2631 3529 
Q 2884 3475 3122 3366 
z
" transform="scale(0.015625)"/>
       <path id="DejaVuSans-74" d="M 1172 4494 
L 1172 3500 
L 2356 3500 
L 2356 3053 
L 1172 3053 
L 1172 1153 
Q 1172 725 1289 603 
Q 1406 481 1766 481 
L 2356 481 
L 2356 0 
L 1766 0 
Q 1100 0 847 248 
Q 594 497 594 1153 
L 594 3053 
L 172 3053 
L 172 3500 
L 594 3500 
L 594 4494 
L 1172 4494 
z
" transform="scale(0.015625)"/>
       <path id="DejaVuSans-61" d="M 2194 1759 
Q 1497 1759 1228 1600 
Q 959 1441 959 1056 
Q 959 750 1161 570 
Q 1363 391 1709 391 
Q 2188 391 2477 730 
Q 2766 1069 2766 1631 
L 2766 1759 
L 2194 1759 
z
M 3341 1997 
L 3341 0 
L 2766 0 
L 2766 531 
Q 2569 213 2275 61 
Q 1981 -91 1556 -91 
Q 1019 -91 701 211 
Q 384 513 384 1019 
Q 384 1609 779 1909 
Q 1175 2209 1959 2209 
L 2766 2209 
L 2766 2266 
Q 2766 2663 2505 2880 
Q 2244 3097 1772 3097 
Q 1472 3097 1187 3025 
Q 903 2953 641 2809 
L 641 3341 
Q 956 3463 1253 3523 
Q 1550 3584 1831 3584 
Q 2591 3584 2966 3190 
Q 3341 2797 3341 1997 
z
" transform="scale(0.015625)"/>
       <path id="DejaVuSans-65" d="M 3597 1894 
L 3597 1613 
L 953 1613 
Q 991 1019 1311 708 
Q 1631 397 2203 397 
Q 2534 397 2845 478 
Q 3156 559 3463 722 
L 3463 178 
Q 3153 47 2828 -22 
Q 2503 -91 2169 -91 
Q 1331 -91 842 396 
Q 353 884 353 1716 
Q 353 2575 817 3079 
Q 1281 3584 2069 3584 
Q 2775 3584 3186 3129 
Q 3597 2675 3597 1894 
z
M 3022 2063 
Q 3016 2534 2758 2815 
Q 2500 3097 2075 3097 
Q 1594 3097 1305 2825 
Q 1016 2553 972 2059 
L 3022 2063 
z
" transform="scale(0.015625)"/>
       <path id="DejaVuSans-2c" d="M 750 794 
L 1409 794 
L 1409 256 
L 897 -744 
L 494 -744 
L 750 256 
L 750 794 
z
" transform="scale(0.015625)"/>
       <path id="DejaVuSans-20" transform="scale(0.015625)"/>
       <path id="DejaVuSans-Oblique-47" d="M 3494 697 
L 3738 1919 
L 2700 1919 
L 2797 2438 
L 4453 2438 
L 4050 384 
Q 3634 156 3143 32 
Q 2653 -91 2156 -91 
Q 1278 -91 783 396 
Q 288 884 288 1753 
Q 288 2475 589 3126 
Q 891 3778 1422 4213 
Q 1756 4484 2153 4617 
Q 2550 4750 3034 4750 
Q 3472 4750 3873 4639 
Q 4275 4528 4641 4306 
L 4513 3634 
Q 4231 3928 3853 4083 
Q 3475 4238 3047 4238 
Q 2550 4238 2172 4048 
Q 1794 3859 1497 3463 
Q 1244 3125 1098 2667 
Q 953 2209 953 1734 
Q 953 1081 1287 751 
Q 1622 422 2284 422 
Q 2616 422 2925 492 
Q 3234 563 3494 697 
z
" transform="scale(0.015625)"/>
       <path id="DejaVuSans-28" d="M 1984 4856 
Q 1566 4138 1362 3434 
Q 1159 2731 1159 2009 
Q 1159 1288 1364 580 
Q 1569 -128 1984 -844 
L 1484 -844 
Q 1016 -109 783 600 
Q 550 1309 550 2009 
Q 550 2706 781 3412 
Q 1013 4119 1484 4856 
L 1984 4856 
z
" transform="scale(0.015625)"/>
       <path id="DejaVuSans-3bc" d="M 544 -1331 
L 544 3500 
L 1119 3500 
L 1119 1325 
Q 1119 872 1334 640 
Q 1550 409 1972 409 
Q 2434 409 2667 671 
Q 2900 934 2900 1459 
L 2900 3500 
L 3475 3500 
L 3475 806 
Q 3475 619 3529 530 
Q 3584 441 3700 441 
Q 3728 441 3778 458 
Q 3828 475 3916 513 
L 3916 50 
Q 3788 -22 3673 -56 
Q 3559 -91 3450 -91 
Q 3234 -91 3106 31 
Q 2978 153 2931 403 
Q 2775 156 2548 32 
Q 2322 -91 2016 -91 
Q 1697 -91 1473 31 
Q 1250 153 1119 397 
L 1119 -1331 
L 544 -1331 
z
" transform="scale(0.015625)"/>
       <path id="DejaVuSans-53" d="M 3425 4513 
L 3425 3897 
Q 3066 4069 2747 4153 
Q 2428 4238 2131 4238 
Q 1616 4238 1336 4038 
Q 1056 3838 1056 3469 
Q 1056 3159 1242 3001 
Q 1428 2844 1947 2747 
L 2328 2669 
Q 3034 2534 3370 2195 
Q 3706 1856 3706 1288 
Q 3706 609 3251 259 
Q 2797 -91 1919 -91 
Q 1588 -91 1214 -16 
Q 841 59 441 206 
L 441 856 
Q 825 641 1194 531 
Q 1563 422 1919 422 
Q 2459 422 2753 634 
Q 3047 847 3047 1241 
Q 3047 1584 2836 1778 
Q 2625 1972 2144 2069 
L 1759 2144 
Q 1053 2284 737 2584 
Q 422 2884 422 3419 
Q 422 4038 858 4394 
Q 1294 4750 2059 4750 
Q 2388 4750 2728 4690 
Q 3069 4631 3425 4513 
z
" transform="scale(0.015625)"/>
       <path id="DejaVuSans-29" d="M 513 4856 
L 1013 4856 
Q 1481 4119 1714 3412 
Q 1947 2706 1947 2009 
Q 1947 1309 1714 600 
Q 1481 -109 1013 -844 
L 513 -844 
Q 928 -128 1133 580 
Q 1338 1288 1338 2009 
Q 1338 2731 1133 3434 
Q 928 4138 513 4856 
z
" transform="scale(0.015625)"/>
      </defs>
      <use xlink:href="#DejaVuSans-43" transform="translate(0 0.015625)"/>
      <use xlink:href="#DejaVuSans-6f" transform="translate(69.824219 0.015625)"/>
      <use xlink:href="#DejaVuSans-6e" transform="translate(131.005859 0.015625)"/>
      <use xlink:href="#DejaVuSans-64" transform="translate(194.384766 0.015625)"/>
      <use xlink:href="#DejaVuSans-75" transform="translate(257.861328 0.015625)"/>
      <use xlink:href="#DejaVuSans-63" transform="translate(321.240234 0.015625)"/>
      <use xlink:href="#DejaVuSans-74" transform="translate(376.220703 0.015625)"/>
      <use xlink:href="#DejaVuSans-61" transform="translate(415.429688 0.015625)"/>
      <use xlink:href="#DejaVuSans-6e" transform="translate(476.708984 0.015625)"/>
      <use xlink:href="#DejaVuSans-63" transform="translate(540.087891 0.015625)"/>
      <use xlink:href="#DejaVuSans-65" transform="translate(595.068359 0.015625)"/>
      <use xlink:href="#DejaVuSans-2c" transform="translate(656.591797 0.015625)"/>
      <use xlink:href="#DejaVuSans-20" transform="translate(688.378906 0.015625)"/>
      <use xlink:href="#DejaVuSans-Oblique-47" transform="translate(720.166016 0.015625)"/>
      <use xlink:href="#DejaVuSans-20" transform="translate(797.65625 0.015625)"/>
      <use xlink:href="#DejaVuSans-28" transform="translate(829.443359 0.015625)"/>
      <use xlink:href="#DejaVuSans-3bc" transform="translate(868.457031 0.015625)"/>
      <use xlink:href="#DejaVuSans-53" transform="translate(932.080078 0.015625)"/>
      <use xlink:href="#DejaVuSans-29" transform="translate(995.556641 0.015625)"/>
     </g>
    </g>
   </g>
   <g id="matplotlib.axis_2">
    <g id="ytick_1">
     <g id="line2d_6">
      <defs>
       <path id="mf2fb361bce" d="M 0 0 
L -3.5 0 
" style="stroke: #000000; stroke-width: 0.8"/>
      </defs>
      <g>
       <use xlink:href="#mf2fb361bce" x="36.403365" y="182.621635" style="stroke: #000000; stroke-width: 0.8"/>
      </g>
     </g>
     <g id="text_7">
      <!-- 0 -->
      <g transform="translate(23.040865 186.420854) scale(0.1 -0.1)">
       <use xlink:href="#DejaVuSans-30"/>
      </g>
     </g>
    </g>
    <g id="ytick_2">
     <g id="line2d_7">
      <g>
       <use xlink:href="#mf2fb361bce" x="36.403365" y="156.702242" style="stroke: #000000; stroke-width: 0.8"/>
      </g>
     </g>
     <g id="text_8">
      <!-- 10 -->
      <g transform="translate(16.678365 160.501461) scale(0.1 -0.1)">
       <use xlink:href="#DejaVuSans-31"/>
       <use xlink:href="#DejaVuSans-30" x="63.623047"/>
      </g>
     </g>
    </g>
    <g id="ytick_3">
     <g id="line2d_8">
      <g>
       <use xlink:href="#mf2fb361bce" x="36.403365" y="130.782849" style="stroke: #000000; stroke-width: 0.8"/>
      </g>
     </g>
     <g id="text_9">
      <!-- 20 -->
      <g transform="translate(16.678365 134.582067) scale(0.1 -0.1)">
       <use xlink:href="#DejaVuSans-32"/>
       <use xlink:href="#DejaVuSans-30" x="63.623047"/>
      </g>
     </g>
    </g>
    <g id="ytick_4">
     <g id="line2d_9">
      <g>
       <use xlink:href="#mf2fb361bce" x="36.403365" y="104.863455" style="stroke: #000000; stroke-width: 0.8"/>
      </g>
     </g>
     <g id="text_10">
      <!-- 30 -->
      <g transform="translate(16.678365 108.662674) scale(0.1 -0.1)">
       <use xlink:href="#DejaVuSans-33"/>
       <use xlink:href="#DejaVuSans-30" x="63.623047"/>
      </g>
     </g>
    </g>
    <g id="ytick_5">
     <g id="line2d_10">
      <g>
       <use xlink:href="#mf2fb361bce" x="36.403365" y="78.944062" style="stroke: #000000; stroke-width: 0.8"/>
      </g>
     </g>
     <g id="text_11">
      <!-- 40 -->
      <g transform="translate(16.678365 82.743281) scale(0.1 -0.1)">
       <defs>
        <path id="DejaVuSans-34" d="M 2419 4116 
L 825 1625 
L 2419 1625 
L 2419 4116 
z
M 2253 4666 
L 3047 4666 
L 3047 1625 
L 3713 1625 
L 3713 1100 
L 3047 1100 
L 3047 0 
L 2419 0 
L 2419 1100 
L 313 1100 
L 313 1709 
L 2253 4666 
z
" transform="scale(0.015625)"/>
       </defs>
       <use xlink:href="#DejaVuSans-34"/>
       <use xlink:href="#DejaVuSans-30" x="63.623047"/>
      </g>
     </g>
    </g>
    <g id="ytick_6">
     <g id="line2d_11">
      <g>
       <use xlink:href="#mf2fb361bce" x="36.403365" y="53.024669" style="stroke: #000000; stroke-width: 0.8"/>
      </g>
     </g>
     <g id="text_12">
      <!-- 50 -->
      <g transform="translate(16.678365 56.823888) scale(0.1 -0.1)">
       <use xlink:href="#DejaVuSans-35"/>
       <use xlink:href="#DejaVuSans-30" x="63.623047"/>
      </g>
     </g>
    </g>
    <g id="ytick_7">
     <g id="line2d_12">
      <g>
       <use xlink:href="#mf2fb361bce" x="36.403365" y="27.105276" style="stroke: #000000; stroke-width: 0.8"/>
      </g>
     </g>
     <g id="text_13">
      <!-- 60 -->
      <g transform="translate(16.678365 30.904494) scale(0.1 -0.1)">
       <defs>
        <path id="DejaVuSans-36" d="M 2113 2584 
Q 1688 2584 1439 2293 
Q 1191 2003 1191 1497 
Q 1191 994 1439 701 
Q 1688 409 2113 409 
Q 2538 409 2786 701 
Q 3034 994 3034 1497 
Q 3034 2003 2786 2293 
Q 2538 2584 2113 2584 
z
M 3366 4563 
L 3366 3988 
Q 3128 4100 2886 4159 
Q 2644 4219 2406 4219 
Q 1781 4219 1451 3797 
Q 1122 3375 1075 2522 
Q 1259 2794 1537 2939 
Q 1816 3084 2150 3084 
Q 2853 3084 3261 2657 
Q 3669 2231 3669 1497 
Q 3669 778 3244 343 
Q 2819 -91 2113 -91 
Q 1303 -91 875 529 
Q 447 1150 447 2328 
Q 447 3434 972 4092 
Q 1497 4750 2381 4750 
Q 2619 4750 2861 4703 
Q 3103 4656 3366 4563 
z
" transform="scale(0.015625)"/>
       </defs>
       <use xlink:href="#DejaVuSans-36"/>
       <use xlink:href="#DejaVuSans-30" x="63.623047"/>
      </g>
     </g>
    </g>
    <g id="text_14">
     <!-- Frequency (#) -->
     <g transform="translate(10.598678 128.321094) rotate(-90) scale(0.1 -0.1)">
      <defs>
       <path id="DejaVuSans-46" d="M 628 4666 
L 3309 4666 
L 3309 4134 
L 1259 4134 
L 1259 2759 
L 3109 2759 
L 3109 2228 
L 1259 2228 
L 1259 0 
L 628 0 
L 628 4666 
z
" transform="scale(0.015625)"/>
       <path id="DejaVuSans-72" d="M 2631 2963 
Q 2534 3019 2420 3045 
Q 2306 3072 2169 3072 
Q 1681 3072 1420 2755 
Q 1159 2438 1159 1844 
L 1159 0 
L 581 0 
L 581 3500 
L 1159 3500 
L 1159 2956 
Q 1341 3275 1631 3429 
Q 1922 3584 2338 3584 
Q 2397 3584 2469 3576 
Q 2541 3569 2628 3553 
L 2631 2963 
z
" transform="scale(0.015625)"/>
       <path id="DejaVuSans-71" d="M 947 1747 
Q 947 1113 1208 752 
Q 1469 391 1925 391 
Q 2381 391 2643 752 
Q 2906 1113 2906 1747 
Q 2906 2381 2643 2742 
Q 2381 3103 1925 3103 
Q 1469 3103 1208 2742 
Q 947 2381 947 1747 
z
M 2906 525 
Q 2725 213 2448 61 
Q 2172 -91 1784 -91 
Q 1150 -91 751 415 
Q 353 922 353 1747 
Q 353 2572 751 3078 
Q 1150 3584 1784 3584 
Q 2172 3584 2448 3432 
Q 2725 3281 2906 2969 
L 2906 3500 
L 3481 3500 
L 3481 -1331 
L 2906 -1331 
L 2906 525 
z
" transform="scale(0.015625)"/>
       <path id="DejaVuSans-79" d="M 2059 -325 
Q 1816 -950 1584 -1140 
Q 1353 -1331 966 -1331 
L 506 -1331 
L 506 -850 
L 844 -850 
Q 1081 -850 1212 -737 
Q 1344 -625 1503 -206 
L 1606 56 
L 191 3500 
L 800 3500 
L 1894 763 
L 2988 3500 
L 3597 3500 
L 2059 -325 
z
" transform="scale(0.015625)"/>
       <path id="DejaVuSans-23" d="M 3272 2816 
L 2363 2816 
L 2100 1772 
L 3016 1772 
L 3272 2816 
z
M 2803 4594 
L 2478 3297 
L 3391 3297 
L 3719 4594 
L 4219 4594 
L 3897 3297 
L 4872 3297 
L 4872 2816 
L 3775 2816 
L 3519 1772 
L 4513 1772 
L 4513 1294 
L 3397 1294 
L 3072 0 
L 2572 0 
L 2894 1294 
L 1978 1294 
L 1656 0 
L 1153 0 
L 1478 1294 
L 494 1294 
L 494 1772 
L 1594 1772 
L 1856 2816 
L 850 2816 
L 850 3297 
L 1978 3297 
L 2297 4594 
L 2803 4594 
z
" transform="scale(0.015625)"/>
      </defs>
      <use xlink:href="#DejaVuSans-46"/>
      <use xlink:href="#DejaVuSans-72" x="50.269531"/>
      <use xlink:href="#DejaVuSans-65" x="89.132812"/>
      <use xlink:href="#DejaVuSans-71" x="150.65625"/>
      <use xlink:href="#DejaVuSans-75" x="214.132812"/>
      <use xlink:href="#DejaVuSans-65" x="277.511719"/>
      <use xlink:href="#DejaVuSans-6e" x="339.035156"/>
      <use xlink:href="#DejaVuSans-63" x="402.414062"/>
      <use xlink:href="#DejaVuSans-79" x="457.394531"/>
      <use xlink:href="#DejaVuSans-20" x="516.574219"/>
      <use xlink:href="#DejaVuSans-28" x="548.361328"/>
      <use xlink:href="#DejaVuSans-23" x="587.375"/>
      <use xlink:href="#DejaVuSans-29" x="671.164062"/>
     </g>
    </g>
   </g>
   <g id="patch_163">
    <path d="M 36.403365 182.621635 
L 36.403365 3.00024 
" style="fill: none; stroke: #000000; stroke-width: 0.8; stroke-linejoin: miter; stroke-linecap: square"/>
   </g>
   <g id="patch_164">
    <path d="M 275.45601 182.621635 
L 275.45601 3.00024 
" style="fill: none; stroke: #000000; stroke-width: 0.8; stroke-linejoin: miter; stroke-linecap: square"/>
   </g>
   <g id="patch_165">
    <path d="M 36.403365 182.621635 
L 275.45601 182.621635 
" style="fill: none; stroke: #000000; stroke-width: 0.8; stroke-linejoin: miter; stroke-linecap: square"/>
   </g>
   <g id="patch_166">
    <path d="M 36.403365 3.00024 
L 275.45601 3.00024 
" style="fill: none; stroke: #000000; stroke-width: 0.8; stroke-linejoin: miter; stroke-linecap: square"/>
   </g>
   <g id="legend_1">
    <g id="patch_167">
     <path d="M 43.403365 85.454927 
L 143.003365 85.454927 
Q 145.003365 85.454927 145.003365 83.454927 
L 145.003365 10.00024 
Q 145.003365 8.00024 143.003365 8.00024 
L 43.403365 8.00024 
Q 41.403365 8.00024 41.403365 10.00024 
L 41.403365 83.454927 
Q 41.403365 85.454927 43.403365 85.454927 
z
" style="fill: #ffffff; opacity: 0.8; stroke: #cccccc; stroke-linejoin: miter"/>
    </g>
    <g id="text_15">
     <!--  $\mathit{G_{req}}$ -->
     <g transform="translate(81.753365 19.598678) scale(0.1 -0.1)">
      <defs>
       <path id="DejaVuSans-Oblique-72" d="M 2853 2969 
Q 2766 3016 2653 3041 
Q 2541 3066 2413 3066 
Q 1953 3066 1609 2717 
Q 1266 2369 1153 1784 
L 800 0 
L 225 0 
L 909 3500 
L 1484 3500 
L 1375 2956 
Q 1603 3259 1920 3421 
Q 2238 3584 2597 3584 
Q 2691 3584 2781 3573 
Q 2872 3563 2963 3538 
L 2853 2969 
z
" transform="scale(0.015625)"/>
       <path id="DejaVuSans-Oblique-65" d="M 3078 2063 
Q 3088 2113 3092 2166 
Q 3097 2219 3097 2272 
Q 3097 2653 2873 2875 
Q 2650 3097 2266 3097 
Q 1838 3097 1509 2826 
Q 1181 2556 1013 2059 
L 3078 2063 
z
M 3578 1613 
L 903 1613 
Q 884 1494 878 1425 
Q 872 1356 872 1306 
Q 872 872 1139 634 
Q 1406 397 1894 397 
Q 2269 397 2603 481 
Q 2938 566 3225 728 
L 3116 159 
Q 2806 34 2476 -28 
Q 2147 -91 1806 -91 
Q 1078 -91 686 257 
Q 294 606 294 1247 
Q 294 1794 489 2264 
Q 684 2734 1063 3103 
Q 1306 3334 1642 3459 
Q 1978 3584 2356 3584 
Q 2950 3584 3301 3228 
Q 3653 2872 3653 2272 
Q 3653 2128 3634 1964 
Q 3616 1800 3578 1613 
z
" transform="scale(0.015625)"/>
       <path id="DejaVuSans-Oblique-71" d="M 2669 525 
Q 2438 222 2123 65 
Q 1809 -91 1428 -91 
Q 897 -91 595 267 
Q 294 625 294 1253 
Q 294 1759 480 2231 
Q 666 2703 1013 3078 
Q 1238 3322 1530 3453 
Q 1822 3584 2144 3584 
Q 2531 3584 2781 3431 
Q 3031 3278 3144 2969 
L 3244 3494 
L 3822 3494 
L 2888 -1319 
L 2309 -1319 
L 2669 525 
z
M 891 1338 
Q 891 875 1084 633 
Q 1278 391 1644 391 
Q 2188 391 2572 911 
Q 2956 1431 2956 2175 
Q 2956 2625 2757 2864 
Q 2559 3103 2188 3103 
Q 1916 3103 1684 2976 
Q 1453 2850 1281 2606 
Q 1100 2350 995 2006 
Q 891 1663 891 1338 
z
" transform="scale(0.015625)"/>
      </defs>
      <use xlink:href="#DejaVuSans-20" transform="translate(0 0.78125)"/>
      <use xlink:href="#DejaVuSans-Oblique-47" transform="translate(31.787109 0.78125)"/>
      <use xlink:href="#DejaVuSans-Oblique-72" transform="translate(109.277344 -15.625) scale(0.7)"/>
      <use xlink:href="#DejaVuSans-Oblique-65" transform="translate(138.056641 -15.625) scale(0.7)"/>
      <use xlink:href="#DejaVuSans-Oblique-71" transform="translate(181.123047 -15.625) scale(0.7)"/>
     </g>
    </g>
    <g id="patch_168">
     <path d="M 45.403365 35.298677 
L 65.403365 35.298677 
L 65.403365 28.298677 
L 45.403365 28.298677 
z
" style="fill: #0000ff; fill-opacity: 0.5; stroke: #000000; stroke-linejoin: miter"/>
    </g>
    <g id="text_16">
     <!-- 133 μS ($\mathit{G_{OFF}}$) -->
     <g transform="translate(73.403365 35.298677) scale(0.1 -0.1)">
      <defs>
       <path id="DejaVuSans-Oblique-4f" d="M 2919 4238 
Q 2400 4238 2003 3986 
Q 1606 3734 1313 3219 
Q 1125 2891 1026 2522 
Q 928 2153 928 1778 
Q 928 1128 1239 775 
Q 1550 422 2119 422 
Q 2631 422 3032 676 
Q 3434 931 3719 1434 
Q 3909 1772 4009 2142 
Q 4109 2513 4109 2881 
Q 4109 3528 3796 3883 
Q 3484 4238 2919 4238 
z
M 2100 -91 
Q 1241 -91 748 418 
Q 256 928 256 1813 
Q 256 2319 448 2847 
Q 641 3375 978 3788 
Q 1375 4272 1862 4511 
Q 2350 4750 2938 4750 
Q 3794 4750 4287 4245 
Q 4781 3741 4781 2869 
Q 4781 2331 4593 1812 
Q 4406 1294 4056 872 
Q 3656 384 3173 146 
Q 2691 -91 2100 -91 
z
" transform="scale(0.015625)"/>
       <path id="DejaVuSans-Oblique-46" d="M 1081 4666 
L 3756 4666 
L 3653 4134 
L 1606 4134 
L 1338 2759 
L 3188 2759 
L 3084 2228 
L 1234 2228 
L 800 0 
L 172 0 
L 1081 4666 
z
" transform="scale(0.015625)"/>
      </defs>
      <use xlink:href="#DejaVuSans-31" transform="translate(0 0.125)"/>
      <use xlink:href="#DejaVuSans-33" transform="translate(63.623047 0.125)"/>
      <use xlink:href="#DejaVuSans-33" transform="translate(127.246094 0.125)"/>
      <use xlink:href="#DejaVuSans-20" transform="translate(190.869141 0.125)"/>
      <use xlink:href="#DejaVuSans-3bc" transform="translate(222.65625 0.125)"/>
      <use xlink:href="#DejaVuSans-53" transform="translate(286.279297 0.125)"/>
      <use xlink:href="#DejaVuSans-20" transform="translate(349.755859 0.125)"/>
      <use xlink:href="#DejaVuSans-28" transform="translate(381.542969 0.125)"/>
      <use xlink:href="#DejaVuSans-Oblique-47" transform="translate(420.556641 0.125)"/>
      <use xlink:href="#DejaVuSans-Oblique-4f" transform="translate(498.046875 -16.28125) scale(0.7)"/>
      <use xlink:href="#DejaVuSans-Oblique-46" transform="translate(553.144531 -16.28125) scale(0.7)"/>
      <use xlink:href="#DejaVuSans-Oblique-46" transform="translate(593.408203 -16.28125) scale(0.7)"/>
      <use xlink:href="#DejaVuSans-29" transform="translate(636.40625 0.125)"/>
     </g>
    </g>
    <g id="patch_169">
     <path d="M 45.403365 49.997115 
L 65.403365 49.997115 
L 65.403365 42.997115 
L 45.403365 42.997115 
z
" style="fill: #b2b2b2; fill-opacity: 0.5; stroke: #000000; stroke-linejoin: miter"/>
    </g>
    <g id="text_17">
     <!-- 167 μS -->
     <g transform="translate(73.403365 49.997115) scale(0.1 -0.1)">
      <defs>
       <path id="DejaVuSans-37" d="M 525 4666 
L 3525 4666 
L 3525 4397 
L 1831 0 
L 1172 0 
L 2766 4134 
L 525 4134 
L 525 4666 
z
" transform="scale(0.015625)"/>
      </defs>
      <use xlink:href="#DejaVuSans-31"/>
      <use xlink:href="#DejaVuSans-36" x="63.623047"/>
      <use xlink:href="#DejaVuSans-37" x="127.246094"/>
      <use xlink:href="#DejaVuSans-20" x="190.869141"/>
      <use xlink:href="#DejaVuSans-3bc" x="222.65625"/>
      <use xlink:href="#DejaVuSans-53" x="286.279297"/>
     </g>
    </g>
    <g id="patch_170">
     <path d="M 45.403365 64.67524 
L 65.403365 64.67524 
L 65.403365 57.67524 
L 45.403365 57.67524 
z
" style="fill: #b2b2b2; fill-opacity: 0.5; stroke: #000000; stroke-linejoin: miter"/>
    </g>
    <g id="text_18">
     <!-- 200 μS -->
     <g transform="translate(73.403365 64.67524) scale(0.1 -0.1)">
      <use xlink:href="#DejaVuSans-32"/>
      <use xlink:href="#DejaVuSans-30" x="63.623047"/>
      <use xlink:href="#DejaVuSans-30" x="127.246094"/>
      <use xlink:href="#DejaVuSans-20" x="190.869141"/>
      <use xlink:href="#DejaVuSans-3bc" x="222.65625"/>
      <use xlink:href="#DejaVuSans-53" x="286.279297"/>
     </g>
    </g>
    <g id="patch_171">
     <path d="M 45.403365 79.354928 
L 65.403365 79.354928 
L 65.403365 72.354928 
L 45.403365 72.354928 
z
" style="fill: #ff0000; fill-opacity: 0.5; stroke: #000000; stroke-linejoin: miter"/>
    </g>
    <g id="text_19">
     <!-- 233 μS ($\mathit{G_{ON}}$) -->
     <g transform="translate(73.403365 79.354928) scale(0.1 -0.1)">
      <defs>
       <path id="DejaVuSans-Oblique-4e" d="M 1081 4666 
L 1931 4666 
L 3219 666 
L 4000 4666 
L 4616 4666 
L 3706 0 
L 2853 0 
L 1569 4025 
L 788 0 
L 172 0 
L 1081 4666 
z
" transform="scale(0.015625)"/>
      </defs>
      <use xlink:href="#DejaVuSans-32" transform="translate(0 0.125)"/>
      <use xlink:href="#DejaVuSans-33" transform="translate(63.623047 0.125)"/>
      <use xlink:href="#DejaVuSans-33" transform="translate(127.246094 0.125)"/>
      <use xlink:href="#DejaVuSans-20" transform="translate(190.869141 0.125)"/>
      <use xlink:href="#DejaVuSans-3bc" transform="translate(222.65625 0.125)"/>
      <use xlink:href="#DejaVuSans-53" transform="translate(286.279297 0.125)"/>
      <use xlink:href="#DejaVuSans-20" transform="translate(349.755859 0.125)"/>
      <use xlink:href="#DejaVuSans-28" transform="translate(381.542969 0.125)"/>
      <use xlink:href="#DejaVuSans-Oblique-47" transform="translate(420.556641 0.125)"/>
      <use xlink:href="#DejaVuSans-Oblique-4f" transform="translate(498.046875 -16.28125) scale(0.7)"/>
      <use xlink:href="#DejaVuSans-Oblique-4e" transform="translate(553.144531 -16.28125) scale(0.7)"/>
      <use xlink:href="#DejaVuSans-29" transform="translate(608.242188 0.125)"/>
     </g>
    </g>
   </g>
  </g>
 </g>
 <defs>
  <clipPath id="p9e9537bae9">
   <rect x="36.403365" y="3.00024" width="239.052645" height="179.621395"/>
  </clipPath>
 </defs>
</svg>
